<?xml version="1.0" encoding="utf-8"?>
<!-- Generator: Adobe Illustrator 23.0.5, SVG Export Plug-In . SVG Version: 6.00 Build 0)  -->
<svg version="1.1" id="Layer_2" xmlns="http://www.w3.org/2000/svg" xmlns:xlink="http://www.w3.org/1999/xlink" x="0px" y="0px"
	 viewBox="0 0 2340 1560" style="enable-background:new 0 0 2340 1560;" xml:space="preserve">
<style type="text/css">
	.st0{clip-path:url(#SVGID_2_);}
	.st1{fill:#152F46;}
	.st2{opacity:0.3;fill:#19354D;}
	.st3{fill:#051630;}
	.st4{fill:#C8F2FE;}
	.st5{fill:#0F2034;}
	.st6{fill:#E687A9;}
	.st7{fill:#FD8F8E;}
	.st8{fill:#202135;}
	.st9{fill:#274964;}
	.st10{fill:#1A364E;}
	.st11{fill:none;stroke:#FFFFFF;stroke-width:8;stroke-miterlimit:10;}
	.st12{fill:#171926;}
	.st13{fill:#FFFFFF;}
	.st14{fill:none;stroke:#C8F2FE;stroke-width:5.2986;stroke-miterlimit:10;}
	.st15{opacity:0.5;fill:#C8F2FE;}
	.st16{fill:#1C2340;}
	.st17{opacity:0.82;}
	.st18{fill:#3CDFF0;}
	.st19{fill:#FFFFFF;stroke:#231F20;stroke-width:1.085;stroke-miterlimit:10;}
	.st20{fill:#FFFFFF;stroke:#231F20;stroke-width:1.1592;stroke-miterlimit:10;}
	.st21{fill:#114B79;}
	.st22{fill:#1D6E83;}
	.st23{opacity:0.21;fill:#1D6E83;}
	.st24{opacity:0.5;fill:#1D6E83;}
	.st25{fill:none;stroke:#114B79;stroke-width:3.2626;stroke-miterlimit:10;}
	.st26{fill:url(#SVGID_3_);}
	.st27{fill:none;stroke:#F9F4F5;stroke-width:8;stroke-linecap:round;stroke-miterlimit:10;}
	.st28{fill:none;stroke:#C8F2FE;stroke-miterlimit:10;}
</style>
<g>
	<defs>
		<rect id="SVGID_1_" x="2.34" y="-9.59" width="2344.99" height="1569.58"/>
	</defs>
	<clipPath id="SVGID_2_">
		<use xlink:href="#SVGID_1_"  style="overflow:visible;"/>
	</clipPath>
	<g class="st0">
		<rect x="-13.78" class="st1" width="2353.78" height="1560"/>
		<polygon class="st2" points="-178.52,474.11 621.46,-283 1068.26,-90.14 2396.83,1768.11 -240.14,419.7 		"/>
		<polyline class="st2" points="2021.25,-170.39 2791.57,-87.57 1155,1979.86 		"/>
		<circle class="st3" cx="1188.73" cy="844.04" r="828.36"/>
		<circle class="st3" cx="1230.02" cy="846.17" r="828.36"/>
		<path class="st4" d="M1625.13,1205.56H768.12V846.27c0-74.31,60.24-134.55,134.55-134.55h587.91
			c74.31,0,134.55,60.24,134.55,134.55V1205.56z"/>
		<path class="st5" d="M1625.13,1214.24H758.47V855.7c0-74.73,60.58-135.31,135.31-135.31h596.04
			c74.73,0,135.31,60.58,135.31,135.31V1214.24z"/>
		<path class="st4" d="M1385.05,688.04h-378.2V497.86c0-35.43,28.72-64.14,64.14-64.14h249.92c35.43,0,64.14,28.72,64.14,64.14
			V688.04z"/>
		<path class="st5" d="M1385.05,687.89h-386.5V505.82c0-35.21,28.54-63.75,63.75-63.75h259c35.21,0,63.75,28.54,63.75,63.75V687.89z
			"/>
		<rect x="1120.9" y="723.5" class="st6" width="128.43" height="116.2"/>
		<polygon class="st7" points="1249.33,781.6 1148.4,839.7 1120.9,839.7 1120.9,754.61 		"/>
		<path class="st4" d="M1891.23,1230.28l-1106.56,20.06l-310.87-18.06c0,0,107.33-278.82,401.55-389.15
			c0,0,123.88-103.56,217.49-59.26c10.62,5.03,20.85,11.96,30.46,21.15c0,0,99.93,56.16,159.14-12.04c0,0,20.83-9.16,49.92-14.8
			c42.95-8.32,103.91-8.96,142.52,38.87c0,0,405.25,198.59,408.95,322.96L1891.23,1230.28z"/>
		<path class="st8" d="M1879.33,1236.45l-1106.56,20.06l-310.87-18.06c0,0,107.33-278.82,401.55-389.15
			c0,0,123.88-103.56,217.49-59.26c10.62,5.03,20.85,11.96,30.46,21.15c0,0,99.93,56.16,159.14-12.04c0,0,20.83-9.16,49.92-14.8
			c42.95-8.32,103.91-8.96,142.52,38.87c0,0,405.25,198.59,408.95,322.96L1879.33,1236.45z"/>
		<path class="st9" d="M2371.23,1560H-13.78v-514.43l856.58,144.49c220.09,37.12,444.91,37.23,665.04,0.31l863.38-144.8V1560z"/>
		<g>
			<g>
				<g>
					<path class="st4" d="M1267.81,1306.14h-52.21c-7.95,0-14.4-6.45-14.4-14.4v-33.4c0-7.95,6.45-14.4,14.4-14.4h52.21
						c7.95,0,14.4,6.45,14.4,14.4v33.4C1282.21,1299.69,1275.76,1306.14,1267.81,1306.14z"/>
				</g>
				<g>
					<path class="st4" d="M1375.31,1306.14h-52.21c-7.95,0-15.13-6.71-16.03-14.99l-3.8-34.78c-0.9-8.28,4.81-14.99,12.76-14.99
						h52.21c7.95,0,15.13,6.71,16.03,14.99l3.8,34.78C1388.98,1299.42,1383.26,1306.14,1375.31,1306.14z"/>
				</g>
				<g>
					<path class="st4" d="M1393.75,1383.28h-56.12c-8.55,0-16.26-6.71-17.23-14.99l-4.08-34.78c-0.97-8.28,5.17-14.99,13.72-14.99
						h56.12c8.55,0,16.26,6.71,17.23,14.99l4.08,34.78C1408.44,1376.57,1402.3,1383.28,1393.75,1383.28z"/>
				</g>
				<g>
					<path class="st4" d="M1409.78,1456.97h-58.88c-8.97,0-17.06-6.71-18.08-14.99l-4.28-34.78c-1.02-8.28,5.42-14.99,14.39-14.99
						h58.88c8.97,0,17.06,6.71,18.08,14.99l4.28,34.78C1425.19,1450.26,1418.75,1456.97,1409.78,1456.97z"/>
				</g>
				<g>
					<path class="st4" d="M1424.14,1537.56h-63.22c-9.63,0-18.32-6.71-19.42-14.99l-4.6-34.78c-1.09-8.28,5.82-14.99,15.45-14.99
						h63.22c9.63,0,18.32,6.71,19.42,14.99l4.6,34.78C1440.69,1530.85,1433.77,1537.56,1424.14,1537.56z"/>
				</g>
				<g>
					<path class="st4" d="M1277.01,1383.28h-62.73c-8.55,0-15.48-6.93-15.48-15.48v-31.22c0-8.55,6.93-15.48,15.48-15.48h62.73
						c8.55,0,15.48,6.93,15.48,15.48v31.22C1292.49,1376.35,1285.56,1383.28,1277.01,1383.28z"/>
				</g>
				<g>
					<path class="st4" d="M1286.47,1460.42h-71.36c-9.01,0-16.31-7.3-16.31-16.31v-29.57c0-9.01,7.3-16.31,16.31-16.31h71.36
						c9.01,0,16.31,7.3,16.31,16.31v29.57C1302.78,1453.12,1295.48,1460.42,1286.47,1460.42z"/>
				</g>
				<g>
					<path class="st4" d="M1295.97,1537.56h-80.07c-9.44,0-17.1-7.66-17.1-17.1v-27.99c0-9.44,7.66-17.1,17.1-17.1h80.07
						c9.44,0,17.1,7.66,17.1,17.1v27.99C1313.07,1529.91,1305.41,1537.56,1295.97,1537.56z"/>
				</g>
				<g>
					<path class="st4" d="M1474.16,1304.07h-52.21c-7.95,0-14.69-6.43-15.04-14.36l-1.5-33.32c-0.36-7.93,5.8-14.36,13.75-14.36
						h52.21c7.95,0,14.69,6.43,15.04,14.36l1.5,33.32C1488.27,1297.64,1482.12,1304.07,1474.16,1304.07z"/>
				</g>
				<g>
					<path class="st4" d="M1504.16,1378.64h-62.73c-8.55,0-15.8-6.92-16.18-15.45l-1.4-31.15c-0.38-8.53,6.24-15.45,14.79-15.45
						h62.73c8.55,0,15.8,6.92,16.18,15.45l1.4,31.15C1519.33,1371.72,1512.71,1378.64,1504.16,1378.64z"/>
				</g>
				<g>
					<path class="st4" d="M1539.39,1453.2h-71.36c-9.01,0-16.64-7.29-17.04-16.28l-1.33-29.5c-0.4-8.99,6.57-16.28,15.58-16.28
						h71.36c9.01,0,16.64,7.29,17.04,16.28l1.33,29.5C1555.37,1445.92,1548.4,1453.2,1539.39,1453.2z"/>
				</g>
				<g>
					<path class="st4" d="M1566.38,1527.77h-80.07c-9.44,0-17.44-7.64-17.87-17.06l-1.26-27.93c-0.42-9.42,6.89-17.06,16.33-17.06
						h80.07c9.44,0,17.44,7.64,17.87,17.06l1.26,27.93C1583.14,1520.13,1575.83,1527.77,1566.38,1527.77z"/>
				</g>
				<g>
					<path class="st4" d="M1605.09,1294.4h-61.51c-9.37,0-17.5-6.33-18.17-14.14l-2.8-32.8c-0.67-7.81,6.39-14.14,15.76-14.14h61.51
						c9.37,0,17.5,6.33,18.17,14.14l2.8,32.8C1621.51,1288.07,1614.46,1294.4,1605.09,1294.4z"/>
				</g>
				<g>
					<path class="st4" d="M1642.73,1367.79h-73.9c-10.08,0-18.82-6.81-19.54-15.21l-2.61-30.66c-0.72-8.4,6.87-15.21,16.95-15.21
						h73.9c10.08,0,18.82,6.81,19.54,15.21l2.61,30.66C1660.39,1360.98,1652.81,1367.79,1642.73,1367.79z"/>
				</g>
				<g>
					<path class="st4" d="M1686.55,1441.19h-84.07c-10.61,0-19.83-7.17-20.58-16.02l-2.48-29.04c-0.75-8.85,7.24-16.02,17.85-16.02
						h84.07c10.61,0,19.83,7.17,20.58,16.02l2.48,29.04C1705.15,1434.01,1697.16,1441.19,1686.55,1441.19z"/>
				</g>
				<g>
					<path class="st4" d="M1720.66,1514.58h-94.33c-11.13,0-20.79-7.52-21.58-16.79l-2.34-27.49c-0.79-9.27,7.59-16.79,18.71-16.79
						h94.33c11.13,0,20.79,7.52,21.58,16.79l2.34,27.49C1740.17,1507.06,1731.79,1514.58,1720.66,1514.58z"/>
				</g>
				<g>
					<path class="st4" d="M1724.72,1283.52h-61.51c-9.37,0-19-5.87-21.52-13.1l-10.56-30.4c-2.51-7.24,3.04-13.1,12.41-13.1h61.51
						c9.37,0,19,5.87,21.52,13.1l10.56,30.4C1739.65,1277.65,1734.09,1283.52,1724.72,1283.52z"/>
				</g>
				<g>
					<path class="st4" d="M1779.74,1351.55h-73.9c-10.08,0-20.44-6.31-23.14-14.09l-9.87-28.42c-2.7-7.78,3.27-14.09,13.35-14.09
						h73.9c10.08,0,20.44,6.31,23.14,14.09l9.87,28.42C1795.79,1345.24,1789.82,1351.55,1779.74,1351.55z"/>
				</g>
				<g>
					<path class="st4" d="M1840.93,1419.58h-84.07c-10.61,0-21.53-6.65-24.38-14.85l-9.35-26.91c-2.85-8.2,3.45-14.85,14.06-14.85
						h84.07c10.61,0,21.53,6.65,24.38,14.85l9.35,26.91C1857.84,1412.93,1851.55,1419.58,1840.93,1419.58z"/>
				</g>
				<g>
					<path class="st4" d="M1892.42,1487.6h-94.33c-11.13,0-22.57-6.97-25.55-15.57l-8.85-25.48c-2.99-8.6,3.61-15.56,14.74-15.56
						h94.33c11.13,0,22.57,6.97,25.55,15.56l8.85,25.48C1910.15,1480.64,1903.55,1487.6,1892.42,1487.6z"/>
				</g>
				<g>
					<path class="st4" d="M1846.44,1265.59l-61.46,2.41c-9.36,0.37-20.14-5.31-24.07-12.67l-16.51-30.94
						c-3.93-7.37,0.47-13.63,9.83-14l61.46-2.41c9.36-0.37,20.14,5.31,24.07,12.67l16.51,30.94
						C1860.2,1258.95,1855.8,1265.22,1846.44,1265.59z"/>
				</g>
				<g>
					<path class="st4" d="M1914.74,1333.59l-73.85,2.89c-10.07,0.39-21.66-5.71-25.88-13.63l-15.43-28.92
						c-4.23-7.92,0.51-14.66,10.58-15.06l73.85-2.89c10.07-0.39,21.66,5.71,25.88,13.63l15.43,28.92
						C1929.55,1326.45,1924.81,1333.19,1914.74,1333.59z"/>
				</g>
				<g>
					<path class="st4" d="M1989.21,1401.34l-84.01,3.29c-10.61,0.42-22.81-6.01-27.27-14.36l-14.62-27.39
						c-4.45-8.34,0.53-15.45,11.14-15.86l84.01-3.29c10.61-0.42,22.81,6.01,27.27,14.36l14.62,27.39
						C2004.81,1393.83,1999.82,1400.93,1989.21,1401.34z"/>
				</g>
				<g>
					<path class="st4" d="M2053.99,1469.48l-94.26,3.69c-11.12,0.44-23.92-6.3-28.58-15.05l-13.84-25.93
						c-4.67-8.75,0.56-16.19,11.68-16.63l94.26-3.69c11.12-0.44,23.92,6.3,28.58,15.05l13.84,25.93
						C2070.33,1461.6,2065.1,1469.05,2053.99,1469.48z"/>
				</g>
				<g>
					<path class="st4" d="M1989.96,1244.47l-61.25,5.58c-9.33,0.85-20.35-3.94-24.62-10.7l-17.93-28.39
						c-4.27-6.76-0.17-12.93,9.16-13.78l61.25-5.58c9.33-0.85,20.35,3.94,24.62,10.7l17.93,28.39
						C2003.4,1237.45,1999.29,1243.62,1989.96,1244.47z"/>
				</g>
				<g>
					<path class="st4" d="M2061.35,1305.16l-73.6,6.7c-10.03,0.91-21.89-4.24-26.48-11.51l-16.77-26.55
						c-4.59-7.27-0.18-13.9,9.85-14.82l73.6-6.7c10.03-0.91,21.89,4.24,26.48,11.51l16.77,26.55
						C2075.79,1297.62,2071.38,1304.25,2061.35,1305.16z"/>
				</g>
				<g>
					<path class="st4" d="M2138.88,1365.3l-83.72,7.62c-10.57,0.96-23.06-4.47-27.9-12.13l-15.88-25.14
						c-4.84-7.66-0.19-14.65,10.38-15.61l83.72-7.62c10.57-0.96,23.06,4.47,27.9,12.13l15.88,25.14
						C2154.1,1357.35,2149.45,1364.34,2138.88,1365.3z"/>
				</g>
				<g>
					<path class="st4" d="M2206.74,1426.31l-93.94,8.55c-11.08,1.01-24.17-4.68-29.25-12.71l-15.03-23.8
						c-5.07-8.03-0.2-15.36,10.88-16.36l93.94-8.55c11.08-1.01,24.17,4.68,29.25,12.71l15.03,23.8
						C2222.7,1417.98,2217.83,1425.3,2206.74,1426.31z"/>
				</g>
				<g>
					<path class="st4" d="M1110.62,1306.14h52.21c7.95,0,14.4-6.45,14.4-14.4v-33.4c0-7.95-6.45-14.4-14.4-14.4h-52.21
						c-7.95,0-14.4,6.45-14.4,14.4v33.4C1096.22,1299.69,1102.67,1306.14,1110.62,1306.14z"/>
				</g>
				<g>
					<path class="st4" d="M1003.12,1306.14h52.21c7.95,0,15.13-6.71,16.03-14.99l3.8-34.78c0.9-8.28-4.81-14.99-12.76-14.99h-52.21
						c-7.95,0-15.13,6.71-16.03,14.99l-3.8,34.78C989.46,1299.42,995.17,1306.14,1003.12,1306.14z"/>
				</g>
				<g>
					<path class="st4" d="M984.68,1383.28h56.12c8.55,0,16.26-6.71,17.23-14.99l4.08-34.78c0.97-8.28-5.17-14.99-13.72-14.99h-56.12
						c-8.55,0-16.26,6.71-17.23,14.99l-4.08,34.78C970,1376.57,976.14,1383.28,984.68,1383.28z"/>
				</g>
				<g>
					<path class="st4" d="M968.65,1456.97h58.88c8.97,0,17.06-6.71,18.08-14.99l4.28-34.78c1.02-8.28-5.42-14.99-14.39-14.99h-58.88
						c-8.97,0-17.06,6.71-18.08,14.99l-4.28,34.78C953.24,1450.26,959.68,1456.97,968.65,1456.97z"/>
				</g>
				<g>
					<path class="st4" d="M954.29,1537.56h63.22c9.63,0,18.32-6.71,19.42-14.99l4.6-34.78c1.09-8.28-5.82-14.99-15.45-14.99h-63.22
						c-9.63,0-18.32,6.71-19.42,14.99l-4.6,34.78C937.74,1530.85,944.66,1537.56,954.29,1537.56z"/>
				</g>
				<g>
					<path class="st4" d="M1101.42,1383.28h62.73c8.55,0,15.48-6.93,15.48-15.48v-31.22c0-8.55-6.93-15.48-15.48-15.48h-62.73
						c-8.55,0-15.48,6.93-15.48,15.48v31.22C1085.94,1376.35,1092.87,1383.28,1101.42,1383.28z"/>
				</g>
				<g>
					<path class="st4" d="M1091.97,1460.42h71.36c9.01,0,16.31-7.3,16.31-16.31v-29.57c0-9.01-7.3-16.31-16.31-16.31h-71.36
						c-9.01,0-16.31,7.3-16.31,16.31v29.57C1075.65,1453.12,1082.96,1460.42,1091.97,1460.42z"/>
				</g>
				<g>
					<path class="st4" d="M1082.47,1537.56h80.07c9.44,0,17.1-7.66,17.1-17.1v-27.99c0-9.44-7.66-17.1-17.1-17.1h-80.07
						c-9.44,0-17.1,7.66-17.1,17.1v27.99C1065.37,1529.91,1073.02,1537.56,1082.47,1537.56z"/>
				</g>
				<g>
					<path class="st4" d="M904.27,1304.07h52.21c7.95,0,14.69-6.43,15.04-14.36l1.5-33.32c0.36-7.93-5.8-14.36-13.75-14.36h-52.21
						c-7.95,0-14.69,6.43-15.04,14.36l-1.5,33.32C890.16,1297.64,896.32,1304.07,904.27,1304.07z"/>
				</g>
				<g>
					<path class="st4" d="M874.28,1378.64H937c8.55,0,15.8-6.92,16.18-15.45l1.4-31.15c0.38-8.53-6.24-15.45-14.79-15.45h-62.73
						c-8.55,0-15.8,6.92-16.18,15.45l-1.4,31.15C859.1,1371.72,865.72,1378.64,874.28,1378.64z"/>
				</g>
				<g>
					<path class="st4" d="M839.04,1453.2h71.36c9.01,0,16.64-7.29,17.04-16.28l1.33-29.5c0.4-8.99-6.57-16.28-15.58-16.28h-71.36
						c-9.01,0-16.64,7.29-17.04,16.28l-1.33,29.5C823.06,1445.92,830.04,1453.2,839.04,1453.2z"/>
				</g>
				<g>
					<path class="st4" d="M812.05,1527.77h80.07c9.44,0,17.44-7.64,17.87-17.06l1.26-27.93c0.42-9.42-6.89-17.06-16.33-17.06h-80.07
						c-9.44,0-17.44,7.64-17.87,17.06l-1.26,27.93C795.29,1520.13,802.6,1527.77,812.05,1527.77z"/>
				</g>
				<g>
					<path class="st4" d="M773.34,1294.4h61.51c9.37,0,17.5-6.33,18.17-14.14l2.8-32.8c0.67-7.81-6.39-14.14-15.76-14.14h-61.51
						c-9.37,0-17.5,6.33-18.17,14.14l-2.8,32.8C756.92,1288.07,763.97,1294.4,773.34,1294.4z"/>
				</g>
				<g>
					<path class="st4" d="M735.7,1367.79h73.9c10.08,0,18.82-6.81,19.54-15.21l2.61-30.66c0.72-8.4-6.87-15.21-16.95-15.21h-73.9
						c-10.08,0-18.82,6.81-19.54,15.21l-2.62,30.66C718.04,1360.98,725.62,1367.79,735.7,1367.79z"/>
				</g>
				<g>
					<path class="st4" d="M691.89,1441.19h84.07c10.61,0,19.83-7.17,20.58-16.02l2.48-29.04c0.75-8.85-7.24-16.02-17.85-16.02
						h-84.07c-10.61,0-19.83,7.17-20.58,16.02l-2.48,29.04C673.28,1434.01,681.27,1441.19,691.89,1441.19z"/>
				</g>
				<g>
					<path class="st4" d="M657.77,1514.58h94.33c11.13,0,20.79-7.52,21.58-16.79l2.34-27.49c0.79-9.27-7.59-16.79-18.71-16.79
						h-94.33c-11.13,0-20.79,7.52-21.58,16.79l-2.34,27.49C638.27,1507.06,646.65,1514.58,657.77,1514.58z"/>
				</g>
				<g>
					<path class="st4" d="M653.71,1283.52h61.51c9.37,0,19-5.87,21.52-13.1l10.56-30.4c2.51-7.24-3.04-13.1-12.41-13.1h-61.51
						c-9.37,0-19,5.87-21.52,13.1l-10.56,30.4C638.79,1277.65,644.34,1283.52,653.71,1283.52z"/>
				</g>
				<g>
					<path class="st4" d="M598.69,1351.55h73.9c10.08,0,20.44-6.31,23.14-14.09l9.87-28.42c2.7-7.78-3.27-14.09-13.35-14.09h-73.9
						c-10.08,0-20.44,6.31-23.14,14.09l-9.87,28.42C582.64,1345.24,588.62,1351.55,598.69,1351.55z"/>
				</g>
				<g>
					<path class="st4" d="M537.5,1419.58h84.07c10.61,0,21.53-6.65,24.38-14.85l9.35-26.91c2.85-8.2-3.45-14.85-14.06-14.85h-84.07
						c-10.61,0-21.53,6.65-24.38,14.85l-9.35,26.91C520.59,1412.93,526.89,1419.58,537.5,1419.58z"/>
				</g>
				<g>
					<path class="st4" d="M486.01,1487.6h94.33c11.13,0,22.57-6.97,25.55-15.57l8.85-25.48c2.99-8.6-3.61-15.56-14.74-15.56h-94.33
						c-11.13,0-22.57,6.97-25.55,15.56l-8.85,25.48C468.29,1480.64,474.88,1487.6,486.01,1487.6z"/>
				</g>
				<g>
					<path class="st4" d="M531.99,1265.59l61.46,2.41c9.36,0.37,20.14-5.31,24.07-12.67l16.51-30.94c3.93-7.37-0.47-13.63-9.83-14
						l-61.46-2.41c-9.36-0.37-20.14,5.31-24.07,12.67l-16.51,30.94C518.23,1258.95,522.63,1265.22,531.99,1265.59z"/>
				</g>
				<g>
					<path class="st4" d="M463.69,1333.59l73.85,2.89c10.07,0.39,21.66-5.71,25.88-13.63l15.43-28.92
						c4.23-7.92-0.51-14.66-10.58-15.06l-73.85-2.89c-10.07-0.39-21.66,5.71-25.88,13.63l-15.43,28.92
						C448.89,1326.45,453.62,1333.19,463.69,1333.59z"/>
				</g>
				<g>
					<path class="st4" d="M389.22,1401.34l84.01,3.29c10.61,0.42,22.81-6.01,27.27-14.36l14.62-27.39
						c4.45-8.34-0.53-15.45-11.14-15.86l-84.01-3.29c-10.61-0.42-22.81,6.01-27.27,14.36l-14.62,27.39
						C373.63,1393.83,378.61,1400.93,389.22,1401.34z"/>
				</g>
				<g>
					<path class="st4" d="M324.45,1469.48l94.26,3.69c11.12,0.44,23.92-6.3,28.58-15.05l13.84-25.93
						c4.67-8.75-0.56-16.19-11.68-16.63l-94.26-3.69c-11.12-0.44-23.92,6.3-28.58,15.05l-13.84,25.93
						C308.1,1461.6,313.33,1469.05,324.45,1469.48z"/>
				</g>
				<g>
					<path class="st4" d="M388.47,1244.47l61.25,5.58c9.33,0.85,20.35-3.94,24.62-10.7l17.93-28.39c4.27-6.76,0.17-12.93-9.16-13.78
						l-61.25-5.58c-9.33-0.85-20.35,3.94-24.62,10.7l-17.93,28.39C375.04,1237.45,379.14,1243.62,388.47,1244.47z"/>
				</g>
				<g>
					<path class="st4" d="M317.09,1305.16l73.6,6.7c10.03,0.91,21.89-4.24,26.48-11.51l16.77-26.55c4.59-7.27,0.18-13.9-9.85-14.82
						l-73.6-6.7c-10.03-0.91-21.89,4.24-26.48,11.51l-16.77,26.55C302.64,1297.62,307.05,1304.25,317.09,1305.16z"/>
				</g>
				<g>
					<path class="st4" d="M239.56,1365.3l83.72,7.62c10.57,0.96,23.06-4.47,27.9-12.13l15.88-25.14
						c4.84-7.66,0.19-14.65-10.38-15.61l-83.72-7.62c-10.57-0.96-23.06,4.47-27.9,12.13l-15.88,25.14
						C224.34,1357.35,228.99,1364.34,239.56,1365.3z"/>
				</g>
				<g>
					<path class="st4" d="M171.69,1426.31l93.94,8.55c11.08,1.01,24.17-4.68,29.25-12.71l15.03-23.8
						c5.07-8.03,0.2-15.36-10.88-16.36l-93.94-8.55c-11.08-1.01-24.17,4.68-29.25,12.71l-15.03,23.8
						C155.74,1417.98,160.61,1425.3,171.69,1426.31z"/>
				</g>
			</g>
		</g>
		<g>
			<g>
				<g>
					<path class="st10" d="M1253.8,1311.57h-52.21c-7.95,0-14.4-6.45-14.4-14.4v-33.4c0-7.95,6.45-14.4,14.4-14.4h52.21
						c7.95,0,14.4,6.45,14.4,14.4v33.4C1268.2,1305.12,1261.75,1311.57,1253.8,1311.57z"/>
				</g>
				<g>
					<path class="st10" d="M1361.3,1311.57h-52.21c-7.95,0-15.13-6.71-16.03-14.99l-3.8-34.78c-0.9-8.28,4.81-14.99,12.76-14.99
						h52.21c7.95,0,15.13,6.71,16.03,14.99l3.8,34.78C1374.97,1304.86,1369.25,1311.57,1361.3,1311.57z"/>
				</g>
				<g>
					<path class="st10" d="M1379.74,1388.71h-56.12c-8.55,0-16.26-6.71-17.23-14.99l-4.08-34.78c-0.97-8.28,5.17-14.99,13.72-14.99
						h56.12c8.55,0,16.26,6.71,17.23,14.99l4.08,34.78C1394.43,1382,1388.29,1388.71,1379.74,1388.71z"/>
				</g>
				<g>
					<path class="st10" d="M1395.77,1462.4h-58.88c-8.97,0-17.06-6.71-18.08-14.99l-4.28-34.78c-1.02-8.28,5.42-14.99,14.39-14.99
						h58.88c8.97,0,17.06,6.71,18.08,14.99l4.28,34.78C1411.18,1455.69,1404.74,1462.4,1395.77,1462.4z"/>
				</g>
				<g>
					<path class="st10" d="M1410.13,1543h-63.22c-9.63,0-18.32-6.71-19.42-14.99l-4.6-34.78c-1.09-8.28,5.82-14.99,15.45-14.99
						h63.22c9.63,0,18.32,6.71,19.42,14.99l4.6,34.78C1426.68,1536.29,1419.76,1543,1410.13,1543z"/>
				</g>
				<g>
					<path class="st10" d="M1263,1388.71h-62.73c-8.55,0-15.48-6.93-15.48-15.48V1342c0-8.55,6.93-15.48,15.48-15.48H1263
						c8.55,0,15.48,6.93,15.48,15.48v31.22C1278.48,1381.78,1271.55,1388.71,1263,1388.71z"/>
				</g>
				<g>
					<path class="st10" d="M1272.46,1465.85h-71.36c-9.01,0-16.31-7.3-16.31-16.31v-29.57c0-9.01,7.3-16.31,16.31-16.31h71.36
						c9.01,0,16.31,7.3,16.31,16.31v29.57C1288.77,1458.55,1281.47,1465.85,1272.46,1465.85z"/>
				</g>
				<g>
					<path class="st10" d="M1281.96,1543h-80.07c-9.44,0-17.1-7.66-17.1-17.1v-27.99c0-9.44,7.66-17.1,17.1-17.1h80.07
						c9.44,0,17.1,7.66,17.1,17.1v27.99C1299.06,1535.34,1291.4,1543,1281.96,1543z"/>
				</g>
				<g>
					<path class="st10" d="M1460.16,1309.5h-52.21c-7.95,0-14.69-6.43-15.04-14.36l-1.5-33.32c-0.36-7.93,5.8-14.36,13.75-14.36
						h52.21c7.95,0,14.69,6.43,15.04,14.36l1.5,33.32C1474.26,1303.07,1468.11,1309.5,1460.16,1309.5z"/>
				</g>
				<g>
					<path class="st10" d="M1490.15,1384.07h-62.73c-8.55,0-15.8-6.92-16.18-15.45l-1.4-31.15c-0.38-8.53,6.24-15.45,14.79-15.45
						h62.73c8.55,0,15.8,6.92,16.18,15.45l1.4,31.15C1505.32,1377.15,1498.7,1384.07,1490.15,1384.07z"/>
				</g>
				<g>
					<path class="st10" d="M1525.38,1458.64h-71.36c-9.01,0-16.64-7.29-17.04-16.28l-1.33-29.5c-0.4-8.99,6.57-16.28,15.58-16.28
						h71.36c9.01,0,16.64,7.29,17.04,16.28l1.33,29.5C1541.36,1451.35,1534.39,1458.64,1525.38,1458.64z"/>
				</g>
				<g>
					<path class="st10" d="M1552.38,1533.21h-80.07c-9.44,0-17.44-7.64-17.87-17.06l-1.26-27.93c-0.42-9.42,6.89-17.06,16.33-17.06
						h80.07c9.44,0,17.44,7.64,17.87,17.06l1.26,27.93C1569.13,1525.57,1561.82,1533.21,1552.38,1533.21z"/>
				</g>
				<g>
					<path class="st10" d="M1591.08,1299.83h-61.51c-9.37,0-17.5-6.33-18.17-14.14l-2.8-32.8c-0.67-7.81,6.39-14.14,15.76-14.14
						h61.51c9.37,0,17.5,6.33,18.17,14.14l2.8,32.8C1607.5,1293.5,1600.45,1299.83,1591.08,1299.83z"/>
				</g>
				<g>
					<path class="st10" d="M1628.72,1373.22h-73.9c-10.08,0-18.82-6.81-19.54-15.21l-2.62-30.66c-0.72-8.4,6.87-15.21,16.95-15.21
						h73.9c10.08,0,18.82,6.81,19.54,15.21l2.62,30.66C1646.39,1366.42,1638.8,1373.22,1628.72,1373.22z"/>
				</g>
				<g>
					<path class="st10" d="M1672.54,1446.62h-84.07c-10.61,0-19.83-7.17-20.58-16.02l-2.48-29.04c-0.75-8.85,7.24-16.02,17.85-16.02
						h84.07c10.61,0,19.83,7.17,20.58,16.02l2.48,29.04C1691.15,1439.45,1683.15,1446.62,1672.54,1446.62z"/>
				</g>
				<g>
					<path class="st10" d="M1706.65,1520.01h-94.33c-11.13,0-20.79-7.52-21.58-16.79l-2.34-27.49c-0.79-9.27,7.59-16.79,18.71-16.79
						h94.33c11.13,0,20.79,7.52,21.58,16.79l2.34,27.49C1726.16,1512.49,1717.78,1520.01,1706.65,1520.01z"/>
				</g>
				<g>
					<path class="st10" d="M1710.71,1288.95h-61.51c-9.37,0-19-5.87-21.52-13.1l-10.56-30.4c-2.51-7.24,3.04-13.1,12.41-13.1h61.51
						c9.37,0,19,5.87,21.52,13.1l10.56,30.4C1725.64,1283.09,1720.08,1288.95,1710.71,1288.95z"/>
				</g>
				<g>
					<path class="st10" d="M1765.73,1356.98h-73.9c-10.08,0-20.44-6.31-23.14-14.09l-9.87-28.42c-2.7-7.78,3.27-14.09,13.35-14.09
						h73.9c10.08,0,20.44,6.31,23.14,14.09l9.87,28.42C1781.78,1350.67,1775.81,1356.98,1765.73,1356.98z"/>
				</g>
				<g>
					<path class="st10" d="M1826.92,1425.01h-84.07c-10.61,0-21.53-6.65-24.38-14.85l-9.35-26.91c-2.85-8.2,3.45-14.85,14.06-14.85
						h84.07c10.61,0,21.53,6.65,24.38,14.85l9.35,26.91C1843.83,1418.36,1837.54,1425.01,1826.92,1425.01z"/>
				</g>
				<g>
					<path class="st10" d="M1878.41,1493.04h-94.33c-11.13,0-22.57-6.97-25.55-15.57l-8.85-25.48c-2.99-8.6,3.61-15.57,14.74-15.57
						h94.33c11.13,0,22.57,6.97,25.55,15.57l8.85,25.48C1896.14,1486.07,1889.54,1493.04,1878.41,1493.04z"/>
				</g>
				<g>
					<path class="st10" d="M1832.43,1271.02l-61.46,2.41c-9.36,0.37-20.14-5.31-24.07-12.67l-16.51-30.94
						c-3.93-7.37,0.47-13.63,9.83-14l61.46-2.41c9.36-0.37,20.14,5.31,24.07,12.67l16.51,30.94
						C1846.2,1264.39,1841.79,1270.66,1832.43,1271.02z"/>
				</g>
				<g>
					<path class="st10" d="M1900.73,1339.02l-73.85,2.89c-10.07,0.39-21.66-5.71-25.88-13.63l-15.43-28.92
						c-4.23-7.92,0.51-14.66,10.58-15.06l73.85-2.89c10.07-0.39,21.66,5.71,25.88,13.63l15.43,28.92
						C1915.54,1331.89,1910.8,1338.63,1900.73,1339.02z"/>
				</g>
				<g>
					<path class="st10" d="M1975.2,1406.78l-84.01,3.29c-10.61,0.42-22.81-6.01-27.27-14.36l-14.62-27.39
						c-4.45-8.34,0.53-15.45,11.14-15.86l84.01-3.29c10.61-0.42,22.81,6.01,27.27,14.36l14.62,27.39
						C1990.8,1399.26,1985.81,1406.36,1975.2,1406.78z"/>
				</g>
				<g>
					<path class="st10" d="M2039.98,1474.92l-94.26,3.69c-11.12,0.44-23.92-6.3-28.58-15.05l-13.84-25.93
						c-4.67-8.75,0.56-16.19,11.68-16.63l94.26-3.69c11.12-0.44,23.92,6.3,28.58,15.05l13.84,25.93
						C2056.32,1467.04,2051.1,1474.48,2039.98,1474.92z"/>
				</g>
				<g>
					<path class="st10" d="M1975.95,1249.9l-61.25,5.58c-9.33,0.85-20.35-3.94-24.62-10.7l-17.93-28.39
						c-4.27-6.76-0.17-12.93,9.16-13.78l61.25-5.58c9.33-0.85,20.35,3.94,24.62,10.7l17.93,28.39
						C1989.39,1242.89,1985.28,1249.06,1975.95,1249.9z"/>
				</g>
				<g>
					<path class="st10" d="M2047.34,1310.6l-73.6,6.7c-10.03,0.91-21.89-4.24-26.48-11.51l-16.77-26.55
						c-4.59-7.27-0.18-13.9,9.85-14.82l73.6-6.7c10.03-0.91,21.89,4.24,26.48,11.51l16.77,26.55
						C2061.78,1303.05,2057.37,1309.68,2047.34,1310.6z"/>
				</g>
				<g>
					<path class="st10" d="M2124.87,1370.73l-83.72,7.62c-10.57,0.96-23.06-4.47-27.9-12.13l-15.88-25.14
						c-4.84-7.66-0.19-14.65,10.38-15.61l83.72-7.62c10.57-0.96,23.06,4.47,27.9,12.13l15.88,25.14
						C2140.09,1362.78,2135.44,1369.77,2124.87,1370.73z"/>
				</g>
				<g>
					<path class="st10" d="M2192.74,1431.74l-93.94,8.55c-11.08,1.01-24.17-4.68-29.25-12.71l-15.03-23.8
						c-5.07-8.03-0.2-15.36,10.88-16.36l93.94-8.55c11.08-1.01,24.17,4.68,29.25,12.71l15.03,23.8
						C2208.69,1423.41,2203.82,1430.74,2192.74,1431.74z"/>
				</g>
				<g>
					<path class="st10" d="M1096.61,1311.57h52.21c7.95,0,14.4-6.45,14.4-14.4v-33.4c0-7.95-6.45-14.4-14.4-14.4h-52.21
						c-7.95,0-14.4,6.45-14.4,14.4v33.4C1082.22,1305.12,1088.66,1311.57,1096.61,1311.57z"/>
				</g>
				<g>
					<path class="st10" d="M989.11,1311.57h52.21c7.95,0,15.13-6.71,16.03-14.99l3.8-34.78c0.9-8.28-4.81-14.99-12.76-14.99h-52.21
						c-7.95,0-15.13,6.71-16.03,14.99l-3.8,34.78C975.45,1304.86,981.16,1311.57,989.11,1311.57z"/>
				</g>
				<g>
					<path class="st10" d="M970.68,1388.71h56.12c8.55,0,16.26-6.71,17.23-14.99l4.08-34.78c0.97-8.28-5.17-14.99-13.72-14.99
						h-56.12c-8.55,0-16.26,6.71-17.23,14.99l-4.08,34.78C955.99,1382,962.13,1388.71,970.68,1388.71z"/>
				</g>
				<g>
					<path class="st10" d="M954.64,1462.4h58.88c8.97,0,17.06-6.71,18.08-14.99l4.28-34.78c1.02-8.28-5.42-14.99-14.39-14.99h-58.88
						c-8.97,0-17.06,6.71-18.08,14.99l-4.28,34.78C939.23,1455.69,945.67,1462.4,954.64,1462.4z"/>
				</g>
				<g>
					<path class="st10" d="M940.28,1543h63.22c9.63,0,18.32-6.71,19.42-14.99l4.6-34.78c1.09-8.28-5.82-14.99-15.45-14.99h-63.22
						c-9.63,0-18.32,6.71-19.42,14.99l-4.6,34.78C923.73,1536.29,930.65,1543,940.28,1543z"/>
				</g>
				<g>
					<path class="st10" d="M1087.41,1388.71h62.73c8.55,0,15.48-6.93,15.48-15.48V1342c0-8.55-6.93-15.48-15.48-15.48h-62.73
						c-8.55,0-15.48,6.93-15.48,15.48v31.22C1071.93,1381.78,1078.86,1388.71,1087.41,1388.71z"/>
				</g>
				<g>
					<path class="st10" d="M1077.96,1465.85h71.36c9.01,0,16.31-7.3,16.31-16.31v-29.57c0-9.01-7.3-16.31-16.31-16.31h-71.36
						c-9.01,0-16.31,7.3-16.31,16.31v29.57C1061.64,1458.55,1068.95,1465.85,1077.96,1465.85z"/>
				</g>
				<g>
					<path class="st10" d="M1068.46,1543h80.07c9.44,0,17.1-7.66,17.1-17.1v-27.99c0-9.44-7.66-17.1-17.1-17.1h-80.07
						c-9.44,0-17.1,7.66-17.1,17.1v27.99C1051.36,1535.34,1059.01,1543,1068.46,1543z"/>
				</g>
				<g>
					<path class="st10" d="M890.26,1309.5h52.21c7.95,0,14.69-6.43,15.04-14.36l1.5-33.32c0.36-7.93-5.8-14.36-13.75-14.36h-52.21
						c-7.95,0-14.69,6.43-15.04,14.36l-1.5,33.32C876.15,1303.07,882.31,1309.5,890.26,1309.5z"/>
				</g>
				<g>
					<path class="st10" d="M860.27,1384.07h62.73c8.55,0,15.8-6.92,16.18-15.45l1.4-31.15c0.38-8.53-6.24-15.45-14.79-15.45h-62.73
						c-8.55,0-15.8,6.92-16.18,15.45l-1.4,31.15C845.09,1377.15,851.72,1384.07,860.27,1384.07z"/>
				</g>
				<g>
					<path class="st10" d="M825.04,1458.64h71.36c9.01,0,16.64-7.29,17.04-16.28l1.33-29.5c0.4-8.99-6.57-16.28-15.58-16.28h-71.36
						c-9.01,0-16.64,7.29-17.04,16.28l-1.33,29.5C809.05,1451.35,816.03,1458.64,825.04,1458.64z"/>
				</g>
				<g>
					<path class="st10" d="M798.04,1533.21h80.07c9.44,0,17.44-7.64,17.87-17.06l1.26-27.93c0.42-9.42-6.89-17.06-16.33-17.06
						h-80.07c-9.44,0-17.44,7.64-17.87,17.06l-1.26,27.93C781.28,1525.57,788.6,1533.21,798.04,1533.21z"/>
				</g>
				<g>
					<path class="st10" d="M759.33,1299.83h61.51c9.37,0,17.5-6.33,18.17-14.14l2.8-32.8c0.67-7.81-6.39-14.14-15.76-14.14h-61.51
						c-9.37,0-17.5,6.33-18.17,14.14l-2.8,32.8C742.91,1293.5,749.97,1299.83,759.33,1299.83z"/>
				</g>
				<g>
					<path class="st10" d="M721.69,1373.22h73.9c10.08,0,18.82-6.81,19.54-15.21l2.62-30.66c0.72-8.4-6.87-15.21-16.95-15.21h-73.9
						c-10.08,0-18.82,6.81-19.54,15.21l-2.61,30.66C704.03,1366.42,711.62,1373.22,721.69,1373.22z"/>
				</g>
				<g>
					<path class="st10" d="M677.88,1446.62h84.07c10.61,0,19.83-7.17,20.58-16.02l2.48-29.04c0.75-8.85-7.24-16.02-17.85-16.02
						h-84.07c-10.61,0-19.83,7.17-20.58,16.02l-2.48,29.04C659.27,1439.45,667.26,1446.62,677.88,1446.62z"/>
				</g>
				<g>
					<path class="st10" d="M643.76,1520.01h94.33c11.13,0,20.79-7.52,21.58-16.79l2.34-27.49c0.79-9.27-7.59-16.79-18.71-16.79
						h-94.33c-11.13,0-20.79,7.52-21.58,16.79l-2.34,27.49C624.26,1512.49,632.64,1520.01,643.76,1520.01z"/>
				</g>
				<g>
					<path class="st10" d="M639.7,1288.95h61.51c9.37,0,19-5.87,21.52-13.1l10.56-30.4c2.51-7.24-3.04-13.1-12.41-13.1h-61.51
						c-9.37,0-19,5.87-21.52,13.1l-10.56,30.4C624.78,1283.09,630.33,1288.95,639.7,1288.95z"/>
				</g>
				<g>
					<path class="st10" d="M584.68,1356.98h73.9c10.08,0,20.44-6.31,23.14-14.09l9.87-28.42c2.7-7.78-3.27-14.09-13.35-14.09h-73.9
						c-10.08,0-20.44,6.31-23.14,14.09l-9.87,28.42C568.63,1350.67,574.61,1356.98,584.68,1356.98z"/>
				</g>
				<g>
					<path class="st10" d="M523.49,1425.01h84.07c10.61,0,21.53-6.65,24.38-14.85l9.35-26.91c2.85-8.2-3.45-14.85-14.06-14.85
						h-84.07c-10.61,0-21.53,6.65-24.38,14.85l-9.35,26.91C506.58,1418.36,512.88,1425.01,523.49,1425.01z"/>
				</g>
				<g>
					<path class="st10" d="M472,1493.04h94.33c11.13,0,22.57-6.97,25.55-15.57l8.85-25.48c2.99-8.6-3.61-15.57-14.74-15.57h-94.33
						c-11.13,0-22.57,6.97-25.55,15.57l-8.85,25.48C454.28,1486.07,460.88,1493.04,472,1493.04z"/>
				</g>
				<g>
					<path class="st10" d="M517.98,1271.02l61.46,2.41c9.36,0.37,20.14-5.31,24.07-12.67l16.51-30.94c3.93-7.37-0.47-13.63-9.83-14
						l-61.46-2.41c-9.36-0.37-20.14,5.31-24.07,12.67l-16.51,30.94C504.22,1264.39,508.62,1270.66,517.98,1271.02z"/>
				</g>
				<g>
					<path class="st10" d="M449.68,1339.02l73.85,2.89c10.07,0.39,21.66-5.71,25.88-13.63l15.43-28.92
						c4.23-7.92-0.51-14.66-10.58-15.06l-73.85-2.89c-10.07-0.39-21.66,5.71-25.88,13.63l-15.43,28.92
						C434.88,1331.89,439.61,1338.63,449.68,1339.02z"/>
				</g>
				<g>
					<path class="st10" d="M375.21,1406.78l84.01,3.29c10.61,0.42,22.81-6.01,27.27-14.36l14.62-27.39
						c4.45-8.34-0.53-15.45-11.14-15.86l-84.01-3.29c-10.61-0.42-22.81,6.01-27.27,14.36l-14.62,27.39
						C359.62,1399.26,364.61,1406.36,375.21,1406.78z"/>
				</g>
				<g>
					<path class="st10" d="M310.44,1474.92l94.26,3.69c11.12,0.44,23.92-6.3,28.58-15.05l13.84-25.93
						c4.67-8.75-0.56-16.19-11.68-16.63l-94.26-3.69c-11.12-0.44-23.92,6.3-28.58,15.05l-13.84,25.93
						C294.09,1467.04,299.32,1474.48,310.44,1474.92z"/>
				</g>
				<g>
					<path class="st10" d="M374.46,1249.9l61.25,5.58c9.33,0.85,20.35-3.94,24.62-10.7l17.93-28.39c4.27-6.76,0.17-12.93-9.16-13.78
						l-61.25-5.58c-9.33-0.85-20.35,3.94-24.62,10.7l-17.93,28.39C361.03,1242.89,365.13,1249.06,374.46,1249.9z"/>
				</g>
				<g>
					<path class="st10" d="M303.08,1310.6l73.6,6.7c10.03,0.91,21.89-4.24,26.48-11.51l16.77-26.55c4.59-7.27,0.18-13.9-9.85-14.82
						l-73.6-6.7c-10.03-0.91-21.89,4.24-26.48,11.51l-16.77,26.55C288.63,1303.05,293.04,1309.68,303.08,1310.6z"/>
				</g>
				<g>
					<path class="st10" d="M225.55,1370.73l83.72,7.62c10.57,0.96,23.06-4.47,27.9-12.13l15.88-25.14
						c4.84-7.66,0.19-14.65-10.38-15.61l-83.72-7.62c-10.57-0.96-23.06,4.47-27.9,12.13l-15.88,25.14
						C210.33,1362.78,214.98,1369.77,225.55,1370.73z"/>
				</g>
				<g>
					<path class="st10" d="M157.68,1431.74l93.94,8.55c11.08,1.01,24.17-4.68,29.25-12.71l15.03-23.8
						c5.07-8.03,0.2-15.36-10.88-16.36l-93.94-8.55c-11.08-1.01-24.17,4.68-29.25,12.71l-15.03,23.8
						C141.73,1423.41,146.6,1430.74,157.68,1431.74z"/>
				</g>
			</g>
		</g>
		<polyline class="st11" points="1099.69,985.47 992.36,1074.29 1099.69,1152.01 		"/>
		<polyline class="st11" points="1277.36,985.47 1376.69,1074.29 1269.36,1152.01 		"/>
		<line class="st11" x1="1226.02" y1="977.36" x2="1155" y2="1170.89"/>
		<path class="st6" d="M1306.47,617.16c0,2.46-0.02,4.91-0.09,7.34c-0.55,26.41-4.2,50.45-10.93,71.3
			c-16.58,51.4-51.93,83.33-106.19,83.33c-51.74,0-88.13-28.41-106.84-75.25c-8.04-20.08-12.81-43.57-14.16-69.65
			c-0.28-5.1-0.41-10.31-0.41-15.61c0-17.35-18.23-46.46-14.34-62.25c17.53-71.21,71.66-123.08,135.74-123.08
			c64.09,0,118.22,51.87,135.75,123.08C1328.89,572.16,1306.47,599.81,1306.47,617.16z"/>
		<path class="st12" d="M1189.26,361.47c-80.89,0-146.47,51.94-146.47,137c0,20.49,3.79,40.03,10.72,57.91
			c9.16-37.22,28.33-69.15,53.68-91.16c15.18,8.28,42.78,13.82,74.32,13.82c38.57,0,71.25-8.29,82.52-19.75
			c28.97,21.99,50.95,56.37,60.98,97.08c6.94-17.88,10.72-37.42,10.72-57.91C1335.73,413.41,1270.15,361.47,1189.26,361.47z"/>
		<g>
			<path class="st7" d="M1306.38,624.49c-0.55,26.41-4.2,50.45-10.93,71.3c-15.47,0.48-30.16-8.93-35.66-24.3
				c-6.84-19.06,3.08-40.06,22.14-46.89C1290.15,621.66,1298.73,621.82,1306.38,624.49z"/>
		</g>
		<g>
			<path class="st7" d="M1096.6,701.75c-4.69,1.68-9.49,2.35-14.18,2.12c-8.04-20.08-12.81-43.57-14.16-69.65
				c1.16-0.57,2.35-1.08,3.59-1.52c19.06-6.84,40.06,3.08,46.89,22.14C1125.58,673.92,1115.66,694.92,1096.6,701.75z"/>
		</g>
		<path class="st12" d="M1324.06,660.05c0,64.18-80.12,139.85-135.33,139.85c-55.21,0-135.33-73.76-135.33-137.94
			c0-16.74,5.44-31.15,14.46-43.34c0.46,40.35,20.96,72.77,46.21,72.77c9.81,0,18.9-4.9,26.4-13.27c2.16-4.04,4.83-7.76,7.84-11.14
			c10.12-11.23,24.49-18.27,40.41-18.27c12.91,0,24.82,4.65,34.24,12.38l0.03,0.03c7.17,5.89,12.94,13.59,16.62,22.47
			c6.2,5,13.19,7.8,20.6,7.8c25.55,0,46.24-33.22,46.24-74.24c0-1.37-0.03-2.74-0.06-4.07
			C1317.34,625.84,1324.06,641.43,1324.06,660.05z"/>
		<path class="st13" d="M1188.87,692.43h37.96c0,12.93-17.13,23.57-37.96,23.57c-20.82,0-37.96-10.64-37.96-23.57
			c0-0.05,0-0.1,0-0.14L1188.87,692.43z"/>
		<g>
			<g>
				<g>
					<path class="st6" d="M1006.85,585.85c0,17.27,22.9,28.22,40.33,28.22c17.43,0,31.56-14,31.56-31.28s-33.97-42.32-51.4-42.32
						C1009.9,540.48,1006.85,568.58,1006.85,585.85z"/>
				</g>
			</g>
			<g>
				<path class="st7" d="M1059.24,601.48c0,0-1.55-42.74-24.13-36.8"/>
			</g>
		</g>
		<g>
			<g>
				<g>
					<path class="st6" d="M1375.72,585.85c0,17.27-22.9,28.22-40.33,28.22s-31.56-14-31.56-31.28s33.97-42.32,51.4-42.32
						S1375.72,568.58,1375.72,585.85z"/>
				</g>
			</g>
			<g>
				<path class="st7" d="M1323.32,601.48c0,0,1.55-42.74,24.13-36.8"/>
			</g>
		</g>
		<polyline class="st7" points="1197.31,586.79 1207.21,638.56 1188.87,641.44 1176.09,641.44 1188.87,586.79 		"/>
		<path class="st4" d="M1157.71,579.43c0,27.87-22.6,50.47-50.47,50.47c-1.32,0-2.64-0.05-3.93-0.15h-0.01
			c-4.51-0.35-8.84-1.29-12.93-2.74c-6.42-2.28-12.24-5.81-17.17-10.32c-3.58-3.27-6.7-7.06-9.21-11.25
			c-4.59-7.6-7.22-16.5-7.22-26.01c0-24.36,17.27-44.7,40.23-49.42c3.3-0.69,6.73-1.05,10.24-1.05c1.69,0,3.37,0.08,5.02,0.25
			c6.62,0.65,12.86,2.58,18.48,5.55c4.16,2.18,7.97,4.94,11.34,8.15C1151.71,552.11,1157.71,565.07,1157.71,579.43z"/>
		<path class="st14" d="M1153.47,581.2c0,0,36-38.08,69.14,1.2"/>
		<g>
			<g>
				<g>
					<path class="st6" d="M1946.12,1304.37c-9.24,11.46-27.73,6.73-30.4-7.75c0,0,0-0.03-0.01-0.08
						c-5.78-31.19-17.21-73.21-36.38-68.17c0,0,2.96,138.05-34.19,191.35c-17.59,25.23-57.28,12.55-57.28-18.21v-173.14
						c0,0-40.21,42.21-46.8,189.94c0,0-35.62,67.28-77.83,6.6c0,0-4.66-42.14-3.33-89.63c0.7-24.9,3.05-51.27,8.59-73.8
						c4.14-16.87,10.07-31.59,18.43-41.93c0-0.01,0.01-0.02,0.01-0.02c0.02-0.01,0.03-0.03,0.04-0.04c0,0-0.01,0-0.03,0.01
						c-1.39,0.87-48.87,30.56-55.37,58.42c0,0-2.36,65.79-24.85,90.77c-0.02,0.02-0.05,0.05-0.07,0.08
						c-2.57,2.84-5.4,5.15-8.52,6.76c-0.25,0.13-0.5,0.25-0.74,0.37c-4.78,2.28-10.23,2.96-16.43,1.49
						c-14.54-3.45-24.57-16.79-24.57-31.73v-76.56c0-22.07,7.67-43.45,21.7-60.49l31.06-37.72c0,0,51.44-63.87,102.89-30.9
						c0,0,46.16-46.61,79.14-9.45c0,0,40.68-44.78,61.99-14.38c0,0,52.77-26.29,75.19,48.9
						C1928.36,1165.06,2000.85,1236.5,1946.12,1304.37z"/>
				</g>
				<path class="st7" d="M1915.71,1296.54c-5.78-31.19-17.21-73.21-36.38-68.17l-3.19-39.87
					C1907.79,1185.97,1915.48,1293.23,1915.71,1296.54z"/>
				<path class="st7" d="M1787.86,1401.51v-173.14c0,0-40.21,42.21-46.8,189.94c-26.44-203.48,59.28-210.35,59.28-210.35
					C1793.32,1214.57,1787.86,1401.51,1787.86,1401.51z"/>
				<path class="st7" d="M1704.45,1173.67c-1.39,0.87-11.01,17.97-17.51,45.83c-1.39,0.87-48.87,30.56-55.37,58.42
					c0,0-2.36,65.79-24.85,90.77c-0.02,0.02-0.05,0.05-0.07,0.08c-3,3.03-5.85,5.34-8.52,6.76c-0.25,0.13-0.5,0.25-0.74,0.37
					c1.53-32.31,17.75-99.94,17.75-99.94C1642.36,1229.16,1703.1,1173.95,1704.45,1173.67z"/>
			</g>
		</g>
		<g>
			<g>
				<g>
					<path class="st6" d="M476.83,1304.37c9.24,11.46,27.73,6.73,30.4-7.75c0,0,0-0.03,0.01-0.08
						c5.78-31.19,17.21-73.21,36.38-68.17c0,0-2.96,138.05,34.19,191.35c17.59,25.23,57.28,12.55,57.28-18.21v-173.14
						c0,0,40.21,42.21,46.8,189.94c0,0,35.62,67.28,77.83,6.6c0,0,4.66-42.14,3.33-89.63c-0.7-24.9-3.05-51.27-8.59-73.8
						c-4.14-16.87-10.07-31.59-18.43-41.93c0-0.01-0.01-0.02-0.01-0.02c-0.02-0.01-0.03-0.03-0.04-0.04c0,0,0.01,0,0.03,0.01
						c1.39,0.87,48.87,30.56,55.37,58.42c0,0,2.36,65.79,24.85,90.77c0.02,0.02,0.05,0.05,0.07,0.08c2.57,2.84,5.4,5.15,8.52,6.76
						c0.25,0.13,0.5,0.25,0.74,0.37c4.78,2.28,10.23,2.96,16.43,1.49c14.54-3.45,24.57-16.79,24.57-31.73v-76.56
						c0-22.07-7.67-43.45-21.7-60.49l-31.06-37.72c0,0-51.44-63.87-102.89-30.9c0,0-46.16-46.61-79.14-9.45
						c0,0-40.68-44.78-61.99-14.38c0,0-52.77-26.29-75.19,48.9C494.59,1165.06,422.1,1236.5,476.83,1304.37z"/>
				</g>
				<path class="st7" d="M507.24,1296.54c5.78-31.19,17.21-73.21,36.38-68.17l3.19-39.87
					C515.16,1185.97,507.47,1293.23,507.24,1296.54z"/>
				<path class="st7" d="M635.09,1401.51v-173.14c0,0,40.21,42.21,46.8,189.94c26.44-203.48-59.28-210.35-59.28-210.35
					C629.63,1214.57,635.09,1401.51,635.09,1401.51z"/>
				<path class="st7" d="M718.5,1173.67c1.39,0.87,11.01,17.97,17.51,45.83c1.39,0.87,48.87,30.56,55.37,58.42
					c0,0,2.36,65.79,24.85,90.77c0.02,0.02,0.05,0.05,0.07,0.08c3,3.03,5.85,5.34,8.52,6.76c0.25,0.13,0.5,0.25,0.74,0.37
					c-1.53-32.31-17.75-99.94-17.75-99.94C780.59,1229.16,719.85,1173.95,718.5,1173.67z"/>
			</g>
		</g>
		<path class="st15" d="M1112.08,529.03l-39.06,87.48c-3.58-3.27-6.7-7.06-9.21-11.25l33.01-75.43c3.3-0.69,6.73-1.05,10.24-1.05
			C1108.75,528.78,1110.43,528.86,1112.08,529.03z"/>
		<path class="st15" d="M1142.08,542.91l-38.77,86.84h-0.01c-4.51-0.35-8.84-1.29-12.93-2.74l40.37-92.25
			C1134.9,536.94,1138.71,539.7,1142.08,542.91z"/>
		<path class="st4" d="M1320.61,582.49c0,27.87-22.6,50.47-50.47,50.47c-1.32,0-2.64-0.05-3.93-0.15h-0.01
			c-4.51-0.35-8.84-1.29-12.93-2.74c-6.42-2.28-12.24-5.81-17.17-10.32c-3.58-3.27-6.7-7.06-9.21-11.25
			c-4.59-7.6-7.22-16.5-7.22-26.01c0-24.36,17.27-44.7,40.23-49.42c3.3-0.69,6.73-1.05,10.24-1.05c1.69,0,3.37,0.08,5.02,0.25
			c6.62,0.65,12.86,2.58,18.48,5.55c4.16,2.18,7.97,4.94,11.34,8.15C1314.61,555.17,1320.61,568.13,1320.61,582.49z"/>
		<path class="st15" d="M1274.98,532.09l-39.06,87.48c-3.58-3.27-6.7-7.06-9.21-11.25l33.01-75.43c3.3-0.69,6.73-1.05,10.24-1.05
			C1271.65,531.84,1273.33,531.92,1274.98,532.09z"/>
		<path class="st15" d="M1304.98,545.97l-38.77,86.84h-0.01c-4.51-0.35-8.84-1.29-12.93-2.74l40.37-92.25
			C1297.8,540,1301.61,542.76,1304.98,545.97z"/>
		<path class="st16" d="M1322.14,799.9c0,51.5-54.14,93.25-120.93,93.25s-120.94-41.75-120.94-93.25c0-3.33,0.23-6.62,0.67-9.86
			c10.62,5.03,20.85,11.96,30.46,21.15c0,0,99.93,56.16,159.14-12.04c0,0,20.83-9.16,49.92-14.8
			C1321.57,789.41,1322.14,794.6,1322.14,799.9z"/>
		<g class="st17">
			<g>
				<g>
					<polygon class="st18" points="1708.58,765.69 1304.25,1386.4 1907.56,1386.4 2311.89,765.69 					"/>
					<path class="st19" d="M1708.68,762.83h606.83l-408.06,626.43h-606.83L1708.68,762.83z M2308.27,768.56h-599.8l-400.6,614.97
						h599.8L2308.27,768.56z"/>
				</g>
				<g>
					<polygon class="st19" points="1708.58,765.69 1672.96,820.36 2276.28,820.36 2311.89,765.69 					"/>
					<path class="st19" d="M1708.68,762.83h606.83l-39.34,60.4h-606.83L1708.68,762.83z M2308.27,768.56h-599.8l-31.88,48.94h599.8
						L2308.27,768.56z"/>
				</g>
			</g>
			<g>
				<path class="st19" d="M2262.35,793.42c-4.95,7.6-5.19,13.76-0.52,13.76c4.66,0,12.45-6.16,17.4-13.76
					c4.95-7.6,5.19-13.76,0.53-13.76S2267.31,785.82,2262.35,793.42z"/>
				<path class="st19" d="M2227.9,793.42c-4.95,7.6-5.19,13.76-0.53,13.76c4.66,0,12.45-6.16,17.4-13.76
					c4.95-7.6,5.19-13.76,0.53-13.76C2240.64,779.66,2232.85,785.82,2227.9,793.42z"/>
				<path class="st19" d="M2193.44,793.42c-4.95,7.6-5.19,13.76-0.52,13.76s12.45-6.16,17.4-13.76c4.95-7.6,5.19-13.76,0.53-13.76
					C2206.18,779.66,2198.39,785.82,2193.44,793.42z"/>
			</g>
			<g>
				<polygon class="st19" points="2144.59,939.8 2162.51,939.8 2169.47,929.12 2151.54,929.12 				"/>
				<polygon class="st19" points="1842.01,939.8 2131.52,939.8 2138.48,929.12 1848.97,929.12 				"/>
				<polygon class="st19" points="1796.95,939.8 1831,939.8 1837.95,929.12 1803.91,929.12 				"/>
				<polygon class="st19" points="1649.4,1082.67 1683.44,1082.67 1690.4,1072 1656.35,1072 				"/>
				<polygon class="st19" points="1674.76,939.8 1789.55,939.8 1796.51,929.12 1681.72,929.12 				"/>
				<polygon class="st19" points="2108.05,968.37 2125.97,968.37 2132.93,957.7 2115,957.7 				"/>
				<polygon class="st19" points="1960.5,968.37 2095.43,968.37 2102.39,957.7 1967.45,957.7 				"/>
				<polygon class="st19" points="1691.53,1082.67 1742.57,1082.67 1749.53,1072 1698.48,1072 				"/>
				<polygon class="st19" points="1928.18,1054.1 2057.07,1054.1 2064.02,1043.42 1935.14,1043.42 				"/>
				<polygon class="st19" points="1986.4,996.95 2076.82,996.95 2083.78,986.27 1993.36,986.27 				"/>
				<polygon class="st19" points="1661.97,1025.52 1752.39,1025.52 1759.34,1014.85 1668.93,1014.85 				"/>
				<polygon class="st19" points="1748.09,996.95 1976.37,996.95 1983.33,986.27 1755.04,986.27 				"/>
				<polygon class="st19" points="1754.24,1082.67 2038.46,1082.67 2045.41,1072 1761.19,1072 				"/>
				<polygon class="st19" points="1625.4,968.37 1774.73,968.37 1781.69,957.7 1632.35,957.7 				"/>
				<polygon class="st19" points="1782.13,968.37 1952.03,968.37 1958.98,957.7 1789.09,957.7 				"/>
				<polygon class="st19" points="1627.34,996.95 1685.37,996.95 1692.32,986.27 1634.29,986.27 				"/>
				<polygon class="st19" points="2089.44,996.95 2107.36,996.95 2114.31,986.27 2096.39,986.27 				"/>
				<polygon class="st19" points="2088.75,1025.52 2106.67,1025.52 2113.63,1014.85 2095.7,1014.85 				"/>
				<polygon class="st19" points="1969.75,1025.52 2075.68,1025.52 2082.64,1014.85 1976.7,1014.85 				"/>
				<polygon class="st19" points="1896.43,1111.25 2002.37,1111.25 2009.32,1100.57 1903.38,1100.57 				"/>
				<polygon class="st19" points="1565.86,1139.82 1702.32,1139.82 1709.28,1129.14 1572.81,1129.14 				"/>
				<polygon class="st19" points="1697.7,1111.25 1887.83,1111.25 1894.79,1100.57 1704.66,1100.57 				"/>
				<polygon class="st19" points="1711.59,1139.82 1887.95,1139.82 1894.91,1129.14 1718.54,1129.14 				"/>
				<polygon class="st19" points="1953.08,1139.82 1983.75,1139.82 1990.71,1129.14 1960.03,1129.14 				"/>
				<polygon class="st19" points="1722.5,1054.1 1920.89,1054.1 1927.84,1043.42 1729.45,1043.42 				"/>
				<polygon class="st19" points="1586.31,1054.1 1715.1,1054.1 1722.05,1043.42 1593.27,1043.42 				"/>
				<polygon class="st19" points="1760.72,1025.52 1958.98,1025.52 1965.93,1014.85 1767.68,1014.85 				"/>
				<polygon class="st19" points="2070.13,1054.1 2088.06,1054.1 2095.01,1043.42 2077.09,1043.42 				"/>
				<polygon class="st19" points="2051.52,1082.67 2069.44,1082.67 2076.4,1072 2058.47,1072 				"/>
				<polygon class="st19" points="2014.98,1111.25 2032.9,1111.25 2039.86,1100.57 2021.94,1100.57 				"/>
				<polygon class="st19" points="1996.37,1139.82 2014.29,1139.82 2021.25,1129.14 2003.32,1129.14 				"/>
				<polygon class="st19" points="1998.7,1163.75 2016.63,1163.75 2023.58,1153.08 2005.66,1153.08 				"/>
				<polygon class="st19" points="1775.46,1163.75 1985.64,1163.75 1992.59,1153.08 1782.41,1153.08 				"/>
				<polygon class="st19" points="1962.16,1192.33 1980.09,1192.33 1987.04,1181.65 1969.12,1181.65 				"/>
				<polygon class="st19" points="1814.61,1192.33 1949.55,1192.33 1956.5,1181.65 1821.57,1181.65 				"/>
				<polygon class="st19" points="1782.3,1278.05 1911.18,1278.05 1918.14,1267.37 1789.25,1267.37 				"/>
				<polygon class="st19" points="1840.52,1220.9 1930.94,1220.9 1937.89,1210.22 1847.47,1210.22 				"/>
				<polygon class="st19" points="1602.2,1220.9 1830.49,1220.9 1837.44,1210.22 1609.16,1210.22 				"/>
				<polygon class="st19" points="1608.36,1306.63 1892.57,1306.63 1899.53,1295.95 1615.31,1295.95 				"/>
				<polygon class="st19" points="1479.51,1192.33 1628.85,1192.33 1635.8,1181.65 1486.47,1181.65 				"/>
				<polygon class="st19" points="1636.25,1192.33 1806.14,1192.33 1813.1,1181.65 1643.21,1181.65 				"/>
				<polygon class="st19" points="1481.45,1220.9 1539.49,1220.9 1546.44,1210.22 1488.41,1210.22 				"/>
				<polygon class="st19" points="1943.55,1220.9 1961.48,1220.9 1968.43,1210.22 1950.51,1210.22 				"/>
				<polygon class="st19" points="1942.86,1249.48 1960.79,1249.48 1967.74,1238.8 1949.82,1238.8 				"/>
				<polygon class="st19" points="1823.86,1249.48 1929.8,1249.48 1936.75,1238.8 1830.82,1238.8 				"/>
				<polygon class="st19" points="1576.61,1278.05 1775.01,1278.05 1781.96,1267.37 1583.57,1267.37 				"/>
				<polygon class="st19" points="1614.84,1249.48 1813.09,1249.48 1820.05,1238.8 1621.79,1238.8 				"/>
				<polygon class="st19" points="1924.25,1278.05 1942.17,1278.05 1949.13,1267.37 1931.2,1267.37 				"/>
				<g>
					<path class="st19" d="M2188.78,891.41l0.42-9.59c0.04-1,1.08-2.61,2.35-3.61c1.22-0.96,2.23-0.96,2.21,0l-0.54,11.43
						c0.02,0.08-0.01,0.2-0.04,0.28c0.05,0,0,0.08,0,0.08c0,0.08-0.08,0.24-0.11,0.36c-0.03,0.04,0,0.04-0.03,0.08
						c-0.06,0.12-0.11,0.2-0.16,0.32c-0.03,0.04,0,0.08-0.05,0.16c-0.05,0.08-0.13,0.2-0.18,0.28c-0.03,0.04-0.08,0.16-0.11,0.2
						c-0.08,0.12-0.13,0.16-0.18,0.24c-0.05,0.08-0.1,0.16-0.18,0.28c-0.03,0.04-0.1,0.08-0.18,0.2c-0.05,0.04-0.13,0.16-0.2,0.24
						c-0.03,0.04-0.1,0.12-0.18,0.16c-0.1,0.12-0.16,0.2-0.28,0.32c0,0-0.08,0.04-0.13,0.08c-0.1,0.12-0.18,0.2-0.28,0.24
						l-14.36,11.43c-0.63,0.48-1.18,0.72-1.6,0.72c-0.39,0-0.6-0.24-0.61-0.72c0.04-1,1.06-2.57,2.35-3.61L2188.78,891.41z"/>
					<path class="st19" d="M2166.99,905.18c-0.23,0.12-0.45,0.16-0.59,0.16c-0.52,0-0.72-0.48-0.39-1.32l9.24-23.43
						c0.41-1.08,1.59-2.41,2.54-2.85c1.03-0.48,1.47,0.04,1.04,1.16l-9.21,23.39C2169.17,903.41,2167.99,904.73,2166.99,905.18z"/>
					<path class="st19" d="M2155.44,892.5c0.05-0.08,0.03-0.08,0.05-0.12c0.03-0.08,0.11-0.2,0.16-0.36c0.03-0.04,0-0.04,0.03-0.08
						c0.08-0.12,0.13-0.2,0.21-0.32c0.03-0.04,0.08-0.16,0.1-0.2c0.03-0.04,0.13-0.16,0.16-0.2c0.05-0.08,0.13-0.2,0.18-0.28
						c0.05-0.08,0.08-0.08,0.1-0.12c0.15-0.16,0.21-0.24,0.31-0.36c0.03-0.04,0.05-0.04,0.07-0.08c0.11-0.12,0.21-0.2,0.36-0.36
						c0,0,0.05-0.08,0.08-0.08c0.1-0.08,0.23-0.2,0.36-0.28l14.36-11.43c1.24-0.96,2.25-0.96,2.21,0c-0.03,1-1.08,2.61-2.35,3.61
						l-12.07,9.59l-0.42,9.59c-0.06,1.04-1.08,2.61-2.35,3.61c-0.63,0.48-1.16,0.72-1.57,0.72c-0.39,0-0.66-0.24-0.64-0.72
						l0.54-11.43c-0.02-0.08,0.01-0.2,0.01-0.28c-0.02,0,0-0.04,0-0.04C2155.39,892.7,2155.42,892.58,2155.44,892.5z"/>
				</g>
			</g>
		</g>
		<g class="st17">
			<g>
				<g>
					<polygon class="st18" points="789.92,811.78 1209.61,1494.37 583.37,1494.37 163.68,811.78 					"/>
					<path class="st20" d="M1213.37,1497.52H583.48L159.92,808.63h629.88L1213.37,1497.52z M583.26,1491.22h622.59L790.03,814.93
						H167.44L583.26,1491.22z"/>
				</g>
				<g>
					<polygon class="st20" points="789.92,811.78 826.88,871.9 200.65,871.9 163.68,811.78 					"/>
					<path class="st20" d="M830.64,875.05H200.76l-40.84-66.42h629.88L830.64,875.05z M200.53,868.75h622.59l-33.09-53.82H167.44
						L200.53,868.75z"/>
				</g>
			</g>
			<g>
				<path class="st20" d="M215.1,842.28c5.14,8.36,5.38,15.13,0.54,15.13c-4.84,0-12.92-6.77-18.06-15.13
					c-5.14-8.36-5.38-15.13-0.55-15.13C201.87,827.14,209.96,833.92,215.1,842.28z"/>
				<path class="st20" d="M250.86,842.28c5.14,8.36,5.38,15.13,0.55,15.13c-4.84,0-12.92-6.77-18.06-15.13
					c-5.14-8.36-5.38-15.13-0.55-15.13C237.64,827.14,245.73,833.92,250.86,842.28z"/>
				<path class="st20" d="M286.63,842.28c5.14,8.36,5.38,15.13,0.54,15.13c-4.84,0-12.92-6.77-18.06-15.13
					c-5.14-8.36-5.38-15.13-0.55-15.13S281.49,833.92,286.63,842.28z"/>
			</g>
			<g>
				<polygon class="st20" points="337.34,1003.25 318.74,1003.25 311.52,991.5 330.12,991.5 				"/>
				<polygon class="st20" points="651.41,1003.25 350.9,1003.25 343.68,991.5 644.19,991.5 				"/>
				<polygon class="st20" points="698.18,1003.25 662.84,1003.25 655.62,991.5 690.97,991.5 				"/>
				<polygon class="st20" points="851.35,1160.36 816.01,1160.36 808.79,1148.62 844.13,1148.62 				"/>
				<polygon class="st20" points="825.02,1003.25 705.87,1003.25 698.65,991.5 817.8,991.5 				"/>
				<polygon class="st20" points="375.27,1034.67 356.66,1034.67 349.44,1022.93 368.05,1022.93 				"/>
				<polygon class="st20" points="528.43,1034.67 388.36,1034.67 381.14,1022.93 521.21,1022.93 				"/>
				<polygon class="st20" points="807.61,1160.36 754.63,1160.36 747.41,1148.62 800.39,1148.62 				"/>
				<polygon class="st20" points="561.97,1128.94 428.19,1128.94 420.97,1117.2 554.75,1117.2 				"/>
				<polygon class="st20" points="501.54,1066.09 407.68,1066.09 400.46,1054.35 494.32,1054.35 				"/>
				<polygon class="st20" points="838.29,1097.52 744.44,1097.52 737.22,1085.78 831.07,1085.78 				"/>
				<polygon class="st20" points="748.91,1066.09 511.95,1066.09 504.73,1054.35 741.69,1054.35 				"/>
				<polygon class="st20" points="742.52,1160.36 447.51,1160.36 440.29,1148.62 735.3,1148.62 				"/>
				<polygon class="st20" points="876.26,1034.67 721.25,1034.67 714.03,1022.93 869.04,1022.93 				"/>
				<polygon class="st20" points="713.56,1034.67 537.22,1034.67 530,1022.93 706.35,1022.93 				"/>
				<polygon class="st20" points="874.24,1066.09 814.01,1066.09 806.79,1054.35 867.02,1054.35 				"/>
				<polygon class="st20" points="394.59,1066.09 375.98,1066.09 368.76,1054.35 387.37,1054.35 				"/>
				<polygon class="st20" points="395.3,1097.52 376.7,1097.52 369.48,1085.78 388.09,1085.78 				"/>
				<polygon class="st20" points="518.83,1097.52 408.86,1097.52 401.65,1085.78 511.61,1085.78 				"/>
				<polygon class="st20" points="594.93,1191.79 484.97,1191.79 477.75,1180.05 587.71,1180.05 				"/>
				<polygon class="st20" points="938.06,1223.21 796.41,1223.21 789.19,1211.47 930.84,1211.47 				"/>
				<polygon class="st20" points="801.21,1191.79 603.85,1191.79 596.63,1180.05 793.99,1180.05 				"/>
				<polygon class="st20" points="786.79,1223.21 603.72,1223.21 596.51,1211.47 779.57,1211.47 				"/>
				<polygon class="st20" points="536.13,1223.21 504.29,1223.21 497.07,1211.47 528.91,1211.47 				"/>
				<polygon class="st20" points="775.47,1128.94 569.54,1128.94 562.32,1117.2 768.25,1117.2 				"/>
				<polygon class="st20" points="916.83,1128.94 783.15,1128.94 775.93,1117.2 909.61,1117.2 				"/>
				<polygon class="st20" points="735.79,1097.52 530,1097.52 522.79,1085.78 728.57,1085.78 				"/>
				<polygon class="st20" points="414.63,1128.94 396.02,1128.94 388.8,1117.2 407.41,1117.2 				"/>
				<polygon class="st20" points="433.95,1160.36 415.34,1160.36 408.12,1148.62 426.73,1148.62 				"/>
				<polygon class="st20" points="471.87,1191.79 453.27,1191.79 446.05,1180.05 464.65,1180.05 				"/>
				<polygon class="st20" points="491.19,1223.21 472.59,1223.21 465.37,1211.47 483.97,1211.47 				"/>
				<polygon class="st20" points="488.77,1249.53 470.16,1249.53 462.94,1237.79 481.55,1237.79 				"/>
				<polygon class="st20" points="720.49,1249.53 502.33,1249.53 495.11,1237.79 713.28,1237.79 				"/>
				<polygon class="st20" points="526.7,1280.95 508.09,1280.95 500.87,1269.21 519.48,1269.21 				"/>
				<polygon class="st20" points="679.85,1280.95 539.79,1280.95 532.57,1269.21 672.63,1269.21 				"/>
				<polygon class="st20" points="713.39,1375.23 579.61,1375.23 572.39,1363.48 706.18,1363.48 				"/>
				<polygon class="st20" points="652.96,1312.38 559.11,1312.38 551.89,1300.64 645.74,1300.64 				"/>
				<polygon class="st20" points="900.33,1312.38 663.38,1312.38 656.16,1300.64 893.11,1300.64 				"/>
				<polygon class="st20" points="893.95,1406.65 598.93,1406.65 591.71,1394.91 886.73,1394.91 				"/>
				<polygon class="st20" points="1027.68,1280.95 872.68,1280.95 865.46,1269.21 1020.47,1269.21 				"/>
				<polygon class="st20" points="864.99,1280.95 688.65,1280.95 681.43,1269.21 857.77,1269.21 				"/>
				<polygon class="st20" points="1025.67,1312.38 965.43,1312.38 958.21,1300.64 1018.45,1300.64 				"/>
				<polygon class="st20" points="546.02,1312.38 527.41,1312.38 520.19,1300.64 538.8,1300.64 				"/>
				<polygon class="st20" points="546.73,1343.8 528.13,1343.8 520.91,1332.06 539.51,1332.06 				"/>
				<polygon class="st20" points="670.25,1343.8 560.29,1343.8 553.07,1332.06 663.03,1332.06 				"/>
				<polygon class="st20" points="926.89,1375.23 720.96,1375.23 713.75,1363.48 919.68,1363.48 				"/>
				<polygon class="st20" points="887.22,1343.8 681.43,1343.8 674.21,1332.06 880,1332.06 				"/>
				<polygon class="st20" points="566.05,1375.23 547.45,1375.23 540.23,1363.48 558.83,1363.48 				"/>
				<g>
					<path class="st20" d="M304,960.58c1.35,1.15,2.4,2.87,2.44,3.97c-0.01,0.53-0.22,0.79-0.63,0.79c-0.43,0-1.01-0.26-1.66-0.79
						l-14.91-12.58c-0.11-0.04-0.18-0.13-0.29-0.26c-0.05-0.05-0.13-0.09-0.13-0.09c-0.13-0.13-0.19-0.22-0.29-0.35
						c-0.08-0.04-0.16-0.13-0.19-0.18c-0.08-0.09-0.16-0.22-0.21-0.26c-0.08-0.13-0.16-0.17-0.19-0.22
						c-0.08-0.13-0.14-0.22-0.19-0.31c-0.05-0.09-0.11-0.13-0.19-0.26c-0.03-0.05-0.09-0.18-0.11-0.22
						c-0.06-0.09-0.14-0.22-0.19-0.31c-0.06-0.09-0.03-0.13-0.06-0.18c-0.06-0.13-0.11-0.22-0.17-0.35c-0.03-0.04,0-0.04-0.03-0.09
						c-0.03-0.13-0.11-0.31-0.12-0.4c0,0-0.05-0.09,0-0.09c-0.03-0.09-0.06-0.22-0.04-0.31l-0.56-12.57c-0.01-1.06,1.03-1.06,2.3,0
						c1.32,1.1,2.4,2.87,2.44,3.97l0.43,10.55L304,960.58z"/>
					<path class="st20" d="M311.37,961.99l-9.56-25.72c-0.45-1.23,0.01-1.81,1.08-1.28c0.99,0.48,2.22,1.94,2.64,3.13l9.59,25.77
						c0.34,0.93,0.13,1.46-0.41,1.46c-0.15,0-0.38-0.04-0.62-0.17C313.05,964.69,311.83,963.23,311.37,961.99z"/>
					<path class="st20" d="M326.19,951.63c0,0,0.03,0.04,0,0.04c0,0.09,0.03,0.22,0.01,0.31l0.56,12.58
						c0.02,0.53-0.25,0.79-0.66,0.79c-0.43,0-0.98-0.26-1.63-0.79c-1.32-1.1-2.38-2.82-2.44-3.97l-0.43-10.54l-12.53-10.55
						c-1.32-1.1-2.41-2.87-2.44-3.97c-0.04-1.06,1.01-1.06,2.3,0l14.91,12.57c0.13,0.09,0.26,0.22,0.37,0.31
						c0.03,0,0.08,0.09,0.08,0.09c0.16,0.18,0.26,0.26,0.37,0.4c0.03,0.04,0.05,0.04,0.08,0.09c0.11,0.14,0.16,0.22,0.32,0.4
						c0.03,0.04,0.05,0.04,0.11,0.13c0.05,0.09,0.13,0.22,0.19,0.31c0.03,0.04,0.14,0.17,0.16,0.22c0.03,0.04,0.08,0.17,0.11,0.22
						c0.08,0.13,0.14,0.22,0.22,0.35c0.03,0.05,0,0.05,0.03,0.09c0.06,0.18,0.14,0.31,0.17,0.4c0.03,0.04,0,0.04,0.06,0.13
						C326.1,951.32,326.13,951.45,326.19,951.63z"/>
				</g>
			</g>
		</g>
		<rect x="1427.87" y="513.84" class="st21" width="132.71" height="29.89"/>
		<rect x="1427.87" y="557.7" class="st22" width="197.26" height="29.89"/>
		<polygon class="st23" points="737.22,570.5 798.48,474.11 959.02,777.15 		"/>
		<polygon class="st23" points="907.03,556.38 959.02,528.96 991.94,723.5 		"/>
		<polygon class="st24" points="1794.87,384.94 1770.13,347.78 1677.55,465.66 		"/>
		<polygon class="st25" points="1045.23,308.43 1045.23,374.32 989.5,341.38 		"/>
		<circle class="st22" cx="1081.93" cy="341.38" r="22.92"/>
		<linearGradient id="SVGID_3_" gradientUnits="userSpaceOnUse" x1="1177.999" y1="940.6409" x2="1185.0414" y2="1658.9634">
			<stop  offset="0" style="stop-color:#3CDFF0;stop-opacity:0"/>
			<stop  offset="1" style="stop-color:#3CDFF0"/>
		</linearGradient>
		<rect x="-8.14" y="1011.59" class="st26" width="2379.36" height="581.62"/>
		<g>
			<line class="st27" x1="1625.13" y1="720.4" x2="1672.96" y2="720.4"/>
			<line class="st27" x1="1702.18" y1="720.4" x2="1750.02" y2="720.4"/>
			<line class="st27" x1="1682.97" y1="741.33" x2="1695.18" y2="695.08"/>
			<line class="st27" x1="1770.22" y1="714" x2="1761.03" y2="728.79"/>
		</g>
		<g>
			<line class="st27" x1="1473.61" y1="424.89" x2="1485.81" y2="378.64"/>
			<line class="st27" x1="1495.53" y1="419.7" x2="1463.89" y2="383.83"/>
		</g>
		<g>
			<line class="st27" x1="258.99" y1="1152.07" x2="271.19" y2="1105.81"/>
			<line class="st27" x1="280.91" y1="1146.88" x2="249.27" y2="1111"/>
		</g>
		<g>
			<g>
				<path class="st22" d="M670.81,686.25c-0.34,0-0.68-0.04-1.02-0.13c-2.14-0.56-3.41-2.75-2.85-4.89l12.2-46.25
					c0.56-2.14,2.75-3.41,4.89-2.85c2.14,0.56,3.41,2.75,2.85,4.89l-12.2,46.25C674.2,685.07,672.58,686.25,670.81,686.25z"/>
			</g>
			<g>
				<path class="st18" d="M692.73,681.06c-1.11,0-2.21-0.46-3-1.35l-31.64-35.88c-1.46-1.66-1.3-4.18,0.35-5.65
					c1.66-1.46,4.18-1.3,5.65,0.35l31.64,35.88c1.46,1.66,1.3,4.18-0.35,5.65C694.61,680.73,693.67,681.06,692.73,681.06z"/>
			</g>
		</g>
		<g>
			<g>
				<g>
					<g>
						<path class="st28" d="M842.02,391.42c-0.34,0-0.68-0.04-1.02-0.13c-2.14-0.56-3.41-2.75-2.85-4.89l12.2-46.25
							c0.56-2.14,2.75-3.41,4.89-2.85c2.14,0.56,3.41,2.75,2.85,4.89l-12.2,46.25C845.41,390.24,843.79,391.42,842.02,391.42z"/>
					</g>
				</g>
				<g>
					<path class="st28" d="M863.95,386.23c-1.11,0-2.21-0.46-3-1.35L829.3,349c-1.46-1.66-1.3-4.18,0.35-5.65
						c1.66-1.46,4.18-1.3,5.65,0.35l31.64,35.88c1.46,1.66,1.3,4.18-0.35,5.65C865.83,385.9,864.89,386.23,863.95,386.23z"/>
				</g>
			</g>
		</g>
		<g>
			<g>
				<g>
					<g>
						<path class="st28" d="M2131.06,1214.12c-0.34,0-0.68-0.04-1.02-0.13c-2.14-0.56-3.41-2.75-2.85-4.89l12.2-46.25
							c0.56-2.14,2.75-3.41,4.89-2.85c2.14,0.56,3.41,2.75,2.85,4.89l-12.2,46.25C2134.46,1212.93,2132.84,1214.12,2131.06,1214.12z
							"/>
					</g>
				</g>
				<g>
					<path class="st28" d="M2152.99,1208.93c-1.11,0-2.21-0.46-3-1.35l-31.64-35.88c-1.46-1.66-1.3-4.18,0.35-5.65
						c1.66-1.46,4.18-1.3,5.65,0.35l31.64,35.88c1.46,1.66,1.3,4.18-0.35,5.65C2154.87,1208.6,2153.93,1208.93,2152.99,1208.93z"/>
				</g>
			</g>
		</g>
		<g>
			<g>
				<g>
					<g>
						<path class="st28" d="M207.15,1224.06c-0.34,0-0.68-0.04-1.02-0.13c-2.14-0.56-3.41-2.75-2.85-4.89l12.2-46.25
							c0.56-2.14,2.75-3.41,4.89-2.85c2.14,0.56,3.41,2.75,2.85,4.89l-12.2,46.25C210.54,1222.88,208.93,1224.06,207.15,1224.06z"/>
					</g>
				</g>
				<g>
					<path class="st28" d="M229.08,1218.87c-1.11,0-2.21-0.46-3-1.35l-31.64-35.88c-1.46-1.66-1.3-4.18,0.35-5.65
						c1.66-1.46,4.18-1.3,5.65,0.35l31.64,35.88c1.46,1.66,1.3,4.18-0.35,5.65C230.96,1218.54,230.02,1218.87,229.08,1218.87z"/>
				</g>
			</g>
		</g>
		<circle class="st1" cx="1291.34" cy="201.96" r="21.2"/>
		<circle class="st1" cx="1339.77" cy="201.96" r="21.2"/>
		<circle class="st22" cx="1388.21" cy="201.96" r="21.2"/>
		<circle class="st1" cx="1436.65" cy="201.96" r="21.2"/>
	</g>
</g>
</svg>
