<svg xmlns="http://www.w3.org/2000/svg" xmlns:xlink="http://www.w3.org/1999/xlink" viewBox="0 0 1551.42 908.27"><defs><style>.cls-1,.cls-15,.cls-20,.cls-31,.cls-33,.cls-34{fill:none;}.cls-2{isolation:isolate;}.cls-3{clip-path:url(#clip-path);}.cls-4{fill:#152f46;}.cls-5{fill:#19354d;opacity:0.3;}.cls-21,.cls-5{mix-blend-mode:screen;}.cls-6{fill:#051630;}.cls-21,.cls-7{fill:#c8f2fe;}.cls-8{fill:#0f2034;}.cls-9{fill:#e687a9;}.cls-10,.cls-18{fill:#fd8f8e;}.cls-10,.cls-17,.cls-22{mix-blend-mode:multiply;}.cls-11{fill:#202135;}.cls-12{fill:#274964;}.cls-13{mix-blend-mode:overlay;}.cls-14{fill:#1a364e;}.cls-15{stroke:#fff;}.cls-15,.cls-20,.cls-25,.cls-26,.cls-31,.cls-33,.cls-34{stroke-miterlimit:10;}.cls-15,.cls-33{stroke-width:3.63px;}.cls-16{fill:#171926;}.cls-19,.cls-25,.cls-26{fill:#fff;}.cls-20,.cls-34{stroke:#c8f2fe;}.cls-20{stroke-width:2.4px;}.cls-21,.cls-30{opacity:0.5;}.cls-22{fill:#1c2340;}.cls-23{opacity:0.82;mix-blend-mode:hard-light;}.cls-24{fill:#3cdff0;}.cls-25,.cls-26{stroke:#231f20;}.cls-25{stroke-width:0.49px;}.cls-26{stroke-width:0.53px;}.cls-27{fill:#114b79;}.cls-28,.cls-29,.cls-30{fill:#1d6e83;}.cls-29{opacity:0.21;}.cls-31{stroke:#114b79;stroke-width:1.48px;}.cls-32{fill:url(#linear-gradient);}.cls-33{stroke:#f9f4f5;stroke-linecap:round;}.cls-34{stroke-width:0.45px;}</style><clipPath id="clip-path" transform="translate(-450.75 -350.46)"><rect class="cls-1" x="574.83" y="460.21" width="1200" height="630"/></clipPath><linearGradient id="linear-gradient" x1="726.08" y1="489.61" x2="728.94" y2="780.98" gradientUnits="userSpaceOnUse"><stop offset="0" stop-color="#3cdff0" stop-opacity="0"/><stop offset="0.09" stop-color="#3cdff0" stop-opacity="0.03"/><stop offset="0.23" stop-color="#3cdff0" stop-opacity="0.11"/><stop offset="0.38" stop-color="#3cdff0" stop-opacity="0.24"/><stop offset="0.56" stop-color="#3cdff0" stop-opacity="0.42"/><stop offset="0.76" stop-color="#3cdff0" stop-opacity="0.66"/><stop offset="0.96" stop-color="#3cdff0" stop-opacity="0.94"/><stop offset="1" stop-color="#3cdff0"/></linearGradient></defs><g class="cls-2"><g id="Layer_2" data-name="Layer 2"><g class="cls-3"><rect class="cls-4" x="115.84" y="113.59" width="1204.5" height="626.15"/><polygon class="cls-5" points="31.53 303.89 440.9 0 669.55 77.41 1349.42 823.27 0 282.05 31.53 303.89"/><polyline class="cls-5" points="1157.22 45.2 1551.42 78.44 713.94 908.27"/><ellipse class="cls-6" cx="731.19" cy="452.37" rx="423.9" ry="332.49"/><ellipse class="cls-6" cx="752.33" cy="453.23" rx="423.9" ry="332.49"/><path class="cls-7" d="M650.51,399.26H820A134.55,134.55,0,0,1,954.51,533.81v63.67a0,0,0,0,1,0,0H516a0,0,0,0,1,0,0V533.81A134.55,134.55,0,0,1,650.51,399.26Z"/><path class="cls-8" d="M646.33,402.74H819.21A135.31,135.31,0,0,1,954.51,538V601a0,0,0,0,1,0,0H511a0,0,0,0,1,0,0V538A135.31,135.31,0,0,1,646.33,402.74Z"/><path class="cls-7" d="M702.27,287.67h65.25a64.14,64.14,0,0,1,64.14,64.14v37.94a0,0,0,0,1,0,0H638.12a0,0,0,0,1,0,0V351.82A64.14,64.14,0,0,1,702.27,287.67Z"/><path class="cls-8" d="M697.62,291h70.28a63.75,63.75,0,0,1,63.75,63.75V389.7a0,0,0,0,1,0,0H633.87a0,0,0,0,1,0,0V354.78A63.75,63.75,0,0,1,697.62,291Z"/><rect class="cls-9" x="696.49" y="403.99" width="65.72" height="46.64"/><polygon class="cls-10" points="762.21 427.31 710.56 450.63 696.49 450.63 696.49 416.48 762.21 427.31"/><path class="cls-7" d="M1541.43,957.86l-566.26,8.06-159.08-7.25S871,846.75,1021.58,802.47c0,0,63.39-41.57,111.29-23.79a61.55,61.55,0,0,1,15.59,8.49s51.14,22.54,81.44-4.83a160.19,160.19,0,0,1,25.54-5.94c22-3.34,53.18-3.6,72.94,15.6,0,0,207.37,79.71,209.27,129.63Z" transform="translate(-450.75 -350.46)"/><path class="cls-11" d="M1535.35,960.34l-566.26,8L810,961.14S864.93,849.23,1015.49,805c0,0,63.39-41.57,111.3-23.79a61.49,61.49,0,0,1,15.58,8.49s51.14,22.54,81.44-4.83a160.16,160.16,0,0,1,25.55-5.94c22-3.34,53.17-3.6,72.93,15.6,0,0,207.38,79.71,209.27,129.63Z" transform="translate(-450.75 -350.46)"/><path class="cls-12" d="M1787.06,1090.21H566.59V883.73l438.33,58a1305.07,1305.07,0,0,0,340.33.13l441.81-58.12Z" transform="translate(-450.75 -350.46)"/><rect class="cls-7" x="737.58" y="612.88" width="41.45" height="24.96" rx="12.48"/><path class="cls-7" d="M1277.42,988.31h-26.71c-4.07,0-7.74-2.69-8.21-6l-1.94-14c-.46-3.32,2.46-6,6.53-6h26.72c4.06,0,7.74,2.69,8.2,6l1.94,14C1284.42,985.62,1281.49,988.31,1277.42,988.31Z" transform="translate(-450.75 -350.46)"/><path class="cls-7" d="M1286.86,1019.27h-28.72c-4.37,0-8.32-2.69-8.82-6l-2.09-14c-.49-3.33,2.65-6,7-6H1283c4.37,0,8.32,2.69,8.82,6l2.09,14C1294.38,1016.58,1291.23,1019.27,1286.86,1019.27Z" transform="translate(-450.75 -350.46)"/><path class="cls-7" d="M1295.06,1048.85h-30.13c-4.59,0-8.73-2.69-9.25-6l-2.19-13.95c-.52-3.33,2.77-6,7.36-6H1291c4.59,0,8.74,2.69,9.26,6l2.19,13.95C1303,1046.16,1299.65,1048.85,1295.06,1048.85Z" transform="translate(-450.75 -350.46)"/><path class="cls-7" d="M1302.41,1081.2h-32.35c-4.93,0-9.38-2.69-9.94-6l-2.35-14c-.56-3.32,3-6,7.91-6H1298c4.93,0,9.38,2.69,9.94,6l2.35,14C1310.88,1078.51,1307.34,1081.2,1302.41,1081.2Z" transform="translate(-450.75 -350.46)"/><rect class="cls-7" x="736.35" y="643.85" width="47.95" height="24.96" rx="12.48"/><rect class="cls-7" x="736.35" y="674.81" width="53.21" height="24.96" rx="12.48"/><rect class="cls-7" x="736.35" y="705.78" width="58.47" height="24.96" rx="12.48"/><path class="cls-7" d="M1328,987.48H1301.3c-4.07,0-7.52-2.58-7.7-5.76l-.77-13.38c-.18-3.18,3-5.77,7-5.77h26.71c4.07,0,7.52,2.59,7.7,5.77l.77,13.38C1335.23,984.9,1332.08,987.48,1328,987.48Z" transform="translate(-450.75 -350.46)"/><path class="cls-7" d="M1343.36,1017.41h-32.1c-4.38,0-8.08-2.77-8.28-6.2l-.72-12.5c-.19-3.43,3.19-6.21,7.57-6.21h32.1c4.38,0,8.08,2.78,8.28,6.21l.72,12.5C1351.12,1014.64,1347.73,1017.41,1343.36,1017.41Z" transform="translate(-450.75 -350.46)"/><path class="cls-7" d="M1361.39,1047.34h-36.52c-4.61,0-8.51-2.92-8.72-6.53l-.68-11.84c-.21-3.61,3.36-6.54,8-6.54H1360c4.61,0,8.51,2.93,8.72,6.54l.68,11.84C1369.57,1044.42,1366,1047.34,1361.39,1047.34Z" transform="translate(-450.75 -350.46)"/><path class="cls-7" d="M1375.2,1077.27h-41c-4.83,0-8.93-3.06-9.14-6.85l-.65-11.21c-.21-3.78,3.53-6.84,8.36-6.84h41c4.84,0,8.93,3.06,9.15,6.84l.64,11.21C1383.78,1074.21,1380,1077.27,1375.2,1077.27Z" transform="translate(-450.75 -350.46)"/><path class="cls-7" d="M1395,983.6h-31.48c-4.79,0-9-2.54-9.29-5.68l-1.43-13.16c-.35-3.13,3.26-5.67,8.06-5.67h31.47c4.8,0,9,2.54,9.3,5.67l1.43,13.16C1403.41,981.06,1399.8,983.6,1395,983.6Z" transform="translate(-450.75 -350.46)"/><path class="cls-7" d="M1414.27,1013.06h-37.82c-5.15,0-9.63-2.73-10-6.1l-1.33-12.31c-.37-3.37,3.51-6.11,8.67-6.11h37.82c5.15,0,9.63,2.74,10,6.11l1.33,12.31C1423.31,1010.33,1419.43,1013.06,1414.27,1013.06Z" transform="translate(-450.75 -350.46)"/><path class="cls-7" d="M1436.69,1042.52h-43c-5.43,0-10.15-2.88-10.53-6.43l-1.27-11.66c-.38-3.55,3.71-6.43,9.14-6.43h43c5.43,0,10.15,2.88,10.53,6.43l1.27,11.66C1446.21,1039.64,1442.12,1042.52,1436.69,1042.52Z" transform="translate(-450.75 -350.46)"/><path class="cls-7" d="M1454.15,1072h-48.27c-5.7,0-10.64-3-11.05-6.74l-1.2-11c-.4-3.72,3.89-6.74,9.58-6.74h48.27c5.7,0,10.64,3,11,6.74l1.2,11C1464.13,1069,1459.84,1072,1454.15,1072Z" transform="translate(-450.75 -350.46)"/><path class="cls-7" d="M1456.23,979.23h-31.48c-4.79,0-9.72-2.35-11-5.26l-5.4-12.2c-1.29-2.9,1.55-5.26,6.35-5.26h31.47c4.8,0,9.73,2.36,11,5.26l5.41,12.2C1463.87,976.88,1461,979.23,1456.23,979.23Z" transform="translate(-450.75 -350.46)"/><path class="cls-7" d="M1484.38,1006.54h-37.81c-5.16,0-10.46-2.53-11.85-5.66l-5-11.41c-1.38-3.12,1.67-5.65,6.83-5.65h37.82c5.15,0,10.46,2.53,11.84,5.65l5,11.41C1492.6,1004,1489.54,1006.54,1484.38,1006.54Z" transform="translate(-450.75 -350.46)"/><path class="cls-7" d="M1515.7,1033.84h-43c-5.44,0-11-2.66-12.48-6l-4.78-10.8c-1.46-3.29,1.76-6,7.19-6h43c5.43,0,11,2.67,12.48,6l4.78,10.8C1524.35,1031.18,1521.13,1033.84,1515.7,1033.84Z" transform="translate(-450.75 -350.46)"/><path class="cls-7" d="M1542,1061.15h-48.27c-5.69,0-11.55-2.8-13.07-6.25l-4.53-10.23c-1.53-3.45,1.84-6.24,7.54-6.24H1532c5.69,0,11.55,2.79,13.08,6.24l4.53,10.23C1551.12,1058.35,1547.74,1061.15,1542,1061.15Z" transform="translate(-450.75 -350.46)"/><path class="cls-7" d="M1518.52,972l-31.46,1c-4.79.15-10.3-2.13-12.31-5.08l-8.45-12.42c-2-3,.24-5.47,5-5.62l31.45-1c4.79-.14,10.31,2.13,12.32,5.09l8.45,12.42C1525.56,969.37,1523.31,971.89,1518.52,972Z" transform="translate(-450.75 -350.46)"/><path class="cls-7" d="M1553.47,999.33l-37.79,1.16c-5.15.16-11.08-2.29-13.25-5.47l-7.89-11.61c-2.17-3.18.26-5.88,5.41-6l37.79-1.16c5.15-.16,11.08,2.29,13.24,5.47l7.9,11.61C1561,996.47,1558.62,999.17,1553.47,999.33Z" transform="translate(-450.75 -350.46)"/><path class="cls-7" d="M1591.58,1026.53l-43,1.32c-5.43.16-11.68-2.42-14-5.77l-7.47-11c-2.28-3.35.27-6.2,5.7-6.37l43-1.32c5.43-.16,11.68,2.42,14,5.77l7.48,11C1599.56,1023.51,1597,1026.36,1591.58,1026.53Z" transform="translate(-450.75 -350.46)"/><path class="cls-7" d="M1624.72,1053.88l-48.23,1.48c-5.69.17-12.24-2.53-14.63-6l-7.08-10.41c-2.39-3.51.29-6.5,6-6.68l48.23-1.48c5.69-.17,12.24,2.53,14.63,6l7.08,10.41C1633.09,1050.71,1630.41,1053.7,1624.72,1053.88Z" transform="translate(-450.75 -350.46)"/><path class="cls-7" d="M1592,963.56l-31.35,2.24c-4.77.34-10.41-1.58-12.6-4.3l-9.17-11.39c-2.19-2.72-.09-5.19,4.69-5.53l31.34-2.24c4.78-.34,10.42,1.58,12.6,4.29l9.18,11.4C1598.83,960.74,1596.73,963.22,1592,963.56Z" transform="translate(-450.75 -350.46)"/><path class="cls-7" d="M1628.49,987.92l-37.66,2.69c-5.14.37-11.21-1.7-13.55-4.62l-8.58-10.65c-2.35-2.92-.1-5.59,5-6l37.66-2.69c5.13-.37,11.2,1.7,13.55,4.62l8.58,10.65C1635.88,984.89,1633.62,987.55,1628.49,987.92Z" transform="translate(-450.75 -350.46)"/><path class="cls-7" d="M1668.16,1012.06l-42.84,3.06c-5.41.38-11.8-1.8-14.28-4.87l-8.12-10.09c-2.48-3.07-.1-5.88,5.31-6.27l42.84-3c5.41-.39,11.81,1.79,14.28,4.86l8.13,10.09C1676,1008.87,1673.57,1011.67,1668.16,1012.06Z" transform="translate(-450.75 -350.46)"/><path class="cls-7" d="M1702.89,1036.55l-48.07,3.43c-5.67.4-12.37-1.88-15-5.1l-7.69-9.55c-2.59-3.23-.1-6.17,5.57-6.57l48.07-3.44c5.68-.4,12.38,1.88,15,5.11l7.69,9.55C1711.06,1033.2,1708.56,1036.14,1702.89,1036.55Z" transform="translate(-450.75 -350.46)"/><rect class="cls-7" x="683.86" y="612.88" width="41.45" height="24.96" rx="12.48"/><path class="cls-7" d="M1087,988.31h26.72c4.07,0,7.74-2.69,8.2-6l1.95-14c.46-3.32-2.46-6-6.53-6h-26.72c-4.07,0-7.74,2.69-8.2,6l-2,14C1080,985.62,1082.89,988.31,1087,988.31Z" transform="translate(-450.75 -350.46)"/><path class="cls-7" d="M1077.53,1019.27h28.71c4.38,0,8.33-2.69,8.82-6l2.09-14c.5-3.33-2.64-6-7-6h-28.71c-4.38,0-8.32,2.69-8.82,6l-2.09,14C1070,1016.58,1073.16,1019.27,1077.53,1019.27Z" transform="translate(-450.75 -350.46)"/><path class="cls-7" d="M1069.32,1048.85h30.13c4.59,0,8.74-2.69,9.26-6l2.19-13.95c.52-3.33-2.78-6-7.36-6h-30.13c-4.59,0-8.74,2.69-9.26,6l-2.19,13.95C1061.44,1046.16,1064.73,1048.85,1069.32,1048.85Z" transform="translate(-450.75 -350.46)"/><path class="cls-7" d="M1062,1081.2h32.35c4.93,0,9.38-2.69,9.94-6l2.35-14c.56-3.32-3-6-7.91-6h-32.35c-4.93,0-9.38,2.69-9.94,6l-2.35,14C1053.51,1078.51,1057.05,1081.2,1062,1081.2Z" transform="translate(-450.75 -350.46)"/><rect class="cls-7" x="678.6" y="643.85" width="47.95" height="24.96" rx="12.48"/><rect class="cls-7" x="673.33" y="674.81" width="53.21" height="24.96" rx="12.48"/><rect class="cls-7" x="668.07" y="705.78" width="58.47" height="24.96" rx="12.48"/><path class="cls-7" d="M1036.38,987.48h26.71c4.07,0,7.52-2.58,7.7-5.76l.77-13.38c.18-3.18-3-5.77-7-5.77h-26.71c-4.07,0-7.52,2.59-7.7,5.77l-.77,13.38C1029.16,984.9,1032.31,987.48,1036.38,987.48Z" transform="translate(-450.75 -350.46)"/><path class="cls-7" d="M1021,1017.41h32.1c4.37,0,8.08-2.77,8.28-6.2l.72-12.5c.19-3.43-3.2-6.21-7.57-6.21h-32.1c-4.38,0-8.08,2.78-8.28,6.21l-.72,12.5C1013.27,1014.64,1016.65,1017.41,1021,1017.41Z" transform="translate(-450.75 -350.46)"/><path class="cls-7" d="M1003,1047.34h36.52c4.61,0,8.51-2.92,8.72-6.53l.68-11.84c.2-3.61-3.37-6.54-8-6.54h-36.51c-4.61,0-8.52,2.93-8.72,6.54l-.68,11.84C994.82,1044.42,998.39,1047.34,1003,1047.34Z" transform="translate(-450.75 -350.46)"/><path class="cls-7" d="M989.19,1077.27h41c4.83,0,8.92-3.06,9.14-6.85l.64-11.21c.22-3.78-3.52-6.84-8.35-6.84h-41c-4.83,0-8.92,3.06-9.14,6.84l-.64,11.21C980.61,1074.21,984.35,1077.27,989.19,1077.27Z" transform="translate(-450.75 -350.46)"/><path class="cls-7" d="M969.38,983.6h31.47c4.8,0,9-2.54,9.3-5.68l1.43-13.16c.34-3.13-3.27-5.67-8.06-5.67H972c-4.79,0-8.95,2.54-9.29,5.67l-1.43,13.16C961,981.06,964.59,983.6,969.38,983.6Z" transform="translate(-450.75 -350.46)"/><path class="cls-7" d="M950.12,1013.06h37.81c5.16,0,9.64-2.73,10-6.1l1.34-12.31c.37-3.37-3.51-6.11-8.67-6.11H952.78c-5.15,0-9.63,2.74-10,6.11L941.44,1007C941.08,1010.33,945,1013.06,950.12,1013.06Z" transform="translate(-450.75 -350.46)"/><path class="cls-7" d="M927.69,1042.52h43c5.43,0,10.14-2.88,10.53-6.43l1.27-11.66c.38-3.55-3.71-6.43-9.14-6.43h-43c-5.43,0-10.15,2.88-10.53,6.43l-1.27,11.66C918.17,1039.64,922.26,1042.52,927.69,1042.52Z" transform="translate(-450.75 -350.46)"/><path class="cls-7" d="M910.24,1072h48.27c5.69,0,10.64-3,11-6.74l1.2-11c.41-3.72-3.88-6.74-9.57-6.74H912.9c-5.69,0-10.63,3-11,6.74l-1.2,11C900.26,1069,904.54,1072,910.24,1072Z" transform="translate(-450.75 -350.46)"/><path class="cls-7" d="M908.16,979.23h31.47c4.8,0,9.73-2.35,11-5.26l5.41-12.2c1.29-2.9-1.56-5.26-6.35-5.26H918.22c-4.79,0-9.72,2.36-11,5.26l-5.4,12.2C900.52,976.88,903.37,979.23,908.16,979.23Z" transform="translate(-450.75 -350.46)"/><path class="cls-7" d="M880,1006.54h37.82c5.16,0,10.46-2.53,11.84-5.66l5.06-11.41c1.38-3.12-1.68-5.65-6.83-5.65H890.07c-5.16,0-10.46,2.53-11.84,5.65l-5.05,11.41C871.79,1004,874.85,1006.54,880,1006.54Z" transform="translate(-450.75 -350.46)"/><path class="cls-7" d="M848.69,1033.84h43c5.43,0,11-2.66,12.48-6l4.78-10.8c1.46-3.29-1.76-6-7.19-6h-43c-5.44,0-11,2.67-12.48,6l-4.78,10.8C840,1031.18,843.26,1033.84,848.69,1033.84Z" transform="translate(-450.75 -350.46)"/><path class="cls-7" d="M822.34,1061.15h48.28c5.69,0,11.54-2.8,13.07-6.25l4.53-10.23c1.53-3.45-1.85-6.24-7.54-6.24H832.41c-5.7,0-11.55,2.79-13.08,6.24l-4.53,10.23C813.27,1058.35,816.65,1061.15,822.34,1061.15Z" transform="translate(-450.75 -350.46)"/><path class="cls-7" d="M845.87,972l31.45,1c4.79.15,10.31-2.13,12.32-5.08l8.45-12.42c2-3-.24-5.47-5-5.62l-31.45-1c-4.79-.14-10.3,2.13-12.31,5.09l-8.45,12.42C838.83,969.37,841.08,971.89,845.87,972Z" transform="translate(-450.75 -350.46)"/><path class="cls-7" d="M810.92,999.33l37.79,1.16c5.15.16,11.08-2.29,13.24-5.47l7.9-11.61c2.17-3.18-.26-5.88-5.41-6l-37.79-1.16c-5.15-.16-11.08,2.29-13.24,5.47l-7.9,11.61C803.35,996.47,805.77,999.17,810.92,999.33Z" transform="translate(-450.75 -350.46)"/><path class="cls-7" d="M772.81,1026.53l43,1.32c5.43.16,11.67-2.42,14-5.77l7.48-11c2.28-3.35-.27-6.2-5.7-6.37l-43-1.32c-5.42-.16-11.67,2.42-13.95,5.77l-7.48,11C764.83,1023.51,767.39,1026.36,772.81,1026.53Z" transform="translate(-450.75 -350.46)"/><path class="cls-7" d="M739.67,1053.88l48.23,1.48c5.69.17,12.24-2.53,14.63-6l7.08-10.41c2.39-3.51-.29-6.5-6-6.68l-48.23-1.48c-5.69-.17-12.24,2.53-14.63,6l-7.08,10.41C731.3,1050.71,734,1053.7,739.67,1053.88Z" transform="translate(-450.75 -350.46)"/><path class="cls-7" d="M772.43,963.56l31.34,2.24c4.78.34,10.42-1.58,12.6-4.3l9.18-11.39c2.19-2.72.09-5.19-4.69-5.53l-31.34-2.24c-4.78-.34-10.42,1.58-12.6,4.29L767.74,958C765.55,960.74,767.65,963.22,772.43,963.56Z" transform="translate(-450.75 -350.46)"/><path class="cls-7" d="M735.9,987.92l37.66,2.69c5.14.37,11.2-1.7,13.55-4.62l8.58-10.65c2.35-2.92.09-5.59-5-6L753,966.7c-5.14-.37-11.2,1.7-13.55,4.62L730.86,982C728.51,984.89,730.76,987.55,735.9,987.92Z" transform="translate(-450.75 -350.46)"/><path class="cls-7" d="M696.22,1012.06l42.85,3.06c5.41.38,11.8-1.8,14.27-4.87l8.13-10.09c2.47-3.07.1-5.88-5.31-6.27l-42.85-3c-5.41-.39-11.8,1.79-14.27,4.86l-8.13,10.09C688.44,1008.87,690.82,1011.67,696.22,1012.06Z" transform="translate(-450.75 -350.46)"/><path class="cls-7" d="M661.49,1036.55l48.08,3.43c5.67.4,12.37-1.88,15-5.1l7.7-9.55c2.59-3.23.1-6.17-5.57-6.57l-48.08-3.44c-5.67-.4-12.37,1.88-15,5.11l-7.69,9.55C653.33,1033.2,655.82,1036.14,661.49,1036.55Z" transform="translate(-450.75 -350.46)"/><g class="cls-13"><rect class="cls-14" x="730.41" y="615.07" width="41.45" height="24.96" rx="12.48"/><path class="cls-14" d="M1270.26,990.49h-26.72c-4.07,0-7.74-2.69-8.2-6l-1.95-14c-.46-3.32,2.46-6,6.53-6h26.72c4.07,0,7.74,2.69,8.2,6l2,14C1277.25,987.8,1274.32,990.49,1270.26,990.49Z" transform="translate(-450.75 -350.46)"/><path class="cls-14" d="M1279.69,1021.46H1251c-4.37,0-8.32-2.7-8.82-6l-2.08-14c-.5-3.33,2.64-6,7-6h28.72c4.37,0,8.32,2.69,8.82,6l2.09,14C1287.21,1018.76,1284.06,1021.46,1279.69,1021.46Z" transform="translate(-450.75 -350.46)"/><path class="cls-14" d="M1287.9,1051h-30.14c-4.58,0-8.73-2.69-9.25-6l-2.19-14c-.52-3.33,2.77-6,7.36-6h30.13c4.59,0,8.74,2.69,9.26,6l2.19,14C1295.78,1048.34,1292.48,1051,1287.9,1051Z" transform="translate(-450.75 -350.46)"/><path class="cls-14" d="M1295.24,1083.38h-32.35c-4.93,0-9.38-2.69-9.94-6l-2.35-14c-.56-3.33,3-6,7.91-6h32.35c4.93,0,9.38,2.69,9.94,6l2.35,14C1303.71,1080.69,1300.17,1083.38,1295.24,1083.38Z" transform="translate(-450.75 -350.46)"/><rect class="cls-14" x="729.18" y="646.03" width="47.95" height="24.96" rx="12.48"/><rect class="cls-14" x="729.18" y="676.99" width="53.21" height="24.96" rx="12.48"/><rect class="cls-14" x="729.18" y="707.96" width="58.47" height="24.96" rx="12.48"/><path class="cls-14" d="M1320.84,989.66h-26.71c-4.07,0-7.52-2.58-7.7-5.76l-.77-13.38c-.18-3.18,3-5.76,7-5.76h26.71c4.07,0,7.52,2.58,7.7,5.76l.77,13.38C1328.06,987.08,1324.91,989.66,1320.84,989.66Z" transform="translate(-450.75 -350.46)"/><path class="cls-14" d="M1336.19,1019.59h-32.1c-4.38,0-8.08-2.77-8.28-6.2l-.72-12.5c-.19-3.43,3.2-6.2,7.57-6.2h32.1c4.38,0,8.08,2.77,8.28,6.2l.72,12.5C1344,1016.82,1340.57,1019.59,1336.19,1019.59Z" transform="translate(-450.75 -350.46)"/><path class="cls-14" d="M1354.22,1049.52H1317.7c-4.61,0-8.51-2.92-8.72-6.53l-.68-11.84c-.2-3.61,3.36-6.53,8-6.53h36.52c4.61,0,8.51,2.92,8.72,6.53l.68,11.84C1362.4,1046.6,1358.83,1049.52,1354.22,1049.52Z" transform="translate(-450.75 -350.46)"/><path class="cls-14" d="M1368,1079.45h-41c-4.83,0-8.93-3.06-9.14-6.85l-.65-11.21c-.21-3.78,3.53-6.84,8.36-6.84h41c4.84,0,8.93,3.06,9.15,6.84l.64,11.21C1376.61,1076.39,1372.87,1079.45,1368,1079.45Z" transform="translate(-450.75 -350.46)"/><path class="cls-14" d="M1387.84,985.78h-31.48c-4.79,0-8.95-2.54-9.29-5.67l-1.43-13.17c-.34-3.13,3.27-5.67,8.06-5.67h31.47c4.8,0,9,2.54,9.3,5.67l1.43,13.17C1396.24,983.24,1392.63,985.78,1387.84,985.78Z" transform="translate(-450.75 -350.46)"/><path class="cls-14" d="M1407.1,1015.24h-37.81c-5.16,0-9.64-2.73-10-6.1L1358,996.83c-.37-3.37,3.51-6.1,8.67-6.1h37.82c5.15,0,9.63,2.73,10,6.1l1.33,12.31C1416.14,1012.51,1412.26,1015.24,1407.1,1015.24Z" transform="translate(-450.75 -350.46)"/><path class="cls-14" d="M1429.52,1044.7h-43c-5.43,0-10.14-2.88-10.53-6.43l-1.27-11.66c-.38-3.55,3.71-6.43,9.14-6.43h43c5.43,0,10.15,2.88,10.53,6.43l1.27,11.66C1439.05,1041.82,1435,1044.7,1429.52,1044.7Z" transform="translate(-450.75 -350.46)"/><path class="cls-14" d="M1447,1074.16h-48.27c-5.7,0-10.64-3-11-6.74l-1.2-11c-.41-3.72,3.88-6.74,9.57-6.74h48.28c5.69,0,10.63,3,11,6.74l1.2,11C1457,1071.14,1452.67,1074.16,1447,1074.16Z" transform="translate(-450.75 -350.46)"/><path class="cls-14" d="M1449.06,981.41h-31.48c-4.79,0-9.72-2.35-11-5.26l-5.4-12.2c-1.29-2.9,1.56-5.26,6.35-5.26H1439c4.8,0,9.73,2.36,11,5.26l5.41,12.2C1456.7,979.06,1453.85,981.41,1449.06,981.41Z" transform="translate(-450.75 -350.46)"/><path class="cls-14" d="M1477.21,1008.72H1439.4c-5.16,0-10.46-2.53-11.84-5.66l-5.06-11.41c-1.38-3.12,1.68-5.65,6.83-5.65h37.82c5.16,0,10.46,2.53,11.84,5.65l5,11.41C1485.43,1006.19,1482.37,1008.72,1477.21,1008.72Z" transform="translate(-450.75 -350.46)"/><path class="cls-14" d="M1508.53,1036h-43c-5.43,0-11-2.66-12.48-6l-4.78-10.81c-1.46-3.29,1.76-6,7.19-6h43c5.43,0,11,2.67,12.48,6l4.78,10.81C1517.18,1033.36,1514,1036,1508.53,1036Z" transform="translate(-450.75 -350.46)"/><path class="cls-14" d="M1534.88,1063.33H1486.6c-5.69,0-11.55-2.8-13.07-6.25l-4.53-10.22c-1.53-3.46,1.84-6.25,7.54-6.25h48.27c5.69,0,11.55,2.79,13.08,6.25l4.53,10.22C1544,1060.53,1540.57,1063.33,1534.88,1063.33Z" transform="translate(-450.75 -350.46)"/><path class="cls-14" d="M1511.35,974.22l-31.45,1c-4.79.15-10.31-2.13-12.32-5.08l-8.45-12.42c-2-3,.24-5.47,5-5.62l31.46-1c4.79-.14,10.3,2.13,12.31,5.09l8.45,12.42C1518.39,971.55,1516.14,974.07,1511.35,974.22Z" transform="translate(-450.75 -350.46)"/><path class="cls-14" d="M1546.3,1001.51l-37.79,1.16c-5.15.16-11.08-2.29-13.25-5.47l-7.89-11.61c-2.17-3.18.26-5.88,5.41-6l37.79-1.16c5.15-.16,11.08,2.29,13.24,5.47l7.9,11.61C1553.87,998.65,1551.45,1001.35,1546.3,1001.51Z" transform="translate(-450.75 -350.46)"/><path class="cls-14" d="M1584.41,1028.71l-43,1.32c-5.43.17-11.68-2.41-14-5.76l-7.48-11c-2.28-3.35.27-6.2,5.7-6.36l43-1.33c5.42-.16,11.67,2.42,14,5.77l7.48,11C1592.39,1025.69,1589.83,1028.54,1584.41,1028.71Z" transform="translate(-450.75 -350.46)"/><path class="cls-14" d="M1617.55,1056.06l-48.23,1.48c-5.69.17-12.24-2.53-14.63-6l-7.08-10.41c-2.39-3.51.29-6.5,6-6.67l48.23-1.49c5.69-.17,12.24,2.53,14.63,6l7.08,10.41C1625.92,1052.89,1623.24,1055.88,1617.55,1056.06Z" transform="translate(-450.75 -350.46)"/><path class="cls-14" d="M1584.79,965.74,1553.45,968c-4.78.34-10.42-1.58-12.6-4.3l-9.18-11.39c-2.19-2.72-.09-5.19,4.69-5.53l31.34-2.24c4.78-.34,10.42,1.58,12.6,4.29l9.18,11.4C1591.66,962.92,1589.57,965.4,1584.79,965.74Z" transform="translate(-450.75 -350.46)"/><path class="cls-14" d="M1621.32,990.1l-37.66,2.69c-5.14.37-11.2-1.7-13.55-4.62l-8.58-10.65c-2.35-2.92-.1-5.58,5-5.95l37.66-2.69c5.14-.37,11.2,1.7,13.55,4.62l8.58,10.65C1628.71,987.07,1626.45,989.74,1621.32,990.1Z" transform="translate(-450.75 -350.46)"/><path class="cls-14" d="M1661,1014.24l-42.84,3.06c-5.41.38-11.8-1.8-14.28-4.87l-8.12-10.09c-2.48-3.07-.1-5.88,5.31-6.26l42.85-3.06c5.41-.39,11.8,1.79,14.27,4.86l8.13,10.09C1668.78,1011.05,1666.4,1013.85,1661,1014.24Z" transform="translate(-450.75 -350.46)"/><path class="cls-14" d="M1695.72,1038.73l-48.07,3.43c-5.67.41-12.37-1.88-15-5.1l-7.7-9.55c-2.59-3.23-.1-6.17,5.57-6.57l48.08-3.43c5.67-.41,12.37,1.88,15,5.1l7.69,9.55C1703.89,1035.38,1701.39,1038.32,1695.72,1038.73Z" transform="translate(-450.75 -350.46)"/><rect class="cls-14" x="676.69" y="615.07" width="41.45" height="24.96" rx="12.48"/><path class="cls-14" d="M1079.8,990.49h26.71c4.07,0,7.74-2.69,8.21-6l1.94-14c.46-3.32-2.46-6-6.53-6h-26.72c-4.07,0-7.74,2.69-8.2,6l-1.94,14C1072.8,987.8,1075.73,990.49,1079.8,990.49Z" transform="translate(-450.75 -350.46)"/><path class="cls-14" d="M1070.36,1021.46h28.72c4.37,0,8.32-2.7,8.82-6l2.08-14c.5-3.33-2.64-6-7-6h-28.72c-4.37,0-8.32,2.69-8.82,6l-2.09,14C1062.84,1018.76,1066,1021.46,1070.36,1021.46Z" transform="translate(-450.75 -350.46)"/><path class="cls-14" d="M1062.16,1051h30.13c4.58,0,8.73-2.69,9.25-6l2.19-14c.52-3.33-2.77-6-7.36-6h-30.13c-4.59,0-8.74,2.69-9.26,6l-2.19,14C1054.27,1048.34,1057.57,1051,1062.16,1051Z" transform="translate(-450.75 -350.46)"/><path class="cls-14" d="M1054.81,1083.38h32.35c4.93,0,9.38-2.69,9.94-6l2.35-14c.56-3.33-3-6-7.91-6h-32.35c-4.93,0-9.38,2.69-9.94,6l-2.35,14C1046.34,1080.69,1049.88,1083.38,1054.81,1083.38Z" transform="translate(-450.75 -350.46)"/><rect class="cls-14" x="671.43" y="646.03" width="47.95" height="24.96" rx="12.48"/><rect class="cls-14" x="666.16" y="676.99" width="53.21" height="24.96" rx="12.48"/><rect class="cls-14" x="660.9" y="707.96" width="58.47" height="24.96" rx="12.48"/><path class="cls-14" d="M1029.21,989.66h26.71c4.07,0,7.52-2.58,7.7-5.76l.77-13.38c.18-3.18-3-5.76-7-5.76h-26.71c-4.07,0-7.52,2.58-7.7,5.76l-.77,13.38C1022,987.08,1025.14,989.66,1029.21,989.66Z" transform="translate(-450.75 -350.46)"/><path class="cls-14" d="M1013.86,1019.59H1046c4.38,0,8.08-2.77,8.28-6.2l.72-12.5c.19-3.43-3.2-6.2-7.57-6.2h-32.1c-4.38,0-8.08,2.77-8.28,6.2l-.72,12.5C1006.1,1016.82,1009.48,1019.59,1013.86,1019.59Z" transform="translate(-450.75 -350.46)"/><path class="cls-14" d="M995.83,1049.52h36.52c4.61,0,8.51-2.92,8.72-6.53l.68-11.84c.21-3.61-3.36-6.53-8-6.53H997.26c-4.61,0-8.51,2.92-8.72,6.53l-.68,11.84C987.65,1046.6,991.22,1049.52,995.83,1049.52Z" transform="translate(-450.75 -350.46)"/><path class="cls-14" d="M982,1079.45h41c4.83,0,8.93-3.06,9.14-6.85l.65-11.21c.21-3.78-3.53-6.84-8.36-6.84h-41c-4.84,0-8.93,3.06-9.15,6.84l-.64,11.21C973.44,1076.39,977.18,1079.45,982,1079.45Z" transform="translate(-450.75 -350.46)"/><path class="cls-14" d="M962.21,985.78h31.48c4.79,0,8.95-2.54,9.29-5.67l1.43-13.17c.34-3.13-3.27-5.67-8.06-5.67H964.88c-4.8,0-9,2.54-9.3,5.67l-1.43,13.17C953.81,983.24,957.42,985.78,962.21,985.78Z" transform="translate(-450.75 -350.46)"/><path class="cls-14" d="M943,1015.24h37.82c5.15,0,9.63-2.73,10-6.1l1.34-12.31c.37-3.37-3.51-6.1-8.67-6.1H945.61c-5.15,0-9.63,2.73-10,6.1l-1.33,12.31C933.91,1012.51,937.79,1015.24,943,1015.24Z" transform="translate(-450.75 -350.46)"/><path class="cls-14" d="M920.53,1044.7h43c5.43,0,10.14-2.88,10.53-6.43l1.27-11.66c.38-3.55-3.71-6.43-9.14-6.43h-43c-5.43,0-10.15,2.88-10.53,6.43l-1.27,11.66C911,1041.82,915.09,1044.7,920.53,1044.7Z" transform="translate(-450.75 -350.46)"/><path class="cls-14" d="M903.07,1074.16h48.27c5.7,0,10.64-3,11-6.74l1.2-11c.41-3.72-3.88-6.74-9.57-6.74H905.74c-5.7,0-10.64,3-11,6.74l-1.2,11C893.09,1071.14,897.38,1074.16,903.07,1074.16Z" transform="translate(-450.75 -350.46)"/><path class="cls-14" d="M901,981.41h31.48c4.79,0,9.72-2.35,11-5.26l5.4-12.2c1.29-2.9-1.56-5.26-6.35-5.26H911.06c-4.8,0-9.73,2.36-11,5.26l-5.41,12.2C893.35,979.06,896.2,981.41,901,981.41Z" transform="translate(-450.75 -350.46)"/><path class="cls-14" d="M872.84,1008.72h37.81c5.16,0,10.46-2.53,11.85-5.66l5-11.41c1.38-3.12-1.68-5.65-6.83-5.65H882.9c-5.15,0-10.46,2.53-11.84,5.65l-5,11.41C864.62,1006.19,867.68,1008.72,872.84,1008.72Z" transform="translate(-450.75 -350.46)"/><path class="cls-14" d="M841.52,1036h43c5.44,0,11-2.66,12.48-6l4.78-10.81c1.46-3.29-1.76-6-7.19-6h-43c-5.43,0-11,2.67-12.48,6l-4.78,10.81C832.87,1033.36,836.09,1036,841.52,1036Z" transform="translate(-450.75 -350.46)"/><path class="cls-14" d="M815.17,1063.33h48.28c5.69,0,11.55-2.8,13.07-6.25l4.53-10.22c1.53-3.46-1.84-6.25-7.54-6.25H825.24c-5.69,0-11.55,2.79-13.08,6.25l-4.53,10.22C806.1,1060.53,809.48,1063.33,815.17,1063.33Z" transform="translate(-450.75 -350.46)"/><path class="cls-14" d="M838.7,974.22l31.45,1c4.79.15,10.31-2.13,12.32-5.08l8.45-12.42c2-3-.24-5.47-5-5.62l-31.45-1c-4.8-.14-10.31,2.13-12.32,5.09l-8.45,12.42C831.66,971.55,833.91,974.07,838.7,974.22Z" transform="translate(-450.75 -350.46)"/><path class="cls-14" d="M803.75,1001.51l37.79,1.16c5.15.16,11.08-2.29,13.25-5.47l7.89-11.61c2.17-3.18-.26-5.88-5.41-6l-37.79-1.16c-5.15-.16-11.08,2.29-13.24,5.47l-7.9,11.61C796.18,998.65,798.6,1001.35,803.75,1001.51Z" transform="translate(-450.75 -350.46)"/><path class="cls-14" d="M765.64,1028.71l43,1.32c5.43.17,11.68-2.41,14-5.76l7.48-11c2.28-3.35-.27-6.2-5.7-6.36l-43-1.33c-5.43-.16-11.68,2.42-14,5.77l-7.48,11C757.66,1025.69,760.22,1028.54,765.64,1028.71Z" transform="translate(-450.75 -350.46)"/><path class="cls-14" d="M732.5,1056.06l48.23,1.48c5.69.17,12.24-2.53,14.63-6l7.08-10.41c2.39-3.51-.29-6.5-6-6.67l-48.23-1.49c-5.69-.17-12.24,2.53-14.63,6l-7.08,10.41C724.13,1052.89,726.81,1055.88,732.5,1056.06Z" transform="translate(-450.75 -350.46)"/><path class="cls-14" d="M765.26,965.74,796.6,968c4.78.34,10.42-1.58,12.61-4.3l9.17-11.39c2.19-2.72.09-5.19-4.69-5.53l-31.34-2.24c-4.78-.34-10.42,1.58-12.6,4.29l-9.18,11.4C758.39,962.92,760.49,965.4,765.26,965.74Z" transform="translate(-450.75 -350.46)"/><path class="cls-14" d="M728.73,990.1l37.66,2.69c5.14.37,11.2-1.7,13.55-4.62l8.58-10.65c2.35-2.92.1-5.58-5-5.95l-37.66-2.69c-5.14-.37-11.2,1.7-13.55,4.62l-8.58,10.65C721.34,987.07,723.6,989.74,728.73,990.1Z" transform="translate(-450.75 -350.46)"/><path class="cls-14" d="M689.06,1014.24l42.84,3.06c5.41.38,11.8-1.8,14.28-4.87l8.12-10.09c2.48-3.07.1-5.88-5.31-6.26L706.14,993c-5.4-.39-11.8,1.79-14.27,4.86L683.74,1008C681.27,1011.05,683.65,1013.85,689.06,1014.24Z" transform="translate(-450.75 -350.46)"/><path class="cls-14" d="M654.33,1038.73l48.07,3.43c5.67.41,12.37-1.88,15-5.1l7.69-9.55c2.59-3.23.1-6.17-5.57-6.57l-48.08-3.43c-5.67-.41-12.37,1.88-15,5.1l-7.69,9.55C646.16,1035.38,648.66,1038.32,654.33,1038.73Z" transform="translate(-450.75 -350.46)"/></g><polyline class="cls-15" points="685.63 509.14 630.71 544.79 685.63 575.99"/><polyline class="cls-15" points="776.55 509.14 827.38 544.79 772.46 575.99"/><line class="cls-15" x1="750.28" y1="505.88" x2="713.94" y2="583.56"/><path class="cls-9" d="M1242.19,711.77c0,1,0,2,0,2.94a80.59,80.59,0,0,1-5.6,28.62c-8.48,20.63-26.57,33.45-54.34,33.45-26.47,0-45.09-11.4-54.67-30.2a71.7,71.7,0,0,1-7.24-28q-.21-3.07-.21-6.26c0-7-9.33-18.65-7.34-25,9-28.58,36.67-49.4,69.46-49.4s60.5,20.82,69.47,49.4C1253.67,693.71,1242.19,704.81,1242.19,711.77Z" transform="translate(-450.75 -350.46)"/><path class="cls-16" d="M1182.22,609.14c-41.4,0-75,20.85-75,55a52.12,52.12,0,0,0,5.49,23.24,69.78,69.78,0,0,1,27.47-36.59c7.77,3.33,21.9,5.55,38,5.55,19.74,0,36.46-3.32,42.23-7.92a70,70,0,0,1,31.2,39,52.12,52.12,0,0,0,5.49-23.24C1257.17,630,1223.61,609.14,1182.22,609.14Z" transform="translate(-450.75 -350.46)"/><g class="cls-17"><path class="cls-18" d="M1242.15,714.71a80.59,80.59,0,0,1-5.6,28.62c-7.91.2-15.43-3.58-18.24-9.75-3.51-7.65,1.57-16.08,11.33-18.82A23.51,23.51,0,0,1,1242.15,714.71Z" transform="translate(-450.75 -350.46)"/></g><g class="cls-17"><path class="cls-18" d="M1134.8,745.72a23.44,23.44,0,0,1-7.26.86,71.7,71.7,0,0,1-7.24-28c.59-.23,1.2-.43,1.83-.61,9.76-2.74,20.5,1.24,24,8.89S1144.55,743,1134.8,745.72Z" transform="translate(-450.75 -350.46)"/></g><path class="cls-16" d="M1251.2,729c0,25.76-41,56.13-69.26,56.13s-69.25-29.61-69.25-55.37c0-6.72,2.78-12.5,7.4-17.39.23,16.19,10.73,29.21,23.65,29.21a20.42,20.42,0,0,0,13.51-5.33,24.11,24.11,0,0,1,4-4.47,31.55,31.55,0,0,1,20.68-7.33,32.41,32.41,0,0,1,17.53,5h0a24.43,24.43,0,0,1,8.51,9,19.61,19.61,0,0,0,10.54,3.13c13.07,0,23.66-13.34,23.66-29.8,0-.55,0-1.1,0-1.64C1247.76,715.26,1251.2,721.51,1251.2,729Z" transform="translate(-450.75 -350.46)"/><path class="cls-19" d="M1182,742h19.42c0,5.19-8.77,9.46-19.42,9.46s-19.43-4.27-19.43-9.46v-.06Z" transform="translate(-450.75 -350.46)"/><path class="cls-9" d="M1088.87,699.2c0,6.94,11.72,11.33,20.64,11.33s16.15-5.62,16.15-12.55-17.39-17-26.31-17S1088.87,692.27,1088.87,699.2Z" transform="translate(-450.75 -350.46)"/><g class="cls-17"><path class="cls-18" d="M1115.68,705.48s-.79-17.16-12.35-14.78" transform="translate(-450.75 -350.46)"/></g><path class="cls-9" d="M1277.63,699.2c0,6.94-11.72,11.33-20.64,11.33s-16.14-5.62-16.14-12.55,17.38-17,26.3-17S1277.63,692.27,1277.63,699.2Z" transform="translate(-450.75 -350.46)"/><g class="cls-17"><path class="cls-18" d="M1250.82,705.48s.79-17.16,12.35-14.78" transform="translate(-450.75 -350.46)"/></g><polyline class="cls-10" points="735.59 349.12 740.65 369.89 731.27 371.05 724.73 371.05 731.27 349.12"/><path class="cls-7" d="M1166.07,696.62c0,11.19-11.57,20.26-25.83,20.26-.67,0-1.35,0-2-.06h0a32,32,0,0,1-6.62-1.1,27.85,27.85,0,0,1-8.79-4.14,21.8,21.8,0,0,1-4.71-4.52,17,17,0,0,1-3.69-10.44c0-9.77,8.83-17.94,20.58-19.83a32.13,32.13,0,0,1,5.24-.42c.87,0,1.73,0,2.57.1a30.69,30.69,0,0,1,9.46,2.23,26.15,26.15,0,0,1,5.8,3.27C1163,685.66,1166.07,690.86,1166.07,696.62Z" transform="translate(-450.75 -350.46)"/><path class="cls-20" d="M1163.9,697.34s18.42-15.29,35.38.48" transform="translate(-450.75 -350.46)"/><path class="cls-9" d="M1569.52,987.6c-4.72,4.6-14.19,2.7-15.55-3.11v0c-3-12.52-8.8-29.39-18.61-27.36,0,0,1.51,55.41-17.5,76.8-9,10.13-29.31,5-29.31-7.31V957.1s-20.58,16.94-24,76.24c0,0-18.23,27-39.83,2.65a231.44,231.44,0,0,1-1.7-36c.35-10,1.56-20.58,4.39-29.62,2.12-6.77,5.16-12.68,9.43-16.83h0l0,0h0c-.71.35-25,12.26-28.33,23.45,0,0-1.21,26.4-12.72,36.43l0,0a15.59,15.59,0,0,1-4.36,2.71l-.38.15a15.46,15.46,0,0,1-8.41.6c-7.44-1.38-12.57-6.74-12.57-12.73V973.45c0-8.86,3.92-17.44,11.1-24.28l15.9-15.14s26.32-25.64,52.65-12.41c0,0,23.62-18.7,40.5-3.79,0,0,20.81-18,31.72-5.77,0,0,27-10.55,38.48,19.63C1560.44,931.69,1597.53,960.36,1569.52,987.6Z" transform="translate(-450.75 -350.46)"/><path class="cls-10" d="M1554,984.46c-3-12.52-8.8-29.39-18.61-27.36l-1.64-16C1549.91,940.08,1553.84,983.13,1554,984.46Z" transform="translate(-450.75 -350.46)"/><path class="cls-10" d="M1488.54,1026.59V957.1s-20.58,16.94-24,76.24c-13.53-81.68,30.33-84.43,30.33-84.43C1491.33,951.56,1488.54,1026.59,1488.54,1026.59Z" transform="translate(-450.75 -350.46)"/><path class="cls-10" d="M1445.85,935.14c-.71.35-5.63,7.22-9,18.4-.71.35-25,12.26-28.33,23.45,0,0-1.21,26.4-12.72,36.43l0,0a19.21,19.21,0,0,1-4.36,2.71l-.38.15c.78-13,9.08-40.11,9.08-40.11C1414.08,957.41,1445.16,935.25,1445.85,935.14Z" transform="translate(-450.75 -350.46)"/><path class="cls-9" d="M817.65,987.6c4.72,4.6,14.19,2.7,15.55-3.11v0c3-12.52,8.8-29.39,18.61-27.36,0,0-1.51,55.41,17.5,76.8,9,10.13,29.31,5,29.31-7.31V957.1s20.58,16.94,24,76.24c0,0,18.23,27,39.83,2.65a231.44,231.44,0,0,0,1.7-36c-.35-10-1.56-20.58-4.39-29.62-2.12-6.77-5.16-12.68-9.43-16.83h0l0,0h0c.71.35,25,12.26,28.33,23.45,0,0,1.21,26.4,12.72,36.43l0,0a15.59,15.59,0,0,0,4.36,2.71l.38.15a15.46,15.46,0,0,0,8.41.6c7.44-1.38,12.57-6.74,12.57-12.73V973.45c0-8.86-3.92-17.44-11.1-24.28L990.08,934s-26.32-25.64-52.65-12.41c0,0-23.62-18.7-40.5-3.79,0,0-20.81-18-31.72-5.77,0,0-27-10.55-38.48,19.63C826.73,931.69,789.64,960.36,817.65,987.6Z" transform="translate(-450.75 -350.46)"/><path class="cls-10" d="M833.21,984.46c3-12.52,8.8-29.39,18.61-27.36l1.64-16C837.26,940.08,833.33,983.13,833.21,984.46Z" transform="translate(-450.75 -350.46)"/><path class="cls-10" d="M898.63,1026.59V957.1s20.58,16.94,24,76.24c13.53-81.68-30.33-84.43-30.33-84.43C895.84,951.56,898.63,1026.59,898.63,1026.59Z" transform="translate(-450.75 -350.46)"/><path class="cls-10" d="M941.32,935.14c.71.35,5.63,7.22,9,18.4.71.35,25,12.26,28.33,23.45,0,0,1.21,26.4,12.72,36.43l0,0a19.21,19.21,0,0,0,4.36,2.71l.38.15c-.78-13-9.08-40.11-9.08-40.11C973.09,957.41,942,935.25,941.32,935.14Z" transform="translate(-450.75 -350.46)"/><path class="cls-21" d="M1142.72,676.4l-20,35.11A21.8,21.8,0,0,1,1118,707l16.89-30.27a32.13,32.13,0,0,1,5.24-.42C1141,676.3,1141.88,676.33,1142.72,676.4Z" transform="translate(-450.75 -350.46)"/><path class="cls-21" d="M1158.07,682l-19.84,34.85h0a32,32,0,0,1-6.62-1.1l20.66-37A26.15,26.15,0,0,1,1158.07,682Z" transform="translate(-450.75 -350.46)"/><path class="cls-7" d="M1249.43,697.85c0,11.19-11.57,20.26-25.83,20.26-.67,0-1.35,0-2-.06h0A32,32,0,0,1,1215,717a27.85,27.85,0,0,1-8.79-4.14,21.8,21.8,0,0,1-4.71-4.52,17,17,0,0,1-3.69-10.44c0-9.77,8.83-17.94,20.58-19.83a32.13,32.13,0,0,1,5.24-.42c.87,0,1.73,0,2.57.1a31,31,0,0,1,9.46,2.22,26.59,26.59,0,0,1,5.8,3.28C1246.36,686.89,1249.43,692.09,1249.43,697.85Z" transform="translate(-450.75 -350.46)"/><path class="cls-21" d="M1226.08,677.63l-20,35.11a21.8,21.8,0,0,1-4.71-4.52L1218.27,678a32.13,32.13,0,0,1,5.24-.42C1224.38,677.53,1225.24,677.56,1226.08,677.63Z" transform="translate(-450.75 -350.46)"/><path class="cls-21" d="M1241.43,683.2l-19.84,34.85h0A32,32,0,0,1,1215,717l20.66-37A26.59,26.59,0,0,1,1241.43,683.2Z" transform="translate(-450.75 -350.46)"/><path class="cls-22" d="M1250.22,785.12c0,20.67-27.71,37.43-61.89,37.43s-61.89-16.76-61.89-37.43a22.69,22.69,0,0,1,.35-4,61.49,61.49,0,0,1,15.58,8.49s51.14,22.54,81.44-4.83a160.16,160.16,0,0,1,25.55-5.94A23.37,23.37,0,0,1,1250.22,785.12Z" transform="translate(-450.75 -350.46)"/><g class="cls-23"><polygon class="cls-24" points="997.22 420.92 790.31 670.06 1099.05 670.06 1305.95 420.92 997.22 420.92"/><path class="cls-25" d="M1448,770.24h310.53l-208.81,251.44H1239.21Zm306.83,2.3H1447.91l-205,246.84h306.94Z" transform="translate(-450.75 -350.46)"/><polygon class="cls-25" points="997.22 420.92 978.99 442.87 1287.73 442.87 1305.95 420.92 997.22 420.92"/><path class="cls-25" d="M1448,770.24h310.53l-20.13,24.24H1427.89Zm306.83,2.3H1447.91l-16.31,19.64h306.93Z" transform="translate(-450.75 -350.46)"/><path class="cls-25" d="M1731.35,782.52c-2.53,3.05-2.65,5.52-.27,5.52s6.37-2.47,8.91-5.52,2.65-5.52.27-5.52S1733.88,779.47,1731.35,782.52Z" transform="translate(-450.75 -350.46)"/><path class="cls-25" d="M1713.72,782.52c-2.53,3.05-2.65,5.52-.27,5.52s6.37-2.47,8.9-5.52,2.66-5.52.27-5.52S1716.25,779.47,1713.72,782.52Z" transform="translate(-450.75 -350.46)"/><path class="cls-25" d="M1696.09,782.52c-2.54,3.05-2.66,5.52-.27,5.52s6.37-2.47,8.9-5.52,2.66-5.52.27-5.52S1698.62,779.47,1696.09,782.52Z" transform="translate(-450.75 -350.46)"/><polygon class="cls-25" points="1220.34 490.81 1229.51 490.81 1233.07 486.52 1223.89 486.52 1220.34 490.81"/><polygon class="cls-25" points="1065.5 490.81 1213.65 490.81 1217.21 486.52 1069.06 486.52 1065.5 490.81"/><polygon class="cls-25" points="1042.44 490.81 1059.87 490.81 1063.42 486.52 1046 486.52 1042.44 490.81"/><polygon class="cls-25" points="966.93 548.15 984.36 548.15 987.91 543.87 970.49 543.87 966.93 548.15"/><polygon class="cls-25" points="979.91 490.81 1038.65 490.81 1042.21 486.52 983.47 486.52 979.91 490.81"/><polygon class="cls-25" points="1201.64 502.28 1210.81 502.28 1214.37 497.99 1205.2 497.99 1201.64 502.28"/><polygon class="cls-25" points="1126.13 502.28 1195.18 502.28 1198.74 497.99 1129.69 497.99 1126.13 502.28"/><polygon class="cls-25" points="988.49 548.15 1014.61 548.15 1018.17 543.87 992.05 543.87 988.49 548.15"/><polygon class="cls-25" points="1109.6 536.68 1175.55 536.68 1179.11 532.4 1113.15 532.4 1109.6 536.68"/><polygon class="cls-25" points="1139.39 513.75 1185.66 513.75 1189.22 509.46 1142.95 509.46 1139.39 513.75"/><polygon class="cls-25" points="973.37 525.21 1019.64 525.21 1023.2 520.93 976.93 520.93 973.37 525.21"/><polygon class="cls-25" points="1017.44 513.75 1134.26 513.75 1137.81 509.46 1021 509.46 1017.44 513.75"/><polygon class="cls-25" points="1020.59 548.15 1166.03 548.15 1169.59 543.87 1024.14 543.87 1020.59 548.15"/><polygon class="cls-25" points="954.65 502.28 1031.07 502.28 1034.63 497.99 958.21 497.99 954.65 502.28"/><polygon class="cls-25" points="1034.86 502.28 1121.8 502.28 1125.36 497.99 1038.42 497.99 1034.86 502.28"/><polygon class="cls-25" points="955.64 513.75 985.34 513.75 988.9 509.46 959.2 509.46 955.64 513.75"/><polygon class="cls-25" points="1192.11 513.75 1201.29 513.75 1204.85 509.46 1195.67 509.46 1192.11 513.75"/><polygon class="cls-25" points="1191.76 525.21 1200.93 525.21 1204.49 520.93 1195.32 520.93 1191.76 525.21"/><polygon class="cls-25" points="1130.87 525.21 1185.08 525.21 1188.63 520.93 1134.42 520.93 1130.87 525.21"/><polygon class="cls-25" points="1093.35 559.62 1147.56 559.62 1151.12 555.34 1096.91 555.34 1093.35 559.62"/><polygon class="cls-25" points="924.18 571.09 994.02 571.09 997.58 566.81 927.74 566.81 924.18 571.09"/><polygon class="cls-25" points="991.65 559.62 1088.95 559.62 1092.51 555.34 995.21 555.34 991.65 559.62"/><polygon class="cls-25" points="998.76 571.09 1089.01 571.09 1092.57 566.81 1002.32 566.81 998.76 571.09"/><polygon class="cls-25" points="1122.34 571.09 1138.03 571.09 1141.59 566.81 1125.9 566.81 1122.34 571.09"/><polygon class="cls-25" points="1004.34 536.68 1105.86 536.68 1109.42 532.4 1007.9 532.4 1004.34 536.68"/><polygon class="cls-25" points="934.65 536.68 1000.55 536.68 1004.11 532.4 938.21 532.4 934.65 536.68"/><polygon class="cls-25" points="1023.9 525.21 1125.36 525.21 1128.91 520.93 1027.46 520.93 1023.9 525.21"/><polygon class="cls-25" points="1182.24 536.68 1191.41 536.68 1194.97 532.4 1185.8 532.4 1182.24 536.68"/><polygon class="cls-25" points="1172.71 548.15 1181.88 548.15 1185.44 543.87 1176.27 543.87 1172.71 548.15"/><polygon class="cls-25" points="1154.01 559.62 1163.19 559.62 1166.74 555.34 1157.57 555.34 1154.01 559.62"/><polygon class="cls-25" points="1144.49 571.09 1153.66 571.09 1157.22 566.81 1148.05 566.81 1144.49 571.09"/><polygon class="cls-25" points="1145.68 580.7 1154.86 580.7 1158.41 576.41 1149.24 576.41 1145.68 580.7"/><polygon class="cls-25" points="1031.44 580.7 1139 580.7 1142.56 576.41 1035 576.41 1031.44 580.7"/><polygon class="cls-25" points="1126.99 592.17 1136.16 592.17 1139.72 587.88 1130.55 587.88 1126.99 592.17"/><polygon class="cls-25" points="1051.48 592.17 1120.53 592.17 1124.09 587.88 1055.04 587.88 1051.48 592.17"/><polygon class="cls-25" points="1034.94 626.57 1100.9 626.57 1104.46 622.29 1038.5 622.29 1034.94 626.57"/><polygon class="cls-25" points="1064.74 603.64 1111.01 603.64 1114.57 599.35 1068.3 599.35 1064.74 603.64"/><polygon class="cls-25" points="942.78 603.64 1059.6 603.64 1063.16 599.35 946.34 599.35 942.78 603.64"/><polygon class="cls-25" points="945.93 638.04 1091.37 638.04 1094.93 633.76 949.49 633.76 945.93 638.04"/><polygon class="cls-25" points="880 592.17 956.42 592.17 959.98 587.88 883.56 587.88 880 592.17"/><polygon class="cls-25" points="960.21 592.17 1047.14 592.17 1050.7 587.88 963.76 587.88 960.21 592.17"/><polygon class="cls-25" points="880.99 603.64 910.69 603.64 914.25 599.35 884.55 599.35 880.99 603.64"/><polygon class="cls-25" points="1117.46 603.64 1126.63 603.64 1130.19 599.35 1121.02 599.35 1117.46 603.64"/><polygon class="cls-25" points="1117.11 615.11 1126.28 615.11 1129.84 610.82 1120.67 610.82 1117.11 615.11"/><polygon class="cls-25" points="1056.21 615.11 1110.42 615.11 1113.98 610.82 1059.77 610.82 1056.21 615.11"/><polygon class="cls-25" points="929.69 626.57 1031.21 626.57 1034.77 622.29 933.25 622.29 929.69 626.57"/><polygon class="cls-25" points="949.25 615.11 1050.7 615.11 1054.26 610.82 952.81 610.82 949.25 615.11"/><polygon class="cls-25" points="1107.58 626.57 1116.76 626.57 1120.32 622.29 1111.14 622.29 1107.58 626.57"/><path class="cls-25" d="M1693.7,821.85l.22-3.85a2.47,2.47,0,0,1,1.2-1.45c.62-.38,1.14-.38,1.13,0l-.27,4.59a.15.15,0,0,1,0,.11s0,0,0,0a.73.73,0,0,1-.06.14s0,0,0,0a.91.91,0,0,0-.08.13s0,0,0,.07l-.09.11-.06.08-.09.1-.1.11s0,0-.09.08l-.1.1a.44.44,0,0,1-.1.06.89.89,0,0,1-.14.13l-.07,0a.41.41,0,0,1-.14.1l-7.35,4.59a1.73,1.73,0,0,1-.82.29c-.2,0-.31-.1-.31-.29a2.48,2.48,0,0,1,1.2-1.45Z" transform="translate(-450.75 -350.46)"/><path class="cls-25" d="M1682.55,827.37a.84.84,0,0,1-.31.07c-.26,0-.36-.19-.2-.53l4.73-9.41a2.74,2.74,0,0,1,1.3-1.14c.53-.19.75,0,.53.47l-4.71,9.38A2.68,2.68,0,0,1,1682.55,827.37Z" transform="translate(-450.75 -350.46)"/><path class="cls-25" d="M1676.64,822.29l0,0s0-.08.08-.15,0,0,0,0l.1-.13.06-.08.08-.08.09-.11.05,0,.16-.15s0,0,0,0,.11-.08.18-.14l0,0c.06,0,.12-.08.19-.11l7.34-4.59c.64-.38,1.16-.38,1.14,0A2.49,2.49,0,0,1,1685,818l-6.18,3.85-.21,3.85a2.45,2.45,0,0,1-1.2,1.45,1.73,1.73,0,0,1-.81.29c-.2,0-.33-.1-.33-.29l.28-4.59a.41.41,0,0,1,0-.11s0,0,0,0Z" transform="translate(-450.75 -350.46)"/></g><g class="cls-23"><polygon class="cls-24" points="527.11 439.42 741.88 713.4 421.42 713.4 206.65 439.42 527.11 439.42"/><path class="cls-26" d="M1194.55,1065.13H872.22L655.47,788.62H977.8Zm-322.44-2.53h318.6L977.92,791.15H659.32Z" transform="translate(-450.75 -350.46)"/><polygon class="cls-26" points="527.11 439.42 546.03 463.55 225.56 463.55 206.65 439.42 527.11 439.42"/><path class="cls-26" d="M998.7,815.28H676.37l-20.9-26.66H977.8Zm-322.44-2.53H994.85l-16.93-21.6H659.32Z" transform="translate(-450.75 -350.46)"/><path class="cls-26" d="M683.71,802.13c2.63,3.35,2.75,6.07.28,6.07s-6.62-2.72-9.24-6.07-2.76-6.08-.28-6.08S681.08,798.77,683.71,802.13Z" transform="translate(-450.75 -350.46)"/><path class="cls-26" d="M702,802.13c2.63,3.35,2.76,6.07.28,6.07s-6.61-2.72-9.24-6.07-2.76-6.08-.28-6.08S699.38,798.77,702,802.13Z" transform="translate(-450.75 -350.46)"/><path class="cls-26" d="M720.31,802.13c2.63,3.35,2.76,6.07.28,6.07s-6.61-2.72-9.24-6.07-2.75-6.08-.28-6.08S717.68,798.77,720.31,802.13Z" transform="translate(-450.75 -350.46)"/><polygon class="cls-26" points="295.52 516.27 286 516.27 282.3 511.56 291.82 511.56 295.52 516.27"/><polygon class="cls-26" points="456.24 516.27 302.45 516.27 298.76 511.56 452.54 511.56 456.24 516.27"/><polygon class="cls-26" points="480.17 516.27 462.08 516.27 458.39 511.56 476.48 511.56 480.17 516.27"/><polygon class="cls-26" points="558.55 579.34 540.46 579.34 536.77 574.63 554.85 574.63 558.55 579.34"/><polygon class="cls-26" points="545.07 516.27 484.1 516.27 480.41 511.56 541.38 511.56 545.07 516.27"/><polygon class="cls-26" points="314.92 528.89 305.4 528.89 301.71 524.17 311.23 524.17 314.92 528.89"/><polygon class="cls-26" points="393.3 528.89 321.63 528.89 317.93 524.17 389.61 524.17 393.3 528.89"/><polygon class="cls-26" points="536.17 579.34 509.06 579.34 505.36 574.63 532.47 574.63 536.17 579.34"/><polygon class="cls-26" points="410.46 566.73 342 566.73 338.31 562.01 406.77 562.01 410.46 566.73"/><polygon class="cls-26" points="379.54 541.5 331.51 541.5 327.82 536.79 375.85 536.79 379.54 541.5"/><polygon class="cls-26" points="551.87 554.11 503.84 554.11 500.15 549.4 548.17 549.4 551.87 554.11"/><polygon class="cls-26" points="506.13 541.5 384.87 541.5 381.17 536.79 502.43 536.79 506.13 541.5"/><polygon class="cls-26" points="502.86 579.34 351.89 579.34 348.2 574.63 499.16 574.63 502.86 579.34"/><polygon class="cls-26" points="571.29 528.89 491.97 528.89 488.28 524.17 567.6 524.17 571.29 528.89"/><polygon class="cls-26" points="488.04 528.89 397.8 528.89 394.11 524.17 484.35 524.17 488.04 528.89"/><polygon class="cls-26" points="570.26 541.5 539.44 541.5 535.75 536.79 566.57 536.79 570.26 541.5"/><polygon class="cls-26" points="324.81 541.5 315.29 541.5 311.6 536.79 321.12 536.79 324.81 541.5"/><polygon class="cls-26" points="325.18 554.11 315.66 554.11 311.96 549.4 321.48 549.4 325.18 554.11"/><polygon class="cls-26" points="388.39 554.11 332.12 554.11 328.42 549.4 384.69 549.4 388.39 554.11"/><polygon class="cls-26" points="427.33 591.95 371.06 591.95 367.37 587.24 423.64 587.24 427.33 591.95"/><polygon class="cls-26" points="602.92 604.56 530.43 604.56 526.74 599.85 599.23 599.85 602.92 604.56"/><polygon class="cls-26" points="532.89 591.95 431.9 591.95 428.2 587.24 529.2 587.24 532.89 591.95"/><polygon class="cls-26" points="525.51 604.56 431.83 604.56 428.14 599.85 521.82 599.85 525.51 604.56"/><polygon class="cls-26" points="397.24 604.56 380.95 604.56 377.25 599.85 393.55 599.85 397.24 604.56"/><polygon class="cls-26" points="519.72 566.73 414.34 566.73 410.64 562.01 516.02 562.01 519.72 566.73"/><polygon class="cls-26" points="592.05 566.73 523.65 566.73 519.96 562.01 588.36 562.01 592.05 566.73"/><polygon class="cls-26" points="499.41 554.11 394.11 554.11 390.41 549.4 495.72 549.4 499.41 554.11"/><polygon class="cls-26" points="335.06 566.73 325.54 566.73 321.85 562.01 331.37 562.01 335.06 566.73"/><polygon class="cls-26" points="344.95 579.34 335.43 579.34 331.74 574.63 341.26 574.63 344.95 579.34"/><polygon class="cls-26" points="364.36 591.95 354.84 591.95 351.14 587.24 360.67 587.24 364.36 591.95"/><polygon class="cls-26" points="374.25 604.56 364.73 604.56 361.03 599.85 370.55 599.85 374.25 604.56"/><polygon class="cls-26" points="373.01 615.13 363.48 615.13 359.79 610.41 369.31 610.41 373.01 615.13"/><polygon class="cls-26" points="491.59 615.13 379.94 615.13 376.25 610.41 487.89 610.41 491.59 615.13"/><polygon class="cls-26" points="392.41 627.74 382.89 627.74 379.2 623.03 388.72 623.03 392.41 627.74"/><polygon class="cls-26" points="470.79 627.74 399.11 627.74 395.42 623.03 467.1 623.03 470.79 627.74"/><polygon class="cls-26" points="487.95 665.58 419.49 665.58 415.8 660.87 484.26 660.87 487.95 665.58"/><polygon class="cls-26" points="457.03 640.35 409 640.35 405.31 635.64 453.33 635.64 457.03 640.35"/><polygon class="cls-26" points="583.62 640.35 462.36 640.35 458.66 635.64 579.92 635.64 583.62 640.35"/><polygon class="cls-26" points="580.35 678.19 429.38 678.19 425.69 673.48 576.65 673.48 580.35 678.19"/><polygon class="cls-26" points="648.78 627.74 569.46 627.74 565.77 623.03 645.09 623.03 648.78 627.74"/><polygon class="cls-26" points="565.53 627.74 475.29 627.74 471.59 623.03 561.84 623.03 565.53 627.74"/><polygon class="cls-26" points="647.75 640.35 616.93 640.35 613.24 635.64 644.06 635.64 647.75 640.35"/><polygon class="cls-26" points="402.3 640.35 392.78 640.35 389.08 635.64 398.61 635.64 402.3 640.35"/><polygon class="cls-26" points="402.67 652.97 393.14 652.97 389.45 648.25 398.97 648.25 402.67 652.97"/><polygon class="cls-26" points="465.88 652.97 409.61 652.97 405.91 648.25 462.18 648.25 465.88 652.97"/><polygon class="cls-26" points="597.21 665.58 491.83 665.58 488.13 660.87 593.51 660.87 597.21 665.58"/><polygon class="cls-26" points="576.9 652.97 471.6 652.97 467.9 648.25 573.21 648.25 576.9 652.97"/><polygon class="cls-26" points="412.55 665.58 403.03 665.58 399.34 660.87 408.86 660.87 412.55 665.58"/><path class="cls-26" d="M729.2,849.61a2.67,2.67,0,0,1,1.25,1.6.29.29,0,0,1-.32.32,1.7,1.7,0,0,1-.85-.32l-7.63-5.05a.31.31,0,0,1-.15-.11l-.07,0-.15-.14a.4.4,0,0,1-.09-.07,1.11,1.11,0,0,1-.11-.11c0-.05-.09-.07-.1-.09l-.1-.12-.09-.11-.06-.09-.1-.12s0,0,0-.07a1.09,1.09,0,0,0-.08-.15l0,0a1.42,1.42,0,0,1,0-.16s0,0,0,0a.2.2,0,0,1,0-.13l-.29-5.05c0-.42.53-.42,1.18,0a2.75,2.75,0,0,1,1.25,1.6l.22,4.23Z" transform="translate(-450.75 -350.46)"/><path class="cls-26" d="M733,850.18l-4.89-10.33c-.23-.49,0-.72.55-.51A2.92,2.92,0,0,1,730,840.6l4.9,10.34c.17.37.07.59-.21.59a.84.84,0,0,1-.31-.07A2.91,2.91,0,0,1,733,850.18Z" transform="translate(-450.75 -350.46)"/><path class="cls-26" d="M740.56,846s0,0,0,0a.48.48,0,0,1,0,.12l.29,5.05c0,.21-.13.32-.34.32a1.74,1.74,0,0,1-.84-.32,2.78,2.78,0,0,1-1.25-1.6l-.22-4.23-6.41-4.23a2.66,2.66,0,0,1-1.25-1.6c0-.42.51-.42,1.17,0l7.63,5.05.19.13,0,0,.19.16,0,0,.17.17,0,0,.1.12.08.09.06.09.11.14s0,0,0,0,.07.12.09.16,0,0,0,.05Z" transform="translate(-450.75 -350.46)"/></g><rect class="cls-27" x="853.57" y="319.83" width="67.91" height="12"/><rect class="cls-28" x="853.57" y="337.44" width="100.94" height="12"/><polygon class="cls-29" points="500.15 342.58 531.5 303.89 613.65 425.52 500.15 342.58"/><polygon class="cls-29" points="587.04 336.91 613.65 325.9 630.49 403.99 587.04 336.91"/><polygon class="cls-30" points="1041.38 268.1 1028.71 253.18 981.34 300.5 1041.38 268.1"/><polygon class="cls-31" points="657.76 237.39 657.76 263.84 629.25 250.61 657.76 237.39"/><ellipse class="cls-28" cx="676.54" cy="250.61" rx="11.73" ry="9.2"/><rect class="cls-32" x="118.72" y="519.62" width="1217.59" height="233.45"/><line class="cls-33" x1="954.51" y1="402.74" x2="978.99" y2="402.74"/><line class="cls-33" x1="993.95" y1="402.74" x2="1018.43" y2="402.74"/><line class="cls-33" x1="984.12" y1="411.15" x2="990.36" y2="392.58"/><line class="cls-33" x1="1028.76" y1="400.17" x2="1024.06" y2="406.11"/><line class="cls-33" x1="876.98" y1="284.13" x2="883.22" y2="265.57"/><line class="cls-33" x1="888.2" y1="282.05" x2="872" y2="267.65"/><line class="cls-33" x1="255.42" y1="576.01" x2="261.67" y2="557.44"/><line class="cls-33" x1="266.64" y1="573.92" x2="250.45" y2="559.52"/><path class="cls-28" d="M916.91,739.5a2.44,2.44,0,0,1-.53,0c-1.09-.23-1.74-1.1-1.45-2l6.24-18.57a2.14,2.14,0,0,1,2.5-1.14c1.1.23,1.75,1.1,1.46,2l-6.24,18.57A2,2,0,0,1,916.91,739.5Z" transform="translate(-450.75 -350.46)"/><path class="cls-24" d="M928.13,737.42a2.33,2.33,0,0,1-1.54-.54l-16.19-14.4a1.38,1.38,0,0,1,.18-2.27,2.46,2.46,0,0,1,2.89.14l16.19,14.4a1.38,1.38,0,0,1-.18,2.27A2.38,2.38,0,0,1,928.13,737.42Z" transform="translate(-450.75 -350.46)"/><path class="cls-34" d="M1004.52,621.16a2.35,2.35,0,0,1-.52,0c-1.09-.23-1.74-1.1-1.46-2l6.25-18.57a2.15,2.15,0,0,1,2.5-1.14c1.09.23,1.75,1.1,1.46,2L1006.5,620A2,2,0,0,1,1004.52,621.16Z" transform="translate(-450.75 -350.46)"/><path class="cls-34" d="M1015.74,619.08a2.31,2.31,0,0,1-1.53-.54L998,604.14a1.39,1.39,0,0,1,.19-2.27,2.46,2.46,0,0,1,2.88.14l16.2,14.4a1.38,1.38,0,0,1-.18,2.27A2.41,2.41,0,0,1,1015.74,619.08Z" transform="translate(-450.75 -350.46)"/><path class="cls-34" d="M1664.17,951.38a2.39,2.39,0,0,1-.53-.06,1.61,1.61,0,0,1-1.46-2l6.25-18.56a2.16,2.16,0,0,1,2.5-1.15c1.09.23,1.75,1.11,1.46,2l-6.25,18.57A2,2,0,0,1,1664.17,951.38Z" transform="translate(-450.75 -350.46)"/><path class="cls-34" d="M1675.38,949.29a2.31,2.31,0,0,1-1.53-.54l-16.2-14.4a1.39,1.39,0,0,1,.19-2.27,2.45,2.45,0,0,1,2.88.15l16.2,14.4a1.37,1.37,0,0,1-.18,2.26A2.41,2.41,0,0,1,1675.38,949.29Z" transform="translate(-450.75 -350.46)"/><path class="cls-34" d="M679.64,955.37a3.05,3.05,0,0,1-.52,0c-1.09-.23-1.75-1.11-1.46-2l6.25-18.56a2.15,2.15,0,0,1,2.5-1.15c1.09.23,1.74,1.11,1.46,2l-6.25,18.56A2,2,0,0,1,679.64,955.37Z" transform="translate(-450.75 -350.46)"/><path class="cls-34" d="M690.86,953.29a2.3,2.3,0,0,1-1.53-.55l-16.2-14.4a1.37,1.37,0,0,1,.18-2.26,2.45,2.45,0,0,1,2.89.14l16.2,14.4a1.38,1.38,0,0,1-.19,2.26A2.36,2.36,0,0,1,690.86,953.29Z" transform="translate(-450.75 -350.46)"/><ellipse class="cls-4" cx="783.7" cy="194.65" rx="10.85" ry="8.51"/><ellipse class="cls-4" cx="808.49" cy="194.65" rx="10.85" ry="8.51"/><ellipse class="cls-28" cx="833.28" cy="194.65" rx="10.85" ry="8.51"/><ellipse class="cls-4" cx="858.07" cy="194.65" rx="10.85" ry="8.51"/></g></g></g></svg>