<svg xmlns="http://www.w3.org/2000/svg" viewBox="0 0 2187.65 1959.8"><defs><style>.cls-1{isolation:isolate;}.cls-2{fill:#2f3e93;}.cls-3{fill:#385a64;}.cls-4{fill:#243d42;}.cls-5{fill:#2e4c54;}.cls-6{fill:#f9af5f;}.cls-7{fill:#ed9b3a;}.cls-8{fill:#20326b;}.cls-9{fill:#404aa9;}.cls-12,.cls-9{opacity:0.21;}.cls-10{fill:#ed4343;}.cls-11,.cls-12,.cls-13{fill:#fff;}.cls-13{opacity:0.15;}.cls-14{fill:#fcc4a7;}.cls-15{fill:#a12c34;}.cls-16{opacity:0.69;}.cls-17{fill:#232526;}.cls-18{opacity:0.39;}.cls-19{fill:#323435;}.cls-20{opacity:0.7;}.cls-21{fill:#fb9a77;}.cls-22{fill:#bc641b;}.cls-23{fill:#a55316;}.cls-24{fill:#414344;}.cls-25{opacity:0.57;}.cls-26{fill:#bd313a;}.cls-27{fill:#99a2a9;mix-blend-mode:soft-light;}.cls-28{fill:#d87830;}</style></defs><g class="cls-1"><g id="_05" data-name="05"><rect class="cls-2" x="655.4" y="765.86" width="351.35" height="30.53"/><path class="cls-3" d="M1461,1884.51l-25.46,150.57v0L1365.26,2451l-71.5,498.48a11.59,11.59,0,0,1-11.37,9.75,8.28,8.28,0,0,1-8.14-9.4l62.84-548.17,58-450.86,8.75-68Z" transform="translate(-1127.15 -1030.91)"/><path class="cls-4" d="M1435.57,2035.08c3.35-64.71-40.5-84.26-40.5-84.26l8.75-68,57.21,1.71Z" transform="translate(-1127.15 -1030.91)"/><path class="cls-3" d="M2935.72,2964.77a11.64,11.64,0,0,1-11.4-9.76L2860,2492.48l-80.33-475.12-22.46-132.85,57.22-1.71,9.92,77.13,69.7,542,49.78,453.44A8.28,8.28,0,0,1,2935.72,2964.77Z" transform="translate(-1127.15 -1030.91)"/><path class="cls-5" d="M2824.37,1959.93c-37.06,17.07-44.68,57.43-44.68,57.43l-22.46-132.85,57.22-1.71Z" transform="translate(-1127.15 -1030.91)"/><path class="cls-3" d="M3057.46,1849.13v70.73c0,9.24-6,16.81-13.29,16.81H1140.45c-7.32,0-13.3-7.57-13.3-16.81v-70.73c0-9.23,6-16.8,13.3-16.8H3044.17C3051.48,1832.33,3057.46,1839.9,3057.46,1849.13Z" transform="translate(-1127.15 -1030.91)"/><path class="cls-6" d="M1450.81,1712.11s-21.37,119-49.13,119h-99.6c-6.11,0-11.91-5.76-17.24-14.75-.63-1.08-1.26-2.19-1.88-3.35a143.22,143.22,0,0,1-6.66-14.5c-1.42-3.53-2.79-7.24-4.11-11-4.81-13.84-8.9-28.93-12.06-42-2-8.15-3.59-15.49-4.76-21.21-1.58-7.54-2.43-12.24-2.43-12.24Z" transform="translate(-1127.15 -1030.91)"/><path class="cls-6" d="M1286.46,1816.22l-1.62.17a89.39,89.39,0,0,1-8.95.47h-.26c-31.94-.1-51.88-18.63-60.18-37.31-7.88-17.72-6.26-36.41,4-46.52,11.59-11.38,25.28-11.38,35.9-8.68a60.22,60.22,0,0,1,17.48,7.69l-9.58,15.36a32.56,32.56,0,0,0-3.14-1.84c-6-3.14-19.27-8.34-28.62.81-3.86,3.81-5.22,14-.12,25.46,3,6.66,14.48,27,44.91,26.71a72,72,0,0,0,8.17-.53l1.46,13.43Z" transform="translate(-1127.15 -1030.91)"/><path class="cls-7" d="M1450.81,1712.11s-21.37,119-49.13,119h-99.6c-6.11,0-11.91-5.76-17.24-14.75a89.39,89.39,0,0,1-8.95.47h-.26c2.47-1.25,4.91-2.5,7.33-3.82,1-.51,2-1.06,3-1.6a328.67,328.67,0,0,0,110.21-99.33Z" transform="translate(-1127.15 -1030.91)"/><path class="cls-4" d="M2758.18,1832.33c.46,25.1-9.18,50.38-23,71.39a188.19,188.19,0,0,1-27.54,33H2276.94q-194.58-58.5-392.37-104.34Z" transform="translate(-1127.15 -1030.91)"/><rect class="cls-2" x="1387.05" y="374.23" width="140.16" height="416.05"/><rect class="cls-8" x="1324.93" y="769.22" width="259.93" height="26.1"/><rect class="cls-8" x="1067.03" y="225.62" width="747.08" height="432.44"/><rect class="cls-9" x="1096.69" y="252.14" width="687.81" height="345.24"/><rect class="cls-10" x="1145.09" y="294.01" width="197.02" height="14.15"/><rect class="cls-6" x="1383.39" y="294.01" width="197.02" height="14.15"/><rect class="cls-6" x="1145.09" y="319.68" width="197.02" height="14.15"/><rect class="cls-10" x="1145.09" y="374.23" width="98.51" height="7.07"/><rect class="cls-11" x="1292.86" y="374.23" width="98.51" height="7.07"/><rect class="cls-10" x="1440.62" y="374.23" width="98.51" height="7.07"/><rect class="cls-11" x="1588.38" y="374.23" width="98.51" height="7.07"/><path class="cls-12" d="M2126.11,1622.15q-4.87,4-9.85,8C2116.4,1624.54,2120.66,1622.26,2126.11,1622.15Z" transform="translate(-1127.15 -1030.91)"/><path class="cls-13" d="M2598.63,1283.05A1947.44,1947.44,0,0,0,2301,1628.29h-77.15V1525.77c21-23.31,41.42-47.12,62.15-70.56q78.77-89.07,164-172.16Z" transform="translate(-1127.15 -1030.91)"/><path class="cls-12" d="M2596.53,1154.83l-4.74-2c2.29-1.77,5.17-3.24,7.48-1.73C2602,1152.81,2597.44,1157.87,2596.53,1154.83Z" transform="translate(-1127.15 -1030.91)"/><path class="cls-13" d="M2911.65,1283.05v68.07c-85.22,89.58-168.49,181-245.5,277.17H2460.68c38.5-53.57,82.14-103.44,124.27-154.31q77.06-93,147.84-190.93Z" transform="translate(-1127.15 -1030.91)"/><rect class="cls-2" x="1734.14" y="1439.3" width="128.79" height="382.29" transform="translate(2469.92 2229.99) rotate(-180)"/><rect class="cls-8" x="1681.18" y="1802.25" width="238.84" height="23.98" transform="translate(2474.04 2597.57) rotate(-180)"/><rect class="cls-8" x="1470.52" y="1302.75" width="686.47" height="397.36" transform="translate(2500.36 1971.95) rotate(-180)"/><rect class="cls-9" x="370.57" y="296.21" width="632.01" height="317.23"/><rect class="cls-11" x="1904.23" y="1365.59" width="181.03" height="13" transform="translate(2862.34 1713.27) rotate(-180)"/><rect class="cls-6" x="558.11" y="334.68" width="181.03" height="13"/><rect class="cls-6" x="777.07" y="358.27" width="181.03" height="13"/><rect class="cls-10" x="867.59" y="408.39" width="90.52" height="6.5"/><rect class="cls-11" x="731.81" y="408.39" width="90.52" height="6.5"/><rect class="cls-10" x="596.04" y="408.39" width="90.52" height="6.5"/><rect class="cls-11" x="460.26" y="408.39" width="90.52" height="6.5"/><path class="cls-13" d="M1785.36,1327.12a1788.93,1788.93,0,0,1,273.48,317.23h70.9v-94.2c-19.27-21.42-38.06-43.3-57.11-64.84q-72.37-81.84-150.66-158.19Z" transform="translate(-1127.15 -1030.91)"/><path class="cls-13" d="M1497.73,1327.12v62.55C1576,1472,1652.55,1556,1723.31,1644.35h188.81c-35.38-49.23-75.48-95-114.19-141.79q-70.82-85.44-135.84-175.44Z" transform="translate(-1127.15 -1030.91)"/><path class="cls-3" d="M3260.18,1917.24c11.88-135.65-12.11-272.6-57.12-403.5,37.66,21.84,66.56,55,73.15,102.17C3290.31,1716.82,3281.61,1818.23,3260.18,1917.24Z" transform="translate(-1127.15 -1030.91)"/><path class="cls-3" d="M2683.36,2320.21c.85-.3,1.7-.63,2.54-1C2692,2316.65,2687.82,2321.11,2683.36,2320.21Z" transform="translate(-1127.15 -1030.91)"/><polygon class="cls-14" points="1343.11 1679.17 1338.84 1706.13 1318.97 1831.56 1315.39 1854.14 1206.57 1854.16 1209.19 1789.89 1212 1721.01 1217.2 1593.84 1343.11 1679.17"/><path class="cls-15" d="M2455.71,2981.07l-14.49.14-81.3.81-3.77-26.05-2.06-14.27-1.91-13.14-7.13,15.19-8.3,17.7-10.55,22.47a648,648,0,0,1-93.1,6.78,431.14,431.14,0,0,1-48.82-2.68c-28.63-3.35-56-10.29-75.79-23.25a60,60,0,0,1,2.18-6.47c4.41-11.18,16.19-33.26,41.33-36.54,26.88-3.51,116-34.06,155.67-56.21,10.36-5.79,17.36-11,19-15,1.74-4.28,32.16,6.85,62.59,7.62,31.36.79,62.73-8.7,62.73-8.7l2.15,75.77.08,3.06.81,28.23Z" transform="translate(-1127.15 -1030.91)"/><g class="cls-16"><path class="cls-17" d="M2344.05,2944.06l1-.31-18.85,40.17s-151.26,24.35-217.71-19.15a60,60,0,0,1,2.18-6.47c34.7,5.55,69.36,14.13,103.6,9.72C2258.38,2962.35,2301.49,2958,2344.05,2944.06Z" transform="translate(-1127.15 -1030.91)"/></g><g class="cls-16"><path class="cls-17" d="M2455.71,2981.07l-95.79.95-5.83-40.32c13.4-2.13,27.45-.79,41.09-2,14.45-1.28,28.47-5.42,42.38-9.55l16.57-4.91Z" transform="translate(-1127.15 -1030.91)"/></g><g class="cls-18"><path class="cls-19" d="M2454.21,2928.3,2356.15,2956l-19.4,5.48L2233.1,2990.7a431.14,431.14,0,0,1-48.82-2.68,416.61,416.61,0,0,0,123.39-122.47c10.36-5.79,17.36-11,19-15,1.74-4.28,32.16,6.85,62.59,7.62,31.36.79,62.73-8.7,62.73-8.7l2.15,75.77Z" transform="translate(-1127.15 -1030.91)"/></g><polygon class="cls-14" points="1068.13 1648.84 1034.04 1690.17 937.56 1807.17 915.66 1833.72 835.2 1770.58 894.84 1645.88 913.93 1605.97 1016.82 1634.58 1068.13 1648.84"/><path class="cls-15" d="M2096,2803.92l-30.88,66.74-25.07,54.2-87.23-42.33,16.7-50.82.37-1.11-2.24,1.78L1921.42,2869s-59.38-18.49-113.24-49.68c-31.19-18.05-60.53-40.37-75.42-65.81a66.85,66.85,0,0,1,7.93-7.48c10.15-8.24,29-19.4,50.89-11.88,32.71,11.26,174.52,28.19,190.37,14.2a2.17,2.17,0,0,1,1.22-.42C1996.93,2746.66,2096,2803.92,2096,2803.92Z" transform="translate(-1127.15 -1030.91)"/><g class="cls-16"><path class="cls-17" d="M1967.66,2832.38,1921.42,2869s-148.06-46.12-188.66-115.49a66.85,66.85,0,0,1,7.93-7.48c15.27,16.89,33,33.07,51.69,42C1842.84,2812.38,1909.92,2852.19,1967.66,2832.38Z" transform="translate(-1127.15 -1030.91)"/></g><g class="cls-16"><path class="cls-17" d="M2065.13,2870.66l-25.07,54.2-87.23-42.33,16.7-50.82q2.17-.8,4.34-1.71c9.33,19.89,37.52,26.53,57.2,31.65C2036.19,2863,2050.53,2867.35,2065.13,2870.66Z" transform="translate(-1127.15 -1030.91)"/></g><g class="cls-18"><path class="cls-19" d="M2096,2803.92l-30.88,66.74-25.07,54.2-87.23-42.33,16.7-50.82.37-1.11-2.24,1.78L1921.42,2869s-59.38-18.49-113.24-49.68q34.18-6.92,67.65-17c38.5-11.53,78.17-27.94,107.34-54.44C1996.93,2746.66,2096,2803.92,2096,2803.92Z" transform="translate(-1127.15 -1030.91)"/></g><path class="cls-19" d="M2586.19,2237.52c-1.07,4.37-3.25,15.43-6.27,31.48-21.7,115.6-87.24,490.61-102,499.6-2,1.22-5.63,1.9-10.45,2.12-35.64,1.65-137-21.59-140.23-35.77-3.66-16.09,43.16-445.49,45.35-455C2372.58,2280,2595,2201.67,2586.19,2237.52Z" transform="translate(-1127.15 -1030.91)"/><path class="cls-14" d="M2798.17,1272.08c-6.07,17.76-16.52,33.35-27.69,48.27-2.63,3.52-5.3,7-8,10.47-11.58,15.08,2.23,4.63-13.17,15.34-35.17,24.49-92.52,59.64-126.5,14.95-32.92-43.3-19.52-112.63-15.08-168.55.7-8.74,1.18-17.14,1.22-25.07,9.26-16.12,28.37-37.31,47.82-48.14,8.34-4.64,16.76-7.38,24.47-7,37.16,1.92,73.95,19.52,97.35,49.8a116.22,116.22,0,0,1,10.47,16.15C2804.34,1206.62,2808.6,1241.52,2798.17,1272.08Z" transform="translate(-1127.15 -1030.91)"/><path class="cls-17" d="M2579.92,2269c-21.7,115.6-87.24,490.61-102,499.6-2,1.22-5.63,1.9-10.45,2.12,12.6-80.22,16.58-165.55,13.52-242.87-2.63-66.85.91-167.12-50.41-217.85,39.26-15,61.89-60.88,103.62-55.64A133.53,133.53,0,0,1,2579.92,2269Z" transform="translate(-1127.15 -1030.91)"/><path class="cls-14" d="M2820.58,1429.69c-33.26,25.08-98.25,17.34-137.4,28a313.25,313.25,0,0,0,4.69-44.71q.24-7,.16-13.92-.14-14.52-1.63-29c-.83-8.25-2-16.48-3.49-24.63-3.62-19.84,6.8-42.6,23.51-53.87,2.91-2,5.79-3.86,8.68-5.66,26.81-17,53.15-28,84.46-28.24,3.44,0,7,.06,10.53.3-1.09,10.81-2.86,22-4.48,33.28-2.27,16-4.23,32.23-3.45,47.81a96.46,96.46,0,0,0,6.12,30.58c.2.53.4,1.06.62,1.58C2819,1395.64,2849.53,1407.87,2820.58,1429.69Z" transform="translate(-1127.15 -1030.91)"/><g class="cls-20"><path class="cls-21" d="M2802.16,1339.07c-35.38-3.44-51.45-44.34-87.06-53.15-1-.26-2-.48-3-.68-7.94-1.5-16.36-1.32-23.61-4.89-4.41-2.16-8.06-5.57-11.51-9.08a195.41,195.41,0,0,1-32.31-43.44c-1.64-3-3.27-6.16-5.77-8.53-9.43-9-21.69-16.79-31.1-26.74.7-8.74,1.18-17.14,1.22-25.07,9.26-16.12,28.37-37.31,47.82-48.14,48.74,3.88,93.69,27.48,132.29,59,14.66,27.23,11.07,46.89,10.09,75a33.48,33.48,0,0,0,.37,4.35c.43,3.33,1.22,8.12,2.22,13.74,1.07,5.95,2.39,12.82,3.83,19.84C2803.34,1307.28,2801.38,1323.49,2802.16,1339.07Z" transform="translate(-1127.15 -1030.91)"/></g><path class="cls-22" d="M2831.1,1240.64a55.51,55.51,0,0,1,0,14.51c-2,16.35-10.33,33.82-22.15,43.36a19.25,19.25,0,0,1-4.68,2.78c-6.25,2.62-13.1,1.38-19.71-1.22-12.83-5-24.79-15.09-29.79-12.18-16.3,9.48-26.57,4.78-33.78-5.59-11.39-16.46-15.06-47.19-22.62-58.47l-.85.39c-5.62,2.5-11.47,5.45-17.55,7.34a37,37,0,0,1-13.8,1.85h-.23l-1-.11a28.22,28.22,0,0,1-19.08-45c-5.39,7.14-33-13.54-36.58-17.39a2.52,2.52,0,0,1-.27-.3,62.45,62.45,0,0,1-16.21-38.77c-1.73-31.57,20.45-57.33,49.89-63.55a66.33,66.33,0,0,1,14.67-1.43c-7.19-.09,17.4-23.89,19.1-24.89,7.44-4.37,22.38-10.06,31.26-10.82,28.59-2.5,57.09,20.54,76.89,38.25,14.36,12.86,22.78,31.16,25.82,50,.26,1.58.48,3.15.66,4.73.37,3.19.58,6.43.64,9.67,0,.61,0,1.22,0,1.83,30.28,6,44.52,18.48,48.92,53.53C2862.48,1203.87,2852.45,1249.67,2831.1,1240.64Z" transform="translate(-1127.15 -1030.91)"/><path class="cls-23" d="M2811.67,1133.75l-3.21,12c-10.79,6.93-25,6.51-37.05,2a77.33,77.33,0,0,1-14.19-7.15c-3.95-2.47-7.74-5.21-11.49-8.05-2.27-1.72-4.5-3.48-6.74-5.23,22.47,11.93,52,8.18,71.38-8,.26,1.58.48,3.15.66,4.73C2811.4,1127.27,2811.61,1130.51,2811.67,1133.75Z" transform="translate(-1127.15 -1030.91)"/><path class="cls-24" d="M2788.22,2186.13c-5.19,34-24.91,66.35-52.56,86.78-62.51,46.16-147.6,30.34-219.29,38-30.59,3.28-168.42-19.33-175.12,25.57-2.4,16-121.39,317.12-167.35,388.15-4.15,6.44-7.71,11-10.53,13.27-10.75,8.67-28.3,4-47.28-6.52-1.63-.89-3.26-1.84-4.9-2.83-39.85-23.73-83.89-69.66-83.89-69.66-3.87-4,7.36-35.84,18.39-64.44,8.09-21,16.06-40.22,17.88-45.52q18-52.26,37.12-104.11,31.7-85.71,66.77-170.1c17.75-42.58,34-111.82,67.42-143.29,30.18-28.43,73.52-36.61,111.23-46.23q35.49-9,71.57-15.62,33.62-6.2,67.55-10.53,34.32-4.44,68.89-7.11,19.1-1.46,38.23-2.34c14-.63,33.79,2.9,47.23-.8,0,0,124-34,155.81,30.74C2809.27,2107.74,2792.83,2156.06,2788.22,2186.13Z" transform="translate(-1127.15 -1030.91)"/><path class="cls-19" d="M2788.22,2186.13c-5.19,34-24.91,66.35-52.56,86.78-62.51,46.16-147.6,30.34-219.29,38-30.59,3.28-168.42-19.33-175.12,25.57-2.4,16-121.39,317.12-167.35,388.15-4.15,6.44-7.71,11-10.53,13.27-10.75,8.67-28.3,4-47.28-6.52-1.63-.89-3.26-1.84-4.9-2.83-39.85-23.73-83.89-69.66-83.89-69.66-3.87-4,7.36-35.84,18.39-64.44l1.91-1.93a1108.79,1108.79,0,0,0,146.23-188.38c35.09-56.94,56.89-138.39,101.27-187.49,31.64-35,89.71-29.61,130.26-49.6,46.36-22.84,49.95-54.78,6.36-87.75-4.53-3.42-9.25-6.61-14-9.72q33.62-6.2,67.55-10.53,34.32-4.44,68.89-7.11,19.1-1.46,38.23-2.34c14-.63,33.79,2.9,47.23-.8,0,0,124-34,155.81,30.74C2809.27,2107.74,2792.83,2156.06,2788.22,2186.13Z" transform="translate(-1127.15 -1030.91)"/><path class="cls-17" d="M2788.22,2186.13c-5.19,34-24.91,66.35-52.56,86.78-62.51,46.16-147.6,30.34-219.29,38-30.59,3.28-168.42-19.33-175.12,25.57-2.4,16-121.39,317.12-167.35,388.15a120.67,120.67,0,0,1-41.67-24.11l-16.14,30.86c-1.63-.89-3.26-1.84-4.9-2.83,58.42-107.42,129.44-208.76,187.09-316.94,14.29-26.83,35.32-87.87,36.06-118.13,68.13-14.67,122.94-62.4,191.16-68.52,41.3-3.72,154.09-8.36,182.53-43.62,32.5-40.29-26.68-59.11-60-68.85-37-10.81-78.64-25.76-94-60.55q19.1-1.46,38.23-2.34c14-.63,33.79,2.9,47.23-.8,0,0,124-34,155.81,30.74C2809.27,2107.74,2792.83,2156.06,2788.22,2186.13Z" transform="translate(-1127.15 -1030.91)"/><path class="cls-10" d="M3009.09,1872.18c-11,59.59-15.09,117.52-57.33,165.42-34.17,38.75-83.56,59.11-134.56,71-5.46,1.26-11,2.44-16.45,3.52q-6.59,1.32-13.14,2.44c-2.41.43-4.84.84-7.25,1.24-31.05,5.12-65.1.86-98.35-7.83-32.63-8.51-64.51-21.28-92-33.65-42.18-18.95-43.36-43.61-28.1-92.9,11.59-37.26,30.29-72.33,38.54-110.95,5.75-26.92,8-54.48,9-81.94.45-12-7-68.15.12-76.59-59.37,59.25-122,150-213,151.27-7,.1-14.06-.14-21.06-.62-15.47-1-30.89-3.31-46.26-5.85-8.32-1.37-16.64-2.81-24.94-4.18l-5.32-.85-2.2-.34c-16.91-2.63-33.81-4.66-50.69-6.29-72.28-7-144.35-6.52-216.67-13.41-10.44-1,15.13-52.12,20.36-57.36,12.1-12.08,26.35-23.7,42.22-31.12a89.45,89.45,0,0,1,17.51-6.14c37.71-8.76,84.43-4.64,123.83-8.28l150.35-13.93c.51,0,33.72-59.34,39.53-67.45,21.69-30.31,45.46-59.44,66.44-90.33,33.49-49.26,70.05-74.45,120.76-94.42q9.41-3.69,19.51-7.19c1.17-.41,2.33-.82,3.51-1.22l2.45-.84a372,372,0,0,1,49.82-12.6c18.84-3.62,37.88-6.39,56.77-9.65,26.87-4.63,65.63-9.62,87.23-27.61.4.27.78.55,1.18.81a201.86,201.86,0,0,0,28.5,16c4.2,2,8.44,3.9,12.69,5.81,12.4,5.56,24.85,11,36.66,17.92q4.42,2.57,8.72,5.45c2.29,1.55,4.55,3.14,6.78,4.8,17.8,13.07,33.45,28.9,47.23,46.15s17.55,27.66,21.9,49.5q15,75.44,26.24,151.56C3027.93,1757.71,3019.22,1817.14,3009.09,1872.18Z" transform="translate(-1127.15 -1030.91)"/><g class="cls-25"><path class="cls-26" d="M2884.07,1573.37c-2.44,15.87-5.18,31.41-7.07,44.93-12,85.85-12,172.79-23,258.71-5.68,44.67-14,89.18-28.11,132-11.8,35.79-6.62,66-8.71,99.52-5.46,1.26-11,2.44-16.45,3.52q-6.59,1.32-13.14,2.44c-2.41.43-4.84.84-7.25,1.24-31.05,5.12-65.1.86-98.35-7.83-12.39-3.22-24.65-7.07-36.62-11.27-19.58-6.87-38.34-14.71-55.42-22.38-42.18-18.95-43.36-43.61-28.1-92.9,11.59-37.26,30.29-72.33,38.54-110.95,5.75-26.92,8-54.48,9-81.94.45-12-7-68.15.12-76.59-59.37,59.25-122,150-213,151.27-7,.1-14.06-.14-21.06-.62-23.86-1.63-47.55-6.12-71.2-10l-5.32-.85c6.37-18.44,71.12,4.31,78.3,2.61,26.24-6.25,30.24-27.32,48-45.74,52.84-54.84,116.11-112.73,175.38-161,48.43-39.43,66.68,7.27,116.56-9.74,28.5-9.71,56.64-53.07,78.43-74.7,1.69-1.67,92.83-86,93.94-52.55C2890.22,1529.27,2887.41,1551.63,2884.07,1573.37Z" transform="translate(-1127.15 -1030.91)"/></g><path class="cls-15" d="M2884.07,1573.37c-2.44,15.87-5.18,31.41-7.07,44.93-12,85.85-12,172.79-23,258.71-5.68,44.67-14,89.18-28.11,132-11.8,35.79-6.62,66-8.71,99.52-5.46,1.26-11,2.44-16.45,3.52q-6.59,1.32-13.14,2.44c-2.41.43-4.84.84-7.25,1.24-31.05,5.12-65.1.86-98.35-7.83-12.39-3.22-24.65-7.07-36.62-11.27,29.34-16.23,54.51-41.3,72.45-69.84,30.63-48.76,43.24-106.57,51.3-163.58s12.21-114.93,28.17-170.25c16.4-56.89,44.83-109.44,73.05-161.49Z" transform="translate(-1127.15 -1030.91)"/><rect class="cls-3" x="1619.25" y="1270.88" width="95.19" height="541.35"/><circle class="cls-17" cx="1911.5" cy="1891" r="55.41"/><path class="cls-17" d="M2481.08,2921.8a55.41,55.41,0,1,0,55.42-55.4A55.41,55.41,0,0,0,2481.08,2921.8Z" transform="translate(-1127.15 -1030.91)"/><path class="cls-4" d="M2463.22,2889.69l661.42.13h0a46.62,46.62,0,0,0-46.6-46.62l-568.2-.11a46.61,46.61,0,0,0-46.62,46.6Z" transform="translate(-1127.15 -1030.91)"/><path class="cls-4" d="M2841.64,2301.8l0,265.78q-47.36-21.67-95.18-42.3l0-223.5Z" transform="translate(-1127.15 -1030.91)"/><rect class="cls-27" x="2761.75" y="2348.98" width="23.91" height="494.17" transform="translate(4419.74 4161.76) rotate(-179.99)"/><path class="cls-5" d="M3291,1872.39c-14.1,65.22-33.53,129.43-55.6,191.89-3.24,9.18-6.51,18.65-9.85,28.34-44.46,128.89-101.28,295.58-261.85,295.58-28.34,0-56.74-.81-85.15-2.18-55.57-2.7-111.16-7.58-166.29-12.83-48.06-4.58-96.27-9.74-143.79-18.37-17.73-3.23-36.27-6.17-53.33-12.15-10.84-3.81-43.41-29.18-48.64-29.18,39.32-4.3,78.54-6.45,117.79-9.56q11.41-.9,22.84-1.94a253.92,253.92,0,0,0,49.76-9.4c37.8-11.33,71.22-32.3,96.11-65.93,19.47-26.31,28.17-63.3,33.25-101,4.31-32,6-64.42,9.49-91.27,9.95-76.92,18.09-154.08,26.74-231.16,10.3-91.93,4-229,63.51-311.1,18.25-25.2,42.71-45.21,75.72-57.17,45-16.26,94.16-21.87,141.74-18.93,9.22.57,18.64,1.54,28.15,2.92a316.74,316.74,0,0,1,54.2,12.72,245.92,245.92,0,0,1,45.69,20.33c39.24,22.75,69.35,57.26,76.21,106.43q2.94,21,4.63,42C3319.69,1691.7,3310.31,1783,3291,1872.39Z" transform="translate(-1127.15 -1030.91)"/><path class="cls-23" d="M2831.07,1255.15c-2,16.35-10.33,33.82-22.15,43.36-18.79,15.11-45.93-15.42-54.18-10.62-42.1,24.5-44.07-45.67-56.4-64.06-6.74,3-34.72,5.51-32.74,17.83-7.39-46,50.89-32.08,67.9-9.09,2.38,3.24,7,23.17,7.81,23.63,4.41,2.49,16.93,7,16.37-2.48,3.36,13.16,19,22.4,32.05,18,11.64-3.86,18.43-17.48,16.18-29.27C2810.85,1250.48,2820.79,1254.66,2831.07,1255.15Z" transform="translate(-1127.15 -1030.91)"/><path class="cls-14" d="M2674.78,1222.1c4.7-4.77,10.33-7.21,18.17-2.35,11.66,7.24,9.8,29.69,4.88,40.29-4.3,9.26-11.57,17.33-19.36,23.8-1.35-13.68-15.38-11.53-20-24.21a21.77,21.77,0,0,1,4.06-21.49C2666.48,1233.65,2670.18,1226.76,2674.78,1222.1Z" transform="translate(-1127.15 -1030.91)"/><path class="cls-28" d="M2655.66,1214a36,36,0,0,0,10.25,19.39l-1-.11a28.22,28.22,0,0,1-19.08-45c-5.39,7.14-33-13.54-36.58-17.39a62.49,62.49,0,0,1-16.48-39.07c-1.73-31.57,20.45-57.33,49.89-63.55,5.28,2.66,11.23,5.51,9,10.39-19.83,4.66-33.75,24.42-35.8,44.68s5.89,40.47,17.52,57.18c9.2,13.25,18.57.45,34.6-1.27C2658,1187.07,2653.55,1201.52,2655.66,1214Z" transform="translate(-1127.15 -1030.91)"/><path class="cls-3" d="M3188,1463.84l-64,8.78c-8.59-.74-17.19-1.49-25.81-1.71a212.93,212.93,0,0,0-129,40c-51.48,37.24-77.68,100.75-89.26,161.34-13.81,72.24-10.21,139.53-14.17,211.35-7.31,132.73-10.78,344.85-157.52,403.44a6.3,6.3,0,0,0,4,2.8c-10.65,3.86-21.45,3.57-31.86.38,36.28-10.88,68.36-31,92.26-63.29,18.69-25.25,27-60.75,31.91-96.91,4.14-30.68,5.78-61.84,9.11-87.62,9.55-73.84,17.36-147.9,25.67-221.89,9.89-88.24,3.86-219.81,61-298.62,17.52-24.19,41-43.4,72.69-54.88,43.14-15.61,90.38-21,136-18.17,8.85.55,17.89,1.48,27,2.81A303.76,303.76,0,0,1,3188,1463.84Z" transform="translate(-1127.15 -1030.91)"/><path class="cls-4" d="M3278.54,1904.56c-13.54,62.6-32.19,124.24-53.37,184.2q-4.66,13.22-9.46,27.19c-42.68,123.72-97.21,283.73-251.35,283.73-3.4,0-6.79,0-10.21,0-2.09,0-4.19,0-6.3,0s-4.07,0-6.11-.08q-9.1-.14-18.22-.39c-2.59,0-5.18-.13-7.79-.22l-4.2-.13-2.66-.1c-1.93-.05-3.87-.12-5.8-.2q-10.21-.37-20.44-.88c-53.34-2.59-106.7-7.28-159.62-12.32-46.13-4.4-92.41-9.34-138-17.63-17-3.1-34.82-5.92-51.19-11.67-10.42-3.65-41.67-28-46.7-28,37.75-4.13,75.39-6.2,113.07-9.18q18.49,2.51,37.09,4.27c129.79,12.42,319.44-27.59,427.18-102.65,102-71,149.16-194.46,179.38-308.14,23.36-87.89,34.83-178.43,46.21-268.64a66.92,66.92,0,0,1,9-.06C3306.12,1731.12,3297.12,1818.74,3278.54,1904.56Z" transform="translate(-1127.15 -1030.91)"/><path class="cls-14" d="M2067.19,1767c-9.37,13.15-7.67,42.29-22.33,49.09-26.75,12.39-60.38,13.68-87.83,2.78-7.46-3-14.69-6.85-22.64-8-7.77-1.11-15.62.48-23.42,1.37a127.69,127.69,0,0,1-27.5.17,125.44,125.44,0,0,1-17-2.82c-10.8-2.57-21.46-10.28-15.5-22.72,4.73-9.85,21.69-7.57,30.66-9.31,28.61-5.52,55-18.38,80.45-32.24,4.62-2.5,9.45-5.16,14.69-5.3,3.54-.1,7,1,10.33,2l44.73,13.94Z" transform="translate(-1127.15 -1030.91)"/><g class="cls-20"><path class="cls-21" d="M2067.19,1767c-9.37,13.15-7.67,42.29-22.33,49.09-26.75,12.39-60.38,13.68-87.83,2.78-7.46-3-14.69-6.85-22.64-8-7.77-1.11-15.62.48-23.42,1.37a127.69,127.69,0,0,1-27.5.17c27-3,55.76-8.3,79.28-16.31,25.67-8.74,45.6-27.51,69.09-40.13Z" transform="translate(-1127.15 -1030.91)"/></g><path class="cls-10" d="M2874.34,1424.18c-.74.64-1.49,1.25-2.24,1.87a554.74,554.74,0,0,1-205.89,107.56l-50.6-57.38c3.46-4.17,6.9-8.49,10.38-12.84,2.21-2.76,4.43-5.53,6.69-8.27l.78-.94c13.5-16.29,28.34-31.64,48.37-39,2-.74,4-1.47,6-2.18,14.28-5,28.93-9.17,43.27-13.88,19.2-6.33,56.81-14.62,77.14-29.42,5-3.63,8.94-7.65,11.32-12.13,11.77,20.8,26.37,45.48,46,60.73h0A76,76,0,0,0,2874.34,1424.18Z" transform="translate(-1127.15 -1030.91)"/><path class="cls-26" d="M2908.76,1444a11,11,0,0,1-1,2c-4.15,7-13.6,9.17-22,10.47-21.56,3.34-43.2,5.71-64.94,7.33-64.62,4.78-129.87,2.82-194.87-.41q-7.77-.37-15.55-.8,9.41-3.69,19.5-7.19h0l2.73-.28c17.1-1.63,34.31-2.61,51.52-3.5,16.25-.84,32.51-1.61,48.71-2.79,22.79-1.67,45.72-4.19,68.09-8.9h0c8.39-1.77,16.69-3.85,24.89-6.3,11.2-3.36,22.33-9.4,33.5-13.39,2.07-.74,4.14-1.41,6.2-2h0a76,76,0,0,0,8.71,5.93c-.74.64-1.49,1.25-2.24,1.87C2884.5,1431.61,2897,1437.05,2908.76,1444Z" transform="translate(-1127.15 -1030.91)"/><path class="cls-15" d="M2682,2107.92c-32.63-8.51-64.51-21.28-92-33.65-42.18-18.95-43.36-43.61-28.1-92.9,11.59-37.26,30.29-72.33,38.54-110.95,5.75-26.92,8-54.48,9-81.94.45-12-7-68.15.12-76.59-59.37,59.25-122,150-213,151.27-7,.1-14.06-.14-21.06-.62,72.19-29,162-75.4,199.33-132.39-.32,2.1-1.57,7.49-1.86,8.55,14.27-22.13,31.27-42.27,51.7-59q-3.83,94.26-7.67,188.5c-1.22,30-2.58,60.57-13.54,88.48-16.72,42.57-23.21,57.82,2.64,101,9.83,16.4,29.5,29.71,47.49,23.23C2669.44,2085.45,2675.2,2095.55,2682,2107.92Z" transform="translate(-1127.15 -1030.91)"/><g class="cls-25"><path class="cls-26" d="M2246.11,1845c-72.28-7-144.35-6.52-216.67-13.41-10.44-1,15.13-52.12,20.36-57.36,12.1-12.08,26.35-23.7,42.22-31.12C2136.19,1792.75,2183.66,1830.6,2246.11,1845Z" transform="translate(-1127.15 -1030.91)"/></g><g class="cls-25"><path class="cls-26" d="M2329.26,1856.69c-8.32-1.37-16.64-2.81-24.94-4.18l-5.32-.85-2.2-.34q13.77.39,28.48-.63A68.54,68.54,0,0,1,2329.26,1856.69Z" transform="translate(-1127.15 -1030.91)"/></g><path class="cls-14" d="M2618.69,1198.06c-11.18,26-20.41,51.1-39.8,71.7-2.27,2.42-4.71,5.25-4.47,8.56.17,2.45,1.79,4.52,3.37,6.4a185.75,185.75,0,0,0,35.75,32.54" transform="translate(-1127.15 -1030.91)"/><g class="cls-20"><path class="cls-21" d="M2759.05,1354.32c-24.69,15.63-47.65,33.13-71,50.19q-.14-14.52-1.63-29A512.58,512.58,0,0,0,2759.05,1354.32Z" transform="translate(-1127.15 -1030.91)"/></g><path class="cls-23" d="M2757.11,1250.39a15.58,15.58,0,0,1,.57,3.33A23.17,23.17,0,0,1,2757.11,1250.39Z" transform="translate(-1127.15 -1030.91)"/><path class="cls-23" d="M2803.08,1235.12a21.68,21.68,0,0,1,2.83,7.37A21,21,0,0,1,2803.08,1235.12Z" transform="translate(-1127.15 -1030.91)"/></g></g></svg>