<svg id="_08" data-name="08" xmlns="http://www.w3.org/2000/svg" xmlns:xlink="http://www.w3.org/1999/xlink" viewBox="0 0 3201.77 2451.3"><defs><style>.cls-1,.cls-13,.cls-15,.cls-21,.cls-23,.cls-27,.cls-36,.cls-37,.cls-40{fill:none;}.cls-2{fill:#d7dcef;}.cls-3{fill:#5e6bae;}.cls-4{fill:#494a45;}.cls-5{fill:#c84c48;}.cls-10,.cls-6,.cls-7{fill:#fff;}.cls-10,.cls-23,.cls-36,.cls-6{stroke:#000;}.cls-10,.cls-13,.cls-15,.cls-21,.cls-23,.cls-27,.cls-36,.cls-37,.cls-40,.cls-6{stroke-miterlimit:10;}.cls-10,.cls-13,.cls-21,.cls-23,.cls-36,.cls-37,.cls-40,.cls-6{stroke-width:4px;}.cls-8{fill:#ffcf85;}.cls-9{fill:#ffe9c9;}.cls-10,.cls-23,.cls-27,.cls-37{stroke-linecap:round;}.cls-11{fill:#eb8d4a;}.cls-12{fill:#f39e6e;}.cls-13{stroke:#5f6aad;}.cls-14{fill:#dd7878;}.cls-15,.cls-27,.cls-37{stroke:#fff;}.cls-15{stroke-width:6px;}.cls-16{fill:#e5dacc;}.cls-17{clip-path:url(#clip-path);}.cls-18{clip-path:url(#clip-path-2);}.cls-19{fill:#dd4545;}.cls-20{clip-path:url(#clip-path-3);}.cls-21{stroke:#ffd98d;}.cls-22{clip-path:url(#clip-path-4);}.cls-24{fill:#e14833;}.cls-25{fill:#7a7a7a;}.cls-26{clip-path:url(#clip-path-5);}.cls-27{stroke-width:10px;}.cls-28{clip-path:url(#clip-path-6);}.cls-29{clip-path:url(#clip-path-7);}.cls-30{fill:#e5e5e5;}.cls-31{fill:#ccc;}.cls-32{fill:#fcc47a;}.cls-33{clip-path:url(#clip-path-8);}.cls-34{fill:#606060;}.cls-35{clip-path:url(#clip-path-9);}.cls-38{clip-path:url(#clip-path-10);}.cls-39{clip-path:url(#clip-path-11);}.cls-40{stroke:#5e6bae;}.cls-41{fill:#f46767;}</style><clipPath id="clip-path" transform="translate(-739.11 -360)"><path class="cls-1" d="M3464.84,2269.5l-26,175.74a88.89,88.89,0,0,1-87.93,75.87H3194a88.89,88.89,0,0,1-88.34-79.08L3086.5,2269.5Z"/></clipPath><clipPath id="clip-path-2" transform="translate(-739.11 -360)"><rect class="cls-1" x="3045.49" y="2183.76" width="460.35" height="130.46" rx="30.91" transform="translate(6551.34 4497.99) rotate(180)"/></clipPath><clipPath id="clip-path-3" transform="translate(-739.11 -360)"><path class="cls-1" d="M2567.71,2502.45s50.23,52.32,80.52,42.32-158.72,277.28-290.83,202.92,69.85-171.13,69.85-171.13S2525.85,2520.22,2567.71,2502.45Z"/></clipPath><clipPath id="clip-path-4" transform="translate(-739.11 -360)"><polygon class="cls-1" points="2209.27 1542.04 2182.45 1714.94 2269.32 1734.95 2289.34 1606.09 2209.27 1542.04"/></clipPath><clipPath id="clip-path-5" transform="translate(-739.11 -360)"><path class="cls-1" d="M2270.34,1681.86a333,333,0,0,0-233.19,9.15c-69.31,29-143,73.19-156.94,132.78-27.53,117.61-102.6,345.32-37.53,385.36s149.73,67,149.73,67h429.11l259.53-197s-223.32-332.17-307.77-362.19C2341.34,1705.56,2304.19,1693,2270.34,1681.86Z"/></clipPath><clipPath id="clip-path-6" transform="translate(-739.11 -360)"><path class="cls-1" d="M2148,2206.64s59.27,8.09,113.14-37.38c27.74-23.4,68.64-22.11,94.18,3.67,21.75,22,42.27,50.12,56.6,71.48a26.23,26.23,0,0,1-17.84,40.51c-31.51,4.89-75.77,4.92-110.95-15.72-34.14-20,6.25,43.79-156.94,14.39C1990.74,2259.19,2148,2206.64,2148,2206.64Z"/></clipPath><clipPath id="clip-path-7" transform="translate(-739.11 -360)"><path class="cls-1" d="M2793.56,2004V1816.28s-117.61-110.1-137.63-27.52,0,123.33,0,123.33l45.05,16.8s17.51,105.09,65.06,92.58S2793.56,2004,2793.56,2004Z"/></clipPath><clipPath id="clip-path-8" transform="translate(-739.11 -360)"><path class="cls-1" d="M1898,2083.5l199.48,35.77a37.78,37.78,0,0,1,25.64,17.58l23.06,38,8,4.55a27.8,27.8,0,0,1,8.65,40.65c-11.8,16-25.71,37.38-32,56.51a16,16,0,0,1-21,9.89c-9.73-3.86-13.84-3.56-15.58-2.61a99.86,99.86,0,0,1-17.34,6.88l-1.86.6a58.44,58.44,0,0,1-24.11,2.46c-50.48-5.44-233.83-32.77-233.7-143.05C1817.25,2108.08,1856.08,2076,1898,2083.5Z"/></clipPath><clipPath id="clip-path-9" transform="translate(-739.11 -360)"><path class="cls-1" d="M2766.29,2222s178.33-28.19,167.86,72S2662.84,2562,2662.84,2562l-127-92.1Z"/></clipPath><clipPath id="clip-path-10" transform="translate(-739.11 -360)"><path class="cls-1" d="M2168.25,2302.86l421.27,181.54s48.9,127.62-56.2,152.65-558.7-113.35-558.7-113.35S2000.86,2269,2168.25,2302.86Z"/></clipPath><clipPath id="clip-path-11" transform="translate(-739.11 -360)"><path class="cls-1" d="M2643.42,2549.14s0,72.53-28.77,86.29,306.53,90.09,350.32-55-168.91-75.07-168.91-75.07S2685.92,2533,2643.42,2549.14Z"/></clipPath></defs><polygon class="cls-2" points="210.55 153.38 185.96 2184.36 976.7 2214.38 976.7 67.38 210.55 153.38"/><polygon class="cls-3" points="1211.91 172.48 976.7 67.38 976.7 2214.38 1196.9 2105.86 1211.91 172.48"/><polygon points="276.96 230.96 276.96 565.05 900.1 508.75 900.1 159.64 276.96 230.96"/><polygon class="cls-4" points="416.33 290.87 276.96 224.7 276.96 558.8 427.85 545.16 416.33 290.87"/><polygon class="cls-4" points="900.1 249.59 416.33 290.87 276.96 224.7 900.1 153.38 900.1 249.59"/><polygon class="cls-5" points="702.2 362.35 690.38 523.58 742.2 518.89 742.2 362.35 702.2 362.35"/><polyline class="cls-6" points="742.2 362.35 825.1 391.23 825.1 511.4 742.2 518.89"/><polygon class="cls-7" points="372.3 391.75 360.49 552.98 412.3 548.3 412.3 391.75 372.3 391.75"/><polyline class="cls-8" points="412.3 391.75 495.2 420.64 495.2 540.81 412.3 548.3"/><polygon class="cls-9" points="326.09 808.07 495.2 755.52 561.31 958.21 376.13 1020.77 326.09 808.07"/><polygon class="cls-7" points="690.38 690.46 650.57 858.12 783.65 888.15 825.1 702.97 690.38 690.46"/><polygon class="cls-7" points="326.09 1228.46 341.1 1396.12 518.01 1396.12 495.2 1218.45 326.09 1228.46"/><line class="cls-10" x1="706.44" y1="733" x2="783.65" y2="743.01"/><line class="cls-10" x1="699.23" y1="750.52" x2="776.44" y2="760.53"/><line class="cls-10" x1="692.02" y1="768.03" x2="769.23" y2="778.04"/><line class="cls-10" x1="684.81" y1="785.55" x2="762.02" y2="795.56"/><line class="cls-10" x1="368.63" y1="861.87" x2="495.2" y2="826.27"/><line class="cls-10" x1="380.41" y1="888.15" x2="506.99" y2="852.54"/><line class="cls-10" x1="386.39" y1="923.75" x2="512.97" y2="888.15"/><line class="cls-10" x1="368.63" y1="1271" x2="486.45" y2="1271"/><line class="cls-10" x1="353.39" y1="1307.29" x2="471.21" y2="1307.29"/><polygon class="cls-8" points="750.38 322.15 735.99 518.57 799.11 512.87 799.11 322.15 750.38 322.15"/><polyline class="cls-7" points="799.11 322.15 900.1 357.34 900.1 503.74 799.11 512.87"/><polygon class="cls-11" points="500.85 346 486.45 542.42 549.57 536.72 549.57 346 500.85 346"/><polyline class="cls-12" points="549.57 346 650.57 381.19 650.57 527.59 549.57 536.72"/><rect class="cls-7" x="1247.8" y="742.15" width="20.02" height="136.43" rx="8" transform="translate(-700.09 -417.59) rotate(2.66)"/><circle class="cls-5" cx="407.12" cy="779.63" r="46.63"/><rect class="cls-3" x="1631.01" width="1432.74" height="1204.04" rx="11.01"/><rect class="cls-2" x="1685.81" y="39.48" width="1324.11" height="1112.75" rx="10.17"/><rect class="cls-3" x="2620.43" y="39.48" width="44.04" height="1112.75"/><path class="cls-13" d="M3884.67,1949.4a30.09,30.09,0,0,0,3.45-14h0a30.56,30.56,0,0,0-30.47-30.47H3503a30.56,30.56,0,0,0-30.47,30.47h0a30.56,30.56,0,0,0,30.47,30.47h24.17" transform="translate(-739.11 -360)"/><path class="cls-13" d="M3526.74,1965.22a30.12,30.12,0,0,0-3.45,14h0a30.56,30.56,0,0,0,30.47,30.47h354.66a30.56,30.56,0,0,0,30.47-30.47h0a30.56,30.56,0,0,0-30.47-30.47h-24.17" transform="translate(-739.11 -360)"/><path class="cls-13" d="M2574.82,780.63a30.24,30.24,0,0,0,3.44-14h0a30.56,30.56,0,0,0-30.47-30.47H2193.14a30.56,30.56,0,0,0-30.47,30.47h0a30.56,30.56,0,0,0,30.47,30.47h24.16" transform="translate(-739.11 -360)"/><path class="cls-13" d="M2216.88,796.44a30.17,30.17,0,0,0-3.45,14h0a30.56,30.56,0,0,0,30.47,30.47h354.66A30.56,30.56,0,0,0,2629,810.46h0A30.56,30.56,0,0,0,2598.56,780H2574.4" transform="translate(-739.11 -360)"/><path class="cls-13" d="M795.33,1958a30.12,30.12,0,0,1-3.45-14h0a30.56,30.56,0,0,1,30.47-30.47H1177a30.56,30.56,0,0,1,30.47,30.47h0a30.56,30.56,0,0,1-30.47,30.47h-24.17" transform="translate(-739.11 -360)"/><path class="cls-13" d="M1153.26,1973.76a30.17,30.17,0,0,1,3.45,14h0a30.56,30.56,0,0,1-30.47,30.47H771.58a30.56,30.56,0,0,1-30.47-30.47h0a30.56,30.56,0,0,1,30.47-30.47h24.17" transform="translate(-739.11 -360)"/><rect class="cls-8" x="1860.57" y="814.73" width="88.18" height="328.23" rx="15.66"/><rect class="cls-4" x="1950.38" y="906.18" width="75.12" height="235.15" rx="12.24"/><rect class="cls-7" x="2028.77" y="814.73" width="88.18" height="328.23" rx="15.66"/><rect class="cls-8" x="2118.58" y="906.18" width="75.12" height="235.15" rx="12.24"/><rect class="cls-8" x="2059.65" y="889" width="26.27" height="227.31" rx="10.5"/><rect class="cls-7" x="1890.75" y="877.74" width="26.27" height="238.57" rx="10.5"/><rect class="cls-7" x="1969.57" y="949.05" width="37.53" height="153.91" rx="12"/><rect class="cls-4" x="2134.72" y="949.05" width="41.29" height="156.9" rx="12"/><ellipse class="cls-14" cx="3178.51" cy="1839.23" rx="116.13" ry="435.67" transform="translate(-1025.77 263.37) rotate(-10.72)"/><ellipse class="cls-14" cx="3362.48" cy="1912.77" rx="364.42" ry="97.14" transform="translate(118.49 4500.75) rotate(-79.28)"/><line class="cls-15" x1="2400.69" y1="1295.22" x2="2536.56" y2="2000.29"/><line class="cls-15" x1="2667.14" y1="1346.62" x2="2544.63" y2="1965.91"/><path class="cls-16" d="M3464.84,2269.5l-26,175.74a88.89,88.89,0,0,1-87.93,75.87H3194a88.89,88.89,0,0,1-88.34-79.08L3086.5,2269.5Z" transform="translate(-739.11 -360)"/><g class="cls-17"><path d="M3374.45,2235s91.32,216.19-156.56,240.42c-170.42,16.66-155.84,42.13-130.09,56.42a87.1,87.1,0,0,0,42.25,10.68h253.78a88.89,88.89,0,0,0,78.88-47.9l73.89-142.21L3504.91,2235Z" transform="translate(-739.11 -360)"/></g><rect class="cls-16" x="3045.49" y="2183.76" width="460.35" height="130.46" rx="30.91" transform="translate(5812.23 4137.99) rotate(180)"/><g class="cls-18"><path d="M3486.28,2153s16.77,126.74-11.19,141.65-473.39,3.72-473.39,3.72l70.82,57.78,458.49,9.32,69-210.61Z" transform="translate(-739.11 -360)"/></g><path class="cls-19" d="M1433.09,1785.4s-151.5-477.83,726.9-481.59c450.47,22.32,367.88,940.44,382.9,1005.15s295.55-220.59,521.28-40.4-258.51,484.12-626.39,320.89S1886,2636.06,1886,2636.06Z" transform="translate(-739.11 -360)"/><path class="cls-7" d="M2567.71,2502.45s50.23,52.32,80.52,42.32-158.72,277.28-290.83,202.92,69.85-171.13,69.85-171.13S2525.85,2520.22,2567.71,2502.45Z" transform="translate(-739.11 -360)"/><g class="cls-20"><path class="cls-3" d="M2649.61,2528.53S2590.68,2665.7,2464,2718s-79.37,93.31-79.37,93.31,287.31-101.81,291.56-194.93S2649.61,2528.53,2649.61,2528.53Z" transform="translate(-739.11 -360)"/><path class="cls-3" d="M2354.11,2597.71s147.36,18.35,104.86,137.39-202.66,1.62-202.66,1.62S2313.77,2621.93,2354.11,2597.71Z" transform="translate(-739.11 -360)"/><line class="cls-21" x1="1800.68" y1="2144.46" x2="1797.01" y2="2212.9"/><line class="cls-21" x1="1754.18" y1="2168.3" x2="1829.5" y2="2181.7"/><line class="cls-21" x1="1740.26" y1="2180.43" x2="1736.59" y2="2248.86"/><line class="cls-21" x1="1693.76" y1="2204.26" x2="1769.08" y2="2217.67"/></g><path class="cls-8" d="M2286.28,1649.55l33.25,17.3a7,7,0,0,1,3.32,8.8l-14.66,37.92a7,7,0,0,1-1.38,2.22l-25,27.36a7,7,0,0,1-10.18.23h0a7,7,0,0,1-2-5.53l6.42-82.6A7,7,0,0,1,2286.28,1649.55Z" transform="translate(-739.11 -360)"/><polygon class="cls-11" points="1470.15 1182.04 1443.34 1354.94 1530.21 1374.95 1550.23 1246.09 1470.15 1182.04"/><g class="cls-22"><path d="M2159,1502.44s39.89,149,125.31,136.06,53.93-116,53.93-116Z" transform="translate(-739.11 -360)"/></g><path class="cls-11" d="M2467.8,1348.3s-20.38,315.5-101.55,299.88-145.56-52.94-172.72-100.63-.74-173.88,39.9-209.16S2441.76,1290.59,2467.8,1348.3Z" transform="translate(-739.11 -360)"/><path class="cls-23" d="M2406.58,1453.28s-2.18,53.58,14.94,71.78c-13.15,20.86-26.95,26.55-26.95,26.55" transform="translate(-739.11 -360)"/><path class="cls-23" d="M2320.44,1568.38s6.51,24.72,35.59,19.69" transform="translate(-739.11 -360)"/><path class="cls-23" d="M2338.24,1403.85s-15.22-15.23-34.51-1" transform="translate(-739.11 -360)"/><path class="cls-23" d="M2415.44,1416.37s14.82-15.31,27.09-2.08" transform="translate(-739.11 -360)"/><ellipse cx="2306.11" cy="1464.55" rx="23.77" ry="14.08" transform="translate(-395.21 3005.29) rotate(-76.51)"/><ellipse cx="2421.52" cy="1474.88" rx="23.77" ry="14.08" transform="translate(-316.76 3125.44) rotate(-76.51)"/><ellipse class="cls-23" cx="1603.5" cy="1131.96" rx="39.32" ry="43.33"/><ellipse class="cls-23" cx="1703.59" cy="1138.71" rx="39.32" ry="43.33"/><path class="cls-23" d="M2381.94,1498.71s10.21-14.07,21.44,0" transform="translate(-739.11 -360)"/><path d="M2194.25,1492s76.73-47.36,73.82-108.58c88,29.26,113.87-18.77,113.87-18.77s33.77,48.8,100.08,21.27,52.82-108.85-53-120.11c-7.46-47.55-48.1-50-86.36-32.53-44.52-43.79-138.36,1.25-133.35,53.8-88.84,13.76-90.09,97.59-90.09,97.59s-80.28,30.48,39.94,114.08C2187.6,1507,2194.25,1492,2194.25,1492Z" transform="translate(-739.11 -360)"/><path class="cls-8" d="M2170.17,1616.15l76.12,24.14a12.24,12.24,0,0,1,8.3,14.14l-6.52,31.83a12.24,12.24,0,0,0,3,10.77h0c8.07,8.74.21,22.7-11.45,20.32L2164,1701.92a12.24,12.24,0,0,1-9.8-12v-62.09A12.24,12.24,0,0,1,2170.17,1616.15Z" transform="translate(-739.11 -360)"/><path class="cls-24" d="M2267.18,1526.73c-17.74-3.23-31.16-11.11-30-17.61s16.52-9.14,34.26-5.91,31.17,11.11,30,17.61S2284.92,1530,2267.18,1526.73Z" transform="translate(-739.11 -360)"/><ellipse class="cls-11" cx="2193.77" cy="1489.66" rx="36.91" ry="47.57" transform="translate(-1008.39 147.27) rotate(-12.43)"/><path d="M2208.68,1496.9s-3.44-19.28-16.09-6.7,5.22,32.28,5.22,32.28-13.94-8.11-17.87-19.69c-3.63-10.73,8.21-32.45,19.58-24.51S2208.68,1496.9,2208.68,1496.9Z" transform="translate(-739.11 -360)"/><path class="cls-25" d="M2020.34,2230.14s-245.23,199.21-67.56,284.29,670.62,48.19,780.73-48.47S2693.47,2035.92,2020.34,2230.14Z" transform="translate(-739.11 -360)"/><path class="cls-8" d="M2270.34,1681.86a333,333,0,0,0-233.19,9.15c-69.31,29-143,73.19-156.94,132.78-27.53,117.61-102.6,345.32-37.53,385.36s149.73,67,149.73,67h429.11l259.53-197s-223.32-332.17-307.77-362.19C2341.34,1705.56,2304.19,1693,2270.34,1681.86Z" transform="translate(-739.11 -360)"/><g class="cls-26"><rect class="cls-27" x="1947.86" y="1869.19" width="80.69" height="80.69" transform="translate(-1402.11 794.27) rotate(-27.94)"/><rect class="cls-27" x="1943.92" y="1775.53" width="88.57" height="88.57" transform="translate(-1399.77 1958.02) rotate(-53.12)"/><rect class="cls-27" x="2314.18" y="1766.75" width="80.69" height="80.69" transform="translate(-1311.4 953.98) rotate(-27.94)"/><rect class="cls-27" x="2310.24" y="1673.09" width="88.57" height="88.57" transform="translate(-1171.36 2210.08) rotate(-53.12)"/><rect class="cls-27" x="2040.07" y="1613.8" width="80.69" height="80.69" transform="translate(-1271.69 807.7) rotate(-27.94)"/><rect class="cls-27" x="2036.13" y="1520.14" width="88.57" height="88.57" transform="translate(-1158.61 1929.66) rotate(-53.12)"/><rect class="cls-27" x="1745.81" y="2126.7" width="80.69" height="80.69" transform="translate(-1546.33 729.61) rotate(-27.94)"/><rect class="cls-27" x="1741.87" y="2033.04" width="88.57" height="88.57" transform="translate(-1686.54 1899.37) rotate(-53.12)"/><rect class="cls-27" x="2044.85" y="2216.62" width="80.69" height="80.69" transform="translate(-1553.6 880.22) rotate(-27.94)"/><rect class="cls-27" x="2040.91" y="2122.96" width="88.57" height="88.57" transform="translate(-1638.89 2174.52) rotate(-53.12)"/><rect class="cls-27" x="2251.17" y="2055.62" width="80.69" height="80.69" transform="translate(-1454.11 958.13) rotate(-27.94)"/><rect class="cls-27" x="2247.23" y="1961.96" width="88.57" height="88.57" transform="translate(-1427.61 2275.18) rotate(-53.12)"/><rect class="cls-27" x="2554.48" y="2056.85" width="80.69" height="80.69" transform="translate(-1419.32 1100.4) rotate(-27.94)"/><rect class="cls-27" x="2550.55" y="1963.19" width="88.57" height="88.57" transform="translate(-1307.32 2518.29) rotate(-53.12)"/></g><path d="M1966.24,1802.85s96.37,118.11,26.48,325.62C1992.72,2022.51,2028.17,2029,1966.24,1802.85Z" transform="translate(-739.11 -360)"/><path class="cls-11" d="M2148,2206.64s59.27,8.09,113.14-37.38c27.74-23.4,68.64-22.11,94.18,3.67,21.75,22,42.27,50.12,56.6,71.48a26.23,26.23,0,0,1-17.84,40.51c-31.51,4.89-75.77,4.92-110.95-15.72-34.14-20,6.25,43.79-156.94,14.39C1990.74,2259.19,2148,2206.64,2148,2206.64Z" transform="translate(-739.11 -360)"/><g class="cls-28"><path d="M2307.71,2243l48.32,67.56S2343.28,2254.21,2307.71,2243Z" transform="translate(-739.11 -360)"/></g><path class="cls-11" d="M2793.56,2004V1816.28s-117.61-110.1-137.63-27.52,0,123.33,0,123.33l45.05,16.8s17.51,105.09,65.06,92.58S2793.56,2004,2793.56,2004Z" transform="translate(-739.11 -360)"/><g class="cls-29"><path d="M2636.59,1871l66.73,19.32S2657.13,1864.67,2636.59,1871Z" transform="translate(-739.11 -360)"/><path d="M2636.59,1836.44l80.07,16.68S2657.44,1826.43,2636.59,1836.44Z" transform="translate(-739.11 -360)"/><path d="M2641.59,1793.9l75.07,17.52S2659.11,1783.89,2641.59,1793.9Z" transform="translate(-739.11 -360)"/></g><path class="cls-30" d="M2528.31,1726.2l-11.26,156.39,146.39,16.27,15.84-156.4S2607.55,1674.63,2528.31,1726.2Z" transform="translate(-739.11 -360)"/><path class="cls-31" d="M2662.8,1901.44c-1.32,10.63-35.47,15.15-76.29,10.09s-71.58-17.78-70.26-28.41,34.22-15.15,75-10.09S2664.12,1890.81,2662.8,1901.44Z" transform="translate(-739.11 -360)"/><path class="cls-11" d="M2553.34,2617l54.2,17.51,17.11,5.53s32.1-33.05,26.06-86.85l-10.35-7.51-59.66-43.26Z" transform="translate(-739.11 -360)"/><path class="cls-32" d="M1898,2083.5l199.48,35.77a37.78,37.78,0,0,1,25.64,17.58l23.06,38,8,4.55a27.8,27.8,0,0,1,8.65,40.65c-11.8,16-25.71,37.38-32,56.51a16,16,0,0,1-21,9.89c-9.73-3.86-13.84-3.56-15.58-2.61a99.86,99.86,0,0,1-17.34,6.88l-1.86.6a58.44,58.44,0,0,1-24.11,2.46c-50.48-5.44-233.83-32.77-233.7-143.05C1817.25,2108.08,1856.08,2076,1898,2083.5Z" transform="translate(-739.11 -360)"/><g class="cls-33"><path d="M1803.31,2170.42s-6.83-90.84,254.32-58.3-369.42-164.91-261.82,58.3" transform="translate(-739.11 -360)"/></g><path class="cls-34" d="M2766.29,2222s178.33-28.19,167.86,72S2662.84,2562,2662.84,2562l-127-92.1Z" transform="translate(-739.11 -360)"/><g class="cls-35"><line class="cls-36" x1="2110.17" y1="1828.24" x2="1783.37" y2="2163.75"/></g><path d="M2539.88,1948.3a61.72,61.72,0,0,0-56.06,35.84c-38.37,83.23-140.69,271.51-202.22,297.54-76.71,32.45-151.94,54.58-151.94,54.58v20.65H2674c32.25-.64,56.75-29.26,72.21-57.56l165-301.95a33.19,33.19,0,0,0-29.12-49.1Z" transform="translate(-739.11 -360)"/><ellipse class="cls-37" cx="2679.28" cy="2136.36" rx="79.66" ry="49.42" transform="translate(-1127.03 3304.39) rotate(-65.05)"/><path class="cls-34" d="M2168.25,2302.86l421.27,181.54s48.9,127.62-56.2,152.65-558.7-113.35-558.7-113.35S2000.86,2269,2168.25,2302.86Z" transform="translate(-739.11 -360)"/><g class="cls-38"><path class="cls-36" d="M1966.24,2481.69s554.5,164.89,670,121" transform="translate(-739.11 -360)"/></g><path class="cls-7" d="M2643.42,2549.14s0,72.53-28.77,86.29,306.53,90.09,350.32-55-168.91-75.07-168.91-75.07S2685.92,2533,2643.42,2549.14Z" transform="translate(-739.11 -360)"/><g class="cls-39"><path class="cls-3" d="M2602.4,2624.68s137.52,58.12,265.14,8.07,121.88,12.34,121.88,12.34-277.76,125.56-345.32,61.33S2602.4,2624.68,2602.4,2624.68Z" transform="translate(-739.11 -360)"/><path class="cls-3" d="M2863.47,2469.91s-93.58,115.3,19.52,171.74,147.3-139.2,147.3-139.2S2909.34,2459.45,2863.47,2469.91Z" transform="translate(-739.11 -360)"/><line class="cls-40" x1="1925.84" y1="2171.26" x2="1975.88" y2="2218.08"/><line class="cls-40" x1="1975.88" y1="2156.24" x2="1930.84" y2="2218.08"/><line class="cls-40" x1="1994.33" y1="2155.35" x2="2044.37" y2="2202.17"/><line class="cls-40" x1="2044.37" y1="2140.34" x2="1999.33" y2="2202.17"/></g><path class="cls-41" d="M1433.09,1785.4c-3.35-46.49,39.16-83.43,84.65-73.28,36.85,8.22,80.83,34.52,120.46,102.22,90.1,153.91,271.41,621.44,271.41,621.44s483.12-201,550.69,31.74S2250.09,2674,2250.09,2674l-292.47.6a240.73,240.73,0,0,1-210.55-123.19C1639.84,2359.83,1448,1991.7,1433.09,1785.4Z" transform="translate(-739.11 -360)"/></svg>