<svg id="Layer_1" data-name="Layer 1" xmlns="http://www.w3.org/2000/svg" viewBox="0 0 1750 1750"><defs><style>.cls-1{fill:#142135;}.cls-2{fill:#d5e6f6;}.cls-3{fill:#bbdcff;}.cls-4{fill:#84b9ff;}.cls-5{fill:#fff;}.cls-6{opacity:0.25;}.cls-7{fill:#3c2e2d;}.cls-8{fill:#cc5348;}.cls-9{fill:#aa332d;}.cls-10{fill:#bbcddb;}.cls-11{fill:#ffad95;}.cls-12{fill:#f2927c;}.cls-13{fill:#fd7259;}.cls-14{fill:#2c2221;}.cls-15{fill:#ff534f;}.cls-16{fill:#912623;}.cls-17{fill:#3b82fe;}.cls-18{fill:#83b9ff;}.cls-19{fill:#b7c04d;}.cls-20{fill:#90a429;}.cls-21{fill:#fa7942;}.cls-22{fill:#ea5521;}.cls-23{fill:#a83a17;}.cls-24{fill:#ce5520;}.cls-25{fill:#21324c;}.cls-26{fill:#314260;}.cls-27{fill:#82b8f6;}.cls-28{fill:#5fa0e0;}.cls-29{fill:#ce5449;}.cls-30{fill:#528bc0;}.cls-31{fill:#3477ad;}.cls-32{fill:#839b3b;}.cls-33{fill:#596b1f;}.cls-34{fill:#d05420;}</style></defs><g id="Online_Meeting_with_Client" data-name="Online Meeting with Client"><g id="Background"><path class="cls-1" d="M1716.571,1625.493H33.429a5.8,5.8,0,1,1,0-11.605H1716.571a5.8,5.8,0,1,1,0,11.605Z"/><path class="cls-2" d="M1635.2,895.9c-3.76,82.841-8.472,186.757-42.72,289.42q-1.742,5.223-3.6,10.457-8.373,23.711-19.045,47.177a518.908,518.908,0,0,1-41.687,74.543q-4.022,5.988-8.286,11.93-12.222,17.061-26.322,33.575-15.528,18.192-33.517,35.583-11.681,11.264-23.722,21.482-16.816,14.31-34.329,26.669a493.843,493.843,0,0,1-43.44,27.459q-5.205,2.925-10.456,5.71-3.133,1.671-6.291,3.285a541.435,541.435,0,0,1-63.5,27.528,656.443,656.443,0,0,1-70.667,20.983q-26.147,6.249-53.223,10.84c-.778.139-1.567.278-2.356.406q-21.726,3.673-44.02,6.441-17.252,2.158-34.817,3.876-11.351,1.114-22.817,2.078-20.053,1.653-40.5,2.9c-36.418,2.252-73.765,3.633-111.936,4.793l-10.457.314q-11.124.33-22.34.638-6.406.192-12.848.36c-32.484.905-68.589,1.9-106.794,2q-17.008.034-34.527-.174-8.757-.122-17.629-.337c-30.221-.7-61.266-2.182-92.45-4.9-43.974-3.83-88.261-10.1-130.993-20.066q-18.662-4.353-36.871-9.668-19.113-5.605-37.6-12.383-4.247-1.567-8.46-3.2-9.071-3.517-17.919-7.347c-33.923-14.669-65.5-32.925-93.506-55.579a322.287,322.287,0,0,1-44.02-43.01q-7.782-9.192-14.89-19.091c-1.033-1.439-2.426-3.4-4.074-5.826-17.211-25.208-63.866-101.584-56.345-188.986q.453-5.2,1.16-10.457a210.123,210.123,0,0,1,4.376-22.793,217.935,217.935,0,0,1,10.178-30.639c13.961-33.691,35.617-63.25,59.6-88.388a433.716,433.716,0,0,1,44.02-40.016,542.234,542.234,0,0,1,65.525-44.519c13.393-7.753,23.455-12.789,27.981-15.006.255-.128.487-.244.708-.348q8.721-4.23,17.211-7.927c16-7.021,31.428-12.847,46.527-18.6,12.29-4.677,24.371-9.319,36.406-14.507,7.811-3.365,15.61-6.975,23.421-10.978a301.163,301.163,0,0,0,70.805-50.218c1.114-1.056,2.217-2.1,3.3-3.157a324.769,324.769,0,0,0,26.983-29.211,250.321,250.321,0,0,0,26.31-39.238c1.892-3.482,3.644-6.952,5.3-10.422,0-.012.012-.012.012-.023a252.268,252.268,0,0,0,11.733-29.188c5.431-16.248,9.319-32.682,12.824-49.649,1.973-9.54,3.818-19.254,5.756-29.212,2.937-15.064,6.07-30.673,10.132-47.037A476.547,476.547,0,0,1,696.891,517C711.015,486.48,730.315,453.2,757.6,416.278c5.3-7.161,12.116-16.387,20.379-27.041,4.352-5.606,9.11-11.617,14.263-17.931,23.676-29.049,55.719-64.643,95.247-98.067q5.154-4.369,10.457-8.646a549.135,549.135,0,0,1,45.726-33.308c53.038-34.5,115.569-61.034,186.281-66.245q10.568-.783,21.366-.917c81.507-.94,149.4,27.169,196.762,54.291,1.288.731,2.553,1.474,3.806,2.205q3.395,1.984,6.65,3.958a597.186,597.186,0,0,1,49.765,34.062,492,492,0,0,1,108.791,112.667q6.215,8.879,12.012,17.931a573.428,573.428,0,0,1,38.3,70.295q1.236,2.681,2.437,5.373c45.367,101.329,61.046,209.04,65.642,294.423q.277,5.274.51,10.445C1638.441,824.725,1636.4,869.5,1635.2,895.9Z"/><path class="cls-3" d="M1569.84,464.905v778.051a516.267,516.267,0,0,1-49.973,86.473q-12.222,17.061-26.322,33.575-15.528,18.192-33.517,35.583-11.681,11.264-23.722,21.482-16.816,14.31-34.329,26.669c-38.821,27.494-80.125,48.233-123.692,63.982a656.443,656.443,0,0,1-70.667,20.983q-27.279,6.528-55.579,11.246V459.532H1567.4Q1568.639,462.213,1569.84,464.905Z"/><path class="cls-4" d="M1152.039,459.532V1542.949q-21.726,3.673-44.02,6.441V459.532Z"/><rect class="cls-5" x="1207.619" y="513.594" width="138.77" height="33.573"/><rect class="cls-5" x="1401.971" y="513.594" width="138.77" height="33.573"/><rect class="cls-5" x="1207.619" y="604.242" width="138.77" height="33.573"/><rect class="cls-5" x="1401.971" y="604.242" width="138.77" height="33.573"/><rect class="cls-5" x="1207.619" y="694.89" width="138.77" height="33.573"/><rect class="cls-5" x="1401.971" y="694.89" width="138.77" height="33.573"/><rect class="cls-5" x="1207.619" y="785.538" width="138.77" height="33.573"/><rect class="cls-5" x="1401.971" y="785.538" width="138.77" height="33.573"/><rect class="cls-5" x="1207.619" y="876.186" width="138.77" height="33.573"/><rect class="cls-5" x="1401.971" y="876.186" width="138.77" height="33.573"/><rect class="cls-5" x="1207.619" y="966.834" width="138.77" height="33.573"/><rect class="cls-5" x="1401.971" y="966.834" width="138.77" height="33.573"/><rect class="cls-5" x="1207.619" y="1057.482" width="138.77" height="33.573"/><rect class="cls-5" x="1401.971" y="1057.482" width="138.77" height="33.573"/><rect class="cls-5" x="1207.619" y="1148.13" width="138.77" height="33.573"/><rect class="cls-5" x="1401.971" y="1148.13" width="138.77" height="33.573"/><rect class="cls-5" x="1207.619" y="1238.778" width="138.77" height="33.573"/><rect class="cls-5" x="1401.971" y="1238.778" width="138.77" height="33.573"/><rect class="cls-5" x="1207.619" y="1329.426" width="138.77" height="33.573"/><path class="cls-5" d="M1519.867,1329.429q-12.222,17.061-26.322,33.575h-91.568v-33.575Z"/><rect class="cls-5" x="1207.619" y="1420.074" width="138.77" height="33.573"/><path class="cls-5" d="M1436.306,1420.069q-16.816,14.31-34.329,26.669v-26.669Z"/><path class="cls-5" d="M1278.285,1510.72a656.443,656.443,0,0,1-70.667,20.983V1510.72Z"/><path class="cls-3" d="M693.351,604.242v961.593c-72.825-1.683-150.409-7.926-223.443-24.963a627.661,627.661,0,0,1-74.473-22.051c-43.962-16.2-84.744-37.695-119.885-66.129V1003.486a531.937,531.937,0,0,1,94.214-59.873c22.283-10.817,43.3-18.743,63.738-26.531,12.29-4.677,24.371-9.319,36.406-14.507,30.906-13.334,61.464-30.337,94.226-61.2,1.114-1.056,2.217-2.1,3.3-3.157a324.769,324.769,0,0,0,26.983-29.211,246.962,246.962,0,0,0,31.614-49.66,252.582,252.582,0,0,0,11.745-29.211c5.431-16.248,9.319-32.682,12.824-49.649,1.973-9.54,3.818-19.254,5.756-29.212,2.937-15.064,6.07-30.673,10.132-47.037Z"/><path class="cls-4" d="M275.55,1003.486v449.206a322.287,322.287,0,0,1-44.02-43.01V1043.5A433.716,433.716,0,0,1,275.55,1003.486Z"/><path class="cls-5" d="M664.256,651.279v29.212H650.6c1.973-9.54,3.818-19.254,5.756-29.212Z"/><path class="cls-5" d="M664.256,730.14v29.211H626.027a252.582,252.582,0,0,0,11.745-29.211Z"/><path class="cls-5" d="M664.256,809.011v29.211H567.43a324.769,324.769,0,0,0,26.983-29.211Z"/><path class="cls-5" d="M469.908,902.575v14.507H433.5C445.792,912.405,457.873,907.763,469.908,902.575Z"/><rect class="cls-5" x="525.488" y="887.878" width="138.77" height="29.21"/><rect class="cls-5" x="331.135" y="966.745" width="138.77" height="29.21"/><rect class="cls-5" x="525.488" y="966.745" width="138.77" height="29.21"/><rect class="cls-5" x="331.135" y="1045.613" width="138.77" height="29.21"/><rect class="cls-5" x="525.488" y="1045.613" width="138.77" height="29.21"/><rect class="cls-5" x="331.135" y="1124.48" width="138.77" height="29.21"/><rect class="cls-5" x="525.488" y="1124.48" width="138.77" height="29.21"/><rect class="cls-5" x="331.135" y="1203.348" width="138.77" height="29.21"/><rect class="cls-5" x="525.488" y="1203.348" width="138.77" height="29.21"/><rect class="cls-5" x="331.135" y="1282.215" width="138.77" height="29.21"/><rect class="cls-5" x="525.488" y="1282.215" width="138.77" height="29.21"/><rect class="cls-5" x="331.135" y="1361.083" width="138.77" height="29.21"/><rect class="cls-5" x="525.488" y="1361.083" width="138.77" height="29.21"/><rect class="cls-5" x="331.135" y="1439.95" width="138.77" height="29.21"/><rect class="cls-5" x="525.488" y="1439.95" width="138.77" height="29.21"/><path class="cls-5" d="M469.908,1518.821v22.051a627.661,627.661,0,0,1-74.473-22.051Z"/><rect class="cls-5" x="525.488" y="1518.818" width="138.77" height="29.21"/><path class="cls-3" d="M1073.2,1000.411v552.855q-11.351,1.114-22.817,2.078-20.053,1.653-40.5,2.9c-50.821,3.134-103.417,4.6-157.581,6.105-32.484.905-68.589,1.9-106.794,2V1000.411Z"/><path class="cls-4" d="M745.507,1000.411v565.935q-17.008.034-34.527-.174V1000.411Z"/><rect class="cls-5" x="789.102" y="1028.207" width="108.841" height="17.265"/><rect class="cls-5" x="941.539" y="1028.207" width="108.841" height="17.265"/><rect class="cls-5" x="789.102" y="1074.823" width="108.841" height="17.265"/><rect class="cls-5" x="941.539" y="1074.823" width="108.841" height="17.265"/><rect class="cls-5" x="789.102" y="1121.439" width="108.841" height="17.265"/><rect class="cls-5" x="941.539" y="1121.439" width="108.841" height="17.265"/><rect class="cls-5" x="789.102" y="1168.055" width="108.841" height="17.265"/><rect class="cls-5" x="941.539" y="1168.055" width="108.841" height="17.265"/><rect class="cls-5" x="789.102" y="1214.671" width="108.841" height="17.265"/><rect class="cls-5" x="941.539" y="1214.671" width="108.841" height="17.265"/><rect class="cls-5" x="789.102" y="1261.287" width="108.841" height="17.265"/><rect class="cls-5" x="941.539" y="1261.287" width="108.841" height="17.265"/><rect class="cls-5" x="789.102" y="1307.903" width="108.841" height="17.265"/><rect class="cls-5" x="941.539" y="1307.903" width="108.841" height="17.265"/><rect class="cls-5" x="789.102" y="1354.519" width="108.841" height="17.265"/><rect class="cls-5" x="941.539" y="1354.519" width="108.841" height="17.265"/><rect class="cls-5" x="789.102" y="1401.135" width="108.841" height="17.265"/><rect class="cls-5" x="941.539" y="1401.135" width="108.841" height="17.265"/><rect class="cls-5" x="789.102" y="1447.751" width="108.841" height="17.265"/><rect class="cls-5" x="941.539" y="1447.751" width="108.841" height="17.265"/><rect class="cls-5" x="789.102" y="1494.367" width="108.841" height="17.265"/><rect class="cls-5" x="941.539" y="1494.367" width="108.841" height="17.265"/><rect class="cls-5" x="789.102" y="1540.983" width="108.841" height="17.265"/><path class="cls-5" d="M1050.385,1540.988v14.356q-20.053,1.653-40.5,2.9H941.537v-17.257Z"/><g class="cls-6"><path class="cls-5" d="M865.149,1563.99q-6.406.192-12.848.36c-32.484.905-68.589,1.9-106.794,2q-17.008.034-34.527-.174-8.757-.122-17.629-.337c-30.221-.7-61.266-2.182-92.45-4.9L493.329,891.6a301.163,301.163,0,0,0,70.805-50.218c1.114-1.056,2.217-2.1,3.3-3.157a324.769,324.769,0,0,0,26.983-29.211,250.321,250.321,0,0,0,26.31-39.238c1.892-3.482,3.644-6.952,5.3-10.422,0-.012.012-.012.012-.023a252.268,252.268,0,0,0,11.733-29.188c5.431-16.248,9.319-32.682,12.824-49.649,1.973-9.54,3.818-19.254,5.756-29.212,2.937-15.064,6.07-30.673,10.132-47.037A476.547,476.547,0,0,1,696.891,517Z"/></g><g class="cls-6"><path class="cls-5" d="M1341.79,1483.192a541.435,541.435,0,0,1-63.5,27.528,656.443,656.443,0,0,1-70.667,20.983q-26.147,6.249-53.223,10.84L943.672,231.285c53.038-34.5,115.569-61.034,186.281-66.245Z"/></g><g class="cls-6"><path class="cls-5" d="M433.037,1531.2q-19.113-5.605-37.6-12.383-4.247-1.567-8.46-3.2-9.071-3.517-17.919-7.347c-33.923-14.669-65.5-32.925-93.506-55.579a322.287,322.287,0,0,1-44.02-43.01q-7.782-9.192-14.89-19.091c-1.033-1.439-2.426-3.4-4.074-5.826L171.935,1131.89c13.961-33.691,35.617-63.25,59.6-88.388a433.716,433.716,0,0,1,44.02-40.016,542.234,542.234,0,0,1,65.525-44.519Z"/></g><g class="cls-6"><path class="cls-5" d="M1635.2,895.9c-3.76,82.841-8.472,186.757-42.72,289.42q-1.742,5.223-3.6,10.457-8.373,23.711-19.045,47.177a518.908,518.908,0,0,1-41.687,74.543L1351.887,220.619q3.395,1.984,6.65,3.958a597.186,597.186,0,0,1,49.765,34.062,492,492,0,0,1,108.791,112.667q6.215,8.879,12.012,17.931a573.428,573.428,0,0,1,38.3,70.295q1.236,2.681,2.437,5.373c45.367,101.329,61.046,209.04,65.642,294.423q.277,5.274.51,10.445C1638.441,824.725,1636.4,869.5,1635.2,895.9Z"/></g><path class="cls-5" d="M1358.537,769.773h277.455q-.226-5.171-.51-10.445H1358.537V389.237h170.568q-5.8-9.053-12.012-17.931H1358.537V224.577q-5.047-3.065-10.456-6.163V371.306H897.946V264.593q-5.31,4.264-10.457,8.646v98.067H792.242c-5.153,6.314-9.911,12.325-14.263,17.931h109.51V759.328H626.039c0,.011-.012.011-.012.023-1.66,3.47-3.412,6.94-5.3,10.422H887.489v415.549H386.975V935.686q-8.5,3.708-17.211,7.927c-.221.1-.453.22-.708.348v241.361H157.381q-.713,5.258-1.16,10.457H369.056v312.492q8.861,3.848,17.919,7.347V1195.779H887.489v367.573l10.457-.314V1195.779h450.135v284.128q5.258-2.785,10.456-5.71V1195.779h230.348q1.863-5.223,3.6-10.457H1358.537Zm-10.456,415.549H897.946V769.773h450.135Zm0-425.994H897.946V389.237h450.135Z"/><path class="cls-2" d="M507.886,312.586c59.893,12.528,124.168,62.673,125.248,113.97,1.46,69.307-113.753,78.179-223.209,197.705C282.392,763.527,295.519,907.948,233.808,910.442c-50.759,2.051-109.339-93.653-119.332-181.894C90.456,516.453,339.188,277.3,507.886,312.586Z"/></g><g id="Gear"><path class="cls-4" d="M1431.1,492.013a13.59,13.59,0,0,1-2.105,13.045l-24.513,29.926,27.2,31.058,32.895-20.358a13.59,13.59,0,0,1,13.208-.369l.141.068a13.577,13.577,0,0,1,7.809,10.751l3.827,38.494,41.2,2.725,8.865-37.655a13.572,13.572,0,0,1,9.157-9.628c.049-.016.1-.034.147-.049a13.592,13.592,0,0,1,13.045,2.105L1591.9,576.64l31.057-27.2L1602.6,516.541a13.59,13.59,0,0,1-.369-13.208c.022-.047.045-.094.068-.14a13.573,13.573,0,0,1,10.75-7.809l38.5-3.828,2.725-41.2-37.654-8.864a13.577,13.577,0,0,1-9.63-9.157l-.048-.148a13.592,13.592,0,0,1,2.105-13.045l24.513-29.927-27.2-31.057-32.895,20.358a13.592,13.592,0,0,1-13.208.369l-.141-.068a13.575,13.575,0,0,1-7.808-10.751l-3.827-38.494-41.2-2.726-8.865,37.655a13.571,13.571,0,0,1-9.156,9.628l-.149.05a13.6,13.6,0,0,1-13.045-2.106l-29.926-24.513-31.057,27.2,20.357,32.895a13.591,13.591,0,0,1,.369,13.209l-.068.141a13.576,13.576,0,0,1-10.75,7.808l-38.5,3.827-2.724,41.2,37.654,8.864a13.577,13.577,0,0,1,9.629,9.157C1431.065,491.914,1431.083,491.963,1431.1,492.013Zm67.517-53.2a30.965,30.965,0,1,1-2.891,43.695A30.963,30.963,0,0,1,1498.615,438.809Z"/><path class="cls-7" d="M1310.554,485a8.364,8.364,0,0,1-1.3,8.028l-15.085,18.416,16.74,19.112,20.243-12.528a8.365,8.365,0,0,1,8.128-.227l.087.042a8.357,8.357,0,0,1,4.806,6.616l2.354,23.689,25.352,1.677,5.455-23.172a8.354,8.354,0,0,1,5.636-5.925l.09-.031a8.367,8.367,0,0,1,8.028,1.3l18.416,15.085,19.112-16.74L1416.094,500.1a8.364,8.364,0,0,1-.228-8.129l.043-.086a8.351,8.351,0,0,1,6.615-4.805l23.689-2.356,1.677-25.351-23.172-5.455a8.358,8.358,0,0,1-5.926-5.635c-.009-.031-.019-.061-.03-.092a8.365,8.365,0,0,1,1.3-8.027l15.085-18.417-16.74-19.112-20.243,12.528a8.364,8.364,0,0,1-8.129.227l-.086-.042a8.352,8.352,0,0,1-4.8-6.615l-2.355-23.689-25.352-1.677-5.455,23.172a8.354,8.354,0,0,1-5.635,5.925l-.091.03a8.364,8.364,0,0,1-8.028-1.3l-18.416-15.085L1300.7,412.853l12.528,20.243a8.362,8.362,0,0,1,.227,8.128l-.042.087a8.353,8.353,0,0,1-6.615,4.805l-23.689,2.355-1.677,25.352,23.172,5.455a8.351,8.351,0,0,1,5.925,5.635C1310.534,484.943,1310.545,484.974,1310.554,485Zm41.549-32.741a19.055,19.055,0,1,1-1.779,26.89A19.056,19.056,0,0,1,1352.1,452.263Z"/></g><g id="Human_2" data-name="Human 2"><rect class="cls-5" x="263.944" y="534.879" width="454.158" height="357.821" rx="35.323"/><path class="cls-7" d="M682.779,534.879A35.323,35.323,0,0,1,718.1,570.2V857.377A35.324,35.324,0,0,1,682.779,892.7H299.267a35.324,35.324,0,0,1-35.323-35.324V570.2a35.323,35.323,0,0,1,35.323-35.323H682.779m0-5.709H299.267A41.079,41.079,0,0,0,258.235,570.2V857.377a41.079,41.079,0,0,0,41.032,41.032H682.779a41.079,41.079,0,0,0,41.032-41.032V570.2a41.079,41.079,0,0,0-41.032-41.032Z"/><path class="cls-8" d="M722.638,844.535l-30.977,23.571-32.326,24.6H299.621s12.3-83.77,25.347-138.6a77.082,77.082,0,0,1,55.925-56.888c47.612-12.138,132.288-26.9,229.424-12.9a53.27,53.27,0,0,1,37.964,25.247C668.747,743.475,708,809.933,722.638,844.535Z"/><path class="cls-9" d="M449.257,892.7H388.922l3.71-116.068S408.767,844.278,449.257,892.7Z"/><path class="cls-9" d="M691.661,868.106l-32.326,24.6H638.226c-13.665-23.378-18.311-96.7-19.674-127.257,0,0,22.8,157.421,71.125,28.458Z"/><path class="cls-5" d="M550.182,892.7H497.539c-7.678-102.866,4.724-167.369,4.724-167.369-10.234-13.481-12.014-17.237-11.36-17.827,1.066-.96,6.924,7.994,15.976,8.668,12.9.961,22.2-15.656,26.114-13.115,0,0,1.394.906-.873,17.607h0C525.191,745.066,540.619,839.711,550.182,892.7Z"/><path class="cls-10" d="M502.264,725.332s-3.609,123.329,11.817,146.725l-19.05-23.1S494.518,739.627,502.264,725.332Z"/><path class="cls-11" d="M595.917,892.661h-72.8l-14.872,7.628L344.214,984.48a36.1,36.1,0,0,1-4.724,2.013c-23.121,7.949-47.9-10.626-45.456-36.073l5.559-57.759h76.362l7.272-2.669,102.2-37.507,20.267-7.443a35.978,35.978,0,0,1,31.626,3.375l60.35,38.207A3.272,3.272,0,0,1,595.917,892.661Z"/><path class="cls-12" d="M353.463,896.214c-3.105-2.44-53.87-3.553-53.87-3.553h76.362l7.272-2.669h.014l-41.917,18.254C341.745,907.982,356.517,898.627,353.463,896.214Z"/><path class="cls-11" d="M651.992,892.7l81.656-214.069,50.462,11.762L749.178,876.95a39.471,39.471,0,0,1-50.635,30.388Z"/><path class="cls-11" d="M829.991,609.576,806.222,622.12s11.355,4.512,4.077,14.562c0,0,12.523,6.843,3.058,16.016,0,0,9.33,4.92,3.554,11.755A11.765,11.765,0,0,1,807.7,668.5l-4.532-.075-20.107,24.809-.428.53-48.048-11.2s-12.232-19.6-6.333-40.56c2.922-10.4,4.79-17.654,5.925-22.336a32.75,32.75,0,0,1,6.1-12.517c5.205-6.577,13.529-17.449,17.593-24.5a2.092,2.092,0,0,1,3.832.482,25.143,25.143,0,0,1-1.787,18.313,25.032,25.032,0,0,0-2.569,16.322,4.9,4.9,0,0,0,6.3,3.758L826.553,601.4C831.738,599.737,834.8,607.035,829.991,609.576Z"/><path class="cls-12" d="M829.991,609.576,806.222,622.12s11.355,4.512,4.077,14.562c0,0,12.523,6.843,3.058,16.016,0,0,9.33,4.92,3.554,11.755A11.765,11.765,0,0,1,807.7,668.5l-4.532-.075-20.107,24.809c-19.427-20.12-22.07-56.9-22.315-71.689a4.863,4.863,0,0,0,2.9-.02L826.553,601.4C831.738,599.737,834.8,607.035,829.991,609.576Z"/><rect class="cls-7" x="783.063" y="570.035" width="9.674" height="133.648" transform="translate(-177.682 330.221) rotate(-21.33)"/><polygon class="cls-7" points="807.701 700.865 816.911 710.808 816.911 697.346 807.701 700.865"/><path class="cls-11" d="M816.911,664.453A11.765,11.765,0,0,1,807.7,668.5l-4.532-.075-26.253-.31a4.533,4.533,0,0,1-3.6-1.723c-2.427-3.237.91-8.017.91-8.017-7.971.115-3.826-8.841-3.826-8.841-7.339-1.536-5.563-6.347-4.134-8.755a4.766,4.766,0,0,1,2.17-1.935l37.788-16.721s11.355,4.512,4.077,14.562c0,0,12.523,6.843,3.058,16.016C813.357,652.7,822.687,657.618,816.911,664.453Z"/><path class="cls-13" d="M770.4,649.531c3.2-1.472,6.453-2.753,9.732-3.966s6.587-2.338,9.906-3.428c3.331-1.054,6.669-2.083,10.044-3s6.764-1.788,10.219-2.455c-3.195,1.475-6.452,2.756-9.731,3.969s-6.588,2.337-9.907,3.425c-3.332,1.052-6.67,2.081-10.045,3S773.852,648.862,770.4,649.531Z"/><path class="cls-13" d="M774.224,658.372c3.2-.89,6.43-1.582,9.669-2.2s6.493-1.149,9.751-1.642c3.264-.455,6.531-.885,9.815-1.2s6.576-.578,9.9-.631c-3.2.893-6.43,1.585-9.669,2.206s-6.493,1.149-9.752,1.639c-3.264.453-6.531.883-9.815,1.2S777.545,658.316,774.224,658.372Z"/><path class="cls-13" d="M376.168,892.7c-3.6,2.093-7.294,3.994-11.014,5.827s-7.482,3.577-11.258,5.285c-3.792,1.673-7.6,3.32-11.449,4.854s-7.728,3.023-11.694,4.306c3.6-2.1,7.292-4,11.013-5.831s7.481-3.576,11.258-5.282c3.794-1.67,7.6-3.318,11.451-4.851S372.2,893.985,376.168,892.7Z"/><path class="cls-11" d="M563.04,610.078c-8.121,37.826-3.316,43.01-29.112,53.479l.3,31.627a23.13,23.13,0,0,1-3.309,12.33,18.089,18.089,0,0,1-6.969,6.717c-19.441,10.319-55.605-18.773-56.767-19.71v0a32.787,32.787,0,0,1-1.956-7.928l-2.786-45.826-.066-1.06-.74-12.138s-17.9-4.836-24.011-22.33,9.6-23.834,15-20.6,20.7-121.566,98.164-48.778C550.779,535.856,571.168,572.259,563.04,610.078Z"/><path class="cls-7" d="M576.653,519.91c-.707,6.253-2.056,18.2-11.156,25.469a28.146,28.146,0,0,1-8.531,4.426c-12.388,4.57-23.636,2.907-27.807,2.449-7.516-.825-18-.576-31.918,3.686-3.417,1.048-7.044,2.337-10.888,3.915-.006-.006-.006-.006-.013-.006v.026c-.006.006-.006.006-.006.019-6.535,25.3-25.823,47.37-25.823,47.37a47.874,47.874,0,0,0-7.889-22.621l-.007-.006c-5.356-3.209-20.86,3.005-15.137,20.191a115.946,115.946,0,0,1-7.811-14.679c-3.248-7.326-20.395-38.02-11.209-50.662a19.92,19.92,0,0,1,8.983-7.157,22.719,22.719,0,0,1,5.146-.9,42.255,42.255,0,0,1,6.639.059c1.021-1.938,2.226-4.118,3.647-6.482.046-.072.085-.144.124-.21a134.339,134.339,0,0,1,16.015-21.507c20.99-22.981,46.577-34.793,64.942-37.641a52.2,52.2,0,0,1,9.762-.661c5.277.19,17.049.609,26.517,8.839.9.786,1.525,1.414,1.951,1.846C570.473,484.1,578.807,500.759,576.653,519.91Z"/><path class="cls-12" d="M530.381,664.29c-10.187,1.692-40.558,3.82-67.946-23.525l-.805-13.2S501.793,668.159,530.381,664.29Z"/><path class="cls-13" d="M458.928,619.294a1.093,1.093,0,0,1-.677.013c-9.2-2.808-16.825-14.061-17.91-22.4-.5-3.877.511-6.812,2.857-8.266a3.984,3.984,0,0,1,4.074-.336c5.144,2.579,6.6,17.65,6.744,19.36a1.091,1.091,0,0,1-2.173.189c-.522-5.991-2.489-16.066-5.549-17.6a1.839,1.839,0,0,0-1.947.24c-2.02,1.252-2.117,4.025-1.843,6.131,1,7.669,8.215,18.107,16.383,20.6a1.091,1.091,0,0,1,.041,2.074Z"/><path class="cls-12" d="M558.064,603.677a2.1,2.1,0,0,1-.326-.007,186.929,186.929,0,0,0-27.83-.582l-.57.031a208.455,208.455,0,0,0-30.3,3.974,2.369,2.369,0,0,1-2.829-1.657,2.214,2.214,0,0,1,1.843-2.605,212.873,212.873,0,0,1,31.639-3.937,191.143,191.143,0,0,1,28.47.743,2.025,2.025,0,0,1-.094,4.04Z"/><path class="cls-14" d="M545.369,586.688c.177,3.164,2.1,5.656,4.282,5.568s3.779-2.7,3.6-5.831-2.069-5.627-4.242-5.57S545.192,583.524,545.369,586.688Z"/><path class="cls-14" d="M534.066,567.207a8.221,8.221,0,0,1,1.077-.831c.331-.227.659-.4.99-.6l1-.5c.335-.159.677-.283,1.015-.425.673-.289,1.368-.463,2.051-.69.692-.157,1.38-.346,2.073-.467.694-.1,1.384-.234,2.076-.3l2.066-.158a39.967,39.967,0,0,1,4.074.1c1.346.056,2.658.29,3.973.466,1.3.214,2.579.514,3.857.779,1.251.347,2.5.671,3.737,1.037l3.628,1.223a1.839,1.839,0,0,1,1.2,2.238,1.7,1.7,0,0,1-2.137,1.122l-.1-.03-3.481-1.025c-1.173-.3-2.355-.553-3.535-.834-1.191-.195-2.384-.429-3.58-.577-1.2-.108-2.4-.28-3.595-.277a35.438,35.438,0,0,0-3.574.052l-1.751.206c-.581.079-1.141.218-1.714.32-.565.121-1.1.3-1.658.444-.518.205-1.073.359-1.561.6a13.258,13.258,0,0,0-1.438.731c-.206.142-.439.275-.625.418l-.277.21-.107.094-.049.042.008-.006a2.552,2.552,0,0,1-3.5,0A2.307,2.307,0,0,1,534.066,567.207Z"/><path class="cls-14" d="M516.743,587.312c.185,3.3-1.616,6.064-4.034,6.162s-4.565-2.529-4.752-5.869,1.646-6.1,4.08-6.164S516.558,584.006,516.743,587.312Z"/><path class="cls-14" d="M517.073,570.885l.009.006-.056-.041-.124-.094-.315-.206c-.213-.141-.475-.27-.708-.41a15.639,15.639,0,0,0-1.611-.71c-.548-.236-1.16-.379-1.739-.578-.613-.133-1.215-.3-1.84-.416-.633-.091-1.259-.221-1.9-.288l-1.947-.172c-1.318-.018-2.643-.074-3.984.036-1.344.027-2.688.241-4.042.389-1.354.191-2.7.475-4.064.719-1.345.339-2.7.651-4.056,1.012l-4.042,1.239-.116.035a2.3,2.3,0,0,1-2.782-1.228,1.836,1.836,0,0,1,1.2-2.441l4.221-1.43c1.423-.425,2.866-.8,4.293-1.2,1.461-.309,2.906-.654,4.381-.9,1.483-.208,2.946-.477,4.461-.556,1.488-.16,3.01-.148,4.524-.161l2.284.136c.76.06,1.525.189,2.286.283.76.115,1.52.3,2.279.452.753.224,1.511.392,2.257.678.373.139.747.26,1.117.417l1.106.494c.368.2.73.369,1.1.594a9.677,9.677,0,0,1,1.21.821,2.331,2.331,0,0,1,.246,3.419A2.7,2.7,0,0,1,517.073,570.885Z"/><path class="cls-14" d="M540.943,632.644a12.744,12.744,0,0,1-2.837,5.767c-2.167,2.45-5.924,4.5-12.4,3.258a24.463,24.463,0,0,1-2.635-.652,17.573,17.573,0,0,1-5.062-2.427,13.371,13.371,0,0,1-2.573-2.391,12.069,12.069,0,0,1-2.811-7.85Z"/><path class="cls-15" d="M538.106,638.411c-2.167,2.45-5.924,4.5-12.4,3.258a24.463,24.463,0,0,1-2.635-.652,17.188,17.188,0,0,1-3.08-1.233,17.885,17.885,0,0,1-1.982-1.194,13.3,13.3,0,0,1-1.425-1.166,12.624,12.624,0,0,1-1.148-1.225C521.275,636.184,535.827,636.346,538.106,638.411Z"/><path class="cls-13" d="M530.083,618.974a1.084,1.084,0,0,1-1.072-.6,1.057,1.057,0,0,1,.565-1.407l6.884-3.052a2.842,2.842,0,0,0,1.529-1.6,2.62,2.62,0,0,0-.112-2.137c-3.593-7.079-8.881-21.239-8.934-21.382a1.026,1.026,0,0,1,.672-1.335,1.135,1.135,0,0,1,1.41.658c.053.141,5.276,14.162,8.8,21.124a4.611,4.611,0,0,1,.2,3.756,5,5,0,0,1-2.681,2.807l-6.869,3.066A1.137,1.137,0,0,1,530.083,618.974Z"/><path class="cls-14" d="M486.329,559.893a102.074,102.074,0,0,1-8.37,21.226c-.839,1.615-1.7,3.181-2.55,4.69a146.641,146.641,0,0,1-14.894,21.456A48.588,48.588,0,0,0,454.122,587c-.828-1.421-1.419-2.24-1.5-2.351a.022.022,0,0,1-.009-.016,6.633,6.633,0,0,0-3.462-.807l-.041,0c-.008,0-.008-.007-.017-.007-.089,0-.179,0-.269.014a.46.46,0,0,1-.106,0c-6.609.323-16.072,7.178-11.1,21.4,5.366,15.366,19.821,20.968,23.267,22.1l1.067,5.5c-18.883-2.555-27.948-23.835-32.286-42.682a36.392,36.392,0,0,0,4.952-3.492c8.813-7.238,15.447-6.467,20.118-3.359a18.559,18.559,0,0,1,3.83,3.454,25.114,25.114,0,0,1,1.581,2.052,5.588,5.588,0,0,0,9.057.193c.687-.919,1.4-1.914,2.11-2.957.987-1.443,1.985-2.993,2.981-4.583C480.27,571.885,485.951,560.641,486.329,559.893Z"/><path class="cls-12" d="M523.946,714.231c-19.441,10.319-55.605-18.773-56.767-19.71v0a32.787,32.787,0,0,1-1.956-7.928l-2.786-45.826-.066-1.06a7.823,7.823,0,0,1,6.195-.435S457.481,719.825,523.946,714.231Z"/><path class="cls-14" d="M576.653,519.91c-.707,6.253-2.056,18.2-11.156,25.469a28.146,28.146,0,0,1-8.531,4.426c-12.388,4.57-23.636,2.907-27.807,2.449-7.516-.825-18-.576-31.918,3.686,5.317-4.145,15.164-8.459,33.143-8.459,34.609,0,33.011-30.3,33.011-30.3-1.689-47.14-39.447-51.527-39.447-51.527l.006-.007a52.2,52.2,0,0,1,9.762-.661c5.277.19,17.049.609,26.517,8.839.9.786,1.525,1.414,1.951,1.846C570.473,484.1,578.807,500.759,576.653,519.91Z"/><path class="cls-14" d="M444.156,549.694c-3.352-14-11.569-18.267-11.569-18.267a42.255,42.255,0,0,1,6.639.059c1.021-1.938,2.226-4.118,3.647-6.482C440.1,529.43,443.973,548.8,444.156,549.694Z"/><polygon class="cls-9" points="463.92 665.173 430.821 686.807 482.469 757.014 502.264 725.332 463.92 665.173"/><polygon class="cls-9" points="534.604 670.5 551.522 679.035 557.031 747.737 532.121 720.67 534.604 670.5"/><path class="cls-16" d="M388.185,887.944c-.22-10.52-.158-21.029,0-31.536.143-10.507.453-21.007.8-31.507l.63-15.746c.265-5.246.475-10.5.793-15.74.579-10.491,1.26-20.979,2.224-31.457.223,10.52.163,21.03,0,31.536-.053,5.254-.212,10.5-.318,15.756L391.832,825c-.4,10.5-.829,21-1.427,31.486C389.825,866.978,389.146,877.466,388.185,887.944Z"/><path class="cls-16" d="M638.226,892.7c-3.217-5.053-5.3-10.752-7.112-16.449-1.771-5.726-3.19-11.553-4.385-17.416-2.417-11.726-4.034-23.584-5.344-35.458q-.921-8.913-1.626-17.842c-.422-5.956-.839-11.911-1.1-17.875-.3-5.961-.483-11.927-.608-17.893-.109-5.966-.085-11.94-.009-17.9l2.84,35.652c.522,5.933.988,11.869,1.567,17.793.541,5.928,1.111,11.852,1.77,17.764q.912,8.877,2.085,17.719c.744,5.9,1.64,11.774,2.6,17.636,1,5.854,2.108,11.692,3.548,17.449A81.338,81.338,0,0,0,638.226,892.7Z"/><polygon class="cls-12" points="733.648 678.632 663.502 896.32 651.992 892.701 733.648 678.632"/><path class="cls-12" d="M551.985,892.661,530.351,884.7a12.987,12.987,0,0,0-13.615,2.949l-17.455,17.245,23.834-12.228Z"/></g><g id="Popup_2" data-name="Popup 2"><rect class="cls-17" x="86.445" y="418.506" width="256.603" height="235.909" rx="18.495"/><path class="cls-18" d="M326.683,654.415H102.809A16.364,16.364,0,0,1,86.445,638.05V469.723h256.6V638.05A16.365,16.365,0,0,1,326.683,654.415Z"/><rect class="cls-5" x="108.173" y="495.331" width="52.769" height="52.769"/><rect class="cls-5" x="108.173" y="574.485" width="52.769" height="52.769"/><rect class="cls-5" x="188.362" y="495.331" width="52.769" height="52.769"/><rect class="cls-5" x="188.362" y="574.485" width="52.769" height="52.769"/><rect class="cls-5" x="268.55" y="495.331" width="52.769" height="52.769"/><rect class="cls-5" x="268.55" y="574.485" width="52.769" height="52.769"/><rect class="cls-7" x="146.069" y="396.346" width="17.848" height="53.545" rx="8.924"/><rect class="cls-7" x="185.904" y="396.346" width="17.848" height="53.545" rx="8.924"/><rect class="cls-7" x="225.74" y="396.346" width="17.848" height="53.545" rx="8.924"/><rect class="cls-7" x="265.575" y="396.346" width="17.848" height="53.545" rx="8.924"/></g><g id="Popup_1" data-name="Popup 1"><path class="cls-7" d="M1195.229,278.209V589.941H905.288V278.209h289.941m10.143-10.144H895.144v332.02h310.228V268.065Z"/><rect class="cls-7" x="898.133" y="327.518" width="298.989" height="10.144"/><path class="cls-4" d="M1091.813,138.509V450.531a14.006,14.006,0,0,1-14,14H647.5a14.006,14.006,0,0,1-14-14V138.509a14.006,14.006,0,0,1,14-14H1077.81A14.006,14.006,0,0,1,1091.813,138.509Z"/><rect class="cls-5" x="653.008" y="193.957" width="147.126" height="114.803" rx="27.865"/><path class="cls-7" d="M670.438,254.223v-4.681a2.507,2.507,0,0,1,1.341-2.22L704.512,230.1a2.509,2.509,0,0,1,3.677,2.22v2.737a2.507,2.507,0,0,1-1.4,2.25L689.6,245.781l-11.745,5.866v.47l11.745,5.867,17.193,8.477a2.509,2.509,0,0,1,1.4,2.25v2.738a2.509,2.509,0,0,1-3.677,2.22l-32.733-17.226A2.509,2.509,0,0,1,670.438,254.223Z"/><path class="cls-7" d="M737.583,211.26h0a2.509,2.509,0,0,1,2.408,3.214l-22.023,75.179a2.508,2.508,0,0,1-2.407,1.8h0a2.508,2.508,0,0,1-2.407-3.214l22.025-75.18A2.508,2.508,0,0,1,737.583,211.26Z"/><path class="cls-7" d="M744.952,269.235a2.511,2.511,0,0,1,1.4-2.25l17.193-8.477,11.745-5.867v-.47l-11.745-5.866-17.193-8.478a2.508,2.508,0,0,1-1.4-2.25V232.84a2.509,2.509,0,0,1,3.677-2.22l32.734,17.226a2.508,2.508,0,0,1,1.34,2.22v4.681a2.51,2.51,0,0,1-1.34,2.22l-32.734,17.226a2.509,2.509,0,0,1-3.677-2.22Z"/><path class="cls-7" d="M1091.813,138.509V177.52H633.5V138.509a14.006,14.006,0,0,1,14-14H1077.81A14.006,14.006,0,0,1,1091.813,138.509Z"/><circle class="cls-5" cx="660.909" cy="150.507" r="7.901"/><circle class="cls-5" cx="688.433" cy="150.507" r="7.901"/><circle class="cls-5" cx="715.958" cy="150.507" r="7.901"/><rect class="cls-5" x="826.196" y="193.957" width="79.092" height="16.311"/><rect class="cls-8" x="921.758" y="193.957" width="49.022" height="16.311"/><rect class="cls-7" x="989.509" y="193.957" width="49.022" height="16.311"/><rect class="cls-7" x="826.196" y="278.209" width="79.092" height="16.311"/><rect class="cls-7" x="921.758" y="278.209" width="49.022" height="16.311"/><rect class="cls-8" x="989.509" y="278.209" width="49.022" height="16.311"/><rect class="cls-7" x="653.008" y="372.676" width="79.092" height="16.311"/><rect class="cls-8" x="748.57" y="372.676" width="49.022" height="16.311"/><rect class="cls-5" x="816.32" y="372.676" width="49.022" height="16.311"/><rect class="cls-7" x="653.008" y="414.069" width="417.206" height="10.548"/><rect class="cls-5" x="653.008" y="434.288" width="245.126" height="10.548"/><rect class="cls-5" x="653.008" y="320.061" width="417.206" height="10.548"/><rect class="cls-7" x="653.008" y="340.28" width="245.126" height="10.548"/><rect class="cls-7" x="826.196" y="228.219" width="245.126" height="10.548"/><rect class="cls-5" x="826.196" y="248.438" width="144.021" height="10.548"/></g><g id="Human_1" data-name="Human 1"><path class="cls-19" d="M1535.282,768.871l-98.664,532.716-355.906-44.76s8.425-260.437,62.2-421.2a91.334,91.334,0,0,1,85.321-62.193Z"/><path class="cls-20" d="M1535.282,768.871l-19.161.285a82.669,82.669,0,0,0-79.965,67.112l-70.416,367.75a82.668,82.668,0,0,0,70.878,97.569h0Z"/><polygon class="cls-14" points="795.685 1278.966 693.094 1619.093 726.493 1619.69 827.403 1276.051 795.685 1278.966"/><polygon class="cls-14" points="1069.248 1278.966 966.657 1619.093 1000.056 1619.69 1100.966 1276.051 1069.248 1278.966"/><polygon class="cls-7" points="1364.246 1301.587 1159.754 1309.112 876.083 1272.729 901.724 1242.989 1336.808 1290.653 1364.246 1301.587"/><path class="cls-20" d="M1436.618,1301.587s-151-365.6-625.71-68.547Z"/><path class="cls-14" d="M1442.212,1309.112l-390.534-42.783a6.871,6.871,0,1,1,1.5-13.661l377.848,41.394L1496.4,941.081a6.871,6.871,0,1,1,13.512,2.5Z"/><polygon class="cls-14" points="1442.212 1309.112 1502.89 1615.493 1472.551 1615.493 1413.731 1305.992 1442.212 1309.112"/><polygon class="cls-14" points="1172.771 1309.112 1233.449 1615.493 1203.11 1615.493 1144.29 1305.992 1172.771 1309.112"/><path class="cls-21" d="M1389.745,623.558c10.381,18.3,6.179,41.029,8.848,61.907,4.938,38.735,36.575,72.15,74.654,80.722a97.1,97.1,0,0,0,31.2,1.783c28.236-2.846,55.461-17.386,73.107-39.809-18.369,5.568-38.745,1.151-55.323-8.539s-29.809-24.187-41.337-39.532c-7.9-10.511-15.259-21.761-18.81-34.427-3.823-13.556-3.079-27.9-3.852-41.962-1.484-26.8-10.16-55.474-32.285-70.661-23.087-15.84-61.86-7.644-78.53,10.867-11.334,12.579-12.459,29.9,8.461,47.678C1367.781,601.709,1382.035,609.968,1389.745,623.558Z"/><path class="cls-22" d="M1389.745,623.558c10.381,18.3,6.179,41.029,8.848,61.907,4.938,38.735,36.575,72.15,74.654,80.722a97.1,97.1,0,0,0,31.2,1.783c-25.2-24.122-58.344-55.854-68.427-98.786-10.695-45.479-16.035-68.215-16.464-73.463a13.825,13.825,0,0,0-2.548-7.233c-8.855-12.019-37.2-3.5-37.2-3.5,1.886-24.357-25.733-45.565-25.733-45.565l-6.661,4.482c-11.334,12.579-12.459,29.9,8.461,47.678C1367.781,601.709,1382.035,609.968,1389.745,623.558Z"/><path class="cls-11" d="M772.046,1524.389c-25.954,14.645-66.924,52.127-82.568,77.423a45.173,45.173,0,0,1-5.688,7.317c-.524.572-1.077,1.125-1.648,1.677-.277.277-.572.553-.858.82-.61.209-1.248.457-1.925.743-30.65,13.158-33.633-15.254-33.633-15.254,6.727-12.853,12.691-29.4,18.046-46.105,10.242-32,18.2-64.589,24.8-72.888,13.31-16.73,13.767-42.065,13.767-42.065l47.935,8.375,9.832,20.723,18.332,38.6A15.888,15.888,0,0,1,772.046,1524.389Z"/><path class="cls-12" d="M683.79,1609.129c-.524.572-1.077,1.125-1.648,1.677H662.848l.124-58.126S671.413,1596.515,683.79,1609.129Z"/><path class="cls-12" d="M760.114,1465.159l18.323,38.592a15.9,15.9,0,0,1-6.391,20.643c-25.957,14.644-66.924,52.118-82.571,77.421.66-12.132,41.116-63.3,66.249-80.06s-1.368-41.744-1.368-41.744c-13.846,11.6-26.5-.7-26.5-.7C739.33,1480.362,751.912,1471.982,760.114,1465.159Z"/><path class="cls-23" d="M776.344,1619.69H581.485a4.427,4.427,0,0,1-4.363-3.614c-2.572-14.071-5.674-64.663,81.162-69.742a4.445,4.445,0,0,1,4.7,4.454,127.6,127.6,0,0,1-.215,55.565,4.538,4.538,0,0,0,1.295,3.151,4.429,4.429,0,0,0,3.145,1.306H776.344a4.44,4.44,0,0,1,0,8.88Z"/><path class="cls-11" d="M663.418,1531.538l-6.969,24.53-12.967,45.685a17.578,17.578,0,0,1-20.522,12.453c-32.518-7.006-94.4-6.116-126.1,3.375a53.616,53.616,0,0,1-14.076,2.109c-.66-.284-1.385-.55-2.155-.807-35.369-11.719-17.011-37.579-17.011-37.579,43.989-16.708,105.622-64.283,123.311-67.364,23.448-4.081,42.44-24.833,42.44-24.833Z"/><path class="cls-12" d="M656.451,1556.069l-12.971,45.683a17.584,17.584,0,0,1-20.519,12.457c-32.523-7.012-94.4-6.121-126.1,3.369,9.461-9.612,80.966-22.282,114.35-17.642,33.369,4.638,29.506-35.763,29.506-35.763-20.133-.582-21.705-20.187-21.705-20.187C627.857,1553.35,644.562,1555.681,656.451,1556.069Z"/><path class="cls-12" d="M528.415,1546.674s1.91,46.176,22.489,63.324l-22.808.224Z"/><path class="cls-24" d="M649.506,1619.69H441.21a4.431,4.431,0,0,1-4.363-3.608c-2.751-14.667-6.615-69.281,86.8-74.622a4.448,4.448,0,0,1,4.7,4.454,96.02,96.02,0,0,1-.231,59.851,4.538,4.538,0,0,0,1.295,3.151,4.423,4.423,0,0,0,3.145,1.306H649.506a4.44,4.44,0,0,1,4.44,4.44v.588Z"/><path class="cls-11" d="M602.921,1519.491l53.53,36.578,32.689-22.582-54.662-68.328L586.93,1513.94Z"/><path class="cls-12" d="M623.626,1476.292s3.539,61.991,32.823,79.776l32.691-22.581Z"/><path class="cls-25" d="M1140.56,994.693s-4.418,9.811-12.359,24.133a78.124,78.124,0,0,1-51.195,38.343l-241.422,54.22a68.152,68.152,0,0,0-45.889,36.266l-135.749,283.49-.324,4.914,454.747-234.75L1242.2,1099.056l-38.7-90.013Z"/><path class="cls-1" d="M702.622,1389.075l162.066-184.228a69.342,69.342,0,0,1,30.469-18.926l229.682-69.6-225.4,185.234Z"/><path class="cls-26" d="M1356.35,1049.2l-9.5,66.53a111.21,111.21,0,0,1-12.7,38.23,185.927,185.927,0,0,1-42.64,52.42c-30.73,25.93-60.14,32.61-129.92,51.08-30.66,8.11-78.56,20.99-139.14,38.23-1.37.39-2.74.78-4.12,1.17,0,0-4.65,3.53-12.87,9.75a.444.444,0,0,1-.11.08q-2.8,2.13-6.14,4.65c-.07.06-.11.09-.11.09-67.47,51.03-290.98,219.47-320.57,233.49l-63.81-79.76,39.88-35.39,245.17-217.52a64.894,64.894,0,0,1,18.56-11.37l206.51-84.56,50.87-100.15,6.13-12.07,1.37-2.7,4.34-8.54,52.33,17.47Z"/><path class="cls-25" d="M617.921,1469.161s6.67,6.87,15.746,15.64a88.288,88.288,0,0,0,96.677,17.339A406.3,406.3,0,0,0,768.63,1483.1l-90.1,61.825Z"/><path class="cls-25" d="M1356.35,1049.2l-9.5,66.53a111.21,111.21,0,0,1-12.7,38.23,185.927,185.927,0,0,1-42.64,52.42c-30.73,25.93-60.14,32.61-129.92,51.08-30.66,8.11-78.56,20.99-139.14,38.23,27.31-16.17,80.13-41.89,166.42-63.13,53.1-13.07,86.048-39.9,106.494-67.884,27.825-38.082,10.753-92.1-33.6-108.142-16.19-5.858-31.858-12.65-46.257-19.544-14.91-7.15-28.45-14.39-39.8-20.82-21.08-11.95-34.57-21.08-35.13-21.47a.031.031,0,0,0-.02-.01l42.65,6.71,56.67,8.93Z"/><path class="cls-14" d="M1148.924,1268.172l-11.815-7.018L1212.6,1134.08a86.292,86.292,0,0,1,82.783-41.639l172.469,17.445-4.681,13.66-169.2-17.436a72.512,72.512,0,0,0-69.559,34.989Z"/><path class="cls-27" d="M1465.916,745.884a47.277,47.277,0,0,0-33.09-37.006c-88.98-26.3-186.9-5.164-225.189,5.25a47.158,47.158,0,0,0-26.059,18.151l-72.354,101.632,68.753,36.444c-.391,2.773-.82,5.64-1.315,8.585l-.01.057q-1.215,7.361-2.925,15.378a327.909,327.909,0,0,1-39.7,100.318,437.215,437.215,0,0,1,75.336,18.379c12.11,4.135,22.133,8.174,31.118,11.976,4.71,1.992,9.133,3.918,13.422,5.761l-.007,0c2.565,1.1,5.08,2.167,7.58,3.2l.759.315,1.2.493q1.088.444,2.175.881l.418.167q1.24.495,2.483.976l.474.184q1.365.527,2.738,1.039l.143.053q1.392.516,2.8,1.017l.155.056q1.437.51,2.894,1c.077.026.155.051.232.078q2.913.978,5.931,1.883l.337.1q2.989.887,6.123,1.694l.4.1q1.534.39,3.11.761l.409.094q1.479.343,3,.669l.352.077q1.591.337,3.235.654l.681.129c1.114.211,2.24.418,3.392.615a205.363,205.363,0,0,0,62.474.924l25.725-185.591c4.935-4.936,12.071-8.48,20.18-11.024,28.154-8.832,68.019-5.507,68.019-5.507C1481.313,834.569,1471.9,779.632,1465.916,745.884Z"/><path class="cls-28" d="M1177.977,870.355l-68.753-36.444c32.9,16.588,57.033-12.834,59.349-15.787a29.318,29.318,0,0,0-5.269,24.515,61.771,61.771,0,0,0,2.372,7.708A62.817,62.817,0,0,0,1177.977,870.355Z"/><path class="cls-28" d="M1393.114,845.249V862.39l-25.725,185.591a205.363,205.363,0,0,1-62.474-.924c-25.906-4.43-41.9-12.481-64.436-22.009l-.01-.01c70.611,23.915,122.146-107.52,122.146-107.52-36.015,0-72.4-28.175-72.4-28.175C1363.844,901.29,1393.114,845.249,1393.114,845.249Z"/><path class="cls-26" d="M1353.332,537.85s9.91-18.475,14.76,5.041c0,0,17.553,4.309,10.216,19.322,0,0,10.737,11.932-.706,23.717,0,0,8.76,23.634-7.682,16.867C1369.92,602.8,1348.906,545.481,1353.332,537.85Z"/><path class="cls-22" d="M1237.439,607.908c.183-.252.371-.492.546-.727.471-3.592,1-6.046,1.525-5.366.386.495.807,1.047,1.259,1.643,14.578,18.889,68.651,87.944,98.542,64.3,23.276-18.384,33.367-44.723,29.965-76.676-1.7-15.935-6.749-33.244-15.2-51.656-.116-.263-.221-.5-.32-.688a2.629,2.629,0,0,0-.141-.3c-.059-.117-.118-.234-.165-.356a2.329,2.329,0,0,0-.118-.235c-.054-.105-.118-.234-.181-.364-.262-.5-14.035-18.929-43.81-22.949-2.491-.332-5.93-.805-10-1.063a131.628,131.628,0,0,0-29.029,7.749,167.341,167.341,0,0,0-22.733,10.639c-.029,0-.051-.023-.08-.025C1231.417,550.024,1226.924,579.547,1237.439,607.908Z"/><path class="cls-11" d="M1276.334,720.943a27.648,27.648,0,0,0,21.117,27.124,27.987,27.987,0,0,0,6.748.786c1.289-.032,2.567-.088,3.826-.235a36.469,36.469,0,0,0,32.214-39.191l-1.74-51.162,7.581-1.967.008-.017c13.074-8,15.877-22.515,16.86-34.806,1.1-13.666-11.429-13.3-12.113-13.261a.124.124,0,0,0-.042,0s-.032-.267-.088-.777a142.336,142.336,0,0,0-4.105-20.72c-6.409-23.193-21.935-56.165-58.031-50.8-25.258,3.718-44.81,24.088-48.69,49.335-.741,4.857-1.407,10.091-1.894,15.536-.138,1.465-.271,2.942-.358,4.43a176.357,176.357,0,0,0-.154,24.826c.23,3.45.612,6.856,1.111,10.2,3.5,23.007,13.878,43.31,38.037,49.607Z"/><path class="cls-12" d="M1333.5,687.368c.567,18.386-4.071,47.519-36.049,60.7a27.613,27.613,0,0,0,6.745.78c1.292-.016,2.568-.082,3.832-.224a36.469,36.469,0,0,0,32.21-39.2l-1.737-51.154a91.653,91.653,0,0,1-61.88,31.586,42.639,42.639,0,0,0,15.154,2.023c11.68-.593,21.781-5.783,28.917-10.894A8.123,8.123,0,0,1,1333.5,687.368Z"/><path class="cls-12" d="M1248.807,636.656a2.274,2.274,0,0,0,.332-.068,194.03,194.03,0,0,1,28.324-5.857l.588-.076a216.78,216.78,0,0,1,31.714-1.669,2.459,2.459,0,0,0,2.576-2.227,2.3,2.3,0,0,0-2.375-2.313A221.136,221.136,0,0,0,1276.9,626.4a198.668,198.668,0,0,0-28.948,6.142,2.1,2.1,0,0,0,.86,4.11Z"/><path class="cls-14" d="M1257.171,617.3c.417,3.266-1.075,6.176-3.322,6.5s-4.372-2.042-4.785-5.276,1.051-6.14,3.281-6.492S1256.753,614.038,1257.171,617.3Z"/><path class="cls-22" d="M1237.627,605.221c.072-.028.141-.068.214-.1,1.18-.424,2.359-.89,3.553-1.277,1.2-.334,2.4-.738,3.62-.953,1.21-.31,2.444-.447,3.66-.633l1.83-.114c.6-.035,1.2,0,1.807.007s1.182.093,1.783.128c.563.12,1.169.168,1.7.326a13.252,13.252,0,0,1,1.609.475c.235.105.509.2.72.311l.325.155.128.077.038.027a2.651,2.651,0,0,0,3.58-.657,2.4,2.4,0,0,0-.488-3.464,8.908,8.908,0,0,0-1.264-.634c-.375-.178-.74-.29-1.119-.439l-1.113-.315c-.377-.107-.747-.161-1.127-.239-.739-.178-1.481-.216-2.222-.324-.737-.025-1.476-.092-2.215-.088-.714.035-1.458.027-2.175.092l-2.135.23a42.175,42.175,0,0,0-4.141.873c-1.363.312-2.66.8-3.976,1.23-.765.265-1.5.562-2.239.872C1237.847,602.256,1237.714,603.733,1237.627,605.221Z"/><path class="cls-14" d="M1284.192,613.971c.436,3.413,2.8,5.891,5.286,5.534s4.187-3.447,3.746-6.895-2.835-5.922-5.334-5.527S1283.756,610.559,1284.192,613.971Z"/><path class="cls-22" d="M1279.765,600.083l-.009.009.05-.053.109-.119.283-.271c.191-.184.434-.365.646-.552a16.337,16.337,0,0,1,1.511-1.03c.516-.345,1.114-.607,1.669-.919.6-.252,1.183-.541,1.8-.774.629-.213,1.244-.463,1.888-.654l1.957-.543c1.344-.268,2.687-.576,4.077-.716,1.379-.227,2.793-.262,4.2-.367,1.42-.061,2.852-.026,4.288-.034,1.438.092,2.886.154,4.336.267l4.364.5.125.014a2.391,2.391,0,0,0,2.61-1.781,1.907,1.907,0,0,0-1.688-2.267l-4.583-.662c-1.534-.166-3.08-.279-4.614-.417-1.551-.04-3.093-.119-4.647-.1-1.555.067-3.1.069-4.663.275-1.551.118-3.1.418-4.653.69l-2.308.571c-.765.205-1.522.481-2.282.721-.755.262-1.5.6-2.243.893-.728.371-1.47.686-2.178,1.119-.355.213-.714.408-1.062.638l-1.037.714c-.339.271-.676.515-1.012.814a9.993,9.993,0,0,0-1.081,1.069,2.422,2.422,0,0,0,.395,3.539A2.8,2.8,0,0,0,1279.765,600.083Z"/><path class="cls-13" d="M1280.288,647a1.128,1.128,0,0,0,.982-.818,1.1,1.1,0,0,0-.844-1.33l-7.61-1.816a2.957,2.957,0,0,1-1.864-1.341,2.721,2.721,0,0,1-.29-2.205c2.334-7.912,5.059-23.38,5.086-23.536a1.064,1.064,0,0,0-.939-1.236,1.178,1.178,0,0,0-1.316.938c-.027.155-2.713,15.467-5,23.247a4.8,4.8,0,0,0,.509,3.875,5.2,5.2,0,0,0,3.27,2.362l7.6,1.833A1.2,1.2,0,0,0,1280.288,647Z"/><path class="cls-13" d="M1343.692,647.259a1.132,1.132,0,0,0,.686-.137c8.659-4.868,13.855-17.9,13.1-26.556-.35-4.021-2.023-6.756-4.71-7.7a4.117,4.117,0,0,0-4.183.563c-4.617,3.74-2.745,19.258-2.517,21.015a1.126,1.126,0,0,0,2.234-.29c-.8-6.156-1.045-16.752,1.7-18.975a1.892,1.892,0,0,1,2.016-.189c2.313.815,3.026,3.59,3.215,5.774.692,7.954-4.277,20.078-11.962,24.4a1.126,1.126,0,0,0,.417,2.1Z"/><path class="cls-22" d="M1345.278,609.287s-1.177,27.531-9.028,36.895c0,0,2.478-31.619-.125-43.8S1345.278,609.287,1345.278,609.287Z"/><path class="cls-21" d="M1237.439,607.908c.183-.252.371-.492.546-.727.929-1.264,1.854-2.5,2.784-3.723,21.962-28.971,42.95-48.548,57.742-43.74,5.4,1.75,9.649,4.708,14.561,13.917,24.091,45.145,43.1,35.444,43.1,35.444l13.1-18c-1.7-15.935-6.749-33.244-15.2-51.656-.116-.263-.221-.5-.32-.688a2.629,2.629,0,0,0-.141-.3,1.982,1.982,0,0,0-.116-.263.592.592,0,0,0-.049-.093,2.329,2.329,0,0,0-.118-.235c-.054-.105-.118-.234-.181-.364-.262-.5-14.035-18.929-43.81-22.949-2.491-.332-5.93-.805-10-1.063-12.3-.814-30.312.2-45.149,12a52.233,52.233,0,0,0-6.693,6.368C1231.417,550.024,1226.924,579.547,1237.439,607.908Z"/><path class="cls-22" d="M1356.424,608.732l-.256.345s-19.009,9.709-43.092-35.437c-4.647-8.713-8.539-13.311-14.584-14.175-10.259-1.466-17.516,12.2-39.658,31.507a234.1,234.1,0,0,1-20.849,16.209h0a110.3,110.3,0,0,1,10.544-17.881c1.344-1.853,29.722-40.273,50.941-34.016,5.893,1.737,9.518,5.161,13.968,13.506C1334.267,607.849,1352.025,609.106,1356.424,608.732Z"/><path class="cls-14" d="M1267.711,661.219a14.082,14.082,0,0,0,4.014,5.861c2.756,2.339,7.19,3.992,14.075,1.611a26.979,26.979,0,0,0,2.779-1.129,19.44,19.44,0,0,0,5.155-3.453,14.764,14.764,0,0,0,2.438-3.021,13.338,13.338,0,0,0,1.837-9.031Z"/><path class="cls-29" d="M1271.725,667.08c2.756,2.339,7.19,3.992,14.075,1.611a26.979,26.979,0,0,0,2.779-1.129,19.006,19.006,0,0,0,3.175-1.834,19.756,19.756,0,0,0,1.98-1.619,14.855,14.855,0,0,0,1.376-1.5,14.074,14.074,0,0,0,1.062-1.52C1289.786,661.992,1273.891,664.463,1271.725,667.08Z"/><path class="cls-30" d="M1393.114,862.392c-.986-8.322-1.5-16.645-1.852-24.968-.379-8.323-.52-16.645-.529-24.968s.145-16.646.522-24.968c.349-8.323.867-16.646,1.859-24.969.991,8.323,1.51,16.646,1.859,24.969.377,8.322.52,16.645.522,24.968s-.15,16.645-.53,24.968C1394.615,845.747,1394.1,854.07,1393.114,862.392Z"/><path class="cls-11" d="M1452.682,979.105l-214.738,129.168-12.652-51.116,103.471-80.4,64.351-50V862.39l.019-.019c17.969-17.941,65.17-17.608,82.053-16.864l6.717,87.026A43.9,43.9,0,0,1,1452.682,979.105Z"/><path class="cls-12" d="M1406.672,883.645l2.052,39.208a12.64,12.64,0,0,1-6.328,11.623l-73.633,42.285,64.351-50V862.39l.019-.019c17.969-17.941,65.17-17.608,82.053-16.864,0,0-33.908,7.212-55.121,16.452A22.369,22.369,0,0,0,1406.672,883.645Z"/><polygon class="cls-31" points="1098.647 1163.913 1088.45 1168.668 1088.428 1168.668 1047.744 977.634 1054.586 969.64 1096.619 1150.683 1098.647 1163.913"/><path class="cls-27" d="M1054.587,969.64l-6.843,8-268.382-19.48,10.1-5.924Z"/><polygon class="cls-28" points="1088.425 1168.674 835.424 1148.152 817.312 1086.783 779.354 958.158 1047.741 977.633 1088.425 1168.674"/><path class="cls-30" d="M1088.425,1168.674l-253-20.522-18.112-61.369c195.948,93.353,230.429-109.15,230.429-109.15Z"/><path class="cls-31" d="M1223.96,1105.5l-125.313,58.414-10.2,4.755-.022.011v-.011l-2.181-13.906,10.372-4.079,125.53-49.383A2.288,2.288,0,0,1,1223.96,1105.5Z"/><polygon class="cls-27" points="1082.067 1088.004 1222.154 1101.304 1096.625 1150.683 1082.067 1088.004"/><ellipse class="cls-5" cx="927.348" cy="1063.415" rx="14.49" ry="23.604" transform="translate(-178.754 187.422) rotate(-10.532)"/><path class="cls-11" d="M1256.116,1097.3l-.374.294-8.079,6.359a28.931,28.931,0,0,1-27.228,4.633l-19.627-6.718a6.437,6.437,0,0,0-3.486-.191,6.571,6.571,0,0,0-3.6,2.189,65.256,65.256,0,0,1-13.053,11.763,3.854,3.854,0,0,1-5.993-3.86,94.887,94.887,0,0,1,3.3-11.97,1.051,1.051,0,0,0-.2-1.067,1.093,1.093,0,0,0-1.56-.151c-9.559,7.736-16.109,10.3-19.882,11.087a4.038,4.038,0,0,1-.867.088,3.82,3.82,0,0,1-3.733-3.98,30.15,30.15,0,0,1,1.7-7.792H1148.7a3.8,3.8,0,0,1-2.937-1.369,3.875,3.875,0,0,1-.8-3.494,69.673,69.673,0,0,1,4.958-12.48,1.592,1.592,0,0,0,.072-1.273,1.628,1.628,0,0,0-1.974-1,34.122,34.122,0,0,1-6.065,1.122,3.851,3.851,0,0,1-3.5-5.969c8.922-13.316,26.417-26.234,35.737-32.561a13.279,13.279,0,0,1,3.159-1.568,13.137,13.137,0,0,1,9.567.478l55.9,25.2Z"/><path class="cls-12" d="M1148.023,1078.362a34.122,34.122,0,0,1-6.065,1.122s15.552-11.413,27.141-15.918l-19.1,15.8A1.628,1.628,0,0,0,1148.023,1078.362Z"/><path class="cls-12" d="M1172.967,1081.8l-20.344,16.181H1148.7a3.8,3.8,0,0,1-2.937-1.369Z"/><path class="cls-12" d="M1184.977,1088.359l-7.2,10.37a1.093,1.093,0,0,0-1.56-.151c-9.559,7.736-16.109,10.3-19.882,11.087a4.038,4.038,0,0,1-.867.088Z"/><path class="cls-12" d="M1255.742,1097.591l-8.079,6.359a28.931,28.931,0,0,1-27.228,4.633l-19.627-6.718a6.437,6.437,0,0,0-3.486-.191,6.571,6.571,0,0,0-3.6,2.189,65.256,65.256,0,0,1-13.053,11.763,3.813,3.813,0,0,1-2.69.661c6.4-8.039,16.69-21.37,17.041-24.411,0,0,31.979,19.882,51.678,8.883A24.362,24.362,0,0,1,1255.742,1097.591Z"/><path class="cls-13" d="M1149.839,1079.058a58.892,58.892,0,0,1,5.2-5.374q2.727-2.53,5.616-4.858c1.924-1.555,3.911-3.031,5.948-4.446a58.382,58.382,0,0,1,6.366-3.925,58.515,58.515,0,0,1-5.2,5.377c-1.819,1.685-3.687,3.309-5.619,4.854s-3.912,3.03-5.949,4.444A59.138,59.138,0,0,1,1149.839,1079.058Z"/><path class="cls-13" d="M1153.25,1097.661a58.892,58.892,0,0,1,5.2-5.374q2.727-2.531,5.617-4.858c1.923-1.555,3.911-3.031,5.947-4.447a58.53,58.53,0,0,1,6.366-3.924,58.376,58.376,0,0,1-5.2,5.376q-2.728,2.529-5.619,4.855t-5.949,4.444A59.138,59.138,0,0,1,1153.25,1097.661Z"/><path class="cls-13" d="M1177.235,1098.906a22.192,22.192,0,0,1,1.825-4.069,36.807,36.807,0,0,1,2.372-3.668,36.218,36.218,0,0,1,2.784-3.365,21.9,21.9,0,0,1,3.337-2.96,21.851,21.851,0,0,1-1.823,4.071,36.046,36.046,0,0,1-2.374,3.666,36.68,36.68,0,0,1-2.787,3.363A22.1,22.1,0,0,1,1177.235,1098.906Z"/><path class="cls-30" d="M1177.977,870.355a55.858,55.858,0,0,1-15.566-23.884c-.388-1.151-.748-2.311-1.068-3.488a30.607,30.607,0,0,1-.735-3.712,29.974,29.974,0,0,1-.037-7.583,31.138,31.138,0,0,1,1.84-7.377,32.124,32.124,0,0,1,3.61-6.714c2.873-3.783,5.969-7.443,8.994-11.124q4.633-5.406,9.592-10.5a194.248,194.248,0,0,1,21.086-19.026c-6.147,7.21-12.309,14.3-18.321,21.51-2.97,3.632-5.976,7.231-8.878,10.9l-4.3,5.5-2.172,2.73-1.087,1.364-.277.349-.307.416-.458.646a28.242,28.242,0,0,0-5.125,18.458,30.46,30.46,0,0,0,.446,3.252c.211,1.118.464,2.235.743,3.343A72.753,72.753,0,0,0,1177.977,870.355Z"/><path class="cls-28" d="M1222.026,880.156a99.486,99.486,0,0,1-31.241,12.249,98.122,98.122,0,0,1-17.058,1.97c1.839-8.556,3.211-16.607,4.25-24.02a103.268,103.268,0,0,0,44.049,9.8Z"/><path class="cls-28" d="M1481.313,845.859s-39.865-3.325-68.019,5.507c38.1-15.549,45.971-33.242,45.971-33.242,4.9-53.461-17.779-105.711-17.779-105.711a47.121,47.121,0,0,1,24.43,33.471C1471.9,779.632,1481.313,834.569,1481.313,845.859Z"/><path class="cls-13" d="M1393.114,926.755a30.765,30.765,0,0,1,5.263.3,51.849,51.849,0,0,1,5.106.962,50.689,50.689,0,0,1,4.985,1.46,30.4,30.4,0,0,1,4.826,2.125,30.285,30.285,0,0,1-5.265-.3,50.955,50.955,0,0,1-5.1-.965,51.625,51.625,0,0,1-4.985-1.463A30.662,30.662,0,0,1,1393.114,926.755Z"/><path class="cls-11" d="M1177.977,870.355,1123.6,946.968a39.8,39.8,0,0,1-54.728,9.937c-.648-.419-1.286-.886-1.915-1.362L879.843,812.455l30.622-38.264,18.227,10.852.038.019,154.045,91.7,6.241-7.8,25.7-32.137a.112.112,0,0,0,.029.019Z"/><polygon class="cls-12" points="1089.016 868.954 1074.686 889.449 1074.61 889.563 928.692 785.043 928.73 785.062 1082.775 876.758 1089.016 868.954"/><path class="cls-13" d="M1082.771,876.759a30.984,30.984,0,0,1-2.016,4.906q-1.18,2.343-2.587,4.543a51.405,51.405,0,0,1-3.02,4.267,30.731,30.731,0,0,1-3.6,3.9,30.654,30.654,0,0,1,2.014-4.909,51.234,51.234,0,0,1,2.59-4.54q1.4-2.2,3.022-4.266A31.155,31.155,0,0,1,1082.771,876.759Z"/><path class="cls-12" d="M1177.977,870.355,1123.6,946.968a39.8,39.8,0,0,1-54.728,9.937c31.991,14.689,63.482-36.371,78.267-65.285a27.383,27.383,0,0,0-6.445-33.134c-11.524-10.019-25.277-21.1-25.955-21.65Z"/><path class="cls-11" d="M942.894,801.833c-2-1.367-24.275-17.607-42.1-70.812-.672-2-3.439-2.434-4.116-.617a82.96,82.96,0,0,0-5.208,26.2,1.305,1.305,0,0,1-2.379.673c-6.124-7.721-23-29.419-33.091-46.443-1.489-2.512-5.635-1.945-5.138.75,1.222,6.619,4.418,16.165,12.039,28.268.883,1.4-1.065,2.648-2.3,1.453a236.425,236.425,0,0,1-19.682-21.127c-1.959-2.461-6.24-1.241-5.317,1.567,2.383,7.247,7.255,17.106,16.95,28.4,1.129,1.316-.658,2.928-2.152,1.92A136.452,136.452,0,0,1,836.4,741.306c-2.477-2.2-6.592.053-5.011,2.8a85.8,85.8,0,0,0,20.638,23.537,1.2,1.2,0,0,1-1.235,2.018,58.568,58.568,0,0,1-10.578-4.012c-2.883-1.425-6.1,1.491-4.207,3.9,12.57,15.97,39.852,44.439,88.489,73.295a.224.224,0,0,0,.307-.136l18.157-40.572A.241.241,0,0,0,942.894,801.833Z"/><path class="cls-13" d="M888.568,797.223a1.05,1.05,0,0,0,.667-1.242c-3.642-14.572,4.744-31.18,4.827-31.343h0a.96.96,0,0,0-.717-1.362h0c-.543-.087-13.722-1.983-28.757,15.8a.983.983,0,0,0,.174,1.447h0a1.136,1.136,0,0,0,1.512-.205c10.137-12.093,19.381-14.674,23.883-15.165a.964.964,0,0,1,.994,1.314c-2.307,5.425-6.783,18.27-3.808,30.115a.929.929,0,0,0,1.222.64Z"/></g><g id="Plant_2" data-name="Plant 2"><path class="cls-32" d="M217.262,1058.677c.839-5.194-5.987-11.228-16.271-15.332A296.2,296.2,0,0,1,221.5,998.408c17.666,7.63,31.926,10.74,33.511,6.859,1.518-3.716-9.091-12.641-24.893-21.572,8.544-13.848,16.392-24.6,21.031-30.659a7.5,7.5,0,0,1,10.289-1.777,381.273,381.273,0,0,1,43.155,32.81c-.693.368-1.383.72-2.077,1.142-13.617,8.281-21.886,19.891-18.471,25.931s17.222,4.224,30.839-4.057a62.841,62.841,0,0,0,7.913-5.733c4.759,4.891,9.447,10.047,13.945,15.445-8.412,7.037-13.165,13.056-11.667,15.706,1.6,2.829,9.9,1.1,20.976-3.772,16.99,23.388,29.267,50.437,28.369,79.231-18.054-1.075-32.1,3.511-33.017,11.673-.868,7.678,10.114,16.11,26.091,21.1a126.208,126.208,0,0,1-21.54,34.889c-25.255,29.725-65.432,36.662-99.192,17.127a137.845,137.845,0,0,1-20.9-14.728c17.116-15.249,28.441-30.444,25.418-34.254-3.091-3.9-19.992,5.581-37.748,21.167-.12.105-.227.21-.344.315-24.694-29.455-26.613-65.33-18.769-99.4C206.692,1067.055,216.35,1064.324,217.262,1058.677Z"/><path class="cls-32" d="M142.107,1337.9c-4.1-1.414-11.333,3.253-18.223,11.194a188.724,188.724,0,0,1-30.728-23.1c12.6-12.41,19.891-22.384,17.331-24.034-2.441-1.573-13.2,4.827-26.249,15.335a192.932,192.932,0,0,1-16.648-19.608c-1.627-2.222-.534-5.307,2.591-7.412a446.65,446.65,0,0,1,39.9-23.871c.058.474.106.944.2,1.427,1.972,9.654,8.242,16.542,13.89,15.069,5.6-1.461,8.17-10.519,5.868-19.928a27.7,27.7,0,0,0-1.965-5.427c4.835-2.2,9.784-4.307,14.8-6.248,2.894,5.716,6.036,9.248,8.326,8.681,2.435-.6,3.2-5.656,2.41-12.541,20.076-6.634,40.971-10.109,60.4-6.358-3.645,9.74-2.754,18.268,2.882,19.773,5.315,1.42,12.885-3.922,18.532-12.275a89.738,89.738,0,0,1,21.72,16.263c18.882,18.884,20.527,46.425,1.553,68.575a110.488,110.488,0,0,1-14.888,14.45c-9.917-15.645-20.284-26.262-23.855-24.527-3.682,1.788.979,16.149,10.906,32.842.068.117.139.222.208.335-30.285,17.145-62.358,13.49-89.874,1.507C146.014,1347.762,146.58,1339.436,142.107,1337.9Z"/><path class="cls-32" d="M363.943,1242.464c2.127-1.4,2.2-4.945.59-8.56a202.939,202.939,0,0,1,22.587-9.227c3.956,6.414,8.68,11.056,10.918,10.136,2.164-.889,1-6.574-2.206-12.993,8.782-2.728,16.474-4.7,21.075-5.8,2.557-.615,5.042,0,5.955,1.522a129.662,129.662,0,0,1,11.014,24.035c-.624-.082-1.235-.17-1.877-.229-12-1.113-21.6.735-22.443,4.107-.865,3.455,7.64,7.674,20.075,9.5a77.665,77.665,0,0,0,8.3.748,130.037,130.037,0,0,1,2.351,13.326c-9.87-.86-16.195-.417-16.542,1.469-.376,2.039,6.3,5.445,17.374,9.132.744,22.637-5.109,47.157-24.26,62.566-12.653-16.414-24.133-24.793-29.169-21.512-4.707,3.065-3.318,15.881,3.5,33-9.942,1.754-20.85,1.228-32.473-1.888-25.476-6.829-39.163-30.9-37.974-55.286a93.418,93.418,0,0,1,1.6-13.553c9.413,1.705,18.253,1.144,18.988-1.433s-7.085-5.837-16.547-7.182c-.061-.009-.119-.013-.179-.021,5.509-16.49,17.116-27.332,30.45-35.3C357.918,1242.346,361.64,1243.98,363.943,1242.464Z"/><path class="cls-19" d="M451.346,1257.477c4.154,1.251,7.293,9.265,8.24,19.736a188.725,188.725,0,0,0,38.435-.776c-2.97-17.436-3.051-29.79-.009-29.631,2.9.151,7.883,11.631,12.33,27.787a193,193,0,0,0,24.97-6.174c2.619-.852,3.536-3.994,2.231-7.528A446.525,446.525,0,0,0,519.13,1218.2c-.324.349-.638.7-1,1.038-7.243,6.679-16.358,8.6-20.078,4.1-3.688-4.457-.479-13.31,6.889-19.6a27.681,27.681,0,0,1,4.767-3.253c-2.634-4.614-5.419-9.214-8.351-13.721-5.69,2.945-10.3,3.975-11.83,2.176-1.623-1.913.706-6.462,5.377-11.584-12.409-17.119-27.33-32.155-45.289-40.473-2.737,10.034-8.446,16.431-13.9,14.357-5.142-1.956-8.16-10.715-7.858-20.793a89.767,89.767,0,0,0-27.13.5c-26.359,4.281-43.795,25.663-41.351,54.727a110.454,110.454,0,0,0,3.63,20.427c17.193-6.895,31.81-9.448,33.693-5.953,1.942,3.6-10.235,12.53-28.049,20.269-.123.055-.242.1-.365.15,14.547,31.616,42.705,47.4,72.034,53.767C442.409,1263.2,446.817,1256.113,451.346,1257.477Z"/><path class="cls-19" d="M117.862,1132.623c-1.353-4.944-10.636-8.459-22.563-9.26a230.6,230.6,0,0,1,2.007-44.985c20.105,1.953,35,.927,34.9-2.768-.091-3.522-13.791-8.349-32.445-11.877a257.777,257.777,0,0,1,7.841-30.313c1.068-3.244,4.763-4.832,8.885-3.832a487.923,487.923,0,0,1,52.989,16.264c-.477.463-.959.912-1.416,1.42-9.032,10.055-11.838,21.724-6.11,25.92,5.748,4.211,17.759-.8,26.669-11.045a42.666,42.666,0,0,0,4.713-6.625c6.413,2.839,12.887,5.916,19.307,9.244-4.5,7.9-6.158,14.113-3.618,15.954,2.716,1.969,9.479-1.588,17.289-8.415,25.867,15.2,49.559,34.93,62.71,60.16-16.893,4.077-27.551,12.136-24.435,19.758,2.955,7.23,17.3,11.711,34.48,11.571a108.16,108.16,0,0,1-2.11,39.108c-8.528,37.252-44.317,58.1-88.186,49.856a175.345,175.345,0,0,1-28.542-7.821c10.119-21.2,14.228-39.893,9.414-42.632-4.912-2.8-17.461,11.967-28.323,33.539-.075.148-.136.291-.207.438-39.078-21.344-56.739-55.9-63.13-90.456C110.853,1143.343,119.343,1138.032,117.862,1132.623Z"/><path class="cls-33" d="M145.853,1300.843c1.377-1.153,34.352-28.077,73.41-15.88,22.7,7.076,42.26,25.708,58.459,55.642-19.593-82.95-57.914-206.816-117.974-245.009a4.8,4.8,0,0,1,5.154-8.1c66.943,42.548,106.834,180.532,125.466,264.186,1.761,7.972,3.362,15.463,4.738,22.315-.128-7.044-.352-14.535-.672-22.347-4.258-114.133-23.467-301.387-23.691-303.82a4.8,4.8,0,1,1,9.54-.993c.993,9.573,18.441,179.827,23.339,293.16,20.074-127.611,45.557-191.545,77.38-194.81,35.953-3.618,62.237,71.073,65.118,79.621a4.814,4.814,0,0,1-9.124,3.073c-6.947-20.714-29.838-73.218-53.4-73.218a13.053,13.053,0,0,0-1.6.1c-16.1,1.665-45.2,30.926-70.5,197.179-1.088,7.3-2.209,14.855-3.3,22.7,3.682-7.555,7.716-14.983,11.974-22.186,28.365-48.279,65.983-87.081,68.191-89.322a4.789,4.789,0,1,1,6.852,6.692c-.513.544-36.433,37.585-64.35,83.654a297.586,297.586,0,0,0-19.988,38.584H288.654c-1.559-4.523-10.429-29.049-15.542-39.48-15.655-31.919-34.576-51.512-56.634-58.427-34-10.661-64.19,13.83-64.478,14.086a4.808,4.808,0,0,1-6.147-7.395Z"/><rect class="cls-34" x="235.152" y="1392.059" width="130.903" height="224.372" rx="32.727"/><rect class="cls-21" x="253.54" y="1392.059" width="112.516" height="221.068" rx="30.117"/><path class="cls-23" d="M352.668,1394.558H248.539a2.5,2.5,0,1,1,0-5H352.668a2.5,2.5,0,0,1,0,5Z"/><rect class="cls-23" x="235.141" y="1461.527" width="130.914" height="85.443"/><rect class="cls-34" x="235.141" y="1467.086" width="130.914" height="74.326"/><path class="cls-23" d="M366.036,1504.758v9.652a58.374,58.374,0,0,1-5.294-9.042c-3.1-6.149-6.028-11.933-11.2-11.933-3.38,0-5.824,2.485-7.942,5.906v-7.82a11.687,11.687,0,0,1,7.942-3.1c8.267,0,12.218,7.82,15.68,14.7C365.507,1503.658,365.792,1504.228,366.036,1504.758Z"/><path class="cls-23" d="M341.6,1491.521v7.82a63.769,63.769,0,0,0-3.258,6.027c-3.461,6.883-7.412,14.7-15.679,14.7-8.227,0-12.178-7.82-15.64-14.7-3.1-6.149-6.027-11.933-11.2-11.933-5.213,0-8.1,5.784-11.2,11.933-3.5,6.883-7.412,14.7-15.679,14.7s-12.178-7.82-15.681-14.7c-3.095-6.149-6.027-11.933-11.2-11.933-2.851,0-5.01,1.752-6.924,4.358v-7.086a11.386,11.386,0,0,1,6.924-2.281c8.267,0,12.177,7.82,15.68,14.7,3.094,6.15,6.027,11.933,11.2,11.933s8.1-5.783,11.2-11.933c3.462-6.882,7.412-14.7,15.679-14.7,8.227,0,12.178,7.82,15.64,14.7,3.095,6.15,6.027,11.933,11.2,11.933,5.213,0,8.1-5.783,11.24-11.933C336.021,1498.933,338.261,1494.413,341.6,1491.521Z"/></g></g></svg>