<svg xmlns="http://www.w3.org/2000/svg" xmlns:xlink="http://www.w3.org/1999/xlink" viewBox="0 0 874.58 742.95"><defs><style>.cls-1{fill:#b5caf4;}.cls-2{fill:#c7d9f8;}.cls-3{fill:#e0eaff;}.cls-4{fill:url(#Безымянный_градиент_12);}.cls-5{fill:#95baef;}.cls-6{fill:url(#Безымянный_градиент_2);}.cls-7{fill:url(#Безымянный_градиент_2-2);}.cls-8{fill:url(#Безымянный_градиент_2-3);}.cls-13,.cls-16,.cls-9{fill:#628cd2;}.cls-9{opacity:0.5;}.cls-10{fill:url(#Безымянный_градиент_22);}.cls-11{fill:#a7c1ff;}.cls-12{fill:#1a317a;}.cls-13,.cls-17{opacity:0.55;}.cls-14,.cls-19{fill:#2c49a2;}.cls-15{opacity:0.8;}.cls-18{fill:#0e2939;}.cls-19{opacity:0.7;}.cls-20{fill:url(#Безымянный_градиент_4);}.cls-21,.cls-24{fill:#fff;}.cls-22{fill:url(#Безымянный_градиент_4-2);}.cls-23{fill:url(#Безымянный_градиент_4-3);}.cls-24{opacity:0;}.cls-25{fill:url(#Безымянный_градиент_16);}.cls-26{fill:#fac4b6;}.cls-27{fill:url(#Безымянный_градиент_25);}.cls-28{fill:url(#Безымянный_градиент_38);}.cls-29{fill:url(#Безымянный_градиент_105);}.cls-30{fill:url(#Безымянный_градиент_105-2);}.cls-31{fill:url(#Безымянный_градиент_105-3);}.cls-32{fill:url(#Безымянный_градиент_74);}.cls-33{fill:#f5b3a6;}.cls-34{fill:url(#Безымянный_градиент_41);}.cls-35{fill:url(#Безымянный_градиент_16-2);}.cls-36{fill:#1b327b;}.cls-37{fill:url(#Безымянный_градиент_14);}.cls-38{fill:url(#Безымянный_градиент_105-4);}.cls-39{fill:url(#Безымянный_градиент_3);}.cls-40{fill:url(#Безымянный_градиент_3-2);}.cls-41{fill:url(#Безымянный_градиент_74-2);}.cls-42{fill:url(#Безымянный_градиент_32);}.cls-43{fill:url(#Безымянный_градиент_7);}.cls-44{fill:url(#Безымянный_градиент_5);}.cls-45{fill:#ff5f18;opacity:0.75;}.cls-46{fill:url(#Безымянный_градиент_105-5);}.cls-47{fill:#fa8b17;}.cls-48{fill:url(#Безымянный_градиент_18);}.cls-49{fill:url(#Безымянный_градиент_24);}.cls-50{fill:url(#Безымянный_градиент_8);}.cls-51{fill:#ffac31;}.cls-52{fill:url(#Безымянный_градиент_24-2);}.cls-53{fill:url(#Безымянный_градиент_26);}.cls-54{fill:url(#Безымянный_градиент_24-3);}.cls-55{fill:url(#Безымянный_градиент_40);}.cls-56{fill:#a6c0ff;}</style><linearGradient id="Безымянный_градиент_12" x1="320.93" y1="603.94" x2="320.93" y2="344.39" gradientTransform="matrix(-0.95, -0.33, -0.33, 0.95, 1228.98, 100.23)" gradientUnits="userSpaceOnUse"><stop offset="0" stop-color="#628cd2"/><stop offset="1" stop-color="#a7c1ff" stop-opacity="0.5"/></linearGradient><linearGradient id="Безымянный_градиент_2" x1="666.28" y1="721.5" x2="706.31" y2="721.5" gradientTransform="matrix(-1, 0.01, 0.01, 1, 1350.92, -472.65)" gradientUnits="userSpaceOnUse"><stop offset="0" stop-color="#628cd2"/><stop offset="1" stop-color="#a7c1ff"/></linearGradient><linearGradient id="Безымянный_градиент_2-2" x1="577.37" y1="718.11" x2="602.47" y2="718.11" gradientTransform="translate(129.88 -472.65) rotate(0.84)" xlink:href="#Безымянный_градиент_2"/><linearGradient id="Безымянный_градиент_2-3" x1="198.68" y1="257.08" x2="208.09" y2="257.08" gradientTransform="matrix(1, 0, 0, 1, 0, 0)" xlink:href="#Безымянный_градиент_2"/><linearGradient id="Безымянный_градиент_22" x1="-545.05" y1="659.36" x2="-408.95" y2="659.36" gradientTransform="translate(723.15 -451.83) rotate(-11.72)" gradientUnits="userSpaceOnUse"><stop offset="0" stop-color="#628cd2"/><stop offset="0.41" stop-color="#85a7e9"/><stop offset="0.78" stop-color="#9ebaf9"/><stop offset="1" stop-color="#a7c1ff"/></linearGradient><linearGradient id="Безымянный_градиент_4" x1="97.1" y1="391.74" x2="259.69" y2="391.74" gradientUnits="userSpaceOnUse"><stop offset="0" stop-color="#ff5f18"/><stop offset="0.23" stop-color="#ff7820"/><stop offset="0.53" stop-color="#ff9429"/><stop offset="0.8" stop-color="#ffa52f"/><stop offset="1" stop-color="#ffab31"/></linearGradient><linearGradient id="Безымянный_градиент_4-2" x1="442.51" y1="454.27" x2="553.76" y2="454.27" xlink:href="#Безымянный_градиент_4"/><linearGradient id="Безымянный_градиент_4-3" x1="523.69" y1="263.83" x2="630.77" y2="263.83" xlink:href="#Безымянный_градиент_4"/><linearGradient id="Безымянный_градиент_16" x1="1136.25" y1="547.41" x2="1238" y2="547.41" gradientTransform="matrix(-1, 0, 0, 1, 1410.34, 0)" gradientUnits="userSpaceOnUse"><stop offset="0" stop-color="#fff"/><stop offset="0.19" stop-color="#f5f8ff"/><stop offset="0.51" stop-color="#dbe6ff"/><stop offset="0.91" stop-color="#b1c8ff"/><stop offset="1" stop-color="#a7c1ff"/></linearGradient><linearGradient id="Безымянный_градиент_25" x1="1168.07" y1="780.38" x2="1283.51" y2="664.94" gradientTransform="matrix(-1, 0, 0, 1, 1410.34, 0)" gradientUnits="userSpaceOnUse"><stop offset="0" stop-color="#2c49a2"/><stop offset="0.32" stop-color="#28449a"/><stop offset="0.82" stop-color="#1e3783"/><stop offset="1" stop-color="#1a317a"/></linearGradient><linearGradient id="Безымянный_градиент_38" x1="1278.08" y1="644.61" x2="1184.09" y2="807.39" gradientTransform="matrix(-1, 0, 0, 1, 1410.34, 0)" gradientUnits="userSpaceOnUse"><stop offset="0"/><stop offset="0.13" stop-color="#020306"/><stop offset="0.31" stop-color="#070b17"/><stop offset="0.51" stop-color="#0f1833"/><stop offset="0.73" stop-color="#1a2a5a"/><stop offset="0.96" stop-color="#28418b"/><stop offset="1" stop-color="#2b4594"/></linearGradient><linearGradient id="Безымянный_градиент_105" x1="1207.41" y1="771.76" x2="1268.5" y2="771.76" gradientTransform="matrix(-0.9, -0.43, -0.43, 0.9, 1644.63, 687.41)" gradientUnits="userSpaceOnUse"><stop offset="0"/><stop offset="0.2" stop-color="#0a1124"/><stop offset="0.58" stop-color="#1c2d60"/><stop offset="0.85" stop-color="#273e86"/><stop offset="1" stop-color="#2b4594"/></linearGradient><linearGradient id="Безымянный_градиент_105-2" x1="1249.38" y1="723.69" x2="1295.95" y2="723.69" gradientTransform="matrix(-1, 0, 0, 1, 1410.34, 0)" xlink:href="#Безымянный_градиент_105"/><linearGradient id="Безымянный_градиент_105-3" x1="1644.78" y1="870.35" x2="1684.6" y2="870.35" gradientTransform="translate(-1563.8 27.56) rotate(-1.07)" xlink:href="#Безымянный_градиент_105"/><linearGradient id="Безымянный_градиент_74" x1="1206.26" y1="498.46" x2="1284.87" y2="634.62" gradientTransform="matrix(-1, 0, 0, 1, 1410.34, 0)" gradientUnits="userSpaceOnUse"><stop offset="0" stop-color="#fff"/><stop offset="0.17" stop-color="#ebf1ff"/><stop offset="0.53" stop-color="#c6d7ff"/><stop offset="0.82" stop-color="#afc7ff"/><stop offset="1" stop-color="#a7c1ff"/></linearGradient><linearGradient id="Безымянный_градиент_41" x1="1216.14" y1="441.88" x2="1278.85" y2="441.88" gradientTransform="matrix(-1, 0, 0, 1, 1410.34, 0)" gradientUnits="userSpaceOnUse"><stop offset="0" stop-color="#2c49a2"/><stop offset="0.13" stop-color="#2b4597"/><stop offset="0.71" stop-color="#26376d"/><stop offset="1" stop-color="#24325d"/></linearGradient><linearGradient id="Безымянный_градиент_16-2" x1="3628.93" y1="541.11" x2="3563.84" y2="503.53" gradientTransform="translate(-3266.78)" xlink:href="#Безымянный_градиент_16"/><linearGradient id="Безымянный_градиент_14" x1="3677.37" y1="711.07" x2="3585.05" y2="551.16" gradientTransform="translate(-3250.85 -16.83) rotate(1.46)" gradientUnits="userSpaceOnUse"><stop offset="0" stop-color="#2c49a1"/><stop offset="0.2" stop-color="#22387b" stop-opacity="0.91"/><stop offset="0.58" stop-color="#101a39" stop-opacity="0.74"/><stop offset="0.86" stop-color="#040710" stop-opacity="0.64"/><stop offset="1" stop-opacity="0.6"/></linearGradient><linearGradient id="Безымянный_градиент_105-4" x1="375.58" y1="705.57" x2="418.38" y2="705.57" gradientTransform="matrix(1, 0, 0, 1, 0, 0)" xlink:href="#Безымянный_градиент_105"/><linearGradient id="Безымянный_градиент_3" x1="3681.7" y1="750.71" x2="3681.7" y2="803.92" gradientTransform="translate(-3250.85 -16.83) rotate(1.46)" gradientUnits="userSpaceOnUse"><stop offset="0" stop-color="#2c49a1"/><stop offset="1"/></linearGradient><linearGradient id="Безымянный_градиент_3-2" x1="3595.1" y1="751.4" x2="3611.73" y2="780.21" xlink:href="#Безымянный_градиент_3"/><linearGradient id="Безымянный_градиент_74-2" x1="3635.12" y1="387.65" x2="3635.12" y2="542.35" gradientTransform="translate(-3250.85 -16.83) rotate(1.46)" xlink:href="#Безымянный_градиент_74"/><linearGradient id="Безымянный_градиент_32" x1="3642.51" y1="368.09" x2="3642.51" y2="310.47" gradientTransform="translate(-3250.85 -16.83) rotate(1.46)" gradientUnits="userSpaceOnUse"><stop offset="0" stop-color="#ff5f18"/><stop offset="0.44" stop-color="#ff7e22"/><stop offset="1" stop-color="#ffab31"/></linearGradient><linearGradient id="Безымянный_градиент_7" x1="994.6" y1="494.21" x2="994.6" y2="666.45" gradientTransform="translate(-772.18 133.94) rotate(-6.97)" gradientUnits="userSpaceOnUse"><stop offset="0" stop-color="#ff5f18"/><stop offset="0.66" stop-color="#ff952a"/><stop offset="1" stop-color="#ffab31"/></linearGradient><linearGradient id="Безымянный_градиент_5" x1="1018.2" y1="1082.2" x2="1018.2" y2="967.55" gradientTransform="matrix(0.99, 0.17, -0.17, 0.99, -548, -567.43)" gradientUnits="userSpaceOnUse"><stop offset="0" stop-color="#ff5f18"/><stop offset="0.13" stop-color="#ff731f"/><stop offset="0.32" stop-color="#ff8c27"/><stop offset="0.52" stop-color="#ff9d2c"/><stop offset="0.74" stop-color="#ffa830"/><stop offset="1" stop-color="#ffab31"/></linearGradient><linearGradient id="Безымянный_градиент_105-5" x1="215.72" y1="888.67" x2="258.19" y2="888.67" gradientTransform="matrix(-1, 0, 0, 1, 1006.92, 0)" xlink:href="#Безымянный_градиент_105"/><linearGradient id="Безымянный_градиент_18" x1="245.11" y1="648.1" x2="245.11" y2="870.72" gradientTransform="matrix(-1, 0, 0, 1, 1006.92, 0)" gradientUnits="userSpaceOnUse"><stop offset="0.24" stop-color="#ff5f18"/><stop offset="0.4" stop-color="#ff6118" stop-opacity="0.99"/><stop offset="0.52" stop-color="#ff651a" stop-opacity="0.95"/><stop offset="0.63" stop-color="#ff6d1d" stop-opacity="0.89"/><stop offset="0.73" stop-color="#ff7921" stop-opacity="0.8"/><stop offset="0.83" stop-color="#ff8825" stop-opacity="0.68"/><stop offset="0.92" stop-color="#ff992b" stop-opacity="0.54"/><stop offset="1" stop-color="#ffab31" stop-opacity="0.4"/></linearGradient><linearGradient id="Безымянный_градиент_24" x1="255.65" y1="511.92" x2="255.65" y2="452.98" gradientTransform="matrix(-1, 0, 0, 1, 1006.92, 0)" gradientUnits="userSpaceOnUse"><stop offset="0"/><stop offset="0.04" stop-color="#04060d"/><stop offset="0.19" stop-color="#101936"/><stop offset="0.34" stop-color="#1a2958"/><stop offset="0.5" stop-color="#213572"/><stop offset="0.66" stop-color="#273e85"/><stop offset="0.82" stop-color="#2a4390"/><stop offset="1" stop-color="#2b4594"/></linearGradient><linearGradient id="Безымянный_градиент_8" x1="212.01" y1="526.84" x2="212.01" y2="418.87" gradientTransform="matrix(-1, 0, 0, 1, 1006.92, 0)" gradientUnits="userSpaceOnUse"><stop offset="0"/><stop offset="0.13" stop-color="#0a0f21"/><stop offset="0.32" stop-color="#15224a"/><stop offset="0.51" stop-color="#1f316a"/><stop offset="0.69" stop-color="#263c81"/><stop offset="0.85" stop-color="#2a438f"/><stop offset="1" stop-color="#2b4594"/></linearGradient><linearGradient id="Безымянный_градиент_24-2" x1="199.23" y1="903.58" x2="247.28" y2="903.58" xlink:href="#Безымянный_градиент_24"/><linearGradient id="Безымянный_градиент_26" x1="827.11" y1="572.26" x2="735.54" y2="572.26" gradientUnits="userSpaceOnUse"><stop offset="0" stop-color="#2c49a1"/><stop offset="0.07" stop-color="#3552a8"/><stop offset="0.71" stop-color="#86a1e6"/><stop offset="1" stop-color="#a6c0ff"/></linearGradient><linearGradient id="Безымянный_градиент_24-3" x1="260.56" y1="449.89" x2="242.2" y2="418.09" xlink:href="#Безымянный_градиент_24"/><linearGradient id="Безымянный_градиент_40" x1="227.8" y1="478.94" x2="227.8" y2="419.2" gradientTransform="matrix(-1, 0, 0, 1, 1006.92, 0)" gradientUnits="userSpaceOnUse"><stop offset="0.44" stop-color="#243361"/><stop offset="0.5" stop-color="#25366a"/><stop offset="0.68" stop-color="#283e81"/><stop offset="0.85" stop-color="#2a438f"/><stop offset="1" stop-color="#2b4594"/></linearGradient></defs><g id="Layer_1" data-name="Layer 1"><path class="cls-1" d="M848.36,481.93C835.3,497.09,809,510.84,805.76,512c-4.34,1.6-7.23-3.29-6.52-6.85s9.4-6.44,22.3-21.95c6.66-8,8.79-20,9.3-29.77-12.1-12.42-28.43-27.38-33.61-40.48a141.3,141.3,0,0,1-24.79,13.19c2.59,15.63,7.7,52.52-2.23,50.93-8.62-1.38-15.13-28.86-18.37-46a49.5,49.5,0,0,0-18.23,7.74c1.25,8,4.08,23.88,7.86,31.27,5.16,10.1,15.11,25.08,15.11,25.08s-.91,9.74-17.49-13.73c-8.36-11.82-11.69-25.67-12.94-36.51-8.31,7.93-17.25,20.34-26.85,40.19-.69,1.42-1.3,2.82-1.88,4.2,2,8.78,5.67,19,12.83,25.07,14.2,12.09,31.3,15.76,31.3,15.76s9.84,8.82-2,8.1c-11.07-.67-32.42-.83-46.06-36.46-8.23,39.65,29.37,60.67,42,65.33,14.35,5.27,24.34-15.45,35.88-14.09S780.9,579.1,798,587s41.52-6.26,50.78-37.37C856,525.25,853.41,499.49,848.36,481.93Zm-42-28.49c1.27-4,8.8-11.89,8.41-2.37S811,470.83,807,464.75,805.12,457.44,806.4,453.44Zm30.43,71.72c-9.5,14.7-24.22,18.84-25.31,14.68s7.83-7,13.18-11.61,8.07-22.8,14.6-23C839.3,505.27,846.33,510.47,836.83,525.16Z" transform="translate(-52.62 -178.95)"/><path class="cls-1" d="M155.09,395.47c.6,15.32-7,36.75-8.17,39.13-1.6,3.16-5.76,1.93-7.23-.44s1.91-8.52,1-24c-.45-8-5.52-15.81-10.33-21.55-13.27-.65-30.24-.51-40-5.15a108.21,108.21,0,0,1-7,20.34c9.62,7.41,31.75,25.44,25.35,29.73-5.56,3.73-23.56-8.28-34.32-16.19a37.82,37.82,0,0,0-6.18,13.85C73.12,435.07,83,442.5,89,444.68c8.16,3,21.57,6.17,21.57,6.17s4.57,5.93-17,1.43c-10.86-2.26-20-8.29-26.32-13.72-.52,8.79.94,20.42,5.93,36.57.35,1.15.74,2.26,1.14,3.33,5.68,3.91,13.09,7.68,20.29,7.36a61.17,61.17,0,0,0,25.78-7.51s10.12-.19,3.12,5.58c-6.56,5.4-18.61,16.47-44.87,3.61,16.09,26.53,48.15,18.68,57.7,14.67,10.8-4.54,5.58-21.38,12.76-26.64s18.89,9.66,32.59,5.16,20-25.2,9-47.48C182,415.77,167.09,402.68,155.09,395.47Zm-38.41,5.94c-1.38-2.91-1.28-11.27,3.48-5.73s8.17,13.08,2.74,11.79S118.05,404.31,116.68,401.41Zm54.52,24.32c2.35,13.2-3.74,23.22-6.52,21.45s.72-8,1.32-13.39-7.38-17-3.8-20.5C162.2,413.29,168.85,412.53,171.2,425.73Z" transform="translate(-52.62 -178.95)"/><path class="cls-2" d="M673,683.67s84.13,61.61,151.6-19.21,43.56-142.3,43.56-142.3S664.2,505.5,673,683.67Z" transform="translate(-52.62 -178.95)"/><path class="cls-3" d="M870,528.73a49.87,49.87,0,0,0-1.84-6.57S664.2,505.5,673,683.67a119.15,119.15,0,0,0,19.33,10.82c18.12-8.64,44.11-26.75,88.46-56.17C832.68,603.89,857.94,559.59,870,528.73Z" transform="translate(-52.62 -178.95)"/><path class="cls-2" d="M705.45,522.35s-17.8-35.1,6-76.52,41.78-51.49,44.28-53.72,12.73-28.59,29.4-36,53.92-42.07,70.71-24.07-1.74,44.27-7.9,55-14.34,15-21,26.93-28.33,3.53-35.19,19.38,13.65,28.76-50,83.5C725.28,531.14,708,529,705.45,522.35Z" transform="translate(-52.62 -178.95)"/><path class="cls-3" d="M862.28,345a27.28,27.28,0,0,1,.38,3.71c-6.59-1.45-12.69-3.35-12.8-5.42S855.73,342.71,862.28,345Z" transform="translate(-52.62 -178.95)"/><path class="cls-3" d="M830.9,355.81c2.75-1.15,17.92,2.29,29.93,5.31a66.78,66.78,0,0,1-3.48,9C844.55,365.63,827.67,357.15,830.9,355.81Z" transform="translate(-52.62 -178.95)"/><path class="cls-3" d="M822.85,365c.28-.81,17.22,10.08,28,17.11-1.13,1.88-2.15,3.56-3,5s-1.46,2.4-2.22,3.49C835.88,382.32,822.57,365.83,822.85,365Z" transform="translate(-52.62 -178.95)"/><path class="cls-3" d="M812.86,369.56c3.19-3.36,17.36,15.22,28,27-2.17,2.42-4.41,4.71-6.63,7.25C824.42,392.05,810.55,372,812.86,369.56Z" transform="translate(-52.62 -178.95)"/><path class="cls-3" d="M829.23,410.3c-.75,1.13-1.5,2.32-2.22,3.61-12.2-8.64-30.14-28.71-27.93-28.68C800.89,385.26,819.56,400.72,829.23,410.3Z" transform="translate(-52.62 -178.95)"/><path class="cls-3" d="M797.24,426.58a15.68,15.68,0,0,0-1.63,1.32c-7.55-7.73-22.28-23.78-17.55-26.83S792.58,416.89,797.24,426.58Z" transform="translate(-52.62 -178.95)"/><path class="cls-3" d="M806,423l-1.16.29c-4.75-6.18-17.07-22.94-13.49-26C795.16,394,803.63,415.18,806,423Z" transform="translate(-52.62 -178.95)"/><path class="cls-3" d="M790.16,440.46c-.21,2.78-.09,5.68-.23,8.93-14.71-6.79-37.63-18.17-35.87-22.42S777.32,433.49,790.16,440.46Z" transform="translate(-52.62 -178.95)"/><path class="cls-3" d="M787.24,463a56.78,56.78,0,0,1-3.36,7.35c-12.08-9.6-34.77-28.09-34.06-31.11S773.81,453.09,787.24,463Z" transform="translate(-52.62 -178.95)"/><path class="cls-3" d="M772.48,486.7c-3,3.55-6.43,7.37-10.48,11.49-7.68-11.16-22.46-33.86-19.14-38.69C746.35,454.42,763.21,473.51,772.48,486.7Z" transform="translate(-52.62 -178.95)"/><path class="cls-3" d="M736.69,520.76a41.22,41.22,0,0,1-12.75,5.8c.75-16.44,2.73-39.65,7.93-41.56C738,482.77,737.37,508.07,736.69,520.76Z" transform="translate(-52.62 -178.95)"/><path class="cls-3" d="M722.63,454.67c.07,9.18-14.34,18.94-22.7,23.83a88.58,88.58,0,0,1,3-13.15C712.57,455.85,722.57,447.59,722.63,454.67Z" transform="translate(-52.62 -178.95)"/><path class="cls-3" d="M721,430.22q1.38-2.07,2.72-4c15.68-4.92,18-7,16.94-2.95C740,426.27,730,427.31,721,430.22Z" transform="translate(-52.62 -178.95)"/><path class="cls-3" d="M746.25,399.71c8.86-1.29,16.91-2.06,13.29.11-5.5,3.3-12.14,4.29-17.91,4.36C743.3,402.47,744.84,401,746.25,399.71Z" transform="translate(-52.62 -178.95)"/><path class="cls-3" d="M759.57,385.54c9.61-1.47,19.22-2.54,15.33-.2-5.4,3.24-11.9,4.26-17.6,4.35C757.93,388.59,758.69,387.17,759.57,385.54Z" transform="translate(-52.62 -178.95)"/><path class="cls-3" d="M775,363.34c3.66,1.92,7.22,4.53,5.67,6.94-1.71,2.65-5.9-.32-9.07-3.23C772.7,365.77,773.84,364.52,775,363.34Z" transform="translate(-52.62 -178.95)"/><path class="cls-3" d="M787.71,354.87c2.35-1.25,5-2.87,7.86-4.7,2.3,3.9,4.2,9.07,1.19,10.75S790.25,358.5,787.71,354.87Z" transform="translate(-52.62 -178.95)"/><path class="cls-3" d="M826.46,331.56a64,64,0,0,1,6.74-2.7c-1.44,5.87-3.39,11.31-4.67,11.93C827,341.53,826.16,337.13,826.46,331.56Z" transform="translate(-52.62 -178.95)"/><path class="cls-3" d="M808.09,353.17c-1.65-1,.64-7.35,3.2-13.19,1.3-.81,2.61-1.62,3.93-2.41C813.63,347.61,810.63,354.67,808.09,353.17Z" transform="translate(-52.62 -178.95)"/><path class="cls-4" d="M697.67,556.11l.26.07a1.68,1.68,0,0,0,1.94-1.37c15.24-87.75,55.13-142.34,85.91-172.69,33.3-32.82,63.29-45.06,63.59-45.18a1.68,1.68,0,0,0-1.25-3.12c-.31.12-30.92,12.62-64.7,45.91C752.3,410.42,712,465.61,696.56,554.24A1.68,1.68,0,0,0,697.67,556.11Z" transform="translate(-52.62 -178.95)"/><path class="cls-5" d="M680.74,707.63a1.92,1.92,0,0,0,2.16-1.45c20-80.81,60.61-111.61,91.18-123.23s62-7.3,77,3a1.93,1.93,0,1,0,2.19-3.19c-15.39-10.57-47.17-16.17-80.61-3.46-31.42,11.94-73.17,43.47-93.56,125.92a1.94,1.94,0,0,0,1.41,2.34Z" transform="translate(-52.62 -178.95)"/><path class="cls-5" d="M906.5,615s-52.65-41.24-61.28-35.65C836.31,585.1,906.5,615,906.5,615Z" transform="translate(-52.62 -178.95)"/><path class="cls-5" d="M909.74,581.57s-69.72-6.79-68.54-3.74S878.86,583.26,909.74,581.57Z" transform="translate(-52.62 -178.95)"/><path class="cls-5" d="M896.9,557.87a131.94,131.94,0,0,1-36.84,13.53c-20.81,4.14-30,4.81-30,4.81s16-9.14,29.14-12.11S896.9,557.87,896.9,557.87Z" transform="translate(-52.62 -178.95)"/><path class="cls-5" d="M881.48,538.35s-23.21,16.82-34.12,22.07-27.22,14.34-27.22,14.34,14.9-13.14,24.27-19.14S881.48,538.35,881.48,538.35Z" transform="translate(-52.62 -178.95)"/><path class="cls-5" d="M863.62,522.39s-15,20.29-25.12,29.25S812.21,571,812.21,571s12.64-17.39,20.92-25S863.62,522.39,863.62,522.39Z" transform="translate(-52.62 -178.95)"/><path class="cls-5" d="M844.35,513.72s-15.05,29.47-22.57,38.61S801,572,801,572s5.24-13.63,14.62-24.32S844.35,513.72,844.35,513.72Z" transform="translate(-52.62 -178.95)"/><path class="cls-5" d="M824.57,510.83s-6.59,22.89-16.83,39.45-17.6,24.62-17.6,24.62,7.68-21.37,15.14-32.34S824.57,510.83,824.57,510.83Z" transform="translate(-52.62 -178.95)"/><path class="cls-5" d="M805.18,511.92s-1.5,17.05-13.38,40.41S777,577.87,777,577.87s5.5-26.57,9.79-33.6S805.18,511.92,805.18,511.92Z" transform="translate(-52.62 -178.95)"/><path class="cls-5" d="M786.39,513.42s-1,24.62-7.22,38.37-13.45,31.93-13.45,31.93,2.71-23.06,6.83-35.66S786.39,513.42,786.39,513.42Z" transform="translate(-52.62 -178.95)"/><path class="cls-5" d="M766,515a90.64,90.64,0,0,1-1.07,40.9c-5.81,22-6.87,32.24-6.87,32.24s-.08-24.78.67-34.44S766,515,766,515Z" transform="translate(-52.62 -178.95)"/><path class="cls-5" d="M749.84,522.76s3.82,20.75,2.59,35.89-4.83,33.18-4.83,33.18-3.42-16.79-3.15-32.06S749.84,522.76,749.84,522.76Z" transform="translate(-52.62 -178.95)"/><path class="cls-5" d="M733.81,529.9s7.13,13.72,6.56,37.75S739,602,739,602s-4.54-22.49-5.28-35.31S733.81,529.9,733.81,529.9Z" transform="translate(-52.62 -178.95)"/><path class="cls-5" d="M717,540s8.15,13.41,9.42,29.23,3.4,41.56,3.4,41.56-7.76-22.8-9.76-35.89S717,540,717,540Z" transform="translate(-52.62 -178.95)"/><path class="cls-5" d="M705.21,551.77s5.59,6.35,10.58,30.22,4.87,38.18,4.87,38.18-7-21.54-11.56-34.76S705.21,551.77,705.21,551.77Z" transform="translate(-52.62 -178.95)"/><path class="cls-5" d="M690.53,565.27s5.33,3.71,12,25.21,11.1,42.35,11.1,42.35-8.52-19.82-14.86-36.71A158,158,0,0,1,690.53,565.27Z" transform="translate(-52.62 -178.95)"/><path class="cls-5" d="M681.17,584.76s8.21,1.85,14.58,23,12.44,35.38,12.44,35.38-15.53-23.12-19-33.07S681.17,584.76,681.17,584.76Z" transform="translate(-52.62 -178.95)"/><path class="cls-5" d="M671.29,599s12.41,10.94,20.17,24.78a146.29,146.29,0,0,1,11.83,28.44s-15.46-16.92-21.43-27.4S671.29,599,671.29,599Z" transform="translate(-52.62 -178.95)"/><path class="cls-5" d="M699.06,663.29s-2.43-10.13-13.42-26.39-19.74-18.84-19.74-18.84,6.26,10.68,16.21,25.17S699.06,663.29,699.06,663.29Z" transform="translate(-52.62 -178.95)"/><path class="cls-5" d="M695.42,677.1s-6.92-19.58-17.3-26.63a159,159,0,0,1-16.7-12.86s11.35,18.27,15.54,20.83S695.42,677.1,695.42,677.1Z" transform="translate(-52.62 -178.95)"/><path class="cls-5" d="M840.69,581.14s11.57,23.66,17.57,31.71,23.56,28.36,23.56,28.36S868,617.52,861.77,607.65,840.69,581.14,840.69,581.14Z" transform="translate(-52.62 -178.95)"/><path class="cls-5" d="M830,576.21s14.67,26.84,18,32.87,11.52,23.83,11.12,28.83-16.39-23.41-19-28.35S830,576.21,830,576.21Z" transform="translate(-52.62 -178.95)"/><path class="cls-5" d="M821.74,575s5.77,9.58,11,29.25,9.47,37.87,9.47,37.87S827,612.74,825.89,604.65,821.74,575,821.74,575Z" transform="translate(-52.62 -178.95)"/><path class="cls-5" d="M807.86,574.08s7.49,8.94,14.84,30.11a188.24,188.24,0,0,1,9.09,38s-16.25-33.65-17.55-41.5S807.86,574.08,807.86,574.08Z" transform="translate(-52.62 -178.95)"/><path class="cls-5" d="M793,575.32c5,5.62,14.5,19,16.81,25.58s14.57,38.62,14.57,38.62S810,615.6,803.68,602.78A207.38,207.38,0,0,1,793,575.32Z" transform="translate(-52.62 -178.95)"/><path class="cls-5" d="M780.51,578.38a172.22,172.22,0,0,1,20.85,31.39c9.66,18.68,14.08,28.45,14.08,28.45s-19.11-27.54-24.53-37.3A219,219,0,0,1,780.51,578.38Z" transform="translate(-52.62 -178.95)"/><path class="cls-5" d="M765.72,583.72a87.84,87.84,0,0,1,22.69,23.19c10.18,15.16,22.12,33.85,22.12,33.85s-29.43-28.4-33.92-35.57S765.72,583.72,765.72,583.72Z" transform="translate(-52.62 -178.95)"/><path class="cls-5" d="M751.11,592.35s13,4.5,24.82,17.46,27.66,32.71,27.66,32.71-27.16-22.7-33.71-29.19S751.11,592.35,751.11,592.35Z" transform="translate(-52.62 -178.95)"/><path class="cls-5" d="M742.25,600.18a69.58,69.58,0,0,1,27.8,16.43c13.15,12.67,28,25.09,28,25.09s-33.36-17.08-36.45-20.46Z" transform="translate(-52.62 -178.95)"/><path class="cls-5" d="M732.12,610.84s19.83,7,27.72,13.24S790,647.22,790,647.22s-28.39-14.48-35.12-19.09S732.12,610.84,732.12,610.84Z" transform="translate(-52.62 -178.95)"/><path class="cls-5" d="M784.81,652s-24.88-18.94-37.11-23.65a242,242,0,0,0-24.17-7.76,164.33,164.33,0,0,0,23.17,14.62C758.36,641,784.81,652,784.81,652Z" transform="translate(-52.62 -178.95)"/><path class="cls-5" d="M778.52,654.67s-27.61-14.78-37-17.78-24.65-6-24.65-6S740.79,645.26,778.52,654.67Z" transform="translate(-52.62 -178.95)"/><path class="cls-5" d="M774.58,658.33s-26.19-9.48-47.24-14.7-17.55-.28-17.55-.28S742.94,655.35,774.58,658.33Z" transform="translate(-52.62 -178.95)"/><path class="cls-5" d="M764.87,661.15s-17.58-5.34-30.28-8.4-29.58,1-29.58,1,20.31,5.24,28.55,6.12S764.87,661.15,764.87,661.15Z" transform="translate(-52.62 -178.95)"/><path class="cls-5" d="M759.09,667.48A136.71,136.71,0,0,0,728.53,663a91.14,91.14,0,0,0-30,4.09s27.18,1.36,32.47.82S759.09,667.48,759.09,667.48Z" transform="translate(-52.62 -178.95)"/><path class="cls-5" d="M746.4,676.06s-14.57-5.06-25.24-5.64S697.21,676,697.21,676s18.93.08,24.66-.39C731.38,674.81,746.4,676.06,746.4,676.06Z" transform="translate(-52.62 -178.95)"/><path class="cls-2" d="M687.52,272.59S703,248.17,679.4,231s-40.17-9.42-40.17-9.42S638.39,278.31,687.52,272.59Z" transform="translate(-52.62 -178.95)"/><path class="cls-6" d="M694.79,285.41a.78.78,0,0,0,.22,0,.85.85,0,0,0,.58-1c-5.72-20.34-38-50.66-39.36-51.94a.83.83,0,0,0-1.18,0,.85.85,0,0,0,0,1.18c.34.31,33.3,31.28,38.89,51.17A.84.84,0,0,0,694.79,285.41Z" transform="translate(-52.62 -178.95)"/><path class="cls-2" d="M701.55,262.65s-9.72-15.31,5.09-26.08,25.19-5.91,25.19-5.91S732.36,266.24,701.55,262.65Z" transform="translate(-52.62 -178.95)"/><path class="cls-7" d="M697,270.7l-.13,0a.52.52,0,0,1-.36-.65c3.58-12.76,23.82-31.77,24.68-32.58a.53.53,0,0,1,.74,0,.52.52,0,0,1,0,.74c-.21.19-20.89,19.62-24.39,32.1A.54.54,0,0,1,697,270.7Z" transform="translate(-52.62 -178.95)"/><path class="cls-3" d="M201.28,277.29s-29.06-13.41-17.41-43.55,31.71-32.86,31.71-32.86S250.4,253.13,201.28,277.29Z" transform="translate(-52.62 -178.95)"/><path class="cls-8" d="M202.21,293.58l-.22.1a.93.93,0,0,1-1.16-.61c-6.89-22.35,4.93-69.91,5.44-71.92a.91.91,0,0,1,1.12-.67.92.92,0,0,1,.67,1.12c-.12.48-12.2,49.07-5.46,70.92A1,1,0,0,1,202.21,293.58Z" transform="translate(-52.62 -178.95)"/><path class="cls-2" d="M130.21,578.76s38-41.2-1.58-81.57S54.5,466.05,54.5,466.05,33.74,573.4,130.21,578.76Z" transform="translate(-52.62 -178.95)"/><path class="cls-9" d="M90.79,527.79c-25.59-31.4-32.46-53.21-34.29-62.12-1.29.2-2,.38-2,.38s-.19,1-.44,2.73c2.55,10.45,10.38,31.42,34.38,60.87,21.16,26,34,41.16,40.83,49.05.32,0,.62,0,.94.06,0,0,.58-.63,1.52-1.8C125,569.16,112.11,554,90.79,527.79Z" transform="translate(-52.62 -178.95)"/><path class="cls-1" d="M228.58,652.08S247.86,572.5,168.92,548s-116.3,11.35-116.3,11.35S102.07,712.19,228.58,652.08Z" transform="translate(-52.62 -178.95)"/><path class="cls-9" d="M142.41,613.73C87.67,591,63.52,567.66,54.88,557.44c-1.49,1.15-2.26,1.88-2.26,1.88s.45,1.38,1.36,3.82c10.64,11.71,35.42,33.32,86.76,54.62,45.26,18.78,72.37,29.44,86.6,34.88.41-.2.82-.37,1.24-.56,0,0,.29-1.22.66-3.39C215.16,643.31,188,632.65,142.41,613.73Z" transform="translate(-52.62 -178.95)"/><path class="cls-10" d="M468.75,343.1A1.68,1.68,0,0,1,466.8,342c-21.66-69.42-58.71-94.16-86-102.68s-54.44-3.12-67,6.68a1.69,1.69,0,0,1-2.08-2.67c12.87-10,40.29-16.57,70.11-7.24,28,8.77,66.09,34.08,88.18,104.91a1.68,1.68,0,0,1-1.1,2.11Z" transform="translate(-52.62 -178.95)"/><path class="cls-2" d="M267,274.13s43.75-38.71,51.57-34.29C326.68,244.4,267,274.13,267,274.13Z" transform="translate(-52.62 -178.95)"/><path class="cls-2" d="M262.46,245.16s60.45-9.56,59.57-6.84S289.48,245,262.46,245.16Z" transform="translate(-52.62 -178.95)"/><path class="cls-2" d="M272.42,223.82a114.86,114.86,0,0,0,32.83,9.87c18.36,2.52,26.44,2.62,26.44,2.62s-14.43-7.12-26-9S272.42,223.82,272.42,223.82Z" transform="translate(-52.62 -178.95)"/><path class="cls-2" d="M284.84,206s21.12,13.45,30.91,17.46,24.49,11.08,24.49,11.08-13.68-10.69-22.17-15.42S284.84,206,284.84,206Z" transform="translate(-52.62 -178.95)"/><path class="cls-2" d="M299.58,191.14s14.16,16.91,23.44,24.19S347,230.87,347,230.87,335,216.38,327.41,210.15,299.58,191.14,299.58,191.14Z" transform="translate(-52.62 -178.95)"/><path class="cls-2" d="M315.93,182.57s14.66,24.91,21.7,32.49,19.15,16,19.15,16-5.28-11.61-14-20.44S315.93,182.57,315.93,182.57Z" transform="translate(-52.62 -178.95)"/><path class="cls-2" d="M333,179s7,19.61,16.74,33.52,16.63,20.54,16.63,20.54-7.81-18.23-14.89-27.4S333,179,333,179Z" transform="translate(-52.62 -178.95)"/><path class="cls-2" d="M350,179s2.2,14.79,13.78,34.54S378,235,378,235s-6.19-22.88-10.29-28.79S350,179,350,179Z" transform="translate(-52.62 -178.95)"/><path class="cls-2" d="M366.45,179.27s2.15,21.42,8.31,33.09,13.4,27.14,13.4,27.14-3.57-20-7.82-30.74S366.45,179.27,366.45,179.27Z" transform="translate(-52.62 -178.95)"/><path class="cls-2" d="M384.35,179.59a79.19,79.19,0,0,0,3.08,35.61c6.21,18.85,7.68,27.75,7.68,27.75s-1.23-21.61-2.39-30S384.35,179.59,384.35,179.59Z" transform="translate(-52.62 -178.95)"/><path class="cls-2" d="M398.82,185.5s-2.25,18.31-.38,31.44,5.95,28.68,5.95,28.68,2.1-14.82,1.07-28.12S398.82,185.5,398.82,185.5Z" transform="translate(-52.62 -178.95)"/><path class="cls-2" d="M413.17,190.89s-5.5,12.34-3.74,33.26,3,29.87,3,29.87,2.79-19.85,2.76-31.07S413.17,190.89,413.17,190.89Z" transform="translate(-52.62 -178.95)"/><path class="cls-2" d="M428.33,198.8s-6.4,12.11-6.69,26-.78,36.41-.78,36.41,5.57-20.28,6.63-31.8S428.33,198.8,428.33,198.8Z" transform="translate(-52.62 -178.95)"/><path class="cls-2" d="M439.26,208.47s-4.55,5.83-7.65,26.9-2.24,33.55-2.24,33.55,4.94-19.15,8.25-30.91S439.26,208.47,439.26,208.47Z" transform="translate(-52.62 -178.95)"/><path class="cls-2" d="M452.76,219.47s-4.45,3.52-9.12,22.61-7.46,37.51-7.46,37.51,6.39-17.72,11-32.78A137.06,137.06,0,0,0,452.76,219.47Z" transform="translate(-52.62 -178.95)"/><path class="cls-2" d="M461.94,236s-7.05,2-11.5,20.8-9,31.5-9,31.5,12.33-21,14.81-29.83S461.94,236,461.94,236Z" transform="translate(-52.62 -178.95)"/><path class="cls-2" d="M471.31,247.85S461.05,258,455,270.5a127.77,127.77,0,0,0-8.82,25.43s12.59-15.56,17.25-25S471.31,247.85,471.31,247.85Z" transform="translate(-52.62 -178.95)"/><path class="cls-2" d="M450.46,305.4s1.59-9,10.32-23.72S477,264.21,477,264.21s-4.9,9.65-12.82,22.8S450.46,305.4,450.46,305.4Z" transform="translate(-52.62 -178.95)"/><path class="cls-2" d="M454.36,317.25s5-17.44,13.69-24.13A140.59,140.59,0,0,0,481.94,281s-8.94,16.52-12.46,19S454.36,317.25,454.36,317.25Z" transform="translate(-52.62 -178.95)"/><path class="cls-2" d="M322.65,241.17S313.8,262.41,309,269.74s-19.06,26-19.06,26,10.83-21.38,15.73-30.31S322.65,241.17,322.65,241.17Z" transform="translate(-52.62 -178.95)"/><path class="cls-2" d="M331.69,236.31s-11.38,24.18-14,29.61-8.79,21.39-8.18,25.72,13.06-21.26,15.05-25.71S331.69,236.31,331.69,236.31Z" transform="translate(-52.62 -178.95)"/><path class="cls-2" d="M338.86,234.82s-4.54,8.66-8.11,26.09-6.28,33.52-6.28,33.52S336.25,268,336.79,260.9,338.86,234.82,338.86,234.82Z" transform="translate(-52.62 -178.95)"/><path class="cls-2" d="M350.91,233.3s-6.07,8.19-11.36,27A164.13,164.13,0,0,0,333.61,294s12.41-30.2,13.13-37.11S350.91,233.3,350.91,233.3Z" transform="translate(-52.62 -178.95)"/><path class="cls-2" d="M363.92,233.6c-4.11,5.17-11.64,17.38-13.31,23.19s-10.69,34.44-10.69,34.44,11.34-21.62,16.14-33.12A182,182,0,0,0,363.92,233.6Z" transform="translate(-52.62 -178.95)"/><path class="cls-2" d="M375,235.62a150.52,150.52,0,0,0-16.53,28.46c-7.45,16.79-10.8,25.54-10.8,25.54s15.23-25,19.44-33.8A189.92,189.92,0,0,0,375,235.62Z" transform="translate(-52.62 -178.95)"/><path class="cls-2" d="M388.16,239.5a76.54,76.54,0,0,0-18.57,21.4c-8.08,13.76-17.51,30.68-17.51,30.68s24.17-26.3,27.71-32.79S388.16,239.5,388.16,239.5Z" transform="translate(-52.62 -178.95)"/><path class="cls-2" d="M401.36,246.25a58.8,58.8,0,0,0-20.74,16.54c-9.61,11.92-22.4,30-22.4,30s22.49-21.21,27.86-27.21S401.36,246.25,401.36,246.25Z" transform="translate(-52.62 -178.95)"/><path class="cls-2" d="M409.49,252.62a60.71,60.71,0,0,0-23.39,15.79C375.31,280.14,363,291.75,363,291.75s28.2-16.64,30.71-19.75Z" transform="translate(-52.62 -178.95)"/><path class="cls-2" d="M418.88,261.39s-16.92,7.17-23.48,13-25.12,21.76-25.12,21.76,24-14.12,29.63-18.49S418.88,261.39,418.88,261.39Z" transform="translate(-52.62 -178.95)"/><path class="cls-2" d="M375.09,300s20.71-17.82,31.12-22.57a213.21,213.21,0,0,1,20.67-8,143.23,143.23,0,0,1-19.44,14C397.58,289,375.09,300,375.09,300Z" transform="translate(-52.62 -178.95)"/><path class="cls-2" d="M380.71,302S404,287.71,412.1,284.59,433.27,278,433.27,278,413.12,291.86,380.71,302Z" transform="translate(-52.62 -178.95)"/><path class="cls-2" d="M384.34,305s22.34-9.64,40.43-15.29,15.29-1.16,15.29-1.16S411.78,300.77,384.34,305Z" transform="translate(-52.62 -178.95)"/><path class="cls-2" d="M393,307s15.05-5.57,26-8.91,25.84-.69,25.84-.69-17.43,5.64-24.57,6.83S393,307,393,307Z" transform="translate(-52.62 -178.95)"/><path class="cls-2" d="M398.33,312.19a119.77,119.77,0,0,1,26.41-5.48,79.54,79.54,0,0,1,26.4,2s-23.62,2.6-28.26,2.41S398.33,312.19,398.33,312.19Z" transform="translate(-52.62 -178.95)"/><path class="cls-2" d="M409.84,319s12.45-5.18,21.72-6.24,21.18,3.61,21.18,3.61-16.51,1.05-21.53.94C422.88,317.13,409.84,319,409.84,319Z" transform="translate(-52.62 -178.95)"/><path class="cls-11" d="M118.69,233.83c8.25.23,14.73,7.45,14.73,7.45s-6.88,6.83-15.12,6.6-14.73-7.45-14.73-7.45S110.45,233.6,118.69,233.83Z" transform="translate(-52.62 -178.95)"/><path class="cls-11" d="M130.9,250.14c8.24.23,14.73,7.45,14.73,7.45s-6.88,6.83-15.13,6.6-14.73-7.45-14.73-7.45S122.65,249.91,130.9,250.14Z" transform="translate(-52.62 -178.95)"/><path class="cls-11" d="M138.37,267c8-2,16.19,3.21,16.19,3.21s-4.79,8.44-12.79,10.43-16.19-3.21-16.19-3.21S130.37,269,138.37,267Z" transform="translate(-52.62 -178.95)"/><path class="cls-11" d="M150.56,284.2c6.42-1.6,13,2.58,13,2.58s-3.85,6.77-10.28,8.37-13-2.58-13-2.58S144.13,285.8,150.56,284.2Z" transform="translate(-52.62 -178.95)"/><path class="cls-11" d="M160,301.36c6.43-1.6,13,2.58,13,2.58s-3.85,6.77-10.27,8.37-13-2.58-13-2.58S153.58,303,160,301.36Z" transform="translate(-52.62 -178.95)"/><path class="cls-11" d="M138.21,218.91c.06,8.25-6.93,15-6.93,15s-7.07-6.64-7.12-14.89,6.93-15,6.93-15S138.16,210.66,138.21,218.91Z" transform="translate(-52.62 -178.95)"/><path class="cls-11" d="M151.63,234.7c-2.14,8-10.66,12.6-10.66,12.6s-5.05-8.28-2.91-16.25,10.66-12.6,10.66-12.6S153.77,226.73,151.63,234.7Z" transform="translate(-52.62 -178.95)"/><path class="cls-11" d="M164.53,251.93c-2.14,8-10.67,12.6-10.67,12.6s-5.05-8.28-2.91-16.25,10.67-12.6,10.67-12.6S166.67,244,164.53,251.93Z" transform="translate(-52.62 -178.95)"/><path class="cls-11" d="M176.4,271.36c-4.72,6.76-14.31,8.22-14.31,8.22s-1.94-9.5,2.78-16.26,14.32-8.23,14.32-8.23S181.12,264.6,176.4,271.36Z" transform="translate(-52.62 -178.95)"/><path class="cls-11" d="M185.66,290.12c-5.87,5.81-15.56,5.52-15.56,5.52s-.2-9.7,5.66-15.5,15.56-5.52,15.56-5.52S191.52,284.32,185.66,290.12Z" transform="translate(-52.62 -178.95)"/><path class="cls-11" d="M179.47,327.62a1.3,1.3,0,0,1-1,.18,2.08,2.08,0,0,1-1.55-1.94c0-.23-.59-18.42-20.68-50.32-20.35-32.33-38.15-49.93-38.32-50.11a1.8,1.8,0,0,1-.35-2.33,1.41,1.41,0,0,1,2.13.1c.18.17,18.32,18.1,39,50.89C179.5,307.16,180,325.71,180,326.49A1.3,1.3,0,0,1,179.47,327.62Z" transform="translate(-52.62 -178.95)"/><path class="cls-11" d="M114.66,209.9c5.65,6,5.11,15.7,5.11,15.7s-9.7-.06-15.35-6.07-5.12-15.69-5.12-15.69S109,203.9,114.66,209.9Z" transform="translate(-52.62 -178.95)"/><path class="cls-5" d="M322.72,709.93a1.88,1.88,0,0,1-2.47-.55c-47-66.32-94.86-79.83-126.77-79.5-32.06.34-58.94,15.46-68.93,30.21a1.89,1.89,0,0,1-3.13-2.11c10.22-15.09,37.11-31.5,72-31.87,32.81-.35,82,13.44,129.89,81.09a1.89,1.89,0,0,1-.45,2.63Z" transform="translate(-52.62 -178.95)"/><path class="cls-5" d="M80.25,709.86s33.15-56.23,43-54.23C133.39,657.69,80.25,709.86,80.25,709.86Z" transform="translate(-52.62 -178.95)"/><path class="cls-5" d="M65.4,680.65s60.95-31,60.95-27.82S94.07,671.19,65.4,680.65Z" transform="translate(-52.62 -178.95)"/><path class="cls-5" d="M68.63,654.54a128.81,128.81,0,0,0,38.29-.83c20.39-3.66,29-6.33,29-6.33s-17.79-2.6-30.79-.62S68.63,654.54,68.63,654.54Z" transform="translate(-52.62 -178.95)"/><path class="cls-5" d="M75.68,631.31s27.09,7,38.87,7.9,29.85,3.33,29.85,3.33-18.22-6.64-28.87-8.75S75.68,631.31,75.68,631.31Z" transform="translate(-52.62 -178.95)"/><path class="cls-5" d="M86.23,610.44s20.87,13.09,33.25,17.63,30.8,8.26,30.8,8.26S132.6,625,122.35,621,86.23,610.44,86.23,610.44Z" transform="translate(-52.62 -178.95)"/><path class="cls-5" d="M100.64,595.69s24.18,21.42,34.27,27,25.89,10.44,25.89,10.44-9.62-10.51-22-16.89S100.64,595.69,100.64,595.69Z" transform="translate(-52.62 -178.95)"/><path class="cls-5" d="M117.6,586s14.14,18.45,29.34,29.85S171.71,632,171.71,632s-14.59-16.68-25.28-24S117.6,586,117.6,586Z" transform="translate(-52.62 -178.95)"/><path class="cls-5" d="M135.6,580.1s7.44,15,26.56,32S184.71,630,184.71,630s-14.47-22.18-20.87-27S135.6,580.1,135.6,580.1Z" transform="translate(-52.62 -178.95)"/><path class="cls-5" d="M153.21,574.77s9.66,22,20.23,32.3S197,631.29,197,631.29s-10.68-20-18.91-30S153.21,574.77,153.21,574.77Z" transform="translate(-52.62 -178.95)"/><path class="cls-5" d="M172.34,568.93a88.44,88.44,0,0,0,15.55,36.78c13.1,17.89,17.73,26.85,17.73,26.85S196.87,610,192.73,601.5,172.34,568.93,172.34,568.93Z" transform="translate(-52.62 -178.95)"/><path class="cls-5" d="M189.75,570.23s3.93,20.22,10.44,33.54,16.22,28.43,16.22,28.43-2.88-16.47-8.57-30.26S189.75,570.23,189.75,570.23Z" transform="translate(-52.62 -178.95)"/><path class="cls-5" d="M206.86,571s-1.58,15,7.5,36.64,13.52,30.69,13.52,30.69-3.89-22.06-7.78-34S206.86,571,206.86,571Z" transform="translate(-52.62 -178.95)"/><path class="cls-5" d="M225.7,574.18s-2.62,15.09,1.86,29.92,11.72,39,11.72,39-1.08-23.48-3.92-36.08S225.7,574.18,225.7,574.18Z" transform="translate(-52.62 -178.95)"/><path class="cls-5" d="M240.65,580.69s-2.82,7.77,1.15,31.23S251,648.35,251,648.35s-1.35-22.05-1.88-35.7S240.65,580.69,240.65,580.69Z" transform="translate(-52.62 -178.95)"/><path class="cls-5" d="M258.8,587.73s-3.52,5.27-1.9,27.17,5,42.44,5,42.44.68-21,.42-38.65A153.81,153.81,0,0,0,258.8,587.73Z" transform="translate(-52.62 -178.95)"/><path class="cls-5" d="M274.25,602.11s-6.8,4.6-5.06,26.08,1.3,36.58,1.3,36.58S276.37,638.22,276,628,274.25,602.11,274.25,602.11Z" transform="translate(-52.62 -178.95)"/><path class="cls-5" d="M288.29,611.49s-7.39,14.36-9.51,29.7a142.16,142.16,0,0,0-.6,30.06s8-20.88,9.7-32.53S288.29,611.49,288.29,611.49Z" transform="translate(-52.62 -178.95)"/><path class="cls-5" d="M286,679.85s-1.4-10.08,2.79-28.77S300,626.92,300,626.92s-1.88,12-5.76,28.65S286,679.85,286,679.85Z" transform="translate(-52.62 -178.95)"/><path class="cls-5" d="M294.21,691.1s-.69-20.26,6.23-30.37A157.12,157.12,0,0,0,311,643.09s-3.8,20.65-6.7,24.47S294.21,691.1,294.21,691.1Z" transform="translate(-52.62 -178.95)"/><path class="cls-5" d="M128,655.65s-2.08,25.63-4.66,35.08S112,724.9,112,724.9s4.14-26.46,6.27-37.64S128,655.65,128,655.65Z" transform="translate(-52.62 -178.95)"/><path class="cls-5" d="M135.92,647.38s-3.76,29.61-4.66,36.29-2,25.76.17,30.16,6.55-27.11,7.14-32.52S135.92,647.38,135.92,647.38Z" transform="translate(-52.62 -178.95)"/><path class="cls-5" d="M143,643.32s-1.83,10.77.38,30.52,4.89,37.79,4.89,37.79,3.41-32.14,1.53-39.88S143,643.32,143,643.32Z" transform="translate(-52.62 -178.95)"/><path class="cls-5" d="M155.32,637.55s-3.63,10.79-2.76,32.64A183.92,183.92,0,0,0,157.85,708s2.78-36.37,1.16-44S155.32,637.55,155.32,637.55Z" transform="translate(-52.62 -178.95)"/><path class="cls-5" d="M169.25,633.38c-2.59,6.91-6.38,22.48-6.16,29.23s.52,40.29.52,40.29,4.59-26.88,5.73-40.76A202.71,202.71,0,0,0,169.25,633.38Z" transform="translate(-52.62 -178.95)"/><path class="cls-5" d="M181.7,631.71a168,168,0,0,0-7.76,35.95c-2.12,20.41-2.66,30.87-2.66,30.87s7.55-31.83,9-42.63A213.28,213.28,0,0,0,181.7,631.71Z" transform="translate(-52.62 -178.95)"/><path class="cls-5" d="M197,631.29a85.79,85.79,0,0,0-12.36,29.15c-3.83,17.41-8,38.65-8,38.65s16.62-36.3,18.15-44.42S197,631.29,197,631.29Z" transform="translate(-52.62 -178.95)"/><path class="cls-5" d="M213.4,633.92a65.58,65.58,0,0,0-16.34,24.72c-6.1,16-13.48,39.57-13.48,39.57s16.6-30.3,20.23-38.53S213.4,633.92,213.4,633.92Z" transform="translate(-52.62 -178.95)"/><path class="cls-5" d="M224.24,637.88a67.91,67.91,0,0,0-19.41,24.84c-7.43,16.2-16.46,32.76-16.46,32.76s24.22-27.4,25.83-31.58S224.24,637.88,224.24,637.88Z" transform="translate(-52.62 -178.95)"/><path class="cls-5" d="M237.24,644s-15.51,13.46-20.47,21.91-19.19,31.79-19.19,31.79,20.64-23.28,25.11-29.86S237.24,644,237.24,644Z" transform="translate(-52.62 -178.95)"/><path class="cls-5" d="M204,700.14s15.86-26.08,25.29-34.72a239,239,0,0,1,19.2-15.66,160.25,160.25,0,0,1-15.84,21.54C224.14,680.7,204,700.14,204,700.14Z" transform="translate(-52.62 -178.95)"/><path class="cls-5" d="M210.69,700.32S230.52,677.06,238,671s20.25-14.27,20.25-14.27S241.63,678.33,210.69,700.32Z" transform="translate(-52.62 -178.95)"/><path class="cls-5" d="M215.58,702.25s20.42-18,37.69-30.2,15.85-6.5,15.85-6.5S243.27,688.26,215.58,702.25Z" transform="translate(-52.62 -178.95)"/><path class="cls-5" d="M225.41,701.35s14.07-11.11,24.52-18.43,27.23-9.64,27.23-9.64-16.59,12-23.76,15.73S225.41,701.35,225.41,701.35Z" transform="translate(-52.62 -178.95)"/><path class="cls-5" d="M232.92,705a133.69,133.69,0,0,1,26.18-14.93,88.91,88.91,0,0,1,28.75-7S263.64,694,258.64,695.44,232.92,705,232.92,705Z" transform="translate(-52.62 -178.95)"/><path class="cls-5" d="M247.5,708.32s11.45-9.79,20.94-14.12,23.74-3.47,23.74-3.47-17.17,6.81-22.55,8.42C260.71,701.83,247.5,708.32,247.5,708.32Z" transform="translate(-52.62 -178.95)"/><path class="cls-11" d="M785.14,305.62C774.85,308.16,768.68,319,768.68,319s10.5,6.7,20.79,4.16,16.46-13.37,16.46-13.37S795.43,303.08,785.14,305.62Z" transform="translate(-52.62 -178.95)"/><path class="cls-11" d="M774.27,329.42C764,332,757.81,342.79,757.81,342.79s10.5,6.71,20.79,4.16,16.46-13.36,16.46-13.36S784.55,326.88,774.27,329.42Z" transform="translate(-52.62 -178.95)"/><path class="cls-11" d="M769.49,352.66c-10.59-.32-19.45,8.45-19.45,8.45s8.32,9.28,18.91,9.6,19.45-8.45,19.45-8.45S780.08,353,769.49,352.66Z" transform="translate(-52.62 -178.95)"/><path class="cls-11" d="M758.88,377.55c-8.51-.26-15.62,6.78-15.62,6.78s6.68,7.46,15.18,7.71,15.62-6.79,15.62-6.79S767.38,377.8,758.88,377.55Z" transform="translate(-52.62 -178.95)"/><path class="cls-11" d="M751.69,401.66c-8.5-.25-15.61,6.79-15.61,6.79s6.67,7.45,15.18,7.71,15.61-6.79,15.61-6.79S760.2,401.92,751.69,401.66Z" transform="translate(-52.62 -178.95)"/><path class="cls-11" d="M756.56,292.22c2.19,10.37,12.79,16.91,12.79,16.91s7.07-10.26,4.88-20.63-12.78-16.92-12.78-16.92S754.38,281.85,756.56,292.22Z" transform="translate(-52.62 -178.95)"/><path class="cls-11" d="M744,315.7c4.86,9.41,16.82,12.9,16.82,12.9s4.08-11.77-.78-21.19-16.82-12.9-16.82-12.9S739.17,306.28,744,315.7Z" transform="translate(-52.62 -178.95)"/><path class="cls-11" d="M732.54,340.85c4.86,9.41,16.82,12.9,16.82,12.9s4.08-11.77-.78-21.19-16.82-12.9-16.82-12.9S727.68,331.43,732.54,340.85Z" transform="translate(-52.62 -178.95)"/><path class="cls-11" d="M722.93,368.48c7.78,7.2,20.21,6.42,20.21,6.42s-.16-12.46-7.93-19.67S715,348.82,715,348.82,715.16,361.28,722.93,368.48Z" transform="translate(-52.62 -178.95)"/><path class="cls-11" d="M716.43,394.55c8.94,5.69,21,2.68,21,2.68s-2.4-12.22-11.35-17.91-21-2.68-21-2.68S707.49,388.87,716.43,394.55Z" transform="translate(-52.62 -178.95)"/><path class="cls-11" d="M734.43,439.94a1.61,1.61,0,0,0,1.27,0,2.67,2.67,0,0,0,1.42-2.86c0-.29-4.28-23.29,12.23-68.81,16.73-46.13,34.27-73.09,34.45-73.36a2.33,2.33,0,0,0-.2-3,1.83,1.83,0,0,0-2.65.7c-.18.27-18.06,27.72-35,74.52-17.11,47.19-12.66,70.62-12.47,71.59A1.7,1.7,0,0,0,734.43,439.94Z" transform="translate(-52.62 -178.95)"/><path class="cls-11" d="M783.68,274.48c-5.46,9.09-2.14,21.1-2.14,21.1s12.16-2.71,17.62-11.8,2.14-21.09,2.14-21.09S789.14,265.4,783.68,274.48Z" transform="translate(-52.62 -178.95)"/></g><g id="Layer_2" data-name="Layer 2"><path class="cls-12" d="M203,731.16H677.89c21.21,0,37.11-10.65,35.5-23.78L664.4,307c-1.6-13.13-20.1-23.78-41.32-23.78H148.23c-21.22,0-37.12,10.65-35.51,23.78l49,400.38C163.32,720.51,181.82,731.16,203,731.16Z" transform="translate(-52.62 -178.95)"/><polygon class="cls-2" points="133.57 522.81 636.23 522.81 588.68 134.13 86.02 134.13 133.57 522.81"/><path class="cls-13" d="M665.27,634.12l14.7-5-2.39-19.47-21.06,7.17c-5.67,1.93-12.4-2.5-13.28-8.75l-5.68-40.46a81.15,81.15,0,0,1,36.54,13.61l-6.91-56.52-6-2.34a2.73,2.73,0,0,0-3.51,1.13l-9.42,18.27a104.46,104.46,0,0,0-10.61-1.8l-7.13-21.55a3.6,3.6,0,0,0-3.3-2.45H615a2.53,2.53,0,0,0-2.61,2.45l-1.08,21.66a2,2,0,0,0,.06.34,90.55,90.55,0,0,0-9.78,2.11c0-.08-.07-.17-.13-.25l-14.69-18.44a3.33,3.33,0,0,0-3.83-1.12l-10.69,4.7a2.64,2.64,0,0,0-1.32,3.39l7.51,21.59c0,.09.11.16.15.25a78.91,78.91,0,0,0-7.86,5.66l-20-12.39a2.91,2.91,0,0,0-3.77.36L539.47,555a3,3,0,0,0,.18,3.82l14.65,17.85a80.5,80.5,0,0,0-5,8.93L528,581.26a2.6,2.6,0,0,0-3.14,1.79l-3.11,11.35a3.4,3.4,0,0,0,1.65,3.67L541.9,609.2a93.4,93.4,0,0,0-1.1,11.65L522,624.52a2.55,2.55,0,0,0-2,3l1.73,12.29a3.6,3.6,0,0,0,2.86,3l18.68,3.47a107.22,107.22,0,0,0,3.94,13.16l-13.49,9.76a2.77,2.77,0,0,0-.61,3.66l6.3,11.35a3.48,3.48,0,0,0,3.64,1.8l15.88-3.39a119.63,119.63,0,0,0,9.46,12.54l-3.62,6.7h55.68a86.73,86.73,0,0,1-8-3.86l22.43-38.28c3-5.06,10.51-5.06,14.89,0l33.74,38.9a64.37,64.37,0,0,1-5.9,3.24h11.28l-3.32-27.1-22.89-26.39C658.27,643.22,659.59,636.05,665.27,634.12Zm-47.14,15.22-21.77,37.14a85.18,85.18,0,0,1-17.61-22c-7.74-14-10.73-28.71-9.54-42.41l42.33,13.15C617.75,637.11,621.09,644.28,618.13,649.34Zm-4-31.87-41-12.73a57.28,57.28,0,0,1,30.75-32.19,62.46,62.46,0,0,1,15.31-4.48l5.72,40.65C625.81,615,620.33,619.4,614.11,617.47Z" transform="translate(-52.62 -178.95)"/><path class="cls-14" d="M200.63,694.45H892.57a34.63,34.63,0,0,1,34.63,34.63v8.4a13.85,13.85,0,0,1-13.85,13.85H179.85A13.85,13.85,0,0,1,166,737.48v-8.4A34.63,34.63,0,0,1,200.63,694.45Z" transform="translate(1040.58 1266.84) rotate(180)"/><rect class="cls-12" x="269" y="709.99" width="40.82" height="10.38" rx="4.42" transform="translate(526.21 1251.42) rotate(180)"/><rect class="cls-12" x="213.03" y="709.99" width="40.82" height="10.38" rx="4.42" transform="translate(414.26 1251.42) rotate(180)"/><g class="cls-15"><path class="cls-16" d="M595.68,710.71c0-9-5.29-16.26-11.81-16.26H915.39c6.53,0,11.81,7.28,11.81,16.26,0,22.43-13.21,40.63-29.52,40.63H566.16C582.46,751.34,595.68,733.14,595.68,710.71Z" transform="translate(-52.62 -178.95)"/><g class="cls-17"><path class="cls-12" d="M584.72,694.45v.06a7.91,7.91,0,0,0-.85-.06Z" transform="translate(-52.62 -178.95)"/><path class="cls-12" d="M591.16,732.31H886.8c15.61,0,28.38-16.68,29.44-37.8,6.13.6,11,7.61,11,16.2,0,22.43-13.21,40.63-29.52,40.63H566.16C576.69,751.34,585.93,743.74,591.16,732.31Z" transform="translate(-52.62 -178.95)"/></g><rect class="cls-12" x="883.77" y="698.98" width="27.75" height="8.31" rx="3.26" transform="translate(1742.67 1227.32) rotate(180)"/><path class="cls-12" d="M821.68,694.51l-.07.23c-2.13,7.55-7.4,12.52-13.29,12.52H761c-5.89,0-11.16-5-13.29-12.52l-.07-.23Z" transform="translate(-52.62 -178.95)"/></g><path class="cls-18" d="M400.85,298.68c.56,4.61,3.91,8.34,7.47,8.34s6-3.73,5.43-8.34-3.91-8.35-7.47-8.35S400.29,294.07,400.85,298.68Z" transform="translate(-52.62 -178.95)"/><path class="cls-19" d="M289,502.18,279.06,498a41.43,41.43,0,0,0-.26-7.85l9.68-5.29a1.6,1.6,0,0,0,.76-1.9l-2-6.23a1.61,1.61,0,0,0-1.72-1.1L274.84,477a41.92,41.92,0,0,0-4.15-6.68l5.73-9.41a1.61,1.61,0,0,0-.29-2l-4.86-4.38a1.59,1.59,0,0,0-2-.09l-8.58,6.49a42,42,0,0,0-6.93-3.73l.26-11a1.62,1.62,0,0,0-1.27-1.61l-6.4-1.37a1.61,1.61,0,0,0-1.81.94L240.31,454a40.61,40.61,0,0,0-7.85.25l-5.29-9.68a1.61,1.61,0,0,0-1.9-.76l-6.23,2a1.61,1.61,0,0,0-1.1,1.72l1.33,10.67a41.92,41.92,0,0,0-6.68,4.15l-9.42-5.73a1.6,1.6,0,0,0-2,.29l-4.39,4.86a1.6,1.6,0,0,0-.08,2l6.49,8.58a41.29,41.29,0,0,0-3.73,6.93l-11-.26a1.62,1.62,0,0,0-1.61,1.27l-1.37,6.4a1.6,1.6,0,0,0,.94,1.81l9.92,4.19a40.61,40.61,0,0,0,.25,7.85l-9.68,5.29a1.6,1.6,0,0,0-.76,1.9l2,6.23a1.61,1.61,0,0,0,1.72,1.1l10.67-1.33a41.48,41.48,0,0,0,4.15,6.68l-5.73,9.42a1.6,1.6,0,0,0,.29,2l4.86,4.39a1.61,1.61,0,0,0,2,.09l8.58-6.49a42,42,0,0,0,6.93,3.72l-.26,11a1.61,1.61,0,0,0,1.27,1.61l6.4,1.37a1.6,1.6,0,0,0,1.81-.94l4.19-9.91a41.43,41.43,0,0,0,7.85-.26l5.29,9.68a1.6,1.6,0,0,0,1.9.76l6.23-2a1.61,1.61,0,0,0,1.1-1.72l-1.33-10.67a41.22,41.22,0,0,0,6.68-4.15l9.42,5.73a1.6,1.6,0,0,0,2-.29L278.6,529a1.61,1.61,0,0,0,.09-2l-6.5-8.58a40.9,40.9,0,0,0,3.73-6.93l11,.26a1.6,1.6,0,0,0,1.61-1.27l1.37-6.4A1.6,1.6,0,0,0,289,502.18Zm-30.05-2.26a21.72,21.72,0,1,1-16.68-25.8A21.72,21.72,0,0,1,258.92,499.92Z" transform="translate(-52.62 -178.95)"/><path class="cls-12" d="M243.69,433.94H108.3a14.48,14.48,0,0,1-13.89-12.18l-7.48-53.21A10.34,10.34,0,0,1,97.4,356.36H232.78a14.51,14.51,0,0,1,13.9,12.19l7.48,53.21A10.35,10.35,0,0,1,243.69,433.94Z" transform="translate(-52.62 -178.95)"/><path class="cls-14" d="M249.11,427.43H113.73a14.51,14.51,0,0,1-13.9-12.19L92.36,362a10.34,10.34,0,0,1,10.47-12.18H238.21A14.5,14.5,0,0,1,252.11,362l7.47,53.21A10.34,10.34,0,0,1,249.11,427.43Z" transform="translate(-52.62 -178.95)"/><path class="cls-20" d="M252,362.47a16.2,16.2,0,0,0-2.41-6.41c-11.65,3.22-15,37.62-28.21,36.06-13.78-1.62-17.93-18.56-40.83-13.69-15.16,3.23-13.58,29.22-27.13,29.29S136,395.53,106.86,394a21.11,21.11,0,0,0-9.76,1.83l2.73,19.44a14.51,14.51,0,0,0,13.9,12.19H249.11a10.25,10.25,0,0,0,10.58-10.09Z" transform="translate(-52.62 -178.95)"/><path class="cls-16" d="M735.05,605.26H271.16c-10.13,0-19.32-7.63-20.53-17l-37.1-297.94c-1.21-9.4,6-17,16.15-17h463.9c10.12,0,19.31,7.62,20.52,17l37.1,297.94C752.41,597.63,745.18,605.26,735.05,605.26Z" transform="translate(-52.62 -178.95)"/><path class="cls-3" d="M742.49,596.22H278.6c-10.13,0-19.32-7.62-20.52-17L221,281.26c-1.2-9.41,6-17,16.15-17H701c10.13,0,19.31,7.62,20.52,17l37.1,297.93C759.85,588.6,752.62,596.22,742.49,596.22Z" transform="translate(-52.62 -178.95)"/><path class="cls-12" d="M224.71,311.24H725.28l-3.74-30c-1.21-9.41-10.39-17-20.52-17H237.12c-10.12,0-17.35,7.62-16.15,17Z" transform="translate(-52.62 -178.95)"/><path class="cls-21" d="M259.72,286.93c.38,2.9-1.9,5.25-5.09,5.25a6.46,6.46,0,0,1-6.44-5.25c-.37-2.9,1.91-5.25,5.09-5.25A6.46,6.46,0,0,1,259.72,286.93Z" transform="translate(-52.62 -178.95)"/><ellipse class="cls-21" cx="272.84" cy="286.93" rx="5.09" ry="5.94" transform="translate(-154 237.34) rotate(-65.51)"/><path class="cls-21" d="M297.49,286.93c.38,2.9-1.9,5.25-5.09,5.25a6.46,6.46,0,0,1-6.44-5.25c-.37-2.9,1.91-5.25,5.09-5.25A6.46,6.46,0,0,1,297.49,286.93Z" transform="translate(-52.62 -178.95)"/><g class="cls-17"><path class="cls-16" d="M495.9,385H257.41a10.46,10.46,0,0,1-10-8.79h0a7.46,7.46,0,0,1,7.56-8.78H493.43a10.45,10.45,0,0,1,10,8.78h0A7.46,7.46,0,0,1,495.9,385Z" transform="translate(-52.62 -178.95)"/><path class="cls-16" d="M371.28,350.45H252.07a9.87,9.87,0,0,1-9.46-8.3h0a7,7,0,0,1,7.13-8.29h119.2a9.87,9.87,0,0,1,9.47,8.29h0A7,7,0,0,1,371.28,350.45Z" transform="translate(-52.62 -178.95)"/><path class="cls-16" d="M424.89,418.57H261.64a9.87,9.87,0,0,1-9.46-8.29h0a7,7,0,0,1,7.13-8.3H422.55a9.87,9.87,0,0,1,9.47,8.3h0A7,7,0,0,1,424.89,418.57Z" transform="translate(-52.62 -178.95)"/></g><g class="cls-17"><path class="cls-16" d="M519.67,578.17H720.74a6.87,6.87,0,0,0,7-8.1l-.19-1.38a9.63,9.63,0,0,0-9.23-8.09H517.2a6.87,6.87,0,0,0-7,8.09l.2,1.38A9.64,9.64,0,0,0,519.67,578.17Z" transform="translate(-52.62 -178.95)"/><path class="cls-16" d="M284,578.17H485.11a6.88,6.88,0,0,0,7-8.1l-.2-1.38a9.62,9.62,0,0,0-9.23-8.09H281.57a6.87,6.87,0,0,0-6.95,8.09l.19,1.38A9.64,9.64,0,0,0,284,578.17Z" transform="translate(-52.62 -178.95)"/><path class="cls-16" d="M594.42,545.71H713.63a7,7,0,0,0,7.13-8.3h0a9.88,9.88,0,0,0-9.46-8.3H592.09a7,7,0,0,0-7.13,8.3h0A9.87,9.87,0,0,0,594.42,545.71Z" transform="translate(-52.62 -178.95)"/><path class="cls-16" d="M424.66,545.71H553c4.93,0,8.36-3.72,7.67-8.3h0c-.69-4.58-5.25-8.3-10.18-8.3H422.15c-4.93,0-8.37,3.72-7.68,8.3h0C415.17,542,419.73,545.71,424.66,545.71Z" transform="translate(-52.62 -178.95)"/><path class="cls-16" d="M561.5,513.73H707.94c5.63,0,9.55-3.71,8.76-8.29h0c-.79-4.58-6-8.3-11.62-8.3H558.64c-5.63,0-9.55,3.72-8.76,8.3h0C550.67,510,555.87,513.73,561.5,513.73Z" transform="translate(-52.62 -178.95)"/></g><path class="cls-16" d="M702.14,460.86H555.61c-9.1,0-17.53-7.39-18.81-16.48l-7.11-50.58a15,15,0,0,1,3.37-12.08,14.67,14.67,0,0,1,11.29-5H690.89c9.09,0,17.53,7.39,18.81,16.48l7.11,50.59a14.92,14.92,0,0,1-3.37,12.07A14.68,14.68,0,0,1,702.14,460.86Zm-157.79-80.1a10.74,10.74,0,0,0-8.27,3.58,11,11,0,0,0-2.43,8.9l7.11,50.59a15.51,15.51,0,0,0,14.85,13H702.14a10.75,10.75,0,0,0,8.28-3.58,11,11,0,0,0,2.43-8.9l-7.11-50.58a15.52,15.52,0,0,0-14.85-13Z" transform="translate(-52.62 -178.95)"/><path class="cls-16" d="M744.34,404.85,599.93,429.71A17.56,17.56,0,0,1,580.84,418l-15.59-48.65c-2.51-7.84,2-15.31,10-16.7l144.4-24.86a17.57,17.57,0,0,1,19.1,11.69l15.59,48.65C756.85,396,752.37,403.46,744.34,404.85Z" transform="translate(-52.62 -178.95)"/><path class="cls-14" d="M662.11,413.63l39.7-37.31c3-2.86,1.54-7.51-2.91-9.08l-58.21-20.46c-5.22-1.83-10.44,1.84-9,6.34l18.51,57.77C651.65,415.39,658.55,417,662.11,413.63Z" transform="translate(-52.62 -178.95)"/><path class="cls-11" d="M392,548.35H290.12a17.48,17.48,0,0,1-16.76-14.7l-10.77-76.58c-1.14-8.12,4.52-14.7,12.64-14.7H377.08a17.49,17.49,0,0,1,16.77,14.7l10.76,76.58C405.75,541.77,400.1,548.35,392,548.35Z" transform="translate(-52.62 -178.95)"/><ellipse class="cls-3" cx="301.2" cy="463.24" rx="11.06" ry="12.73" transform="translate(-295.65 188.73) rotate(-47.01)"/><path class="cls-16" d="M404.61,533.65l-4.69-33.39L374.6,474.82c-3.54-3.55-9.22-3.95-12.36-.87l-29.71,29.19c-2.82,2.77-7.77,2.77-11.37,0l-21.83-16.77c-3.35-2.57-7.91-2.77-10.82-.48l-19.68,15.53,4.53,32.23a17.48,17.48,0,0,0,16.76,14.7H392C400.1,548.35,405.75,541.77,404.61,533.65Z" transform="translate(-52.62 -178.95)"/><path class="cls-12" d="M539.48,492.26H459.19a14.74,14.74,0,0,1-14.14-12.4l-5.9-42a10.52,10.52,0,0,1,10.65-12.4h80.3a14.74,14.74,0,0,1,14.14,12.4l5.9,42A10.53,10.53,0,0,1,539.48,492.26Z" transform="translate(-52.62 -178.95)"/><path class="cls-22" d="M543,487.66H462.68a14.74,14.74,0,0,1-14.14-12.4l-5.9-42a10.52,10.52,0,0,1,10.65-12.4h80.3a14.74,14.74,0,0,1,14.14,12.4l5.9,42A10.53,10.53,0,0,1,543,487.66Z" transform="translate(-52.62 -178.95)"/><path class="cls-12" d="M484.07,468.3l-22.86-9.37a4.39,4.39,0,0,1-2.67-3.35l-.3-2.15a3.12,3.12,0,0,1,1.73-3.36l20.23-9.32c2.27-1.05,5.21.72,5.58,3.36l0,.09a3.12,3.12,0,0,1-1.88,3.42l-16.81,6.79,18.8,7.07a4.37,4.37,0,0,1,2.79,3.4v.06C489.08,467.58,486.63,469.35,484.07,468.3Z" transform="translate(-52.62 -178.95)"/><path class="cls-12" d="M493.29,472.47,497,434.73a2.44,2.44,0,0,1,2.5-2.22h.1a3.4,3.4,0,0,1,3.32,3.57l-3.83,37.74a2.44,2.44,0,0,1-2.5,2.21h0A3.4,3.4,0,0,1,493.29,472.47Z" transform="translate(-52.62 -178.95)"/><path class="cls-12" d="M510.53,465v-.05a3.11,3.11,0,0,1,1.85-3.41l16.84-7-18.79-6.93a4.39,4.39,0,0,1-2.81-3.41h0c-.37-2.63,2.07-4.4,4.63-3.36l22.88,9.33a4.4,4.4,0,0,1,2.68,3.36l.29,2.09a3.1,3.1,0,0,1-1.72,3.35l-20.25,9.39C513.85,469.37,510.9,467.6,510.53,465Z" transform="translate(-52.62 -178.95)"/><path class="cls-12" d="M616.66,299.91h-73.6c-7.5,0-14.44-5.67-15.49-12.65l-6-40c-1.06-7,4.17-12.65,11.68-12.65H606.8c7.51,0,14.44,5.66,15.5,12.65l6,40C629.39,294.24,624.16,299.91,616.66,299.91Z" transform="translate(-52.62 -178.95)"/><path class="cls-23" d="M619,296.49h-73.6c-7.5,0-14.44-5.67-15.49-12.65l-6-40c-1.06-7,4.17-12.65,11.67-12.65h73.6c7.5,0,14.44,5.66,15.5,12.65l6,40C631.69,290.82,626.46,296.49,619,296.49Z" transform="translate(-52.62 -178.95)"/><path class="cls-14" d="M536,264.59l-.23-1.53a2.17,2.17,0,0,1,1.78-2.47,3.57,3.57,0,0,0,.68-.2,3.27,3.27,0,0,0,1.45-1.47,5.79,5.79,0,0,0,.57-2.58,26.85,26.85,0,0,0-.4-4,30.74,30.74,0,0,1-.52-6.56,4.92,4.92,0,0,1,1.24-3,7.13,7.13,0,0,1,3.3-1.78,20.83,20.83,0,0,1,3-.3,3.62,3.62,0,0,1,3.73,2.88v0a2.51,2.51,0,0,1-2.34,2.87,3.9,3.9,0,0,0-.91.19,1.9,1.9,0,0,0-1.07.92,4,4,0,0,0-.07,2.12c.15,1,.37,3,.64,5.8a12.73,12.73,0,0,1-.09,3.89,6.43,6.43,0,0,1-1,2.46,8.75,8.75,0,0,1-2.29,2h0a11.15,11.15,0,0,1,2.81,1.93,9.31,9.31,0,0,1,1.9,2.68,19.11,19.11,0,0,1,1.31,4.22q.8,4,1,5.14a4.85,4.85,0,0,0,.75,2.23,3.07,3.07,0,0,0,1.41,1,4,4,0,0,0,.94.2,3.66,3.66,0,0,1,3.18,2.88v0a2.54,2.54,0,0,1-2.87,2.89,25.93,25.93,0,0,1-3.52-.37,9.11,9.11,0,0,1-3.43-1.73,7.33,7.33,0,0,1-2.18-3,26.75,26.75,0,0,1-1.29-5.61,26.57,26.57,0,0,0-1.29-5.8,6.28,6.28,0,0,0-2.15-2.77,5.4,5.4,0,0,0-1.7-.69A3.09,3.09,0,0,1,536,264.59Z" transform="translate(-52.62 -178.95)"/><path class="cls-14" d="M560.36,273.27h0a3,3,0,0,1,3.15-3.4h0a4.25,4.25,0,0,1,4.17,3.4h0a3,3,0,0,1-3.14,3.41h0A4.27,4.27,0,0,1,560.36,273.27Z" transform="translate(-52.62 -178.95)"/><path class="cls-14" d="M575.18,273.27h0a3,3,0,0,1,3.15-3.4h0a4.26,4.26,0,0,1,4.17,3.4h0a3,3,0,0,1-3.15,3.41h0A4.26,4.26,0,0,1,575.18,273.27Z" transform="translate(-52.62 -178.95)"/><path class="cls-14" d="M590,273.27h0a3,3,0,0,1,3.14-3.4h0a4.27,4.27,0,0,1,4.18,3.4h0a3,3,0,0,1-3.15,3.41h0A4.25,4.25,0,0,1,590,273.27Z" transform="translate(-52.62 -178.95)"/><path class="cls-14" d="M618.66,264.56a2.18,2.18,0,0,1-1.73,2.45,4.72,4.72,0,0,0-.73.26,3.19,3.19,0,0,0-1.43,1.47,6.06,6.06,0,0,0-.59,2.58,26.54,26.54,0,0,0,.4,4,31.87,31.87,0,0,1,.54,6.57,4.94,4.94,0,0,1-1.23,3,7.15,7.15,0,0,1-3.32,1.78,22.52,22.52,0,0,1-3.06.31,3.61,3.61,0,0,1-3.71-2.87l0-.09a2.49,2.49,0,0,1,2.3-2.86,3.38,3.38,0,0,0,.89-.2,2,2,0,0,0,1.12-.94,3.83,3.83,0,0,0,.1-2.1c-.14-1-.35-2.87-.63-5.65a12.94,12.94,0,0,1,.09-4,6.65,6.65,0,0,1,1.14-2.57,7.06,7.06,0,0,1,2.15-1.86,13,13,0,0,1-3.15-2.28,11.13,11.13,0,0,1-2.29-4.07A73.33,73.33,0,0,1,604,250a6.62,6.62,0,0,0-.72-2.42,2.55,2.55,0,0,0-1.31-.94,4.65,4.65,0,0,0-1.07-.21,3.6,3.6,0,0,1-3.18-2.85v0a2.52,2.52,0,0,1,2.85-2.87,24.9,24.9,0,0,1,3.54.36,8.72,8.72,0,0,1,3.42,1.73,7.62,7.62,0,0,1,2.18,3,26.5,26.5,0,0,1,1.31,5.61,27.81,27.81,0,0,0,1.26,5.8A6.11,6.11,0,0,0,614.4,260a5.4,5.4,0,0,0,1.7.69,3.08,3.08,0,0,1,2.33,2.43l.12.74Z" transform="translate(-52.62 -178.95)"/><rect class="cls-14" x="536.42" y="700.75" width="232.87" height="78.32" rx="19.99" transform="translate(-139.67 1213.81) rotate(-90)"/><path class="cls-11" d="M678.41,835.32h-51.1V825h20.11V804.79H627.31V794.47h51.1v10.32H656.06V825h22.35Z" transform="translate(-52.62 -178.95)"/><path class="cls-11" d="M678.41,772.3H636v15.17h-8.64V746.86H636V762h42.46Z" transform="translate(-52.62 -178.95)"/><path class="cls-11" d="M678.41,740.34h-51.1V724.9l34.85-9.27-34.85-9.17V691h51.1v9.58H638.18l40.23,10.14v9.94l-40.23,10.11h40.23Z" transform="translate(-52.62 -178.95)"/><path class="cls-11" d="M678.41,680.46H627.73V670.14H669.8V644.49h8.61Z" transform="translate(-52.62 -178.95)"/><path class="cls-24" d="M364,874.27c-92.95,0-168.3-10.52-168.3-23.49s75.35-23.5,168.3-23.5,168.3,10.52,168.3,23.5" transform="translate(-52.62 -178.95)"/><path class="cls-25" d="M273.65,591.63c-.9-.27-47.28-16.23-53.85-21.7s-14.64-80.85-35.66-78.65c-14.17,1.48-20.16,77.81,8.68,92.93a203.24,203.24,0,0,0,57.86,19.38S277.84,592.88,273.65,591.63Z" transform="translate(-52.62 -178.95)"/><path class="cls-11" d="M177.3,538.79l10.76-47a14.82,14.82,0,0,1,6,4.74c6.22,14,16.17,42.46,16.17,81.14,0,9.62,37,18.23,51.59,21.24-5.67,2.5-11.18,4.68-11.18,4.68a203.24,203.24,0,0,1-57.86-19.38c-8.66-4.54-14.18-14.6-17.28-26.5Z" transform="translate(-52.62 -178.95)"/><polygon class="cls-26" points="142.11 644.58 139.81 663.14 119.52 661.67 118.3 644.58 142.11 644.58"/><path class="cls-27" d="M204.6,624.23s10.53,61.09,2.88,110.27c-2.64,17-13.14,91.84-13.45,94-.16,1.1-8.13,2.72-13,2.25a33.64,33.64,0,0,1-9.8-2.91s-3.42-42.47-4.36-57.17,4.94-38.18,4.94-38.18-14.78-100.19-4.57-108C178.24,616.13,204.6,624.23,204.6,624.23Z" transform="translate(-52.62 -178.95)"/><path class="cls-28" d="M167.28,624.52c4.42-3.38,11.34-4.08,18-3.72-4.62.29-9,1.35-12.06,3.72-10.21,7.81,4.58,108,4.58,108s-5.89,23.48-5,38.18,4.36,57.17,4.36,57.17a34.59,34.59,0,0,0,8.73,2.77,20.34,20.34,0,0,1-4.91.14,33.64,33.64,0,0,1-9.8-2.91s-3.42-42.47-4.36-57.17,4.94-38.18,4.94-38.18S157.07,632.33,167.28,624.52Z" transform="translate(-52.62 -178.95)"/><path class="cls-29" d="M212.32,878.34a6.24,6.24,0,0,0,5.87-.85,3.18,3.18,0,0,0,.69-4.5l-11-11.78a67.73,67.73,0,0,1-9.29-12.6l-5.72-10h0a27.14,27.14,0,0,1-20.78-4.29l-.42-.3s-3.65,6.28-5,19.24a3.21,3.21,0,0,0,1.7,3.19" transform="translate(-52.62 -178.95)"/><polygon class="cls-26" points="83.85 658.05 83.33 667.28 61.24 669.66 62.36 656.51 83.85 658.05"/><path class="cls-14" d="M115,835.87h0a29.66,29.66,0,0,0,19.11,2.68l2-.38s6-19,12-46.52c6.64-30.9,3.49-40.26,6.64-51.5,1.46-5.2,34.56-106.08,13.23-124.72-13.84-12.1-21.87-4-21.87-4s-31.32-20.48-24.45,126.83c.26,5.51-4.88,31.63-6.45,44.76S115,835.87,115,835.87Z" transform="translate(-52.62 -178.95)"/><path class="cls-30" d="M115.11,783c1.57-13.13,6.71-39.25,6.45-44.76C114.69,590.94,146,611.42,146,611.42s5.39-5.42,15-.73a11.22,11.22,0,0,0-8.66,2.59S121,592.79,127.85,740.11c.26,5.51-4.89,31.63-6.45,44.76s-.12,52.86-.12,52.86c.62.32,1.26.6,1.9.87a29.69,29.69,0,0,1-8.19-2.73h0S113.55,796.15,115.11,783Z" transform="translate(-52.62 -178.95)"/><path class="cls-31" d="M114.32,843.24s-20,46.37-16.57,46.93a70.28,70.28,0,0,0,9.89.75c1.73,0,12.9-12.45,16.28-15.95s12.3-11.42,12.55-14.87-.29-18-.29-18c-2,2.28-6.73,3.54-11.68,3.88C119.29,846.34,114.32,843.24,114.32,843.24Z" transform="translate(-52.62 -178.95)"/><path class="cls-32" d="M122.68,491.32s11.66-7.08,45.8-5.63c11.22.47,28.39,7.12,29.35,9.82,14.95,42.23,12.86,57.86,12,88.76-.69,25.73.11,52.12.11,52.12h0l-27.54,4.25a111,111,0,0,1-50-3.73l-6.59-2.06s6.18-28.38,4.88-50c-.84-13.83-6.65-31.13-6.65-31.13Z" transform="translate(-52.62 -178.95)"/><path class="cls-11" d="M131.84,634.59l-6.18-2s5.8-27.95,4.57-49.24c-.78-13.62-6.23-30.66-6.23-30.66l-1.32-61.43a23.7,23.7,0,0,1,5-2.09c3.61,0,8.41,3.22,10.86,6.53,5.56,7.5,8.71,15.72,9.19,32.9s-12,75.89-12,75.89-1.31,16.87,14.28,25.17c5.64,3,8.34,6.55,9.49,9.84A99.31,99.31,0,0,1,131.84,634.59Z" transform="translate(-52.62 -178.95)"/><path class="cls-26" d="M145.06,460.12l1.56,35.59s.28,8.25,14.91,11.79c18.67,4.53,16.05-14.62,13.84-16.7-4.88-4.58-2.94-14.36-2.94-14.36Z" transform="translate(-52.62 -178.95)"/><path class="cls-33" d="M172.43,476.44a75.37,75.37,0,0,0-.17,7.82c-7.14,0-19.11-8.46-26.87-16.65l-.33-7.49Z" transform="translate(-52.62 -178.95)"/><path class="cls-26" d="M134.52,450.12c4.58,17.08,32.84,32.82,42.14,28.42,5.89-2.78,8.78-16.25,6.92-33.84-1.84-17.42-10-26-28.52-25.53C143.49,419.47,130,433,134.52,450.12Z" transform="translate(-52.62 -178.95)"/><path class="cls-11" d="M172,499.64c3.49-2.2,3.52-6.38,3.11-9.07l.23.23c2.21,2.08,4.83,21.23-13.84,16.7-14.63-3.54-14.91-11.79-14.91-11.79l0-1C150.3,500,164.53,504.36,172,499.64Z" transform="translate(-52.62 -178.95)"/><path class="cls-34" d="M133.61,432.3c9.83-21.93,34.52-13.2,45-11.46,6.89,1.14,7.8-4.36,13.2.24,9,7.63-9.17,21.57-19,19.11-12-3-19.91-4.92-21.43,3.08q-.42,2.22-.81,4.2c-2.33-2.33-5.53-2.94-7.35-1.33s-1.57,5.23.78,7.87a7.39,7.39,0,0,0,4.76,2.59,60.93,60.93,0,0,0-3.39,9.49S125,451.49,133.61,432.3Z" transform="translate(-52.62 -178.95)"/><path class="cls-35" d="M260.75,566.9c.92-.25,48.81-15.39,55.67-20.81,6.4-5.07,11.12-74.23,38.6-82.07,1.93-.55,14.55-3.23,19.08-1.67,20.28,7-5.6,86.82-30.44,99.06a208,208,0,0,1-59.72,18.32S256.42,568.07,260.75,566.9Z" transform="translate(-52.62 -178.95)"/><path class="cls-11" d="M367.89,500.89l2.65-37.21a30.88,30.88,0,0,0-21.76,6.8c-10.32,8.67-13.81,27.59-16.14,40.93-1.42,8.14-1.49,21.66-1.34,31a17.56,17.56,0,0,1-8.74,15.51c-12.18,7.12-33.2,19-40.53,21l1.91.82a208,208,0,0,0,59.72-18.32c9.39-4.62,18.91-18.89,26-35.23Z" transform="translate(-52.62 -178.95)"/><polygon class="cls-26" points="282.87 627.35 284.73 646.41 305.55 645.43 307.24 627.97 282.87 627.35"/><path class="cls-36" d="M330,605.12s-7.67,46.37-7.11,71.22,1.73,36.95,2.74,45.32,9.74,92.15,9.74,92.15,8.36,2.63,12.13,2.3a99.61,99.61,0,0,0,11.78-2.49s5-50.27,5.53-72.42c.36-14.4-2.18-22.46-3.58-25.77a6.9,6.9,0,0,1-.43-4.06l11.45-57.58L379,609.33l-38-9.05Z" transform="translate(-52.62 -178.95)"/><path class="cls-37" d="M372.24,653.8,379,609.34l-21.34-5.09c1.1,32.11,2.21,35.34-.24,64-1,11.75-3.86,44.18-3.86,44.18s4.14,9.53,5.09,30.15c1.05,22.67-4.57,62.35-4.89,72.42,2.89-.65,5.42-1.33,5.42-1.33s5-50.28,5.55-72.43c.37-14.39-2.16-22.46-3.56-25.77a6.94,6.94,0,0,1-.44-4Z" transform="translate(-52.62 -178.95)"/><path class="cls-14" d="M416.78,821h0a30.32,30.32,0,0,1-19.62,2.25l-2-.44s-5.68-19.56-11-47.92c-6-31.81-2.53-41.3-5.47-52.89-1.35-5.36-32.61-109.47-10.3-128,14.49-12,22.49-3.54,22.49-3.54s32.59-20.15,21.73,130.45c-.41,5.63,4.18,32.49,5.44,46S416.78,821,416.78,821Z" transform="translate(-52.62 -178.95)"/><path class="cls-38" d="M418,766.9c-1.26-13.49-5.85-40.35-5.44-46,10.86-150.6-21.73-130.45-21.73-130.45s-5.37-5.69-15.28-1.14a11.54,11.54,0,0,1,8.8,2.88S417,572.06,406.11,722.66c-.41,5.62,4.18,32.49,5.44,46s-1.25,54.1-1.25,54.1c-.65.31-1.31.58-2,.84a30.55,30.55,0,0,0,8.46-2.58h0S419.29,780.38,418,766.9Z" transform="translate(-52.62 -178.95)"/><path class="cls-39" d="M397.45,828.65s.66,8.37.45,22.68-1.61,18.29,2.89,21.16,7.58,9.22,11,7.67,7.83-4.1,9.68-10,2.44-21.92.38-25.83-5.54-17-5.54-17Z" transform="translate(-52.62 -178.95)"/><path class="cls-40" d="M358.7,819.42s2.85,7,2.8,13.05a42.63,42.63,0,0,1-2,11.8s-11.34,1.93-17,3.73-15.93,7.22-19.87,7.65-21.06-.28-22.32-3.8,4.17-4.81,7.45-5.36,14-8.55,18.38-11.44,10.45-16.21,10.45-16.21a21,21,0,0,0,8.12,3.6C349.17,823.19,358.7,819.42,358.7,819.42Z" transform="translate(-52.62 -178.95)"/><path class="cls-41" d="M344.42,481.19A27.15,27.15,0,0,1,367,463.7l.27,0c17-1.72,38.1,1.56,45.29,3.47,5.19,1.37.66,60.9-.28,73.18a15.69,15.69,0,0,1-.84,4.06c-1.45,4.21-4.73,14.91-3.86,23.79,1.12,11.32,3.06,47.58,3.06,47.58s-40.42,3.44-54.48,1.1c-5.55-.93-20-4.37-26.29-5.91a3.38,3.38,0,0,1-2.53-3.86c1.93-11.38,8.5-50.15,8.72-53.38C338.34,519.53,330.61,518.05,344.42,481.19Z" transform="translate(-52.62 -178.95)"/><path class="cls-11" d="M412.57,467.14c-1.57-.42-3.82-.9-6.51-1.38-14.49,5.52-13.07,36.86-4.37,56.93,1.93,4.44,6.35,17.39,6.35,17.39A151.09,151.09,0,0,0,405,568.94c-.29,14.59.88,45,.88,45l4.61-1c0-.25,0-.59,0-.9-.52-9.49-2-34.8-2.86-43.92-.87-8.88,2.41-19.58,3.86-23.79a15.69,15.69,0,0,0,.84-4.06c.68-9,3.29-43.26,2.61-61.55-.23-3.61-.53-6.68-.91-9C413.63,468.26,413.17,467.29,412.57,467.14Z" transform="translate(-52.62 -178.95)"/><path class="cls-26" d="M231.38,579.08a4.59,4.59,0,0,1-.22-6c2.42-3,6.4-6.55,10.13-3.4,5.9,5,9.1,14,9,16.3,0,1.31-2.6,2.75-4.78,3.76a4.58,4.58,0,0,1-5.24-1.06Z" transform="translate(-52.62 -178.95)"/><path class="cls-33" d="M241.86,583.55c-1.2-2-5.89-8.58-10.88-10.22a4.59,4.59,0,0,0,.4,5.75l8.92,9.58a4.56,4.56,0,0,0,4.91,1.18C244.09,587.64,242.62,584.83,241.86,583.55Z" transform="translate(-52.62 -178.95)"/><path class="cls-26" d="M395.77,435.64l-.68,26.85s-2.34,18-17.41,21.22c-19.22,4.14-16-15.39-13.73-17.46,5.11-4.56,3.38-14.62,3.38-14.62Z" transform="translate(-52.62 -178.95)"/><path class="cls-33" d="M367.33,451.63a78.22,78.22,0,0,1,0,8c7.3.21,19.77-8.17,27.93-16.34l.53-7.66Z" transform="translate(-52.62 -178.95)"/><path class="cls-26" d="M406.82,425.67c-5.13,17.37-34.46,32.74-43.87,28-6-3-8.57-16.86-6.21-34.82,2.34-17.78,10.88-26.35,29.86-25.38C398.43,394.07,411.94,408.3,406.82,425.67Z" transform="translate(-52.62 -178.95)"/><path class="cls-42" d="M410.88,419.45a5,5,0,0,0-1.59-4.21,4.21,4.21,0,0,0-1.18-8.08H408a4.21,4.21,0,0,0-1.35-4.59,4.13,4.13,0,0,0-2.17-.83l0,0a6.82,6.82,0,0,0-7.16-8.51,6.77,6.77,0,0,0-2.67-3.64,6.85,6.85,0,0,0-7.23-.28,6.09,6.09,0,0,0-1.92-2.19,6,6,0,0,0-8.17,1.4,3.86,3.86,0,0,0-6.65,1.93,6,6,0,0,0-10.14,4.3,6,6,0,0,0,.73,3,3.86,3.86,0,0,0-2.23-1.2,4,4,0,0,0-4.52,3.27,3.85,3.85,0,0,0,.28,2.16,6.63,6.63,0,0,0,5.82,11.61c1.12,0,2.4-.08,3.76-.21a3.65,3.65,0,0,0,3.32,2.34,3.6,3.6,0,0,0,3.26-1.92,4.22,4.22,0,0,0,8.33-.87s0-.07,0-.1a4.22,4.22,0,0,0,4.47-1.73,4.33,4.33,0,0,0,.55-1.2,7.05,7.05,0,0,1,5,2.13,21.39,21.39,0,0,1,4.22,6.05,4.55,4.55,0,0,1,4.8-.14c2.15,1.49,2.21,5.13.13,8.14a8.59,8.59,0,0,1-2.21,2.21A49.24,49.24,0,0,1,395,444a27.83,27.83,0,0,0,7.61-6.68,4.59,4.59,0,0,0,4.25-4.08,4.52,4.52,0,0,0-.29-2.11,4.5,4.5,0,0,0,2.2-1.5,4.59,4.59,0,0,0-.1-5.85c.05-.28.11-.54.15-.82A5,5,0,0,0,410.88,419.45Z" transform="translate(-52.62 -178.95)"/><path class="cls-11" d="M369.92,480.69c-7.32-1.3-5.93-13.55-5.73-14.67l-.05,0c-.07.07-.12.14-.19.2-2.31,2.07-5.49,21.6,13.73,17.46,10.78-2.33,15-12.16,16.59-17.58C391.92,469.26,384,483.19,369.92,480.69Z" transform="translate(-52.62 -178.95)"/><path class="cls-43" d="M375.9,554.49l-96.23-16,2-11.62a4,4,0,0,0-3.31-4.62l-64.62-10.78a4.06,4.06,0,0,0-4.68,3.28l-3.68,21.13h0l-1.19,6.88-2,11.66h0l-13,74.86a9.62,9.62,0,0,0,8,11.12l159.21,26.57A9.81,9.81,0,0,0,367.63,659l16.24-93.4A9.64,9.64,0,0,0,375.9,554.49Z" transform="translate(-52.62 -178.95)"/><path class="cls-44" d="M353.49,683.35,194.28,656.78a9.63,9.63,0,0,1-8-11.12l16.24-93.4a9.78,9.78,0,0,1,11.27-7.9L373,570.92A9.64,9.64,0,0,1,381,582l-16.24,93.4A9.79,9.79,0,0,1,353.49,683.35Z" transform="translate(-52.62 -178.95)"/><path class="cls-45" d="M351.55,666.12l-149.61-25a3.46,3.46,0,0,1-2.86-4l1.68-9.62a3.49,3.49,0,0,1,4-2.83l149.61,25a3.45,3.45,0,0,1,2.86,4l-1.68,9.62A3.5,3.5,0,0,1,351.55,666.12Z" transform="translate(-52.62 -178.95)"/><path class="cls-26" d="M210,658a.91.91,0,0,1-.07,1.64c-3.58,1.56-11.74,5-14.58,4.85-3.69-.15-23.47-11.35-25.67-15.1s6.84-12.32,6.84-12.32l10.36.46a1.27,1.27,0,0,1,1.25,1.63c-.41,1.15-1,2,1.07,4.52C192.55,647.77,205.51,655.57,210,658Z" transform="translate(-52.62 -178.95)"/><path class="cls-33" d="M169.65,649.38a3.13,3.13,0,0,1-.15-.32l1.07-3.87a67.63,67.63,0,0,0,17.37,11.94,80,80,0,0,0,15.11,5.29h0c-3.08,1.16-6.18,2.13-7.72,2.06C191.63,664.33,171.85,653.13,169.65,649.38Z" transform="translate(-52.62 -178.95)"/><path class="cls-21" d="M171.12,651.14s-19.36-9.42-35.14-22.67c-14-11.73-26.37-24-30-29.06-6.6-9.08-2.1-113.4,20.17-108.69,34.91,7.39,4.9,98.87,8.11,101.19S179,637.32,179,637.32Z" transform="translate(-52.62 -178.95)"/><path class="cls-11" d="M126.12,490.72a20,20,0,0,1,2,.56c-18.11,8.11-24.93,89.83-13.74,106,9.49,13.68,45.27,41,59.24,49.45l-2.53,4.43a206.74,206.74,0,0,1-21.49-12.52A158.8,158.8,0,0,1,136,628.47c-14-11.73-26.37-24-30-29.06a5.28,5.28,0,0,1-.59-1.15C99.66,583.78,104.56,486.16,126.12,490.72Z" transform="translate(-52.62 -178.95)"/><path class="cls-16" d="M171.12,651.14s-1.29-.63-3.47-1.78c1.53-1.65,3.85-4.21,5.21-6a75.33,75.33,0,0,0,4.69-7.56l1.46,1.51Z" transform="translate(-52.62 -178.95)"/><path class="cls-26" d="M359.56,650.67a.94.94,0,0,0,.42,1.63c3.91.82,12.8,2.54,15.63,1.83,3.66-.92,21.15-16.28,22.58-20.5s-9.42-10.92-9.42-10.92l-10.3,2.63a1.28,1.28,0,0,0-.9,1.89c.65,1.07,1.42,1.78-.14,4.75C374.9,636.8,363.53,647.31,359.56,650.67Z" transform="translate(-52.62 -178.95)"/><path class="cls-33" d="M398.19,633.63a3.38,3.38,0,0,0,.08-.34l-1.87-3.66a69.23,69.23,0,0,1-14.93,15.58,81.87,81.87,0,0,1-14,8.46h0c3.34.51,6.65.84,8.18.46C379.27,653.21,396.76,637.85,398.19,633.63Z" transform="translate(-52.62 -178.95)"/><path class="cls-21" d="M397.09,635.71s17.44-13.48,30.5-30.05c11.55-14.66,21.42-29.57,24-35.38,2.27-5-4.4-30.88-10.87-56.42-9.15-36.08-25.57-53.69-35.11-46.7-27,19.77,18.73,98.58,16.08,101.49S386.3,623.5,386.3,623.5Z" transform="translate(-52.62 -178.95)"/><path class="cls-11" d="M440.76,513.86c-9.15-36.08-25.57-53.69-35.11-46.7-.22.15-.39.35-.59.51a11.56,11.56,0,0,1,7,2.84c6.07,5.36,13.43,18.2,20,34.24s18.93,55.81,16.79,62-13.69,25.54-28.72,39.13c-13.95,12.6-26.85,22.17-28.66,23.5l2.78,3.14,3.09,3c2.08-1.63,18.08-14.39,30.27-29.86,11.55-14.66,21.42-29.57,24-35.38C453.9,565.26,447.23,539.4,440.76,513.86Z" transform="translate(-52.62 -178.95)"/><path class="cls-16" d="M397.09,635.71s1.16-.9,3.1-2.51c-1.87-1.33-4.74-3.42-6.47-4.92a78.76,78.76,0,0,1-6.28-6.6l-1.14,1.82Z" transform="translate(-52.62 -178.95)"/><polygon class="cls-26" points="732.52 688.68 731.44 680.57 716.12 690.56 722.25 705.41 732.52 688.68"/><path class="cls-46" d="M785.07,865.93s-7.36,14.38-11.57,20.14-9.12,12.24-11.93,13.19-9.12,3.15-11.22,4.33-2.22,8,0,7.82c2-.15,24.2-3.85,24.2-3.85l13.33-16.44,2.72-9.24a14.51,14.51,0,0,0-5.53-16Z" transform="translate(-52.62 -178.95)"/><path class="cls-47" d="M737.71,647.66C723.56,737.83,718.06,769,720.36,784.15c3.82,25.19,39.95,57.22,49.42,88.5.93,3.09,15.43-7.69,15.43-7.69s-8.7-42.7-14.73-55.62c-3.28-7-11.49-19-13.68-22-3.43-4.8,13.26-39.47,18.24-57.55,8.12-29.48,11.09-60.87,5.24-75C776.71,646.17,737.71,647.66,737.71,647.66Z" transform="translate(-52.62 -178.95)"/><path class="cls-48" d="M759,648.1h0L786.55,652c-1.26,12.16-7.91,64.71-11.51,77.79-5,18.08-21.67,52.75-18.24,57.55,2.19,3.07,10.4,15,13.68,22,6,12.92,14.73,55.62,14.73,55.62s-4.49,3.33-8.63,5.76c-3.25-11.89-11.62-41.27-18-52.59-5.3-9.35-13.51-20.64-18.57-27.36a14.37,14.37,0,0,1-2.27-13c3.9-12.56,11.79-39.17,14.82-58.32C756.62,693.64,759,648.21,759,648.1Z" transform="translate(-52.62 -178.95)"/><path class="cls-49" d="M768.7,482.8s-11-31-17.43-29.79,1.44,26.19-8.06,34.48-10.38,18.76-8.63,22.68,17,0,17,0Z" transform="translate(-52.62 -178.95)"/><path class="cls-50" d="M763.16,430.54s-1.09-14,16-11.34c13,2,23.4,17.45,24.71,27.48s-3.72,23.12,2.62,30.32,22.75,5.88,19.9,33.8-33.45,10.91-33.45,10.91l-28.21-19,5.68-43.4Z" transform="translate(-52.62 -178.95)"/><path class="cls-26" d="M675.05,607.07l-3.85,3.29a13.31,13.31,0,0,1-11.15,3l-11.9-2.26a6.91,6.91,0,0,0-3.66.28l-16.39,5.82a1.25,1.25,0,0,0-.37,2.14l5.22,4.27a7.15,7.15,0,0,0,6.36,1.37h0a16.13,16.13,0,0,1,10.35.69c4.08,1.71,9.83,3.89,13.59,4.44,6.4.92,12.35-5.45,12.35-5.45l12-7.51Z" transform="translate(-52.62 -178.95)"/><path class="cls-33" d="M639.31,624.94h0a7.13,7.13,0,0,1-5.53-.8c3-1,6.87-2.08,9.34-2.07,4.48,0,18.52,4.44,22.19,3.92s6.25-3.11,12.19-7.84c2.64-2.09,5.91-1.49,8.73-.17l-10.63,6.64s-6,6.37-12.35,5.45c-3.76-.55-9.51-2.73-13.59-4.44A16.13,16.13,0,0,0,639.31,624.94Z" transform="translate(-52.62 -178.95)"/><path class="cls-16" d="M721.57,570.93c14.23-70.78,27.1-74.29,27.1-74.29l11.21,49.1L738,586.64c-2.08,4.15-33.35,27.31-52.19,34.23l-10.24,3.75-8-12L720,573.37A4.12,4.12,0,0,0,721.57,570.93Z" transform="translate(-52.62 -178.95)"/><path class="cls-19" d="M732.28,578.15c5-10.77,13.88-68.47,13.88-68.47L759,547.47,738,586.64c-2.08,4.15-33.35,27.31-52.19,34.23l-10.24,3.75-2.07-3.12C680.47,617,721.2,601.9,732.28,578.15Z" transform="translate(-52.62 -178.95)"/><polygon class="cls-26" points="752.25 688.26 751.17 710.09 740.39 722.19 726.72 714.49 736.33 697.86 752.25 688.26"/><path class="cls-51" d="M789,876.81s2.44-60.18-7-114.4c-1.6-9.14-26.88-102-11.52-116.83,10.25-9.91,30.43-19,39.84-22.51a29.1,29.1,0,0,1,7.12,3.66s11,14.14,9.6,32.47-11.63,89.55-12.82,95.87,12.18,24.07,8.11,47.22c-3.78,21.49-16.1,66.77-18.24,74.52Z" transform="translate(-52.62 -178.95)"/><path class="cls-47" d="M798.58,876.81c1.61-8.66,9.18-59.21,9.3-73.79.13-15.74-5.92-33.23-7.32-41.66s-1.06-66.78.7-87.42-3.09-40.69-3.09-40.69l21.26-3.46C822.54,634.91,828,646,827,659.2c-1.43,18.32-11.63,89.55-12.82,95.87s12.18,24.07,8.11,47.22c-3.78,21.49-16.1,66.77-18.24,74.52Z" transform="translate(-52.62 -178.95)"/><path class="cls-52" d="M807.69,902s.24,4.78-5.73,6.88-5.86,2.57-5.86,2.57-10.71,9-17.73,9.7-15.34,1.72-18-1c-1.76-1.75-.29-11.54,4.94-13.29s16.1-17.81,16.1-19.75,10.07-3.74,14.26,2.31c3.5,5.08,8.27-3.35,8.27-3.35Z" transform="translate(-52.62 -178.95)"/><path class="cls-53" d="M807.53,500h0c-5.18-2.29-10.49-6.62-23.32-12.06h0l-2.74,6.37a7,7,0,0,1-12.62.45l-3.27-6.83h0c-.17.08-10,4.43-15.47,6.91a6.89,6.89,0,0,0-3.9,4.76c-.68,3-1.9,7.85-3.89,14.1-1.22,3.84-4.37,11.55-5.58,16.05-4.19,15.53,4,26.28,5,43.67,1.5,26.39-4.94,74.1-4.94,74.1s4.06,5.49,35.64,9c18.23,2,54.44-12,54.68-12.08h0c-.1-.19-12.71-24.33-17.76-35.84-3.9-8.89-3.54-12.65-5.79-28.9-1.24-8.87,16.29-35.39,16.61-43.14C820.24,534.8,799.22,522,807.53,500Z" transform="translate(-52.62 -178.95)"/><path class="cls-19" d="M790.78,568.58c1.82-9.6,5-14,8-24.41,1.68-5.82-2.59-12.8-4.39-20-3.59-14.41-3.6-26.78,6.91-27.59a65.1,65.1,0,0,0,6.25,3.38c-8.31,22,12.71,34.85,12.64,36.53-.32,7.75-17.85,34.27-16.61,43.14,2.25,16.25,1.89,20,5.79,28.9,5.07,11.56,17.76,35.84,17.76,35.84a265,265,0,0,1-26.28,8.38C798.51,641.41,789.05,577.74,790.78,568.58Z" transform="translate(-52.62 -178.95)"/><path class="cls-16" d="M767,570.4c-4.71,2.26-12.87,6.08-20.78,4a5.3,5.3,0,0,0-4.44.5c0-.52,0-1-.08-1.54a66,66,0,0,0-1.06-8.49c8,2.59,16.75,4.19,21.21,2.38C767.69,564.92,771.73,568.14,767,570.4Z" transform="translate(-52.62 -178.95)"/><path class="cls-26" d="M767.47,618.73a41,41,0,0,0,5,3.1,3.23,3.23,0,0,0,3.17-.06l12.75-7.45a11.74,11.74,0,0,1,4.09-1.47l16.92-1.22,6-6.49-6.83-9.27-21.24-.71a2.29,2.29,0,0,0-1.82.8L767.29,617A1.17,1.17,0,0,0,767.47,618.73Z" transform="translate(-52.62 -178.95)"/><path class="cls-16" d="M835.92,564.69s-24.2-20-35.77-37.78c-8.41-12.95-6.3-24.85-2.1-26.76,7.55-3.43,16.22,1.15,29.46,13.12C838.82,523.5,865,553.67,865,565.65c0,20-55.59,46-55.59,46a16.56,16.56,0,0,0-3.21-15.72Z" transform="translate(-52.62 -178.95)"/><path class="cls-33" d="M791.9,607.76s14.8,2.43,18.13,1.14a23.84,23.84,0,0,0,3.55-1.81l-4.17,4.54-16.92,1.22a11.74,11.74,0,0,0-4.09,1.47l-12.75,7.45a3.28,3.28,0,0,1-2.33.37C775.76,618.64,791.9,607.76,791.9,607.76Z" transform="translate(-52.62 -178.95)"/><path class="cls-19" d="M798.05,500.15c7.55-3.43,16.22,1.15,29.46,13.12C838.82,523.5,865,553.67,865,565.65c0,20-55.59,46-55.59,46a13,13,0,0,0,.62-2.73h0c38.84-22.15,43.75-37.67,44.27-46.07.48-7.59-49.7-50.29-59.29-58.38C795.67,502.26,796.76,500.74,798.05,500.15Z" transform="translate(-52.62 -178.95)"/><path class="cls-26" d="M773.41,508h0a13.32,13.32,0,0,0,14.8-11.67l-1.66-33.55L765,465.29l-3.25,27.95A13.32,13.32,0,0,0,773.41,508Z" transform="translate(-52.62 -178.95)"/><path class="cls-33" d="M787.44,480.87c-6.08,7.64-14.68,12.86-25.4,11.61a1.83,1.83,0,0,1-.25-.06L765,465.29l21.6-2.51Z" transform="translate(-52.62 -178.95)"/><path class="cls-26" d="M747,438.74c-.81,14.9,5.85,44.84,15.85,44.84,17.94,0,27.09-19,27.91-33.88S783,420.62,773,420.08,747.78,423.85,747,438.74Z" transform="translate(-52.62 -178.95)"/><path class="cls-54" d="M747,438.74c.7-12.7,11.9-17.7,21.37-18.56a2.66,2.66,0,0,1,.21.33c2.14,4.69-4.64,13.5-9.31,15.79a22.41,22.41,0,0,0-11.73,14.26A71.26,71.26,0,0,1,747,438.74Z" transform="translate(-52.62 -178.95)"/><path class="cls-55" d="M766,420.39c-6.35,1.56-8.75,16.75,7.63,20.71,6.95,1.68,11.43,4.95,9.37,10.87-.27.78-4.11,6.95-4.29,7.74-3.78,16.36,18.44,19.23,18.44,19.23s-5-5.54-2.68-16.17C799.86,438.11,794.21,413.44,766,420.39Z" transform="translate(-52.62 -178.95)"/><ellipse class="cls-16" cx="477.01" cy="647.57" rx="26.77" ry="30.26" transform="translate(-374.13 372.42) rotate(-46.76)"/><path class="cls-56" d="M477.36,665,460,648.76a3,3,0,1,1,4-4.3l11.17,10.42,12.15-23.27a2.93,2.93,0,0,1,4.2-.94A3.38,3.38,0,0,1,493,635Z" transform="translate(-52.62 -178.95)"/></g></svg>